<!DOCTYPE svg PUBLIC "-//W3C//DTD SVG 1.1//EN" "http://www.w3.org/Graphics/SVG/1.1/DTD/svg11.dtd">

<!-- Uploaded to: SVG Repo, www.svgrepo.com, Transformed by: SVG Repo Mixer Tools -->
<svg fill="#1da1f2" height="200px" width="200px" version="1.1" id="Layer_1" xmlns="http://www.w3.org/2000/svg" xmlns:xlink="http://www.w3.org/1999/xlink" viewBox="-112.64 -112.64 737.28 737.28" xml:space="preserve" stroke="#1da1f2" stroke-width="0.00512">

<g id="SVGRepo_bgCarrier" stroke-width="0"/>

<g id="SVGRepo_tracerCarrier" stroke-linecap="round" stroke-linejoin="round" stroke="#CCCCCC" stroke-width="1.024"/>

<g id="SVGRepo_iconCarrier"> <g transform="translate(1 1)"> <g> <g> <path d="M163.447,180.369c-18.224,0-36.447,3.471-54.671,9.546l-4.339,1.736l-0.14,0.84 C42.892,216.473-0.566,276.181-0.566,346.119c0,28.211,7.077,54.755,19.544,77.964c0.118,0.341,0.251,0.678,0.415,1.005 c2.042,3.663,4.22,7.22,6.504,10.688c27.47,42.346,73.846,71.261,127.211,74.837c0.035,0.002,0.07,0.004,0.105,0.007 c1.618,0.107,3.242,0.191,4.873,0.251c0.347,0.013,0.693,0.028,1.041,0.039c1.724,0.053,3.452,0.089,5.188,0.089 c1.104,0,2.204-0.016,3.3-0.042c11.645-0.228,22.994-1.652,33.925-4.171c2.9-0.582,5.819-1.206,8.768-1.862 c0.496-0.248,0.971-0.535,1.426-0.848c67.974-20.351,117.462-83.328,117.462-157.959c0-31.338-8.725-60.622-23.88-85.56 C276.784,212.49,223.823,180.369,163.447,180.369z M140.017,284.505c1.736,0.868,3.471,1.736,5.207,2.603 c11.281,5.207,20.827,9.546,27.769,6.942c6.942-1.736,12.149-8.678,13.885-16.488c2.603-8.678,0-18.224-5.207-23.431 c-0.868-0.868,0-3.471,0-3.471c0.868,0.868,1.736,0.868,3.471,2.603c5.207,5.207,11.281,6.942,18.224,4.339 c12.149-3.471,19.959-19.092,21.695-32.109c0.868-3.471,0.868-7.81,0-11.281c45.125,20.827,78.102,63.349,84.176,115.417h-3.471 c-5.207-4.339-13.017-10.414-21.695-7.81c-11.281,4.339-13.017,18.224-14.753,29.505c0,2.603-0.868,6.075-0.868,6.942 c-3.471,5.207-7.81,7.81-13.017,7.81c-11.281,0-24.298-10.414-31.241-20.827c-0.868-1.736-0.868-4.339-1.736-6.942 c-0.868-5.207-1.736-11.281-7.81-14.753c-2.603-0.868-4.339-1.736-6.942-1.736c-4.339,0-9.546,1.736-15.62,3.471l-1.736,0.868 c-13.885,6.075-13.885,6.075-20.827,0.868c-1.736-1.736-2.603-3.471-3.471-6.075c-1.736-6.075-6.942-19.091-26.902-13.885 c-1.736,0-2.603,0.868-3.471,0.868C139.149,301.861,141.753,294.051,140.017,284.505z M111.38,222.892 c2.603-4.339,6.075-9.546,7.81-15.62c23.431-6.942,48.597-8.678,71.159-5.207c0,0.868-0.868,0.868-0.868,0.868 c-5.207,2.603-13.885,6.075-16.488,6.075c-14.753,0-26.902,8.678-37.315,15.62c-5.207,3.471-9.546,6.942-14.753,9.546 c-4.339,2.603-7.81-0.868-8.678-1.736C110.512,229.834,108.776,226.363,111.38,222.892z M190.349,441.576h31.241l-4.339,13.017 l-15.62,15.62c-1.736,1.736-2.603,3.471-2.603,6.075v13.017c-11.281,2.603-23.43,4.339-34.712,4.339 c-1.497,0-2.99-0.028-4.48-0.073c-0.301-0.009-0.601-0.023-0.902-0.034c-1.332-0.049-2.662-0.111-3.988-0.196 c-0.108-0.007-0.216-0.014-0.324-0.021c-42.543-2.829-81.86-24.144-107.701-57.784c-0.188-0.247-0.38-0.491-0.567-0.739 c-0.41-0.54-0.806-1.093-1.209-1.64c-2.331-3.189-4.54-6.473-6.614-9.85l18.179-18.179l15.62-7.81l30.373-7.81l10.414,6.942 c0,0.868,0,0.868,0.868,0.868l20.827,8.678c0.868,0.868,2.603,0.868,3.471,0.868h24.298l19.092,6.075v19.959 C181.671,438.105,185.142,441.576,190.349,441.576z M216.383,484.208v-4.448l14.753-15.62c0.868-0.868,1.736-2.603,1.736-3.471 l8.678-26.034c0.868-2.603,0.868-5.207-0.868-7.81c-1.736-1.736-4.339-3.471-6.942-3.471h-34.712v-17.356 c0-3.471-2.603-6.942-6.075-7.81l-26.034-8.678c-0.868-0.868-1.736-0.868-2.603-0.868h-24.298l-19.092-7.81l-13.017-7.81 c-2.603-0.868-4.339-1.736-6.942-0.868l-34.712,8.678c-0.868,0-0.868,0.868-1.736,0.868l-17.356,8.678 c-0.868,0.868-1.736,0.868-2.603,1.736l-14.755,14.755c-8.362-18.519-13.014-39.083-13.014-60.748 c0-56.237,31.349-105.047,77.55-129.943c-3.337,8.635-1.72,18.462,4.891,25.808c7.81,8.678,19.091,11.281,29.505,6.075 c6.075-3.471,12.149-6.942,17.356-11.281c8.678-6.075,17.356-12.149,26.902-12.149c6.942,0,14.753-3.471,23.43-6.942 c4.339-0.868,9.546-3.471,12.149-4.339c2.603,3.471,1.736,10.414,0.868,12.149c-2.603,8.678-7.81,14.753-10.414,14.753 c-11.281-10.414-20.827-7.81-26.902-2.603c-6.942,6.942-8.678,19.959-1.736,27.77c1.736,1.736,2.603,5.207,1.736,7.81 c0,1.736-1.736,3.471-2.603,4.339c-2.603-0.868-10.414-4.339-14.753-6.075c-12.149-5.207-21.695-10.414-28.637-3.471 c-6.075,6.075-1.736,14.753-0.868,17.356c2.603,6.942-0.868,13.885-5.207,20.827c-3.471,5.207-6.942,11.281-2.603,17.356 c4.339,6.942,13.885,5.207,27.769,1.736c3.471-0.868,5.207-0.868,5.207-0.868c0.868,0.868,1.736,2.603,1.736,3.471 c1.736,4.339,3.471,9.546,8.678,13.885c13.885,11.281,19.092,9.546,38.183,0.868l2.603-2.603 c1.736-0.868,3.471-1.736,4.339-1.736v0.868c0,4.339,0.868,9.546,4.339,13.885c8.678,13.885,26.902,28.637,45.993,28.637 c8.678,0,19.959-2.603,28.637-16.488c1.736-2.603,2.603-6.942,3.471-13.017c0-3.471,0.868-10.414,2.603-13.885 c0.868,0.868,3.471,1.736,6.075,5.207l2.603,2.603h12.149C311.841,409.354,272.203,463.193,216.383,484.208z"/> <path d="M492.342,216.817c-1.736-4.339-6.942-6.942-11.281-5.207s-6.942,6.942-5.207,11.281c0.868,3.471,4.339,5.207,8.678,6.075 c0.868,0,1.736-0.868,2.603-0.868C491.475,226.363,494.078,221.156,492.342,216.817z"/> <path d="M494.078,251.529c-5.207,0.868-7.81,6.075-6.942,10.414c0.868,4.339,4.339,6.942,8.678,6.942c0,0,0.868,0,1.736,0 c5.207-0.868,7.81-6.075,6.942-10.414C503.624,253.264,498.417,250.661,494.078,251.529z"/> <path d="M493.21,302.729c0,4.339,3.471,7.81,8.678,7.81h0.868c4.339-0.868,7.81-4.339,7.81-9.546 c-0.868-4.339-5.207-7.81-9.546-7.81C496.681,294.051,493.21,298.39,493.21,302.729z"/> <path d="M490.607,418.146c-5.207-1.736-9.546,0.868-11.281,5.207c-1.736,5.207,0.868,9.546,5.207,11.281 c0.868,0,1.736,0.868,2.603,0.868c4.339,0,7.81-2.603,8.678-6.075C497.549,424.22,494.946,419.881,490.607,418.146z"/> <path d="M499.285,376.492c-5.207-0.868-9.546,2.603-10.414,6.942c-0.868,5.207,2.603,9.546,6.942,10.414 c0.868,0.868,0.868,0.868,1.736,0c4.339,0,7.81-2.603,8.678-6.942C507.095,381.698,503.624,377.359,499.285,376.492z"/> <path d="M501.888,335.705c-4.339,0-8.678,3.471-8.678,8.678c0,4.339,3.471,8.678,8.678,8.678c5.207,0,8.678-4.339,7.81-8.678 C510.566,340.044,506.227,335.705,501.888,335.705z"/> <path d="M474.119,458.064c-4.339-1.736-9.546,0-11.281,4.339s0,9.546,4.339,11.281c1.736,0,2.603,0.868,3.471,0.868 c3.471,0,6.075-1.736,7.81-5.207C480.193,465.007,478.458,459.8,474.119,458.064z"/> <path d="M295.353,38.051c0.868,0,1.736,0,3.471,0c3.471,0,6.075-1.736,7.81-5.207c1.736-4.339-0.868-9.546-5.207-11.281 c-4.339-1.736-9.546,0.868-11.281,5.207S291.014,36.315,295.353,38.051z"/> <path d="M255.434,25.034c0.868,0,0.868,0,1.736,0.868c4.339,0,7.81-2.603,8.678-6.942c1.736-4.339-1.736-9.546-6.075-10.414 c-4.339-1.736-9.546,1.736-10.414,6.075C247.624,18.959,251.095,24.166,255.434,25.034z"/> <path d="M128.736,20.695c0.868,0,0.868,0,1.736,0c4.339-0.868,7.81-6.075,6.942-10.414S131.339,2.471,127,3.339 c-4.339,0.868-7.81,5.207-6.942,10.414C120.058,18.092,124.397,20.695,128.736,20.695z"/> <path d="M46.295,47.597c0.868,0,1.736-0.868,3.471-0.868c4.339-1.736,6.075-6.942,4.339-11.281s-6.942-6.075-11.281-4.339 s-6.075,6.942-4.339,11.281C39.353,45.861,42.824,47.597,46.295,47.597z"/> <path d="M213.78,18.092h0.868c4.339,0,7.81-3.471,8.678-7.81c0-5.207-3.471-8.678-7.81-9.546 c-5.207-0.868-8.678,3.471-9.546,7.81C205.969,12.885,209.441,17.224,213.78,18.092z"/> <path d="M87.081,31.108c0.868,0,1.736,0,2.603,0c4.339-1.736,6.942-6.942,5.207-11.281c-1.736-4.339-6.942-6.942-11.281-5.207 c-4.339,0.868-6.942,6.075-6.075,10.414C79.271,29.373,82.742,31.108,87.081,31.108z"/> <path d="M171.258,16.356c5.207,0,8.678-3.471,8.678-8.678S175.597-1,171.258-1c-5.207,0-8.678,4.339-8.678,8.678 C162.58,12.885,166.919,16.356,171.258,16.356z"/> <path d="M502.756,111.814c0-52.936-42.522-95.458-95.458-95.458c-52.936,0-95.458,42.522-95.458,95.458 c0,21.184,6.815,40.696,18.377,56.487c0.395,0.753,0.898,1.419,1.496,1.99c17.421,22.533,44.732,36.981,75.585,36.981 C460.234,207.271,502.756,164.749,502.756,111.814z M407.298,189.915c-18.751,0-35.872-6.492-49.281-17.356h49.281 c5.207,0,8.678-3.471,8.678-8.678s-3.471-8.678-8.678-8.678h-65.08c-6.731-10.125-11.15-21.937-12.54-34.712h42.908 c5.207,0,8.678-3.471,8.678-8.678s-3.471-8.678-8.678-8.678h-42.908c1.01-9.29,3.626-18.067,7.567-26.06 c0.208,0.012,0.415,0.027,0.629,0.027h86.78c5.207,0,8.678-3.471,8.678-8.678c0-5.207-3.471-8.678-8.678-8.678h-75.731 c14.265-16.004,35.062-26.034,58.375-26.034c34.242,0,63.064,21.626,73.701,52.068h-21.633c-5.207,0-8.678,3.471-8.678,8.678 s3.471,8.678,8.678,8.678h25.552c0.31,2.849,0.482,5.741,0.482,8.678c0,5.975-0.68,11.778-1.929,17.356h-50.139 c-5.207,0-8.678,3.471-8.678,8.678s3.471,8.678,8.678,8.678h44.032C464.664,172.316,438.187,189.915,407.298,189.915z"/> </g> </g> </g> </g>

</svg>