<?xml version="1.0" encoding="iso-8859-1"?>
<!-- Uploaded to: SVG Repo, www.svgrepo.com, Generator: SVG Repo Mixer Tools -->
<svg height="200px" width="200px" version="1.1" id="Layer_1" xmlns="http://www.w3.org/2000/svg" xmlns:xlink="http://www.w3.org/1999/xlink" 
	 viewBox="0 0 512 512" xml:space="preserve">
<circle style="fill:#164370;" cx="256" cy="256" r="247.83"/>
<circle style="fill:#276AAD;" cx="256" cy="256" r="182.468"/>
<circle style="fill:#3891E9;" cx="256" cy="256" r="117.106"/>
<path style="fill:#F5AC51;" d="M256,212.426L245.106,256L256,299.574c24.065,0,43.574-19.509,43.574-43.574
	C299.574,231.935,280.065,212.426,256,212.426z"/>
<path style="fill:#FFD159;" d="M212.426,256c0,24.065,19.509,43.574,43.574,43.574v-87.149
	C231.935,212.426,212.426,231.935,212.426,256z"/>
<path style="fill:#E26142;" d="M256,117.106l-10.894,21.787L256,160.681c12.033,0,21.787-9.754,21.787-21.787
	S268.033,117.106,256,117.106z"/>
<path style="fill:#F1866D;" d="M73.532,228.766L62.638,256l10.894,27.234c15.041,0,27.234-12.193,27.234-27.234
	S88.573,228.766,73.532,228.766z"/>
<path style="fill:#7CC8EF;" d="M80.758,48.077L69.864,80.758l10.894,32.681c18.05,0,32.681-14.632,32.681-32.681
	S98.807,48.077,80.758,48.077z"/>
<path style="fill:#8FE1EA;" d="M48.077,80.758c0,18.049,14.631,32.681,32.681,32.681V48.077
	C62.709,48.077,48.077,62.709,48.077,80.758z"/>
<path style="fill:#F1866D;" d="M234.213,138.894c0,12.033,9.754,21.787,21.787,21.787v-43.574
	C243.967,117.106,234.213,126.861,234.213,138.894z"/>
<path style="fill:#F5AC51;" d="M46.298,256c0,15.041,12.193,27.234,27.234,27.234v-54.468C58.491,228.766,46.298,240.959,46.298,256
	z"/>
<circle style="fill:#FFFFFF;" cx="471.149" cy="256" r="8.17"/>
<g>
	<circle style="fill:#68AEF4;" cx="61.505" cy="450.495" r="8.17"/>
	<circle style="fill:#68AEF4;" cx="450.495" cy="61.505" r="8.17"/>
</g>
<g>
	<circle style="fill:#FFFFFF;" cx="408.129" cy="408.129" r="8.17"/>
	<circle style="fill:#FFFFFF;" cx="103.871" cy="408.129" r="8.17"/>
	<circle style="fill:#FFFFFF;" cx="394.382" cy="198.678" r="8.17"/>
</g>
<path d="M256,193.362c-4.512,0-8.17,3.657-8.17,8.17v3.375c-8.182,1.304-15.725,4.536-22.16,9.208l-2.407-2.408
	c-3.191-3.19-8.364-3.19-11.554,0c-3.191,3.192-3.191,8.364,0,11.555l2.406,2.406c-4.673,6.435-7.904,13.979-9.208,22.16h-3.375
	c-4.512,0-8.17,3.657-8.17,8.17c0,4.513,3.658,8.17,8.17,8.17h3.375c1.304,8.182,4.535,15.725,9.208,22.16l-2.406,2.406
	c-3.191,3.192-3.191,8.364,0,11.555c1.595,1.595,3.686,2.392,5.777,2.392c2.09,0,4.182-0.797,5.777-2.392l2.407-2.408
	c6.435,4.673,13.979,7.904,22.16,9.208v3.377c0,4.513,3.658,8.17,8.17,8.17s8.17-3.657,8.17-8.17v-3.375
	c8.182-1.304,15.725-4.536,22.16-9.208l2.407,2.408c1.595,1.595,3.686,2.392,5.777,2.392c2.091,0,4.182-0.797,5.777-2.392
	c3.191-3.192,3.191-8.364,0-11.555l-2.406-2.406c4.673-6.435,7.904-13.979,9.208-22.16h3.375c4.512,0,8.17-3.657,8.17-8.17
	c0-4.513-3.658-8.17-8.17-8.17h-3.375c-1.304-8.182-4.535-15.725-9.208-22.16l2.406-2.406c3.191-3.192,3.191-8.364,0-11.555
	c-3.191-3.19-8.364-3.19-11.554,0l-2.407,2.407c-6.435-4.673-13.979-7.904-22.16-9.208v-3.377
	C264.17,197.019,260.512,193.362,256,193.362z M291.404,256c0,19.522-15.883,35.404-35.404,35.404
	c-19.521,0-35.404-15.882-35.404-35.404c0-19.522,15.883-35.404,35.404-35.404C275.521,220.596,291.404,236.478,291.404,256z"/>
<path d="M437.019,74.981C388.667,26.628,324.38,0,256,0c-54.499,0-106.231,16.793-150.075,48.615
	c-6.943-5.448-15.678-8.708-25.166-8.708c-22.526,0-40.851,18.325-40.851,40.851s18.325,40.851,40.851,40.851
	s40.851-18.325,40.851-40.851c0-7.123-1.837-13.824-5.056-19.662C157.37,31.796,205.411,16.34,256,16.34
	c132.149,0,239.66,107.51,239.66,239.66S388.149,495.66,256,495.66S16.34,388.149,16.34,256c0-41.906,10.992-83.16,31.789-119.304
	c2.25-3.911,0.904-8.906-3.008-11.156c-3.911-2.25-8.906-0.905-11.156,3.008C11.744,167.167,0,211.239,0,256
	c0,68.38,26.628,132.667,74.981,181.019S187.62,512,256,512s132.667-26.628,181.019-74.981S512,324.38,512,256
	S485.372,123.333,437.019,74.981z M80.758,105.268c-13.516,0-24.511-10.996-24.511-24.511s10.995-24.511,24.511-24.511
	s24.511,10.996,24.511,24.511S94.273,105.268,80.758,105.268z"/>
<path d="M256,65.362c-45.96,0-90.353,16.586-125,46.701c-32.58,28.319-54.561,66.776-62.402,108.884
	c-17.193,2.41-30.471,17.205-30.471,35.053c0,19.522,15.883,35.404,35.404,35.404s35.404-15.882,35.404-35.404
	c0-15.534-10.06-28.754-24.004-33.51C100.71,141.706,172.922,81.702,256,81.702c96.108,0,174.298,78.189,174.298,174.298
	S352.108,430.298,256,430.298c-74.542,0-140.828-47.357-164.947-117.841c-1.461-4.271-6.106-6.55-10.375-5.085
	c-4.269,1.461-6.546,6.105-5.085,10.374C101.972,394.84,174.472,446.638,256,446.638c105.118,0,190.638-85.52,190.638-190.638
	S361.118,65.362,256,65.362z M92.596,256c0,10.511-8.553,19.064-19.064,19.064S54.468,266.511,54.468,256
	s8.553-19.064,19.064-19.064S92.596,245.489,92.596,256z"/>
<path d="M199.335,144.282c-42.321,21.504-68.611,64.312-68.611,111.718c0,69.078,56.199,125.277,125.277,125.277
	S381.277,325.078,381.277,256c0-58.067-39.86-108.251-95.68-121.744c-2.235-14.324-14.655-25.32-29.597-25.32
	c-16.519,0-29.957,13.439-29.957,29.957c0,16.518,13.438,29.957,29.957,29.957c12.361,0,22.996-7.526,27.567-18.237
	c47.571,12.372,81.369,55.527,81.369,105.386c0,60.068-48.869,108.936-108.936,108.936S147.064,316.068,147.064,256
	c0-41.223,22.866-78.448,59.673-97.15c4.023-2.044,5.627-6.962,3.583-10.985C208.276,143.843,203.359,142.239,199.335,144.282z
	 M256,152.511c-7.509,0-13.617-6.108-13.617-13.617s6.108-13.617,13.617-13.617c7.509,0,13.617,6.108,13.617,13.617
	S263.509,152.511,256,152.511z"/>
</svg>