<svg height="200px" width="200px" version="1.1" id="Layer_1" xmlns="http://www.w3.org/2000/svg" xmlns:xlink="http://www.w3.org/1999/xlink" viewBox="-46.08 -46.08 604.16 604.16" xml:space="preserve" fill="#000000">

<g id="SVGRepo_bgCarrier" stroke-width="0"/>

<g id="SVGRepo_tracerCarrier" stroke-linecap="round" stroke-linejoin="round" stroke="#CCCCCC" stroke-width="8.192"/>

<g id="SVGRepo_iconCarrier"> <path style="fill:#1da1f2;" d="M307.964,269.263c0.027-0.101,0.043-0.205,0.069-0.307c0.212-0.856,0.404-1.72,0.575-2.592 c0.064-0.322,0.115-0.648,0.174-0.972c0.121-0.688,0.232-1.378,0.328-2.074c0.048-0.359,0.095-0.718,0.137-1.078 c0.082-0.709,0.148-1.423,0.2-2.14c0.025-0.324,0.056-0.647,0.073-0.972c0.06-1.036,0.098-2.077,0.098-3.128 c0-29.612-24.006-53.619-53.619-53.619c-29.614,0-53.619,24.007-53.619,53.619c0,1.051,0.038,2.092,0.098,3.128 c0.018,0.326,0.05,0.648,0.073,0.972c0.054,0.717,0.119,1.43,0.201,2.14c0.042,0.36,0.088,0.719,0.137,1.078 c0.096,0.696,0.206,1.387,0.328,2.074c0.058,0.324,0.111,0.65,0.174,0.972c0.17,0.872,0.362,1.736,0.575,2.592 c0.025,0.101,0.042,0.206,0.069,0.307l0.005,0.009c2.243,8.811,6.673,16.744,12.672,23.202l0.019,0.035 c0.184,0.198,0.379,0.385,0.566,0.58c0.358,0.374,0.716,0.746,1.084,1.109c0.266,0.262,0.539,0.516,0.811,0.772 c0.368,0.347,0.736,0.693,1.112,1.03c0.286,0.253,0.576,0.501,0.866,0.749c0.378,0.323,0.757,0.645,1.144,0.957 c0.302,0.245,0.608,0.483,0.916,0.72c0.389,0.301,0.78,0.598,1.177,0.888c0.318,0.232,0.64,0.459,0.963,0.684 c0.4,0.279,0.803,0.554,1.212,0.822c0.332,0.218,0.666,0.432,1.004,0.643c0.413,0.258,0.828,0.511,1.248,0.758 c0.343,0.204,0.69,0.402,1.038,0.597c0.426,0.238,0.855,0.468,1.286,0.694c0.355,0.186,0.71,0.371,1.069,0.549 c0.438,0.217,0.88,0.426,1.326,0.631c0.365,0.168,0.73,0.337,1.099,0.497c0.449,0.196,0.905,0.38,1.361,0.565 c0.375,0.15,0.747,0.302,1.125,0.444c0.463,0.174,0.931,0.335,1.4,0.497c0.382,0.132,0.761,0.265,1.146,0.388 c0.478,0.153,0.96,0.291,1.443,0.43c0.385,0.111,0.769,0.225,1.157,0.329c0.495,0.13,0.996,0.246,1.497,0.362 c0.385,0.089,0.769,0.185,1.157,0.267c0.516,0.109,1.037,0.198,1.559,0.292c0.382,0.068,0.76,0.144,1.145,0.204 c0.548,0.085,1.101,0.151,1.653,0.22c0.364,0.045,0.726,0.101,1.093,0.139c0.618,0.065,1.242,0.106,1.865,0.149 c0.308,0.022,0.612,0.054,0.923,0.07c0.936,0.049,1.878,0.074,2.826,0.074s1.891-0.026,2.826-0.074 c0.31-0.016,0.614-0.049,0.924-0.07c0.623-0.043,1.247-0.084,1.865-0.149c0.366-0.038,0.729-0.094,1.093-0.139 c0.554-0.069,1.106-0.135,1.653-0.22c0.384-0.06,0.763-0.136,1.144-0.204c0.522-0.094,1.043-0.183,1.559-0.292 c0.388-0.082,0.772-0.177,1.157-0.267c0.501-0.116,1.002-0.232,1.497-0.362c0.388-0.103,0.772-0.218,1.157-0.329 c0.483-0.139,0.965-0.277,1.443-0.43c0.385-0.123,0.765-0.257,1.146-0.388c0.469-0.162,0.937-0.323,1.4-0.497 c0.377-0.142,0.75-0.293,1.125-0.444c0.456-0.183,0.912-0.369,1.361-0.565c0.37-0.16,0.734-0.329,1.099-0.497 c0.445-0.205,0.887-0.414,1.326-0.631c0.359-0.178,0.715-0.362,1.069-0.549c0.431-0.226,0.861-0.456,1.286-0.694 c0.348-0.195,0.695-0.395,1.038-0.597c0.421-0.247,0.835-0.5,1.248-0.758c0.337-0.211,0.672-0.426,1.004-0.643 c0.409-0.268,0.812-0.543,1.212-0.822c0.322-0.225,0.645-0.452,0.963-0.684c0.397-0.291,0.787-0.587,1.177-0.888 c0.307-0.237,0.613-0.475,0.916-0.72c0.387-0.313,0.766-0.634,1.145-0.957c0.289-0.248,0.58-0.496,0.866-0.749 c0.377-0.337,0.745-0.682,1.112-1.03c0.272-0.257,0.544-0.511,0.811-0.772c0.369-0.363,0.727-0.736,1.084-1.109 c0.188-0.195,0.383-0.382,0.566-0.58l0.019-0.035c5.999-6.458,10.429-14.391,12.672-23.202L307.964,269.263z"/> <path style="opacity:0.1;fill:#231F20;enable-background:new ;" d="M263.74,308.762c-0.522-0.094-1.043-0.183-1.559-0.292 c-0.388-0.082-0.772-0.177-1.157-0.267c-0.501-0.116-1.002-0.232-1.497-0.362c-0.388-0.103-0.772-0.218-1.157-0.329 c-0.483-0.139-0.965-0.277-1.443-0.43c-0.385-0.123-0.765-0.257-1.146-0.388c-0.469-0.162-0.937-0.323-1.4-0.497 c-0.378-0.142-0.75-0.293-1.125-0.444c-0.456-0.183-0.912-0.369-1.361-0.565c-0.37-0.16-0.734-0.329-1.099-0.497 c-0.445-0.205-0.887-0.414-1.326-0.631c-0.359-0.178-0.715-0.362-1.069-0.549c-0.431-0.226-0.861-0.456-1.286-0.694 c-0.348-0.195-0.695-0.395-1.038-0.597c-0.421-0.247-0.835-0.5-1.248-0.758c-0.337-0.211-0.672-0.426-1.004-0.643 c-0.409-0.268-0.812-0.543-1.212-0.822c-0.322-0.225-0.645-0.452-0.963-0.684c-0.397-0.291-0.787-0.587-1.177-0.888 c-0.307-0.237-0.613-0.475-0.916-0.72c-0.387-0.313-0.766-0.634-1.144-0.957c-0.29-0.248-0.58-0.496-0.866-0.749 c-0.377-0.337-0.745-0.682-1.112-1.03c-0.272-0.257-0.544-0.511-0.811-0.772c-0.369-0.363-0.726-0.736-1.084-1.109 c-0.188-0.195-0.383-0.382-0.566-0.58l-0.019-0.034c-5.997-6.458-10.429-14.391-12.672-23.202l-0.005-0.009 c-0.026-0.101-0.043-0.205-0.069-0.307c-0.212-0.856-0.404-1.72-0.575-2.592c-0.064-0.322-0.115-0.648-0.174-0.972 c-0.121-0.688-0.232-1.378-0.328-2.074c-0.049-0.359-0.095-0.718-0.137-1.078c-0.082-0.709-0.148-1.423-0.2-2.14 c-0.024-0.324-0.056-0.647-0.073-0.972c-0.06-1.036-0.098-2.077-0.098-3.128c0-26.676,19.484-48.793,44.996-52.919 c-2.808-0.454-5.686-0.7-8.623-0.7c-29.614,0-53.619,24.007-53.619,53.619c0,1.051,0.038,2.092,0.098,3.128 c0.018,0.326,0.05,0.648,0.073,0.972c0.054,0.717,0.119,1.43,0.201,2.14c0.042,0.36,0.088,0.719,0.137,1.078 c0.096,0.696,0.206,1.387,0.328,2.074c0.058,0.324,0.111,0.65,0.174,0.972c0.17,0.872,0.362,1.736,0.575,2.592 c0.025,0.101,0.042,0.206,0.069,0.307l0.005,0.009c2.243,8.811,6.673,16.744,12.672,23.202l0.019,0.034 c0.184,0.198,0.379,0.385,0.566,0.58c0.358,0.374,0.716,0.746,1.084,1.109c0.266,0.262,0.539,0.516,0.811,0.772 c0.368,0.347,0.736,0.693,1.112,1.03c0.286,0.253,0.576,0.501,0.866,0.749c0.378,0.323,0.757,0.645,1.144,0.957 c0.302,0.245,0.608,0.483,0.916,0.72c0.389,0.301,0.78,0.598,1.177,0.888c0.318,0.232,0.64,0.459,0.963,0.684 c0.4,0.279,0.803,0.554,1.212,0.822c0.332,0.218,0.666,0.432,1.004,0.643c0.413,0.258,0.828,0.511,1.248,0.758 c0.343,0.204,0.69,0.402,1.038,0.597c0.426,0.238,0.855,0.468,1.286,0.694c0.355,0.186,0.71,0.371,1.069,0.549 c0.438,0.217,0.88,0.426,1.326,0.631c0.365,0.168,0.73,0.337,1.099,0.497c0.449,0.196,0.905,0.38,1.361,0.565 c0.375,0.15,0.747,0.302,1.125,0.444c0.463,0.174,0.931,0.335,1.4,0.497c0.382,0.132,0.761,0.265,1.146,0.388 c0.477,0.153,0.96,0.291,1.443,0.43c0.385,0.111,0.769,0.225,1.157,0.329c0.495,0.13,0.996,0.246,1.497,0.362 c0.385,0.089,0.769,0.185,1.157,0.267c0.516,0.109,1.037,0.198,1.559,0.292c0.382,0.068,0.76,0.144,1.145,0.204 c0.548,0.085,1.101,0.151,1.653,0.22c0.364,0.045,0.727,0.101,1.093,0.139c0.618,0.065,1.242,0.106,1.865,0.149 c0.308,0.022,0.612,0.054,0.923,0.07c0.936,0.049,1.878,0.074,2.826,0.074c0.949,0,1.891-0.026,2.826-0.074 c0.31-0.016,0.614-0.049,0.924-0.07c0.623-0.043,1.247-0.084,1.865-0.149c0.366-0.038,0.729-0.094,1.093-0.139 c0.554-0.069,1.106-0.135,1.653-0.22c0.087-0.014,0.175-0.031,0.262-0.046C264.327,308.869,264.034,308.815,263.74,308.762z"/> <path style="fill:#1da1f2;" d="M255.999,512c-31.922,0-61.343-27.524-82.845-77.502C152.584,386.686,141.255,323.294,141.255,256 s11.329-130.686,31.899-178.498C194.656,27.524,224.077,0,255.999,0s61.345,27.524,82.847,77.502 c20.571,47.811,31.899,111.203,31.899,178.498s-11.329,130.687-31.899,178.498C317.344,484.476,287.921,512,255.999,512z M255.999,16.168c-53.433,0-98.576,109.83-98.576,239.832s45.142,239.832,98.576,239.832c53.434,0,98.578-109.83,98.578-239.832 S309.433,16.168,255.999,16.168z"/> <path style="fill:#578CAD;" d="M387.325,454.973c-57.484,0-140.881-46.254-212.463-117.834 c-47.584-47.585-84.398-100.42-103.661-148.772c-20.136-50.546-18.794-90.813,3.777-113.385 c11.914-11.913,28.633-17.952,49.695-17.952c57.485,0,140.882,46.254,212.464,117.834c47.584,47.585,84.399,100.42,103.661,148.773 c20.135,50.545,18.793,90.812-3.781,113.384C425.107,448.932,408.387,454.973,387.325,454.973z M124.674,73.198 c-16.619,0-29.491,4.446-38.262,13.217c-37.782,37.782,7.96,147.364,99.884,239.29C255,394.41,333.908,438.804,387.325,438.804 c16.618,0,29.49-4.447,38.261-13.216c17.461-17.462,17.533-52.441,0.193-95.967c-18.469-46.358-54.008-97.257-100.075-143.324 C257,117.592,178.091,73.198,124.674,73.198z"/> <path style="fill:#1da1f2;" d="M256.001,370.746c-67.295,0-130.687-11.329-178.499-31.899C27.524,317.345,0,287.923,0,256.001 c0-31.923,27.524-61.345,77.502-82.847c47.811-20.571,111.204-31.899,178.499-31.899c67.294,0,130.685,11.329,178.497,31.899 C484.476,194.656,512,224.078,512,256s-27.524,61.344-77.502,82.847C386.686,359.418,323.295,370.746,256.001,370.746z M256.001,157.423c-130.003,0-239.833,45.143-239.833,98.578c0,53.433,109.83,98.577,239.833,98.577 c130.002,0,239.83-45.143,239.83-98.578S386.003,157.423,256.001,157.423z"/> <path style="fill:#578CAD;" d="M124.675,454.973c-0.003,0,0.001,0-0.002,0c-21.063-0.001-37.782-6.041-49.694-17.951 c-22.571-22.573-23.914-62.84-3.779-113.384c19.263-48.353,56.077-101.188,103.661-148.773 C246.442,103.283,329.839,57.03,387.324,57.03c21.062,0,37.782,6.041,49.694,17.952c22.572,22.572,23.913,62.84,3.779,113.384 c-19.263,48.353-56.077,101.188-103.661,148.772C265.556,408.717,182.157,454.973,124.675,454.973z M387.324,73.198 c-53.417,0-132.327,44.394-201.031,113.099C94.369,278.222,48.628,387.804,86.412,425.588c8.77,8.769,21.642,13.216,38.261,13.216 c53.415,0.001,132.323-44.393,201.03-113.099c91.925-91.925,137.665-201.507,99.883-239.292 C416.815,77.644,403.942,73.198,387.324,73.198z"/> </g>

</svg>