<!DOCTYPE svg PUBLIC "-//W3C//DTD SVG 1.1//EN" "http://www.w3.org/Graphics/SVG/1.1/DTD/svg11.dtd">

<!-- Uploaded to: SVG Repo, www.svgrepo.com, Transformed by: SVG Repo Mixer Tools -->
<svg fill="#1da1f2" width="800px" height="800px" viewBox="0 0 1024.00 1024.00" xmlns="http://www.w3.org/2000/svg" class="icon" stroke="#1da1f2" stroke-width="0.01024">

<g id="SVGRepo_bgCarrier" stroke-width="0"/>

<g id="SVGRepo_tracerCarrier" stroke-linecap="round" stroke-linejoin="round" stroke="#CCCCCC" stroke-width="22.528"/>

<g id="SVGRepo_iconCarrier"> <path d="M516 673c0 4.4 3.4 8 7.5 8h185c4.1 0 7.5-3.6 7.5-8v-48c0-4.4-3.4-8-7.5-8h-185c-4.1 0-7.5 3.6-7.5 8v48zm-194.9 6.1l192-161c3.8-3.2 3.8-9.1 0-12.3l-192-160.9A7.95 7.95 0 0 0 308 351v62.7c0 2.4 1 4.6 2.9 6.1L420.7 512l-109.8 92.2a8.1 8.1 0 0 0-2.9 6.1V673c0 6.8 7.9 10.5 13.1 6.1zM880 112H144c-17.7 0-32 14.3-32 32v736c0 17.7 14.3 32 32 32h736c17.7 0 32-14.3 32-32V144c0-17.7-14.3-32-32-32zm-40 728H184V184h656v656z"/> </g>

</svg>