<!DOCTYPE svg PUBLIC "-//W3C//DTD SVG 1.1//EN" "http://www.w3.org/Graphics/SVG/1.1/DTD/svg11.dtd">

<!-- Uploaded to: SVG Repo, www.svgrepo.com, Transformed by: SVG Repo Mixer Tools -->
<svg height="200px" width="200px" version="1.1" id="Layer_1" xmlns="http://www.w3.org/2000/svg" xmlns:xlink="http://www.w3.org/1999/xlink" viewBox="0 0 512.00 512.00" xml:space="preserve" fill="#000000" stroke="#000000" stroke-width="0.00512">

<g id="SVGRepo_bgCarrier" stroke-width="0"/>

<g id="SVGRepo_tracerCarrier" stroke-linecap="round" stroke-linejoin="round"/>

<g id="SVGRepo_iconCarrier"> <path style="fill:#1da1f2;" d="M421.018,256c0,91.138-73.878,165.02-165.018,165.02c-91.137,0-165.018-73.882-165.018-165.02 S164.863,90.98,256,90.98C347.14,90.98,421.018,164.862,421.018,256z"/> <g> <path style="fill:#85ff85;" d="M154.151,265.525c-20.214-21.77-2.333-32.654-2.333-32.654s37.319-19.439,48.206-21.771 c10.882-2.333,11.661-24.101,7.774-34.984c-3.877-10.859-89.338-10.653-89.77-10.651c-17.092,25.996-27.044,57.1-27.044,90.536 c0,54.939,26.854,103.601,68.145,133.593c4.602-2.531,6.79-7.162,4.925-14.444c-8.757-34.208,42.966-57.532,45.88-84.745 C212.842,263.192,174.366,287.294,154.151,265.525z"/> <path style="fill:#85ff85;" d="M222.568,331.61c0,0-17.188,18.659-12.482,32.654c4.706,13.993,21.811,20.215,30.365,0 C249.004,344.049,239.672,319.947,222.568,331.61z"/> <path style="fill:#85ff85;" d="M311.383,330.814c10.513,20.566,26.389,49.347,40.383,59.585 c10.569-7.542,20.206-16.303,28.716-26.072c12.828-37.137,17.676-73.855,7.69-86.797c-11.662-15.114-22.546-39.215-6.998-44.658 c9.896-3.465,24.517,19.797,39.452,34.48c0.252-3.752,0.392-7.536,0.392-11.351c0-54.775-26.695-103.308-67.775-133.322l0,0 c0,0-10.166,16.118-21.828,16.118c-11.661,0-44.315,0-40.428,21.768c3.885,21.77,27.21,26.435,22.546,45.095 c-4.664,18.658-80.857,18.659-57.534,64.53c21.464,42.206,33.299,24.513,43.72,38.38"/> </g> <path style="fill:#1da1f2;" d="M256,512c-68.381,0-132.667-26.629-181.019-74.982C26.628,388.667,0,324.381,0,256 S26.628,123.333,74.982,74.982C123.333,26.629,187.619,0,256,0c47.292,0,93.496,13,133.616,37.595c3.806,2.334,5,7.31,2.668,11.117 c-2.335,3.806-7.311,5-11.117,2.667C343.589,28.344,300.307,16.168,256,16.168C123.756,16.168,16.168,123.756,16.168,256 S123.756,495.832,256,495.832S495.832,388.244,495.832,256c0-58.773-21.473-115.315-60.463-159.207 c-2.965-3.338-2.662-8.447,0.675-11.413c3.339-2.965,8.449-2.663,11.414,0.675C489.077,132.91,512,193.264,512,256 c0,68.381-26.628,132.667-74.982,181.019C388.667,485.371,324.379,512,256,512z"/> <path style="fill:#578CAD;" d="M414.723,30.633c-19.508,0-35.378,15.87-35.378,35.377c0,19.508,15.871,35.378,35.378,35.378 s35.375-15.87,35.375-35.378C450.099,46.504,434.23,30.633,414.723,30.633z"/> <g> <path style="opacity:0.1;fill:#1da1f2;enable-background:new ;" d="M396.079,66.009c0-16.623,11.529-30.598,27.011-34.368 c-2.684-0.653-5.484-1.009-8.367-1.009c-19.508,0-35.378,15.87-35.378,35.377c0,19.508,15.871,35.378,35.378,35.378 c2.882,0,5.683-0.355,8.367-1.009C407.608,96.608,396.079,82.635,396.079,66.009z"/> <path style="opacity:0.1;fill:#1da1f2;enable-background:new ;" d="M107.716,256c0-88.331,69.402-160.452,156.652-164.81 c-2.772-0.138-5.561-0.21-8.368-0.21c-91.137,0-165.018,73.882-165.018,165.02S164.863,421.02,256,421.02 c2.807,0,5.594-0.071,8.368-0.21C177.117,416.452,107.716,344.331,107.716,256z"/> </g> </g>

</svg>