<svg height="200px" width="200px" version="1.1" id="Layer_1" xmlns="http://www.w3.org/2000/svg" xmlns:xlink="http://www.w3.org/1999/xlink" viewBox="0 0 512 512" xml:space="preserve" fill="#000000" stroke="#000000" stroke-width="0.00512">

<g id="SVGRepo_bgCarrier" stroke-width="0"/>

<g id="SVGRepo_tracerCarrier" stroke-linecap="round" stroke-linejoin="round"/>

<g id="SVGRepo_iconCarrier"> <g> <path style="fill:#578CAD;" d="M511.178,257.585l-34.746-34.039c-0.787-0.771-1.958-0.994-2.974-0.568 c-1.015,0.427-1.675,1.42-1.675,2.522v65.796c0,7.068-5.751,12.819-12.821,12.819c-1.511,0-2.735,1.224-2.735,2.735 c0,1.511,1.224,2.735,2.735,2.735h50.302c1.511,0,2.735-1.224,2.735-2.735v-47.311C512,258.804,511.704,258.099,511.178,257.585z"/> <path style="fill:#578CAD;" d="M424.875,304.115h-0.012c-0.003,0-0.008,0-0.011,0c-7.07,0-12.821-5.75-12.821-12.819V225.5 c0-1.101-0.66-2.095-1.675-2.522s-2.187-0.203-2.974,0.568l-34.748,34.039c-0.524,0.514-0.821,1.219-0.821,1.954v47.311 c0,1.511,1.224,2.735,2.735,2.735h50.302c0.008,0,0.014,0,0.023,0c1.51,0,2.735-1.224,2.735-2.735 C427.609,305.339,426.384,304.115,424.875,304.115z"/> </g> <circle style="fill:#1da1f2;" cx="207.754" cy="256" r="132.825"/> <g> <path style="fill:#1da1f2;" d="M125.774,263.668c-16.27-17.523-1.877-26.284-1.877-26.284s30.038-15.646,38.799-17.524 c8.762-1.876,9.387-19.398,6.258-28.159c-3.122-8.739-71.906-8.575-72.257-8.573C82.941,204.053,74.929,229.088,74.929,256 c0,44.22,21.615,83.388,54.85,107.53c3.705-2.037,5.466-5.765,3.965-11.627c-7.05-27.534,34.583-46.308,36.927-68.212 C173.016,261.79,142.045,281.191,125.774,263.668z"/> <path style="fill:#1da1f2;" d="M180.844,316.86c0,0-13.834,15.02-10.046,26.284c3.789,11.263,17.556,16.271,24.439,0 C202.121,326.872,194.611,307.472,180.844,316.86z"/> <path style="fill:#1da1f2;" d="M245.107,301.841c8.217,15.465,30.042,55.252,39.728,62.339 c8.505-6.071,16.265-13.123,23.112-20.985c10.328-29.892,14.23-59.446,6.19-69.864c-9.386-12.165-18.149-31.565-5.632-35.945 c7.967-2.789,19.734,15.934,31.754,27.753c0.203-3.021,0.317-6.065,0.317-9.137c0-44.089-21.487-83.152-54.552-107.311l0,0 c0,0-8.183,12.974-17.57,12.974c-9.388,0-35.67,0-32.542,17.522c3.129,17.523,21.903,21.278,18.15,36.296 c-3.756,15.018-65.084,15.02-46.309,51.941C226.526,304.343,236.15,284.32,245.107,301.841"/> </g> <path style="fill:#111317;" d="M207.754,463.755C93.197,463.755,0,370.558,0,256.001c0-1.724,0.023-3.441,0.063-5.154 c0.01-0.367,0.023-0.713,0.036-1.06l0.023-0.637c0.036-1.151,0.074-2.297,0.13-3.44c0.024-0.482,0.054-0.945,0.082-1.408 l0.048-0.789c0.056-0.974,0.114-1.945,0.185-2.916c0.043-0.586,0.093-1.173,0.142-1.758l0.032-0.375 c0.082-0.975,0.164-1.955,0.259-2.933c0.073-0.743,0.154-1.47,0.234-2.197c0.098-0.927,0.208-1.888,0.325-2.849 c0.09-0.732,0.185-1.459,0.282-2.187c0.128-0.961,0.258-1.897,0.397-2.831c0.106-0.721,0.217-1.455,0.334-2.187 c0.146-0.928,0.301-1.861,0.462-2.791c0.121-0.713,0.249-1.44,0.384-2.165c0.166-0.92,0.348-1.855,0.533-2.791l0.069-0.351 c0.117-0.591,0.234-1.179,0.357-1.769c0.179-0.86,0.372-1.73,0.565-2.599l0.195-0.871c0.103-0.464,0.206-0.927,0.314-1.389 c0.231-0.986,0.475-1.973,0.721-2.96l0.181-0.729c0.092-0.374,0.185-0.748,0.281-1.12c0.287-1.108,0.591-2.212,0.898-3.317 l0.127-0.472c0.09-0.333,0.179-0.665,0.274-0.996c0.447-1.574,0.917-3.155,1.405-4.727c0.015-0.046,0.049-0.153,0.065-0.198 c0.476-1.517,0.957-3.006,1.457-4.487c0.116-0.342,0.238-0.691,0.361-1.039l0.17-0.482c0.356-1.028,0.717-2.068,1.092-3.099 c0.155-0.426,0.314-0.845,0.473-1.264l0.2-0.528c0.345-0.926,0.698-1.866,1.064-2.798c0.174-0.449,0.368-0.928,0.562-1.407 l0.19-0.472c0.354-0.881,0.709-1.757,1.073-2.629c0.261-0.621,0.516-1.215,0.772-1.811l0.054-0.125 c0.368-0.853,0.74-1.708,1.117-2.555c0.259-0.58,0.524-1.159,0.788-1.735l0.084-0.185c0.386-0.843,0.777-1.675,1.168-2.503 c0.314-0.658,0.618-1.289,0.923-1.917c0.412-0.841,0.819-1.661,1.232-2.478c0.316-0.627,0.63-1.245,0.947-1.86 c0.434-0.84,0.869-1.655,1.302-2.469l0.066-0.12c0.307-0.578,0.616-1.155,0.931-1.729c0.444-0.812,0.908-1.636,1.372-2.457 l0.288-0.51c0.237-0.42,0.475-0.84,0.717-1.258c0.485-0.838,0.994-1.694,1.506-2.549l0.252-0.426c0.231-0.391,0.463-0.781,0.7-1.17 c0.58-0.951,1.178-1.898,1.776-2.846l0.295-0.473c0.161-0.256,0.319-0.511,0.482-0.766c0.871-1.354,1.754-2.698,2.652-4.027 l0.376-0.547c0.778-1.145,1.567-2.282,2.363-3.407c0.232-0.327,0.476-0.663,0.722-1l0.286-0.391c0.593-0.823,1.205-1.671,1.83-2.51 c0.266-0.358,0.548-0.726,0.831-1.096l0.348-0.457c0.567-0.748,1.141-1.503,1.724-2.25c0.351-0.45,0.699-0.884,1.046-1.318 l0.259-0.325c0.559-0.701,1.126-1.41,1.703-2.115c0.405-0.493,0.811-0.98,1.215-1.465l0.151-0.181 c0.57-0.682,1.137-1.352,1.707-2.018c0.493-0.574,0.971-1.121,1.451-1.668l0.346-0.399c0.178-0.209,0.358-0.417,0.54-0.622 c0.112-0.126,0.225-0.247,0.344-0.366c13.515-15.144,29.101-28.194,46.332-38.793c0.065-0.044,0.128-0.085,0.19-0.125 c0.132-0.083,0.269-0.164,0.406-0.244c1.715-1.048,3.517-2.111,5.299-3.128l1.24-0.69c1.432-0.805,2.895-1.605,4.37-2.386 l0.247-0.131c0.422-0.224,0.843-0.449,1.268-0.668c3.691-1.919,7.49-3.75,11.284-5.438c0.427-0.189,0.852-0.375,1.279-0.561 l0.296-0.129c1.517-0.66,3.042-1.302,4.576-1.927l0.481-0.198c0.304-0.126,0.609-0.252,0.917-0.373 c2.032-0.81,3.948-1.539,5.854-2.232l1.106-0.391c1.66-0.592,3.296-1.152,4.939-1.694c0.586-0.193,1.166-0.382,1.746-0.565 c1.765-0.566,3.552-1.11,5.292-1.615l0.779-0.231c1.924-0.549,3.929-1.086,6.155-1.649c0.414-0.104,0.823-0.202,1.231-0.301 l0.412-0.1c1.603-0.391,3.22-0.764,4.842-1.118l0.41-0.09c0.427-0.095,0.852-0.188,1.282-0.277c2.19-0.461,4.247-0.861,6.265-1.22 l0.772-0.129c1.875-0.324,3.766-0.624,5.651-0.896c0.585-0.086,1.194-0.17,1.801-0.253c1.791-0.243,3.537-0.458,5.291-0.653 l0.456-0.053c0.284-0.034,0.569-0.067,0.852-0.096c2.086-0.218,4.263-0.409,6.472-0.57c0.325-0.024,0.652-0.044,0.98-0.063 l0.593-0.037c1.731-0.112,3.446-0.201,5.166-0.271l0.261-0.011c0.538-0.022,1.078-0.044,1.616-0.06 c5.027-0.159,8.232-0.159,13.265,0c0.534,0.016,1.069,0.038,1.605,0.059l0.266,0.011c1.725,0.07,3.442,0.161,5.151,0.271 l0.625,0.039c0.323,0.02,0.645,0.039,0.968,0.062c2.21,0.161,4.386,0.352,6.471,0.57l1.308,0.149 c1.756,0.195,3.503,0.41,5.244,0.645c0.63,0.086,1.25,0.172,1.87,0.263c1.862,0.269,3.754,0.57,5.601,0.888l0.807,0.135 c2.02,0.36,4.075,0.76,6.282,1.224c0.409,0.085,0.837,0.179,1.264,0.274l0.414,0.091c1.614,0.352,3.225,0.725,4.834,1.116l0.414,0.1 c0.408,0.098,0.816,0.198,1.222,0.3c2.224,0.561,4.229,1.097,6.135,1.642l0.78,0.231c1.743,0.504,3.53,1.05,5.339,1.629 c0.555,0.176,1.131,0.364,1.71,0.554c1.659,0.546,3.296,1.107,4.924,1.688l1.143,0.404c1.916,0.697,3.888,1.448,5.854,2.232 c0.309,0.123,0.612,0.247,0.912,0.372l0.479,0.197c1.529,0.622,3.052,1.265,4.571,1.923l1.568,0.685 c3.798,1.69,7.598,3.523,11.302,5.448c0.392,0.203,0.79,0.415,1.188,0.626l0.322,0.171c1.473,0.779,2.934,1.579,4.387,2.394 l1.201,0.671c1.818,1.037,3.621,2.102,5.376,3.173c0.079,0.045,0.195,0.114,0.309,0.185c0.082,0.051,0.164,0.104,0.245,0.159 c17.242,10.609,32.836,23.67,46.356,38.828c0.106,0.105,0.207,0.211,0.295,0.312c0.189,0.213,0.376,0.43,0.562,0.645l0.335,0.385 c0.488,0.557,0.973,1.112,1.45,1.671c0.563,0.654,1.133,1.331,1.701,2.01c0.461,0.55,0.926,1.105,1.384,1.666 c0.569,0.694,1.132,1.4,1.699,2.108l0.323,0.406c0.325,0.406,0.649,0.811,0.969,1.221c0.592,0.758,1.165,1.513,1.739,2.269 l0.362,0.475c0.271,0.356,0.542,0.71,0.81,1.069c0.633,0.853,1.242,1.692,1.847,2.53l0.325,0.447 c0.222,0.304,0.443,0.608,0.661,0.915c0.804,1.133,1.586,2.268,2.363,3.409l0.066,0.095c0.118,0.167,0.234,0.336,0.346,0.505 c0.869,1.283,1.754,2.629,2.621,3.982c0.182,0.284,0.351,0.556,0.521,0.828l0.264,0.421c0.587,0.928,1.187,1.878,1.775,2.84 c0.197,0.322,0.393,0.653,0.59,0.984l0.564,0.946c0.439,0.738,0.88,1.478,1.311,2.224c0.234,0.404,0.463,0.81,0.691,1.214 l0.295,0.522c0.467,0.824,0.93,1.65,1.387,2.481c0.276,0.508,0.537,0.997,0.799,1.487l0.182,0.339 c0.438,0.817,0.873,1.638,1.301,2.464c2.085,4.023,0.516,8.975-3.507,11.061c-4.023,2.086-8.975,0.516-11.061-3.507 c-0.394-0.76-0.795-1.516-1.2-2.272l-0.187-0.349c-0.241-0.451-0.48-0.9-0.724-1.348c-0.408-0.744-0.835-1.502-1.264-2.26 l-0.315-0.558c-0.199-0.352-0.397-0.703-0.598-1.052c-0.397-0.685-0.803-1.368-1.209-2.049l-0.579-0.973 c-0.159-0.267-0.316-0.533-0.479-0.798c-0.543-0.891-1.095-1.764-1.649-2.638l-0.722-1.154c-0.79-1.229-1.599-2.464-2.428-3.686 l-0.327-0.474c-0.747-1.098-1.469-2.145-2.204-3.18l-0.912-1.259c-0.569-0.788-1.131-1.567-1.703-2.336 c-0.215-0.289-0.453-0.6-0.69-0.91l-0.394-0.516c-0.533-0.705-1.062-1.399-1.599-2.087c-0.277-0.354-0.566-0.715-0.854-1.077 l-0.336-0.42c-0.52-0.652-1.043-1.305-1.572-1.953c-0.419-0.512-0.839-1.014-1.259-1.516c-0.527-0.63-1.051-1.252-1.582-1.87 c-0.445-0.521-0.881-1.02-1.317-1.517l-0.658-0.757c-0.089-0.09-0.172-0.179-0.248-0.265c-12.565-14.131-27.08-26.291-43.138-36.142 c-0.071-0.043-0.141-0.088-0.209-0.132l-0.071-0.042c-1.618-0.988-3.28-1.969-4.938-2.916l-1.117-0.622 c-1.34-0.753-2.681-1.487-4.035-2.203l-0.338-0.179c-0.352-0.187-0.705-0.374-1.058-0.557c-3.419-1.778-6.916-3.464-10.403-5.015 l-1.447-0.633c-1.393-0.606-2.799-1.198-4.213-1.773l-1.284-0.526c-1.807-0.72-3.622-1.412-5.387-2.053l-1.059-0.373 c-1.493-0.533-3.001-1.049-4.522-1.55c-0.513-0.168-1.034-0.339-1.559-0.504c-1.69-0.54-3.333-1.043-4.906-1.498l-0.763-0.226 c-1.723-0.492-3.568-0.986-5.62-1.504l-1.5-0.365c-1.485-0.361-2.972-0.706-4.466-1.031l-0.447-0.098 c-0.36-0.08-0.721-0.16-1.082-0.234c-2.059-0.433-3.95-0.802-5.806-1.132l-0.756-0.126c-1.666-0.288-3.409-0.563-5.144-0.815 c-0.582-0.086-1.147-0.163-1.712-0.241c-1.599-0.217-3.214-0.416-4.834-0.595l-1.206-0.138c-1.915-0.199-3.919-0.375-5.957-0.524 l-1.482-0.094c-1.558-0.1-3.143-0.184-4.735-0.248l-0.266-0.011c-0.485-0.02-0.969-0.039-1.456-0.054 c-2.343-0.074-4.286-0.108-6.119-0.108c-1.835,0-3.779,0.034-6.119,0.108c-0.491,0.015-0.98,0.035-1.47,0.055l-0.26,0.011 c-1.585,0.065-3.17,0.148-4.752,0.249l-1.459,0.092c-2.038,0.149-4.043,0.325-5.959,0.524l-1.2,0.137 c-1.624,0.181-3.238,0.379-4.846,0.597c-0.581,0.08-1.135,0.155-1.684,0.236c-1.759,0.255-3.503,0.531-5.202,0.824l-0.709,0.117 c-1.859,0.33-3.751,0.7-5.796,1.129c-0.382,0.079-0.738,0.159-1.095,0.237l-0.445,0.098c-1.501,0.327-2.99,0.672-4.469,1.032 l-1.511,0.369c-2.055,0.519-3.899,1.012-5.632,1.506l-0.787,0.233c-1.551,0.45-3.193,0.951-4.838,1.477 c-0.546,0.173-1.071,0.344-1.591,0.515c-1.511,0.499-3.024,1.015-4.529,1.552l-1.048,0.37c-1.748,0.635-3.511,1.307-5.391,2.056 l-1.28,0.524c-1.409,0.573-2.815,1.165-4.211,1.772l-1.453,0.636c-3.49,1.554-6.989,3.239-10.393,5.01 c-0.382,0.199-0.755,0.397-1.128,0.595l-0.261,0.139c-1.36,0.72-2.702,1.454-4.034,2.202l-1.139,0.635 c-1.633,0.932-3.295,1.913-4.929,2.91l-0.082,0.048c-0.067,0.044-0.132,0.086-0.197,0.126c-16.06,9.851-30.572,22.011-43.139,36.142 c-0.088,0.1-0.179,0.197-0.272,0.292l-0.633,0.732c-0.441,0.502-0.883,1.008-1.322,1.518c-0.515,0.603-1.045,1.231-1.572,1.86 l-0.144,0.173c-0.377,0.452-0.754,0.904-1.128,1.359c-0.524,0.64-1.043,1.289-1.561,1.94l-0.278,0.347 c-0.31,0.387-0.619,0.773-0.926,1.164c-0.527,0.677-1.056,1.372-1.583,2.069l-0.384,0.503c-0.238,0.312-0.478,0.624-0.711,0.939 c-0.58,0.776-1.133,1.545-1.687,2.315l-0.336,0.459c-0.195,0.267-0.388,0.533-0.58,0.802c-0.742,1.047-1.465,2.092-2.178,3.141 l-0.348,0.504c-0.839,1.241-1.651,2.479-2.451,3.723l-0.715,1.14c-0.545,0.862-1.098,1.741-1.641,2.628 c-0.201,0.328-0.392,0.653-0.584,0.977l-0.279,0.472c-0.476,0.795-0.944,1.58-1.403,2.373c-0.218,0.374-0.416,0.726-0.614,1.079 l-0.302,0.537c-0.422,0.746-0.851,1.508-1.27,2.274c-0.291,0.525-0.563,1.038-0.837,1.551l-0.063,0.118 c-0.405,0.758-0.808,1.52-1.207,2.284c-0.289,0.56-0.583,1.142-0.878,1.724c-0.381,0.754-0.759,1.518-1.136,2.285 c-0.28,0.573-0.565,1.166-0.847,1.76c-0.352,0.743-0.712,1.514-1.068,2.286l-0.081,0.176c-0.244,0.533-0.488,1.067-0.726,1.602 c-0.348,0.779-0.69,1.562-1.027,2.348L31.89,180.5c-0.24,0.554-0.477,1.107-0.711,1.664c-0.327,0.786-0.659,1.599-0.985,2.415 l-0.201,0.498c-0.165,0.407-0.33,0.815-0.489,1.225c-0.345,0.878-0.663,1.73-0.981,2.582l-0.22,0.583 c-0.136,0.358-0.27,0.714-0.402,1.073c-0.345,0.947-0.676,1.906-1.009,2.864l-0.196,0.557c-0.098,0.278-0.197,0.556-0.291,0.836 c-0.464,1.368-0.905,2.736-1.335,4.11l-0.086,0.269c-0.427,1.37-0.857,2.823-1.271,4.281c-0.072,0.257-0.139,0.503-0.206,0.749 l-0.161,0.593c-0.287,1.028-0.566,2.036-0.827,3.049c-0.081,0.313-0.159,0.625-0.235,0.936l-0.199,0.799 c-0.218,0.88-0.444,1.788-0.658,2.7c-0.095,0.408-0.185,0.812-0.275,1.214l-0.193,0.863c-0.177,0.798-0.354,1.595-0.522,2.397 c-0.114,0.54-0.217,1.068-0.321,1.595l-0.069,0.351c-0.166,0.847-0.334,1.703-0.49,2.564c-0.124,0.675-0.24,1.334-0.352,1.993 c-0.15,0.865-0.291,1.718-0.426,2.572c-0.108,0.678-0.21,1.352-0.31,2.026c-0.13,0.875-0.249,1.738-0.365,2.604 c-0.086,0.658-0.175,1.335-0.258,2.013c-0.107,0.866-0.206,1.739-0.296,2.614c-0.078,0.706-0.152,1.372-0.218,2.041 c-0.088,0.891-0.163,1.796-0.24,2.702l-0.033,0.392c-0.045,0.522-0.089,1.045-0.128,1.569c-0.066,0.888-0.117,1.777-0.167,2.666 l-0.053,0.852c-0.025,0.402-0.05,0.803-0.07,1.207c-0.05,1.033-0.084,2.088-0.118,3.143l-0.027,0.756 c-0.011,0.273-0.022,0.547-0.027,0.821c-0.04,1.578-0.06,3.167-0.06,4.762c0,105.507,85.837,191.344,191.344,191.344 c70.12,0,134.544-38.287,168.131-99.92c2.168-3.979,7.153-5.448,11.132-3.279c3.979,2.168,5.446,7.152,3.279,11.131 C353.83,422.189,283.885,463.755,207.754,463.755z"/> <path style="fill:#578CAD;" d="M461.549,345.557h-38.885c-4.531,0-8.205-3.674-8.205-8.205c0-4.531,3.674-8.205,8.205-8.205h38.885 c4.531,0,8.205,3.674,8.205,8.205C469.755,341.883,466.08,345.557,461.549,345.557z"/> <g> <path style="opacity:0.1;fill:#231F20;enable-background:new ;" d="M389.319,266.103c0-0.735,0.296-1.439,0.822-1.954 l21.891-21.445V225.5c0-1.101-0.66-2.095-1.675-2.522s-2.187-0.203-2.974,0.568l-34.748,34.039 c-0.524,0.514-0.821,1.219-0.821,1.954v47.311c0,1.511,1.224,2.735,2.735,2.735h14.769L389.319,266.103L389.319,266.103z"/> <path style="opacity:0.1;fill:#231F20;enable-background:new ;" d="M92.435,256.001c0-70.415,54.795-128.023,124.071-132.53 c-2.894-0.188-5.81-0.294-8.752-0.294c-73.359,0-132.825,59.467-132.825,132.825s59.466,132.825,132.825,132.825 c2.942,0,5.858-0.106,8.752-0.294C147.23,384.024,92.435,326.416,92.435,256.001z"/> <path style="opacity:0.1;fill:#231F20;enable-background:new ;" d="M431.965,337.352c0-4.531,3.673-8.205,8.205-8.205h-17.505 c-4.531,0-8.205,3.674-8.205,8.205c0,4.531,3.674,8.205,8.205,8.205h17.505C435.638,345.557,431.965,341.883,431.965,337.352z"/> </g> <path style="fill:#38b3ff;" d="M442.107,174.651c-19.109,0-34.6,15.491-34.6,34.599v23.331v3.88v58.115 c0,8.59,6.965,15.554,15.556,15.554h38.089c8.59,0,15.556-6.963,15.556-15.554v-58.115v-3.88V209.25 C476.707,190.141,461.216,174.651,442.107,174.651z"/> <path style="opacity:0.1;fill:#231F20;enable-background:new ;" d="M425.011,294.577v-58.115v-3.88V209.25 c0-16.084,10.976-29.604,25.847-33.48c-2.796-0.729-5.727-1.119-8.752-1.119c-19.109,0-34.6,15.491-34.6,34.599v23.331v3.88v58.115 c0,8.59,6.965,15.554,15.556,15.554h17.505C431.976,310.132,425.011,303.167,425.011,294.577z"/> </g>

</svg>