<svg height="500px" width="500px" xmlns="http://www.w3.org/2000/svg" viewBox="0 0 1152.00 1152.00" fill="#1da1f2" stroke="#1da1f2" stroke-width="0.01152">

<g id="SVGRepo_bgCarrier" stroke-width="0"/>

<g id="SVGRepo_tracerCarrier" stroke-linecap="round" stroke-linejoin="round" stroke="#CCCCCC" stroke-width="2.304"/>

<g id="SVGRepo_iconCarrier"> <path fill="#1da1f2" stroke="#1da1f2" d="M428.651 177.487c-9.227 1.918-14.979 4.165-22.224 8.682-11.285 7.036-14.222 7.894-31.887 9.313-17.63 1.416-21.094 2.423-31.54 9.169-9.208 5.946-35.794 22.625-48.447 30.394-18.971 11.648-30.919 24.247-33.622 35.455-1.67 6.925-4.546 10.375-14.679 17.609C219.676 307.084 215 314.127 215 335.173c0 14.3 2.989 20 44.484 84.827 39.38 61.522 46.454 73.622 46.476 79.5.004 1.1-1.972 6.377-4.392 11.726l-4.4 9.726-.197 67.774-.196 67.774 2.99 8.5c1.644 4.675 8.499 23.35 15.232 41.5 6.734 18.15 14.178 38.625 16.542 45.5 6.232 18.12 13.474 29 19.303 29 2.218 0 3.001 1.627 9.15 19 10.186 28.782 10.023 28.53 23.728 36.601 12.634 7.439 15.895 7.805 26.016 2.917 9.552-4.613 11.513-6.365 15.911-14.221 2.076-3.709 5.82-8.236 9.311-11.261 9.494-8.224 16.052-26.766 14.047-39.711-1.472-9.507-5.85-17.848-14.171-27-14.821-16.301-37.761-76.777-39.538-104.231-.728-11.252-.522-11.221 7.238 1.121 16.271 25.879 29.432 34.751 51.591 34.779 4.336.006 4.662.193 5.225 3.004.82 4.104 26.241 63.229 34.663 80.625 7.158 14.782 10.286 18.355 16.105 18.392 3.408.022 4.592 1.037 6.435 5.52 4.118 10.017 8.601 17.164 21.89 34.899 23.7 31.63 64.126 89.835 68.806 99.066 1.394 2.75 3.518 5.889 4.72 6.975 1.202 1.086 3.305 4.343 4.675 7.238 1.474 3.115 4.282 6.732 6.883 8.863 2.417 1.98 4.698 4.573 5.069 5.762.371 1.189 3.751 8.687 7.51 16.662 6.152 13.052 6.985 15.575 8.342 25.265 2.995 21.387 12.48 32.433 25.915 30.178 12.318-2.068 31.542-10.544 52.637-23.21 26.565-15.95 40.163-27.562 48.188-41.147 5.923-10.028 7.012-11.007 12.312-11.069 22.15-.258 75.963-29.995 98.179-54.255 13.889-15.166 11.69-28.125-7.077-41.701-4.456-3.223-11.274-9.168-15.152-13.211-11.122-11.597-14.975-17.066-26.922-38.217-1.512-2.677-5.586-8.584-9.052-13.128-5.592-7.328-14.314-21.892-23.959-40.005-1.757-3.3-4.55-8.25-6.206-11-4.49-7.454-23.935-41.914-33.232-58.889-4.484-8.189-10.864-18.806-14.176-23.593-5.515-7.973-6.151-9.451-7.555-17.59-1.889-10.948-2.609-12.356-11.619-22.746-13.875-15.998-26.305-30.134-36.594-41.616-20.421-22.789-20.939-23.895-17.913-38.228 3.869-18.327 1.609-27.755-11.227-46.845-8.944-13.302-11.532-19.283-9.972-23.048 1.477-3.566.808-3.564 7.823-.023 7.623 3.848 19.889 14.986 46.654 42.364 35.845 36.665 34.471 35.023 36.117 43.188 2.286 11.338 3.922 14.027 13.175 21.653 11.445 9.432 12.691 9.975 23.013 10.019 4.782.02 11.631.108 15.22.195 5.853.143 7.071-.191 11.813-3.236l5.288-3.394 5.552 1.332c6.506 1.56 8.908.616 20.444-8.041 8.182-6.14 9.416-8.807 9.258-20.002-.211-14.9-3.824-21.43-22.41-40.5-10.853-11.136-15.97-18.866-15.97-24.124 0-3.165-6.731-12.359-10.54-14.397-3.447-1.845-1.503-3.157-41.939 28.323-5.512 4.29-8.221 6.153-6.021 4.139 6.585-6.029 33.114-27.164 39.011-31.079 3.019-2.005 5.489-3.849 5.489-4.099 0-2.389-38.006-42.213-61.044-63.964-15.182-14.334-21.972-19.195-29.664-21.236-2.314-.615-4.445-1.501-4.735-1.97-.289-.469-2.787-1.592-5.549-2.495-2.762-.904-9.856-3.927-15.765-6.718-5.909-2.792-13.19-5.936-16.182-6.989-6.571-2.311-13.732-6.282-25.071-13.902-18.082-12.15-25.298-14.493-48.942-15.89-24.264-1.434-24.64-1.779-54.509-50.099l-10.456-16.92c-10.211-16.532-42.312-64.02-47.557-70.354-12.266-14.812-26.668-20.024-44.875-16.239m1.485 6.03C425.217 184.893 402 197.662 402 198.991c0 .316 2.478 3.56 5.507 7.209 5.468 6.588 5.533 6.628 9.036 5.661 4.002-1.105 8.619.641 21.343 8.072 17.635 10.3 31.655 29.054 35.626 47.655 2.234 10.463 3.049 29.406 1.537 35.709l-1.261 5.256 5.571 9.973c6.177 11.059 8.641 18.963 8.641 27.724 0 5.661 2.48 12.693 5.033 14.271.584.361 3.628-.899 6.765-2.8l14.702-8.914c4.95-3.003 13.5-7.814 19-10.693 5.5-2.878 11.052-6.566 12.338-8.194 1.286-1.628 3.645-3.635 5.242-4.461l2.904-1.502-5.637-8.729c-3.101-4.8-18.69-29.203-34.643-54.228-41.485-65.079-45.276-70.151-56.455-75.537-7.127-3.434-18.801-4.272-27.113-1.946m-63.343 17.409c-3.928 1.274-11.467 5.705-37.216 21.876-49.789 31.266-54.814 35.325-58.219 47.038-2.729 9.387.151 20.319 8.58 32.57 3.886 5.648 3.862 5.894-.917 9.275l-3.978 2.815-.007 9c-.018 24.407 9.988 42.499 31.034 56.114 3.891 2.517 7.25 4.399 7.467 4.183.216-.217-1.234-3.072-3.222-6.345-19.127-31.492-18.761-68.836.965-98.555 35.185-53.009 114.292-51.777 149.755 2.332l4.11 6.271-.609-7.691c-1.793-22.658-14.573-41.488-35.334-52.061-9.294-4.733-9.299-4.734-13-3.151a337.813 337.813 0 0 1-4.702 1.983c-1.562.623-2.734-.543-8.659-8.611-6.336-8.627-10.562-12.495-16.565-15.162-4.836-2.15-15.486-3.178-19.483-1.881m-.293 51.038c-27.543 7.294-47.327 26.456-56.825 55.036-3.757 11.304-3.193 34.537 1.14 47 17.708 50.929 79.945 70.609 122.722 38.806 27.9-20.743 37.995-59.494 24.402-93.669-14.129-35.519-55.28-56.749-91.439-47.173m11 11.684c-34.924 7.259-56.805 32.24-56.806 64.852-.001 57.063 65.95 87.414 108.188 49.79 41.116-36.625 20.14-105.685-34.685-114.192-7.03-1.09-12.861-1.248-16.697-.45m-126.019 31.364c-19.674 13.094-25.928 22.366-25.961 38.488-.03 14.847-1.931 11.279 45.826 86 43.143 67.501 40.111 63.114 41.872 60.599.791-1.13 6.803-5.667 13.36-10.084 22.319-15.035 41.922-28.936 41.92-29.726-.009-3.018-5.689-8.53-12.102-11.743-7.829-3.922-14.708-10.549-22.641-21.81-4.304-6.111-5.066-6.736-8.218-6.736-5.127 0-25.738-10.796-34.137-17.881-14.123-11.913-22.221-25.387-25.845-43.004-3.353-16.297-2.87-27.022 1.423-31.592l2.149-2.287-2.988-4.868c-1.643-2.677-3.296-6.11-3.674-7.627-1.037-4.169-1.427-4.089-10.984 2.271m223.2 44.043c-1.558 13.262-6.616 27.233-14.792 40.866-1.789 2.982-2.608 5.032-1.82 4.556 7.348-4.445 19.431-12.717 19.431-13.304 0-.406.858-2.64 1.906-4.966 2.465-5.465 1.584-6.165-3.406-2.707-4.699 3.256-5.942 2.711-4.081-1.788 3.813-9.212 5.012-13.722 4.978-18.712-.057-8.273-1.421-10.703-2.216-3.945m80.431-3.265c-2.3 4.298-8.663 64.312-7.124 67.188 1.685 3.148 3.011 2.39 3.024-1.728.01-3.106 3.853-39.096 6.567-61.5.712-5.877-.446-7.736-2.467-3.96m14.558.96c-1.707 2.858-5.945 36.21-7.255 57.099-.789 12.574-.574 13.108 5.3 13.136 4.249.02 4.739-1.115 6.686-15.485 5.413-39.947 6.413-52.286 4.399-54.3-1.31-1.31-8.407-1.66-9.13-.45m20.866 7.882c-1.725 20.671-7.386 62.348-9.042 66.563-.541 1.378 1.367 2.67 10.17 6.888l36.836 17.65c14.3 6.852 30.05 14.263 35 16.47 8.63 3.846 9.739 4.736 27 21.662 9.9 9.708 21.406 20.93 25.569 24.938l7.568 7.287 2.432-2.395c2.228-2.195 50.974-41.184 55.314-44.242 2.324-1.638-11.651-16.817-44.17-47.972-22.501-21.557-26.127-24.404-34.763-27.291-8.904-2.977-17.121-6.649-61.45-27.46-28.781-13.512-41.847-19.152-45.154-19.49l-4.653-.476-.657 7.868m-62.036 8.605c-34.164 20.063-81.5 50.154-81.5 51.81 0 2.602 18.524 30.966 19.882 30.445.792-.304 6.8-3.949 13.352-8.099 26.096-16.533 35.486-18.392 52.554-10.405 17.097 8 31.315 31.832 29.838 50.012-1.293 15.914-8.111 24.756-30.126 39.072-6.6 4.292-12.78 8.394-13.733 9.116-2.436 1.845 27.904 49.812 31.507 49.812 1.405 0 11.665-6.388 11.698-7.283.015-.431-1.097-3.004-2.472-5.717-4.859-9.588-3.121-13.241 10.423-21.912 12.151-7.778 17.022-7.481 23.296 1.42 2.742 3.89 3.336 4.267 5.189 3.288 4.103-2.169 26.592-17.009 26.592-17.547 0-.302-3.688-5.544-8.195-11.649-18.519-25.086-20.995-29.367-33.304-57.6-13.722-31.472-12.434-30.01-27.678-31.422-8.32-.771-12.835-2.615-16.203-6.618-3.446-4.095-3.468-11.147-.126-39.46 2.741-23.221 2.836-24.542 1.756-24.405-.413.052-6.15 3.266-12.75 7.142m-121.543 76.535C359.848 459.816 339 473.962 339 475.883c0 .488 9.788 4.141 21.75 8.118 40.52 13.472 43.253 16.035 36.864 34.575-1.313 3.808-2.657 9.849-2.987 13.424l-.601 6.5 18.058 20.5c19.964 22.665 22.663 26.425 35.337 49.242 4.809 8.658 9.076 15.947 9.481 16.197.729.451 23.399-13.416 25.884-15.832 1.046-1.017.814-2.267-1.24-6.679-4.953-10.641-3.056-14.274 11.933-22.851 10.811-6.185 17.314-5.315 22.208 2.971 2.391 4.046 3.159 3.858 14.459-3.546l9.918-6.498-3.351-5.252c-1.843-2.889-8.866-13.908-15.605-24.488-6.74-10.58-12.581-19.439-12.982-19.686-.4-.247-6.253 3.131-13.008 7.506C469.315 546.8 462.066 550 450 550c-18.172 0-31.247-10.015-43.172-33.067-3.144-6.077-3.324-6.987-3.253-16.433.16-21.373 5.132-27.609 39.319-49.325 7.208-4.578 13.106-8.902 13.106-9.608 0-1.286-16.082-26.957-18.37-29.324-.969-1.002-7.209 2.565-30.673 17.529M353 414.042c5.917 4.948 12.032 6.936 21.5 6.989l9 .051-4.222 3.82c-4.842 4.381-4.641 5.098 1.429 5.098 4.629 0 8.515-1.66 18.138-7.749l5.928-3.751-14.637-.037c-15.512-.04-26.439-1.494-34.636-4.611l-5-1.9 2.5 2.09m155.734 9.989c-9.367 2.349-78.134 46.175-87.405 55.704-12.147 12.483-9.124 34.035 7.108 50.679 9.606 9.85 23.354 12.516 34.591 6.708 15.463-7.993 78.208-49.313 82.724-54.478 8.387-9.591 8.744-20.949 1.12-35.715-9.411-18.228-23.362-26.605-38.138-22.898M586 427.417c0 1.465 16.824 37.423 20.601 44.03 7.633 13.355 32.231 47.488 49.681 68.94l2.348 2.887 3.076-4.643c4.593-6.935 6.631-15.697 6.123-26.323-.484-10.132-.265-9.662-17.154-36.808-15.881-25.527-14.174-23.73-30.175-31.751-15.688-7.863-34.5-16.769-34.5-16.332m-81.5 4.68c-9.451 5.088-17.483 10.97-19.007 13.917-2.06 3.984.534 9.96 11.992 27.618 13.993 21.566 15.948 22.539 29.057 14.468 18.508-11.396 18.51-11.512.925-38.006-13.564-20.437-15.548-21.992-22.967-17.997m-1.864 13.493-6.755 4.532 2.728 4.689c5.48 9.418 13.373 21.945 15.305 24.287l1.982 2.402 6.552-3.448c3.604-1.897 6.552-4.008 6.552-4.693 0-.897-17.75-30.234-19.41-32.08-.109-.121-3.238 1.819-6.954 4.311m-45.009 21.817c-16.927 6.302-22.276 28.014-10.195 41.386 17.237 19.08 48.801 2.912 43.564-22.314-3.084-14.856-19.496-24.236-33.369-19.072m2.752 9.977c-7.798 3.525-11.086 13.581-7.001 21.41 4.963 9.512 20.823 9.648 25.787.222 6.39-12.136-6.629-27.126-18.786-21.632m328.614 4.297c-13.762 10.433-37.385 29.75-43.867 35.87-5.83 5.504-6.303 6.25-5.232 8.25 2.425 4.533 4.925 3.001 37.076-22.723 21.863-17.493 28.051-23.678 25.589-25.579-3.252-2.511-5.757-1.739-13.566 4.182m-466.547 3.406c-1 1.618.392 2.435 7.381 4.338 3.48.947 18.231 5.739 32.781 10.648 29.83 10.067 27.392 9.404 27.392 7.453 0-2.231-3.135-3.517-33.944-13.921-28.338-9.569-32.334-10.582-33.61-8.518M777.5 516.093c-29.02 23.399-28.036 22.113-24.976 32.637 3.061 10.53 18.389 22.453 24.994 19.444 6.495-2.959 5.727-8.238-2.553-17.556-7.732-8.702-8.902-11.441-5.92-13.856 1.197-.969 2.826-1.762 3.621-1.762.794 0 4.616-1.35 8.494-3 10.55-4.49 12.499-4.186 20.369 3.176 7.814 7.309 8.978 9.33 10.538 18.288 2.115 12.143 10.378 14.805 16.298 5.252 1.002-1.617 2.943-3.028 4.629-3.365 5.712-1.142 6.533-3.268 6.261-16.208l-.246-11.643-16.254-16.237c-8.94-8.93-16.93-16.213-17.755-16.185-.825.029-13.2 9.485-27.5 21.015m-459.903-15.929c-4.354 6.217-2.825 7.376 20.844 15.802 36.937 13.149 43.495 14.664 45.398 10.487 3.028-6.644 2.735-6.865-18.839-14.261-41.37-14.183-45.21-15.157-47.403-12.028m423.327 5.586-2.424 2.75 2.75-2.424c1.513-1.334 2.75-2.571 2.75-2.75 0-.785-.81-.146-3.076 2.424m-431.792 13.46c-1.615 4.355-2.121 22.522-2.195 78.79l-.074 56.5 13.146 35.5c7.231 19.525 14.504 39.212 16.163 43.75 1.897 5.187 3.559 8.25 4.477 8.25 1.465 0 23.63-11.184 52.129-26.304 11.725-6.22 15.135-8.465 14.659-9.651-.341-.85-5.488-15.72-11.437-33.045l-10.818-31.5-.633-47c-.8-59.341.135-53.57-9.031-55.781-7.431-1.792-60.498-19.166-63.777-20.88-1.376-.719-1.945-.42-2.609 1.371m307.124 16.611c-7.285 4.773-13.247 9.134-13.25 9.691-.003.557 4.169 7.532 9.272 15.5 21.273 33.218 21.245 34.201-1.359 46.862-11.121 6.229-13.602 4.238-33.044-26.519-4.991-7.895-9.315-14.355-9.609-14.355-.709 0-41.393 25.98-43.084 27.513-1.073.972-.491 2.388 3.119 7.591 6.806 9.809 17.734 27.8 20.396 33.578 3.548 7.701 2.113 10.377-9.75 18.192-17.285 11.388-17.992 11.016-37.489-19.708-10.347-16.305-11.006-16.985-14.63-15.125-5.532 2.84-25.828 16.235-25.828 17.047 0 1.776 13.879 29.912 14.755 29.912.495 0 3.669-1.125 7.053-2.5 11.4-4.632 13.146-3.681 20.573 11.203 4.944 9.908 27.688 62.27 33.195 76.422 4.383 11.261 2.472 18.16-7.037 25.413-1.946 1.485-3.539 3.446-3.539 4.359 0 3.794 7.356 16.482 17.164 29.603 5.755 7.7 17.375 23.675 25.822 35.5 24.724 34.612 41.074 57 41.626 57 .283 0 6.223-3.745 13.201-8.322 6.978-4.577 24.498-15.868 38.934-25.091 14.436-9.223 26.412-17.065 26.612-17.428.385-.695-9.856-18.399-45.214-78.159l-21.596-36.5L610.28 705c-14.179-37.56-17.617-47.517-17.006-49.252.243-.692 13.856 12.083 30.586 28.704l30.147 29.951 37.13 54.049c20.422 29.726 37.693 54.654 38.38 55.396 1.597 1.722.47 2.33 29.983-16.19 13.2-8.283 30.075-18.815 37.5-23.404 7.425-4.589 13.635-8.728 13.8-9.199.165-.471-1.446-3.713-3.58-7.205-5.03-8.229-42.646-75.093-52.756-93.773-4.596-8.493-10.201-17.205-13.63-21.19l-5.824-6.766-6.701 3.038c-13.443 6.096-16.147 4.015-61.279-47.159-29.911-33.915-29.859-33.803-20.049-43.138l5.982-5.692-10.507-13.085c-5.779-7.197-11.058-13.053-11.732-13.014-.673.039-7.184 3.976-14.468 8.75m-41.897 4.246c-6.827 4.5-7.055 5.487-2.52 10.896l2.661 3.175 6.5-4.185c3.575-2.302 6.711-4.382 6.97-4.623.977-.908-4.317-9.33-5.859-9.321-.886.005-4.375 1.831-7.752 4.058m217.447 14.549c-.349 15.839-.287 16.028 4.699 14.382 8.598-2.837 7.86-16.626-1.358-25.382l-3.035-2.883-.306 13.883m-204.556 4.533c-7.132 4.602-7.222 4.873-3.492 10.494l2.749 4.143 6.746-4.377c7.574-4.914 7.611-4.999 4.497-10.453-2.743-4.805-2.755-4.805-10.5.193M395.283 585l.376 29.5L406.44 631c21.366 32.698 27.075 37 49.109 37 8.868 0 8.747.552 2.578-11.768-2.68-5.353-6.077-13.107-7.55-17.232-2.837-7.95-14.158-29.495-23.062-43.888-4.825-7.8-17.239-23.143-28.409-35.112l-4.199-4.5.376 29.5m265.17-23.75-3.953 4.25 4.25-3.953c2.337-2.174 4.25-4.087 4.25-4.25 0-.757-.871.001-4.547 3.953m7.318 7.879-8.728 8.02 20.172 22.675c38.044 42.765 39.369 43.862 46.835 38.788 5.559-3.777 7.767-8.689 5.764-12.82-2.055-4.236-39.923-48.62-54.168-63.488-.878-.916-3.188.681-9.875 6.825M601 577.884c-8.464 5.353-8.532 5.626-3.396 13.629 5.416 8.439 6.08 8.644 13.023 4.034 7.226-4.798 7.295-5.271 1.978-13.49-5.165-7.986-5.428-8.08-11.605-4.173m-104.75 12.1c-7.68 4.872-7.679 4.852-.59 13.921.379.485 14.34-8.698 14.34-9.433 0-1.448-5.197-8.471-6.263-8.462-.68.005-4.049 1.793-7.487 3.974M509 609.122c-3.575 2.256-6.646 4.235-6.824 4.397-.611.557 2.62 5.986 4.66 7.833 1.999 1.809 2.167 1.769 8.215-1.964 7.464-4.608 7.743-5.202 4.854-10.343-2.796-4.976-2.902-4.975-10.905.077m12.761 19.161c-7.964 4.983-7.825 4.31-2.679 12.972 5.07 8.534 5.657 8.75 12.523 4.608 7.373-4.448 8.206-6.098 5.14-10.177-1.317-1.752-3.456-5.099-4.754-7.436-2.839-5.114-1.999-5.116-10.23.033M481 675.5c-1.375.786-2.05 1.429-1.5 1.429.55 0 2.125-.643 3.5-1.429s2.05-1.429 1.5-1.429c-.55 0-2.125.643-3.5 1.429m8 8.911a427.925 427.925 0 0 0-10.222 4.489l-4.722 2.169 1.869 4.715c3.261 8.226 24.14 56.338 28.627 65.966 4.267 9.156 4.348 9.25 7.912 9.25 7.146 0 15.536-5.216 15.536-9.658 0-3.815-29.584-75.258-32.319-78.046-.919-.938-2.401-.69-6.681 1.115m127.25 11.316c-3.858 8.245 6.81 33.323 32.445 76.273 7.715 12.925 18.407 31.375 23.761 41 12.113 21.777 20.487 34.632 28.017 43.012 6.249 6.955 13.527 17.486 13.527 19.573 0 .965-.791 1.047-3.25.336-5.19-1.501-12.332 2.493-58.75 32.856-22.567 14.761-26 17.515-26 20.851 0 3.708 1.624 3.625 6.912-.352 14.11-10.612 73.275-47.783 77.904-48.945 4.236-1.063 7.125 1.56 16.114 14.631C739.228 912.844 748.245 922 753.558 922c4.867 0 9.43-1.938 9.417-4-.061-9.542-15.7-45.243-21.776-49.708-1.652-1.214-4.446-4.727-6.208-7.807-1.762-3.08-4.73-7.869-6.597-10.643-1.869-2.777-3.394-6.313-3.394-7.87 0-5.895-9.302-20.396-56.37-87.879-19.68-28.216-26.995-37.269-42.273-52.315l-8.857-8.722-1.25 2.671m-234.455 37.504c-14.138 7.256-25.535 13.362-25.327 13.57.452.452 47.468-23.281 50.161-25.32 3.595-2.723.689-1.348-24.834 11.75m4.05 11.102c-38.847 19.642-39.992 20.414-35.853 24.16 2.805 2.538 4.346 1.951 34.301-13.079 35.623-17.874 36.43-18.399 35.282-22.971-1.043-4.157-4.188-3.048-33.73 11.89m9.732 17.454c-15.907 8.092-29.488 15.613-30.179 16.713-1.081 1.72-.383 4.45 4.989 19.5 8.758 24.536 8.232 23.681 18.024 29.25 10.029 5.703 13.374 6.024 18.242 1.75 2.068-1.816 4.529-3 6.236-3 3.819 0 8.111-4.104 8.111-7.756 0-2.985-2.168-5.423-11.119-12.508-5.144-4.071-9.881-14.423-9.881-21.594 0-4.17 5.499-11.213 14.538-18.62l4.741-3.885 3.227 3.521c1.775 1.936 4.031 5.956 5.014 8.931 3.428 10.379 6.814 13.052 13.17 10.396l3.595-1.502-.549-7.741c-.919-12.96-3.146-17.921-10.544-23.492-3.469-2.612-6.844-4.733-7.5-4.713-.655.02-14.207 6.657-30.115 14.75M411 786.917c0 10.424 17.731 21.257 23.952 14.634 2.771-2.949 2.203-5.048-1.621-5.993-1.557-.385-4.93-2.04-7.495-3.678-2.565-1.638-6.288-3.241-8.274-3.564-1.986-.322-3.851-.975-4.145-1.451-.709-1.146-2.417-1.11-2.417.052m401.5.952c-8.366 3.816-70.402 42.884-75.25 47.389-2.133 1.982-2.985 5.674-1.623 7.035.344.345 3.382-1.327 6.75-3.714C756.504 828.562 818.672 790 820.693 790c1.954 0 1.576-1.785-.627-2.965-2.526-1.352-2.855-1.315-7.566.834m7 14.971c-11.184 5.292-64.28 39.256-71.342 45.636-7.126 6.438-5.197 12.133 2.098 6.192 8.04-6.55 65.949-43.751 75.744-48.659 5.671-2.842 5.522-2.675 4.02-4.485-1.788-2.155-3.686-1.917-10.52 1.316m-10.604 25.961c-30.593 18.852-47.964 29.988-50.646 32.468-2.807 2.595-2.827 5.114-.098 12.408l2.152 5.751 1.598-2.429c17.708-26.914 43.81-44.539 72.598-49.022 4.4-.685 8.35-1.558 8.778-1.94.824-.734-9.512-11.037-11.072-11.037-.503 0-10.993 6.21-23.31 13.801M833 838.965c-26.757 5.743-47.314 20.136-61.408 42.995-5.411 8.776-5.264 7.562-1.938 16.077l2.653 6.794 3.597-2.266c1.978-1.247 11.696-7.365 21.596-13.596 43.898-27.628 62.5-40.096 62.5-41.889 0-.413-1.635-2.851-3.634-5.416-4.299-5.519-8.154-5.964-23.366-2.699m32.819 18.327c-3.822 3.33-15.928 11.184-55.819 36.211-34.083 21.384-36 22.824-36 27.048 0 3.184.236 3.449 3.074 3.449 18.985 0 91.289-45.232 100.304-62.749l1.673-3.25-3.276-1.997c-4.36-2.658-5.615-2.496-9.956 1.288m-170.063 5.132c-7.129 2.544-69.095 42.41-76.006 48.899-2.5 2.347-3.544 5.549-2.237 6.857.283.282 10.97-6.416 23.75-14.885 28.096-18.62 56.123-36.237 59.94-37.678 3.291-1.242 3.513-2.163.863-3.582-2.29-1.225-1.682-1.263-6.31.389m184.343 12.65c-14.668 16.663-61.787 46.896-88.63 56.868-7.278 2.704-7.644 2.965-4.223 3.009 18.733.244 81.726-39.012 95.108-59.269 5.114-7.741 4.233-7.979-2.255-.608m-180.724 23.758c-21.685 13.19-52.627 33.133-57.119 36.814-4.94 4.048-5.205 5.743-2.167 13.861l2.088 5.582 5.811-8.329c15.918-22.814 48.978-43.358 70.512-43.816 8.192-.174 8.506-1.03 2.48-6.777-2.979-2.842-6.163-5.167-7.074-5.167-.911 0-7.45 3.524-14.531 7.832M722 913.11c-27.8 4.429-51.499 18.875-65.804 40.113-7.576 11.248-8.396 13.135-6.685 15.394.783 1.036 2.15 4.021 3.037 6.633s1.764 4.75 1.949 4.75c.568 0 57.138-35.704 72.278-45.618 7.851-5.141 14.534-10.025 14.852-10.853.347-.904-1.1-3.51-3.617-6.518-4.605-5.499-5.147-5.631-16.01-3.901m26 19.791c-1.925 1.559-16.1 10.821-31.5 20.581-63.056 39.965-60.5 38.144-60.5 43.13 0 4.099.717 4.107 13 .158 30.462-9.792 92-52.155 92-63.332 0-3.855-8.47-4.205-13-.537m9.399 21.955c-20.072 19.065-60.594 44.393-84.283 52.681-5.76 2.015-6.186 2.324-3.292 2.389 18.613.416 80.063-37.839 94.694-58.952 4.402-6.352 2.651-5.397-7.119 3.882" fill-rule="evenodd"/> <path fill="#1da1f2" stroke="#1da1f2" d="M426.768 178.46c-8.405 1.84-14.168 4.257-23.137 9.704-9.974 6.059-12.565 6.75-29.478 7.868-15.957 1.054-18.807 1.75-26.167 6.39-3.017 1.902-7.246 4.431-9.397 5.62-2.151 1.19-10.349 6.279-18.219 11.31-7.87 5.032-17.275 10.948-20.9 13.148-24.706 14.994-34.687 24.944-38.089 37.971-2.199 8.423-3.309 9.664-18.382 20.565-21.423 15.492-25.263 20.774-27.238 37.464-2.233 18.863-1.252 20.791 56.002 110.123 37.853 59.061 37.238 57.593 30.366 72.487l-3.871 8.39-.362 69.5-.362 69.5 15.591 42c8.576 23.1 17.325 47.11 19.444 53.355 4.953 14.602 10.23 22.832 16.584 25.869 5.183 2.477 4.255.612 14.739 29.64 6.413 17.759 7.527 19.291 19.087 26.251 13.166 7.926 18.019 8.273 29.499 2.11 7.652-4.108 8.176-4.621 12.845-12.574 3.474-5.917 6.243-9.28 9.674-11.744 2.644-1.9 5.036-4.006 5.316-4.68 8.798-21.201 9.918-26.486 7.785-36.748-1.783-8.578-5.209-14.755-13.569-24.461-16.295-18.918-39.524-81.2-39.528-105.982-.001-10.621-.298-10.77 9.477 4.757 14.127 22.442 25.241 30.248 44.988 31.595l8.967.612 3.154 8.5c4.278 11.527 25.132 59.466 32.844 75.5 7.015 14.585 8.306 16.097 15.202 17.799 5.267 1.3 4.566.378 11.718 15.41 1.568 3.295 9.218 14.514 17 24.931 24.532 32.837 64.884 90.927 69.522 100.082 1.177 2.322 3.384 5.697 4.906 7.5 1.522 1.803 3.511 4.912 4.421 6.91.911 1.998 3.938 5.598 6.727 8 2.79 2.402 5.072 4.957 5.073 5.678 0 .72 3.175 7.92 7.056 16 6.211 12.929 7.234 15.889 8.533 24.69 5.157 34.921 17.997 39.243 57.911 19.493 34.201-16.923 59.736-36.407 68.398-52.189 5.522-10.062 6.364-10.692 15.711-11.765 36.112-4.145 103.322-50.253 103.381-70.923.027-9.341-3.798-14.825-17.549-25.161-14.449-10.859-26.622-25.492-37.398-44.955-2.893-5.225-8.311-13.55-12.04-18.5-3.729-4.95-10.291-15.3-14.582-23-4.292-7.7-8.954-16.035-10.362-18.522a5126.576 5126.576 0 0 1-5.559-9.861 9883.631 9883.631 0 0 0-13.592-23.978c-5.826-10.251-14.508-25.778-19.294-34.504-4.785-8.726-11.38-19.751-14.654-24.5-5.469-7.934-6.041-9.282-7.039-16.594-1.573-11.528-1.919-12.07-22.421-35.101-49.202-55.27-46.997-51.945-44.055-66.436 3.956-19.487 2.03-28.102-10.558-47.243-10.613-16.139-12.06-19.876-9.661-24.96l1.226-2.598 6.65 3.348c9.883 4.977 67.09 59.841 71.113 68.201.707 1.468 3.176 4.037 5.486 5.709 4.313 3.12 5.765 6.085 6.874 14.039 1.156 8.287 4.164 12.889 13.032 19.941 10.973 8.724 13.91 9.911 22.41 9.057 4.326-.434 8.138-.232 10.83.574 5.022 1.505 9.707.366 16.908-4.11 4.2-2.611 5.174-2.843 8.247-1.961 6.731 1.93 9.203 1.277 17.982-4.751 11.265-7.736 12.42-9.467 12.866-19.293.709-15.599-4.732-26.244-21.956-42.957C813.45 496.836 807 487.378 807 482.693c0-4.316-9.687-16.693-13.065-16.693-.938 0-27.126 20.079-44.907 34.432-6.86 5.538-13.61 10.94-15 12.006l-2.528 1.938 2.5-2.784c6.012-6.695 54.419-45.592 56.738-45.592 5.168 0-2.104-8.483-38.675-45.116-32.314-32.368-38.194-37.326-48.454-40.85-3.24-1.113-6.39-2.417-7-2.898-.61-.482-2.862-1.441-5.005-2.131-2.143-.691-8.218-3.283-13.5-5.759-5.282-2.476-13.654-6.148-18.604-8.158-4.95-2.011-14.625-7.294-21.5-11.742-22.202-14.364-26.804-16.003-49-17.452-17.394-1.135-21.213-1.892-26.099-5.174-3.239-2.176-23.858-31.982-34.048-49.22-2.276-3.85-6.033-9.925-8.35-13.5-24.164-37.289-30.101-46.264-38.102-57.593-19.078-27.018-31.462-33.239-55.633-27.947m9.232 3.173c-8.418 1.603-19.152 6.689-30.728 14.558l-4.228 2.874 5.697 6.973 5.696 6.973 4.718-.626c4.346-.577 5.492-.21 14.532 4.647C462.235 233.445 475 255.264 475 291.066c0 6.492-.456 13.003-1.013 14.468-.882 2.321-.368 3.781 4 11.349 6.895 11.947 9.013 18.422 9.013 27.551 0 7.824 3.591 16.566 6.805 16.566.725 0 7.929-3.989 16.007-8.864 8.078-4.875 19.188-11.217 24.688-14.094 5.5-2.876 10.653-6.29 11.452-7.587.799-1.297 2.936-3.157 4.75-4.134 3.985-2.146 3.969-1.879.46-7.375-1.56-2.445-16.026-25.146-32.145-50.446-47.5-74.554-51.264-79.562-63.349-84.274-5.845-2.279-14.986-3.484-19.668-2.593m-72.753 20.342c-12.597 5.717-79.333 49.22-85.086 55.464-11.575 12.563-11.153 25.545 1.476 45.33 4.112 6.443 4.243 5.504-1.241 8.889l-4.605 2.842.601 10.34c1.465 25.235 10.563 41.128 31.421 54.885 4.572 3.016 8.52 5.275 8.774 5.021.254-.254-1.423-3.563-3.727-7.354-18.606-30.615-18.703-68.143-.251-96.667 26.841-41.491 82.028-52.99 123.713-25.777 9.299 6.07 19.704 16.499 25.841 25.898l4.837 7.411v-6.079c0-22.355-13.593-43.459-35.216-54.675-9.243-4.795-9.77-4.943-12.959-3.649-7.138 2.896-6.986 2.967-14.066-6.578-9.684-13.056-16.557-17.169-28.759-17.21-4.327-.015-7.922.623-10.753 1.909m7.334 48.521c-64.005 13.325-86.323 93.218-38.29 137.069 45.87 41.878 118.265 18.534 130.869-42.2 11.278-54.347-39.125-105.998-92.579-94.869m-.908 15.465c-58.649 15.81-66.151 96.545-11.345 122.094 49.598 23.121 103.245-21.483 89.671-74.557-8.896-34.786-44.799-56.575-78.326-47.537M251.034 294.66c-20.789 13.717-28.387 27.026-25.883 45.336 1.397 10.217 2.204 11.597 54.772 93.689l31.423 49.072 3.577-3.469c1.967-1.908 7.751-6.24 12.852-9.628 22.651-15.044 41.124-28.265 41.172-29.469.113-2.808-6.539-9.465-11.78-11.789-8.009-3.552-12.473-7.594-20.303-18.385-6.987-9.631-7.188-9.806-12.409-10.855-14.367-2.885-35.964-17.552-46.023-31.255-12.72-17.328-19.103-52.327-11.018-60.412l2.282-2.282-3.295-5.226c-1.812-2.874-3.579-6.522-3.927-8.106-.852-3.877-1.642-3.685-11.44 2.779m223.551 42.954c-2.131 15.235-7.407 29.951-14.988 41.802-2.042 3.191-3.548 5.966-3.348 6.167.2.2 4.931-2.577 10.513-6.171 9.315-5.999 10.356-6.991 12.693-12.094 1.4-3.058 2.545-5.73 2.545-5.939 0-1.11-3.832-.075-6 1.621-5.463 4.274-5.843 3.127-1.861-5.612 2.497-5.479 3.161-8.32 3.247-13.888.138-9.051-1.792-13.107-2.801-5.886m79.925-2.364c-1.618 4.74-7.509 54.521-7.51 63.465 0 4.12.403 5.43 1.921 6.243 1.782.954 1.969.54 2.584-5.715 1.521-15.471 6.566-59.951 7.088-62.493.6-2.916-3.131-4.287-4.083-1.5m15.161 1.885c-2.024 3.136-3.384 11.155-5.714 33.675-3.501 33.832-2.595 39.559 5.79 36.61 3.267-1.149 3.192-.816 7.173-31.92 4.792-37.446 4.706-39.037-2.158-40.151-2.999-.487-3.808-.203-5.091 1.786m21.579-.01c-.687.701-1.25 3.314-1.25 5.806 0 5.98-4.627 44.63-7.012 58.569-1.458 8.526-1.612 11.258-.685 12.148 1.01.969 84.939 41.298 88.359 42.458.64.217 12.631 11.531 26.649 25.144 14.017 13.613 25.753 24.75 26.08 24.75.327 0 4.76-3.492 9.852-7.759 5.091-4.267 18.369-14.906 29.507-23.642 11.138-8.736 20.251-16.382 20.252-16.991.004-1.768-63.992-64.823-69.362-68.342-2.673-1.751-6.948-3.928-9.5-4.837-9.834-3.503-22.805-9.244-54.64-24.186-48.545-22.784-49.536-23.226-53.425-23.834-2.254-.353-4.037-.088-4.825.716M527 353.713c-28.505 16.864-81 49.808-81 50.834 0 .494 12.992 21.973 16.468 27.225 3.57 5.395 3.081 5.483 16.032-2.882 23.075-14.903 33.922-18.235 46.993-14.435 27.047 7.863 44.357 43.145 32.739 66.729-4.243 8.613-11.287 15.109-28.091 25.904-7.202 4.626-13.105 8.737-13.118 9.134-.023.735 20.099 32.63 27.066 42.903 4.946 7.291 5.489 7.412 12.733 2.832l6.115-3.867-3.072-6.564c-4.326-9.244-3.289-11.827 7.889-19.65 13.27-9.288 18.668-9.061 26.345 1.107l2.6 3.443 12.649-7.963c6.956-4.38 13.566-8.652 14.686-9.495 1.985-1.491 1.712-1.974-10.488-18.5-12.821-17.366-19.473-28.983-28.04-48.968-14.775-34.466-14.555-34.188-27.895-35.198-14.451-1.094-20.599-5.667-20.607-15.325-.004-4.218 4.225-43.882 5.568-52.227.781-4.853 1.299-5.018-15.572 4.963m-175.199 59.551c5.265 5.66 11.969 8.216 21.449 8.179 4.813-.019 8.75.15 8.75.375 0 .226-1.913 2.14-4.25 4.255l-4.25 3.845 6.786.041c6.611.04 7.041-.119 16.717-6.158 5.463-3.409 9.834-6.283 9.715-6.385-.12-.102-3.143.229-6.718.735-11.942 1.692-35.734-1.241-46.601-5.744l-3.899-1.616 2.301 2.473M403 431.799c-44.476 28.433-65 42.37-65 44.139 0 .441 10.238 4.285 22.75 8.542 25.335 8.62 33.834 12.184 36.661 15.376 2.654 2.996 2.465 11.926-.405 19.144-1.203 3.025-2.43 8.682-2.727 12.571l-.541 7.072 14.92 16.928c24.024 27.26 24.468 27.882 40.863 57.179 3.771 6.737 7.213 12.25 7.65 12.25.842 0 8.644-4.676 20.549-12.315l7.22-4.633-2.969-6.276c-1.633-3.452-2.97-7.366-2.97-8.697-.002-5.951 20.078-19.037 27.17-17.707 3.494.656 9.827 6.233 11.056 9.736.397 1.133 1.118 1.036 3.881-.523 7.196-4.064 18.892-11.812 18.892-12.516 0-.407-5.69-9.701-12.644-20.654a32774.372 32774.372 0 0 1-15.65-24.665c-1.653-2.612-3.458-4.75-4.011-4.75-.554 0-6.449 3.533-13.101 7.851-6.652 4.317-15.694 9.929-20.094 12.471-26.958 15.571-50.505 6.977-66.648-24.322-3.256-6.315-3.352-6.842-3.348-18.5.006-20.297 3.572-24.985 34.38-45.204 9.689-6.358 17.765-11.688 17.947-11.843.97-.826-18.748-31.457-20.24-31.442-.6.006-15.716 9.361-33.591 20.788m101-6.543c-12.756 5.406-77.59 48.199-83.921 55.391-18.796 21.354 6.083 64.458 34.421 59.636 7.025-1.195 12.879-4.497 48-27.077 42.966-27.624 46.887-30.913 49.577-41.597 2.459-9.766-2.341-23.986-12.357-36.609-8.752-11.03-23.313-15.002-35.72-9.744m82 2.585c0 3.457 16.314 37.444 23.818 49.619 10.861 17.621 46.784 65.733 48.682 65.199 2.532-.713 7.47-10.135 9.063-17.296 3.567-16.035 2.26-19.946-16.934-50.688-15.958-25.559-13.394-23.244-40.268-36.358C586.342 426.596 586 426.449 586 427.841m-87.5 8.254c-10.281 6.547-13.504 9.616-13.486 12.842.028 5.181 20.387 38.076 26.069 42.122 4.14 2.948 7.751 1.842 18.871-5.776 13.819-9.468 13.801-9.723-2.367-34.297-15.038-22.856-15.893-23.294-29.087-14.891m3.75 9.044c-3.437 2.266-6.25 4.661-6.25 5.323 0 1.303 16.308 28.223 18.359 30.306 1.335 1.356 12.137-3.251 14.611-6.232 1.133-1.365-17.206-32.465-19.598-33.236-.48-.154-3.684 1.573-7.122 3.839m-39.75 21.505c-24.522 5.961-29.3 36.235-7.476 47.368 20.207 10.309 41.892-9.293 34.448-31.14-3.689-10.828-16.781-18.705-26.972-16.228m325.607 15.223c-11.171 8.377-37.683 29.955-44.465 36.189-4.208 3.869-4.858 4.946-4.308 7.14 1.03 4.103 3.446 4.233 9.081.491 7.48-4.966 45.2-35.282 51.565-41.442l5.48-5.303-2.98-1.965c-4.177-2.753-4.185-2.75-14.373 4.89m-327.622-4.977c-9.279 4.015-12.239 16.495-5.742 24.217 10.594 12.59 31.599 1.55 25.823-13.572-3.33-8.721-12.857-13.771-20.081-10.645m-138.505 8.634c-1.579 1.903-1.698 1.821 5.52 3.803 3.3.906 18.712 5.894 34.25 11.084 25.111 8.387 28.25 9.224 28.25 7.535 0-3.071-3.393-4.581-32.609-14.51-28.079-9.543-33.122-10.669-35.411-7.912m460.52 26.094c-34.629 27.703-32.756 25.899-31.946 30.765 1.837 11.045 4.804 15.339 16.836 24.367 6.399 4.802 14.61 1.748 14.61-5.434 0-2.678-1.238-4.657-6.501-10.392-10.29-11.212-10.144-12.858 1.512-17.018 16.453-5.874 15.447-5.909 23.805.847 6.146 4.968 8.889 9.665 10.656 18.247 2.616 12.702 8.581 15.536 15.937 7.569 2.25-2.436 5.354-4.742 6.898-5.122 5.078-1.252 5.996-4.098 5.501-17.047l-.443-11.569-16.933-16.364c-9.312-9-17.157-16.383-17.432-16.406-.275-.024-10.4 7.877-22.5 17.557m-466.191-10.14c-2.25 4.718-.557 6.504 10.078 10.63 11.692 4.536 51.806 17.867 53.806 17.881 4.238.028 6.681-9.916 2.93-11.923C378.831 515.769 323.846 498 321.03 498c-2.512 0-3.361.625-4.721 3.478m-7.906 17.272c-.446.962-1.094 31.675-1.44 68.25l-.63 66.5 11.284 31c14.925 41.003 21.144 57.594 21.855 58.305.837.837 65.027-32.079 67.901-34.818.489-.467-4.233-15.599-10.75-34.453L385 639.913v-28.795c0-15.838-.293-38.218-.652-49.734l-.652-20.937-10.598-2.874c-5.829-1.58-22.424-6.856-36.878-11.723-30.273-10.194-26.794-9.307-27.817-7.1M617.5 534.612c-7.15 4.667-13.572 9.052-14.271 9.744-1.026 1.015.699 4.335 8.934 17.201 18.006 28.129 18.633 30.135 11.534 36.864C617.55 604.249 607.298 610 603.06 610c-5.061 0-11.331-7.169-23.926-27.356-7.158-11.473-10.755-16.387-11.624-15.879-9.271 5.415-43.504 27.972-43.507 28.667-.002.513 2.419 4.571 5.378 9.019C542.662 624.41 550 637.636 550 641.615c0 5.481-17.846 18.385-25.426 18.385-5.359 0-9.12-4.152-20.878-23.05-12.534-20.145-12.815-20.449-16.988-18.325-2.987 1.52-24.237 14.921-26.001 16.397-1.101.922 12.813 29.857 14.707 30.583.846.325 4.72-.658 8.609-2.184 10.488-4.114 11.061-3.75 18.985 12.079 8.832 17.643 35.114 79.135 35.72 83.577.634 4.64-2.13 10.029-8.145 15.881-3.093 3.008-4.578 5.285-4.569 7 .022 3.875 6.925 15.717 16.776 28.778 4.881 6.47 20.479 27.964 34.664 47.764 27.131 37.871 32.13 44.5 33.553 44.5.48 0 8.663-5.085 18.183-11.299 9.521-6.215 27.098-17.537 39.06-25.161 11.962-7.624 21.75-14.191 21.75-14.592 0-.755-29.244-50.945-53.496-91.814l-13.866-23.367-14.21-38.133C591.887 654.243 592.477 656 594.106 656c.683 0 14.551 13.416 30.818 29.812l29.576 29.813 37.908 55.184 37.909 55.185 4.091-2.307c3-1.691 75.703-46.972 77.34-48.168.136-.1-4.523-8.47-10.354-18.6-13.287-23.085-41.323-73.163-48.381-86.419-2.929-5.5-7.392-12.413-9.919-15.361-2.527-2.949-5.334-6.295-6.237-7.435l-1.644-2.073-5.981 2.685c-6.635 2.977-11.949 3.402-16.032 1.281-6.366-3.307-62.99-65.392-70.315-77.097-2.924-4.672-2.334-6.493 4.26-13.146l6.144-6.2-10.819-13.577c-5.951-7.467-11.078-13.549-11.395-13.514-.316.034-6.425 3.882-13.575 8.549m-42.805 4.636c-7.547 4.788-7.72 5.246-4.062 10.773 3.404 5.144 4.742 4.903 15.117-2.731 3.482-2.563 3.089-5.277-1.526-10.54-2.037-2.323-1.854-2.371-9.529 2.498M791.225 555l.275 15h2.827c7.536 0 10.858-9.57 6.594-19-1.982-4.384-7.48-11-9.142-11-.455 0-.705 6.75-.554 15m-128.949 3.859c-7.587 6.561-11.033 10.158-9.681 10.106 1.112-.043 18.193-15.881 17.181-15.93-.399-.019-3.774 2.602-7.5 5.824m-74.478-.548c-3.686 2.343-7.003 4.561-7.371 4.929-.704.704 3.914 9.235 5.545 10.243.965.596 15.028-8.232 15.028-9.434 0-.732-5.799-10.064-6.228-10.023-.15.014-3.288 1.943-6.974 4.285M394.496 584.68l.742 29.68 9.026 14.07c22.41 34.932 26.982 38.685 47.986 39.388 6.462.216 11.75.183 11.75-.073s-2.893-6.491-6.428-13.855c-3.535-7.365-6.737-14.74-7.116-16.39-1.406-6.127-21.31-41.791-29.098-52.137-6.093-8.095-25.661-30.363-26.681-30.363-.56 0-.631 11.671-.181 29.68m273.261-16.093c-4.541 4.173-8.378 7.91-8.525 8.304-.265.708 28.065 32.91 46.587 52.956 12.805 13.859 16.138 14.661 23.947 5.767 5.435-6.19 4.345-9.404-8.171-24.094-9.71-11.396-44.646-50.52-45.112-50.52-.258 0-4.184 3.414-8.726 7.587m-67.633 9.411c-8.064 5.212-8.154 5.684-2.656 13.954 6.062 9.118 5.561 8.987 13.683 3.586 7.878-5.238 7.801-4.472 1.444-14.391-5.383-8.397-4.641-8.21-12.471-3.149m-103.058 10.991c-3.539 2.154-6.786 4.546-7.216 5.314-.833 1.488 4.51 9.697 6.311 9.697 2.347 0 14.912-9.075 14.21-10.263-6.019-10.192-4.977-9.82-13.305-4.748m11.184 20.056c-7.169 4.592-7.336 5.156-3.205 10.859l3.045 4.203 3.705-2.244c13.058-7.912 12.143-6.588 8.663-12.525-3.127-5.336-4.291-5.364-12.208-.293m12.5 19.518c-3.712 2.432-6.75 4.636-6.75 4.897 0 .874 10.193 16.54 10.762 16.54 2.677 0 14.238-8.528 14.238-10.503 0-1.848-9.217-15.504-10.413-15.427-.598.038-4.125 2.06-7.837 4.493m-42.25 47.876c-4.95 2.416-8.628 4.431-8.173 4.477 1.083.11 17.893-6.989 19.123-8.077 2.375-2.098-2.688-.434-10.95 3.6m4.675 10.058c-8.521 4.072-9.263 4.652-8.611 6.73 2.718 8.653 31.941 74.569 34.134 76.991 4.166 4.604 20.302-2.76 20.302-9.265 0-1.982-23.841-59.091-30.977-74.203-2.759-5.841-3.141-5.848-14.848-.253m132.397 8.009c-1.229 6.975-.703 11.22 2.384 19.21 4.688 12.135 17.009 36.219 27.517 53.784 12.732 21.286 18.888 31.862 29.682 51 11.269 19.979 17.862 29.817 26.735 39.897 3.824 4.343 8.138 10.076 9.587 12.738l2.635 4.842-4.306-.556c-5.303-.686-10.195 2.014-47.742 26.344-36.766 23.825-37.891 24.766-35.931 30.067.828 2.236.883 2.221 6.101-1.701 10.905-8.194 66.607-43.603 75.301-47.867l5.444-2.67 2.76 2.042c1.519 1.124 5.911 6.536 9.761 12.027 18.742 26.732 23.934 31.084 33.516 28.094 3.663-1.144 3.984-1.53 3.984-4.79 0-9.972-13.251-39.964-21.902-49.574-6.746-7.493-14.274-20.022-15.689-26.109-1.565-6.732-3.509-10.056-21.145-36.151-44.646-66.064-56.294-81.822-74.099-100.248l-13.889-14.373-.704 3.994m-230.1 36.405c-28.398 14.556-38.488 20.061-36.802 20.078 1.417.013 58.028-28.395 60.757-30.49 5.322-4.083-1.24-1.231-23.955 10.412M409 732.368c-15.034 6.641-54.322 27.216-57.863 30.303-2.991 2.608-3.448 3.484-2.57 4.933 2.996 4.95 5.004 4.195 48.817-18.355 22.061-11.355 24.365-13.127 22.328-17.179-1.718-3.418-2.337-3.401-10.712.298m-12.5 28.428c-30.049 15.252-31.289 15.965-32.08 18.456-.579 1.824 9.188 30.911 12.988 38.68 1.778 3.634 3.63 5.309 10.283 9.297 10.694 6.411 13.92 6.929 18.438 2.962 1.892-1.661 5.114-3.334 7.161-3.718 3.953-.741 8.71-5.289 8.71-8.327 0-2.758-2.663-5.782-9.017-10.239-6.179-4.335-9.369-9.279-11.874-18.407-1.99-7.251-1.638-8.043 7.995-18 9.024-9.328 9.125-9.396 11.557-7.802 2.738 1.793 5.466 6.625 7.404 13.111 2.441 8.171 9.679 11.538 14.48 6.736 3.3-3.299 2.963-9.701-1.2-22.804-1.61-5.069-11.791-13.798-15.972-13.695-1.03.026-14.023 6.213-28.873 13.75m14.052 26.454c2.435 7.973 5.724 11.81 13.542 15.798 5.195 2.65 7.145 2.465 10.889-1.032 3.876-3.621 3.587-4.944-1.465-6.693-2.128-.737-5.928-2.651-8.444-4.254-2.516-1.604-6.266-3.226-8.335-3.605-2.069-.38-4.008-1.09-4.309-1.577-1.14-1.845-2.545-.824-1.878 1.363m397.681 2.261c-10.881 6.057-62.975 39.022-69.983 44.285-2.525 1.897-3.25 3.183-3.25 5.764 0 3.421 1.363 5.279 2.511 3.423 2.074-3.357 81.177-52.983 84.452-52.983.975 0 .847-.553-.463-2-2.595-2.868-6.122-2.466-13.267 1.511m8.132 14.407c-18.551 10.113-68.023 42.56-71.36 46.803-3.217 4.09-.754 10.028 2.719 6.555 5.686-5.686 66.216-44.71 80.63-51.982 3.604-1.818 3.745-2.052 2.178-3.619-2.593-2.594-6.401-1.991-14.167 2.243m-1.999 20.981c-27.504 16.8-53.46 33.475-56.59 36.353-3.344 3.076-3.315 4.184.354 13.443l2.058 5.195 7.215-9.695c17.411-23.395 40.763-37.608 69.347-42.209 3.987-.642 7.25-1.666 7.25-2.275 0-1.697-10.008-10.714-11.864-10.689-.9.012-8.896 4.457-17.77 9.877m22.823 12.698c-29.539 4.955-56.039 23.926-69.263 49.585l-1.897 3.682 2.476 5.318c1.361 2.925 2.48 6.106 2.485 7.068.016 2.82.673 2.478 26.67-13.878 42.797-26.927 62.34-40.121 62.34-42.087 0-.986-1.687-3.907-3.75-6.491-4.307-5.395-5.128-5.533-19.061-3.197m31.831 16.879c-1.689 2.035-22.108 15.448-49.52 32.529-47.02 29.299-50.658 32.299-44.931 37.053 8.617 7.151 85.837-38.803 101.593-60.458 3.73-5.126 3.593-6.174-1.122-8.58-4.729-2.412-4.488-2.39-6.02-.544m-178.187 9.891c-7.37 3.919-18.945 11.163-43.32 27.111-29.032 18.994-32.798 22.252-30.562 26.43 1.053 1.968 1.3 1.885 6.821-2.286 10.47-7.91 75.484-49.532 79.458-50.869 2.038-.686-1.042-3.753-3.769-3.753-1.262 0-5.145 1.515-8.628 3.367M878.5 875.892c-18.054 19.064-64.042 47.874-90.238 56.53-7.58 2.505-7.897 4.013-.653 3.108 22.969-2.869 81.13-39.003 94.522-58.723 5.99-8.82 4.266-9.255-3.631-.915M696 900.379c-42.446 26.418-56.171 35.703-58.097 39.302-1.176 2.197 1.99 13.517 4.154 14.854.439.271 2.968-2.75 5.62-6.714 15.467-23.112 46.259-42.404 71.025-44.498 4.853-.41 7.298-1.036 7.298-1.869 0-1.556-10.728-11.474-12.331-11.399-.643.03-8.594 4.675-17.669 10.324m21.5 13.094c-27.159 5.016-51.065 21.379-64.912 44.431l-4.911 8.176 2.04 3.71c1.121 2.041 2.569 5.366 3.216 7.39l1.176 3.681 26.696-16.765c51.4-32.279 62.501-39.678 61.96-41.301-.175-.526-2.107-3.148-4.292-5.826-4.549-5.576-7.262-6.028-20.973-3.496m27.5 20.986c-4.125 2.937-21.9 14.439-39.5 25.562-50.219 31.735-52.156 33.222-50.139 38.477 3.952 10.299 83.5-34.798 101.238-57.394 5.175-6.592 5.439-8.516 1.451-10.578-4.186-2.165-4.704-2.008-13.05 3.933m12.91 19.3c-24.227 22.549-67.398 49.054-88.592 54.391-6.669 1.679-6.686 3.286-.026 2.503 23.456-2.756 77.89-36.157 94.125-57.755 4.019-5.346 5.39-7.898 4.243-7.898-.186 0-4.574 3.941-9.75 8.759" fill-rule="evenodd"/> </g>

</svg>