<svg xmlns="http://www.w3.org/2000/svg" viewBox="0 0 1152 1152">

<path fill="#1ca4f4" d="M700.446 178.479c-16.102 5.087-19.888 9.782-68.95 85.521-2.316 3.575-6.073 9.65-8.349 13.5-10.19 17.238-30.809 47.044-34.048 49.22-4.886 3.282-8.705 4.039-26.099 5.174-22.068 1.441-26.8 3.11-48.5 17.104C502.224 356.914 494.909 361 493.011 361c-.588 0-7.918 3.107-16.29 6.905s-16.346 7.228-17.721 7.623c-1.375.394-2.999 1.114-3.609 1.6-.61.485-3.76 1.793-7 2.906-10.26 3.524-16.14 8.482-48.454 40.85C363.366 457.517 356.094 466 361.262 466c2.319 0 50.726 38.897 56.738 45.592l2.5 2.784-2.528-1.938c-1.39-1.066-8.14-6.468-15-12.006C385.191 486.079 359.003 466 358.065 466 354.687 466 345 478.377 345 482.693c0 4.685-6.45 14.143-15.894 23.307-17.224 16.713-22.665 27.358-21.956 42.957.446 9.826 1.601 11.557 12.866 19.293 8.827 6.061 11.677 6.799 17.888 4.634 2.866-1 3.722-.794 8.153 1.961 7.386 4.591 12.04 5.742 17.096 4.227 2.692-.806 6.504-1.008 10.83-.574 8.5.854 11.437-.333 22.41-9.057 8.868-7.052 11.876-11.654 13.032-19.941 1.108-7.948 2.477-10.941 6.06-13.252 1.921-1.238 4.607-4.017 5.969-6.175 7.275-11.524 61.462-63.495 71.444-68.522l6.65-3.348 1.226 2.598c2.399 5.084.952 8.821-9.661 24.96-12.588 19.141-14.514 27.756-10.558 47.243 2.942 14.491 5.147 11.166-44.055 66.436-20.445 22.967-20.84 23.582-22.417 34.915-1.226 8.819-1.474 9.387-8.091 18.496-2.656 3.657-8.625 13.624-13.264 22.149-4.639 8.525-13.338 24.113-19.331 34.639-11.416 20.051-14.895 26.208-19.966 35.336-13.815 24.865-18.53 32.685-24.435 40.525-3.728 4.95-9.146 13.275-12.039 18.5-10.776 19.463-22.949 34.096-37.398 44.955-13.751 10.336-17.576 15.82-17.549 25.161.06 20.728 67.024 66.657 103.381 70.906 9.345 1.093 10.194 1.729 15.711 11.782 8.662 15.782 34.197 35.266 68.398 52.189 39.653 19.621 52.751 15.319 57.827-18.993 1.389-9.388 2.301-12.055 8.613-25.19 3.883-8.08 7.06-15.28 7.06-16 .001-.721 2.283-3.276 5.073-5.678 2.789-2.402 5.816-6.002 6.727-8 .91-1.998 2.899-5.107 4.421-6.91 1.522-1.803 3.729-5.178 4.906-7.5 4.638-9.155 44.99-67.245 69.522-100.082 7.782-10.417 15.432-21.636 17-24.931 7.152-15.032 6.451-14.11 11.718-15.41 6.447-1.591 8.072-3.238 13.127-13.299 5.091-10.133 26.786-59.598 32.539-74.191 2.236-5.67 4.483-11.322 4.994-12.559.838-2.027 1.616-2.25 7.846-2.25 19.09 0 32.397-9.062 46.717-31.813 9.698-15.408 9.41-15.266 9.409-4.651-.004 24.782-23.233 87.064-39.528 105.982-8.36 9.706-11.786 15.883-13.569 24.461-2.133 10.262-1.013 15.547 7.785 36.748.28.674 2.672 2.78 5.316 4.68 3.431 2.464 6.2 5.827 9.674 11.744 4.669 7.953 5.193 8.466 12.845 12.574 11.48 6.163 16.367 5.821 29.377-2.058 12.785-7.743 12.316-7.015 22.142-34.384 7.112-19.807 6.723-19.11 12.082-21.682 6.062-2.91 10.812-10.388 15.944-25.101 2.302-6.6 11.206-30.9 19.788-54l15.602-42-.36-69.436-.36-69.436-3.868-8.414c-6.997-15.216-8.501-11.817 36.15-81.714 52.321-81.904 52.872-83.033 50.115-102.593-2.164-15.354-6.273-20.786-27.133-35.871-15.073-10.901-16.183-12.142-18.382-20.565-3.402-13.027-13.372-22.966-38.087-37.971-3.624-2.2-13.153-8.18-21.176-13.289-8.023-5.108-16.222-10.198-18.221-11.309-1.999-1.112-6.104-3.578-9.121-5.48-7.36-4.64-10.21-5.336-26.167-6.39-16.89-1.116-19.503-1.811-29.414-7.82-16.464-9.982-35.184-13.779-47.987-9.733m1.554 3.858c-16.897 4.942-18.62 7.053-64.229 78.663a44565.365 44565.365 0 0 1-32.146 50.414c-8.869 13.858-8.518 12.65-4.327 14.907 1.814.977 3.951 2.837 4.75 4.134.799 1.297 5.952 4.711 11.452 7.587 5.5 2.877 16.61 9.219 24.688 14.094S657.47 361 658.195 361c3.214 0 6.805-8.742 6.805-16.566 0-9.129 2.118-15.604 9.013-27.551 4.368-7.568 4.882-9.028 4-11.349-.557-1.465-1.013-7.976-1.013-14.468 0-35.802 12.765-57.621 43.313-74.034 9.04-4.857 10.186-5.224 14.532-4.647l4.718.626 5.696-6.973 5.697-6.973-4.228-2.871c-18.658-12.675-33.282-17.205-44.728-13.857m65.698 19.107c-6.637 2.367-11.676 6.69-18.457 15.832-7.08 9.545-6.928 9.474-14.066 6.578-3.189-1.294-3.716-1.146-12.959 3.649-21.568 11.187-35.15 32.167-35.201 54.375l-.015 6.379 4.837-7.411c27.518-42.153 86.039-53.449 126.574-24.433 38.158 27.315 47.957 79.468 22.729 120.979-2.304 3.791-3.981 7.1-3.727 7.354.888.889 17.135-10.484 22.3-15.611 11.808-11.718 18.147-28.781 18.254-49.135.029-5.441-.019-5.53-4.469-8.342-5.363-3.388-5.243-2.452-1.135-8.889 12.629-19.786 13.051-32.756 1.476-45.336-5.763-6.264-72.413-49.706-85.086-55.458-5.066-2.3-15.368-2.56-21.055-.531m-14.585 49.101c-23.707 5.143-41.813 17.573-53.833 36.955-32.385 52.224 4.472 121.089 64.72 120.923 46.47-.127 81.824-34.935 81.98-80.715.161-47.01-47.876-86.924-92.867-77.163M750 266.283c-29.409 9.007-48 33.685-48 63.717 0 35.686 29.253 64.891 64.341 64.234 58.219-1.089 86.495-70.74 45.243-111.445-16.48-16.261-40.959-22.822-61.584-16.506m139.542 25.467c-.339 1.512-2.109 5.158-3.933 8.101l-3.317 5.35 2.288 2.288c8.091 8.091 1.713 43.083-11.012 60.418-10.059 13.703-31.656 28.37-46.023 31.255-5.221 1.049-5.422 1.224-12.409 10.855-7.83 10.791-12.294 14.833-20.303 18.385-5.22 2.315-11.863 8.948-11.807 11.789.014.72 2.376 2.863 5.25 4.762 2.873 1.9 12.762 8.794 21.974 15.321 9.213 6.527 18.801 13.013 21.307 14.414 2.506 1.4 5.508 3.834 6.672 5.408l2.116 2.861 2.192-3.228c10.537-15.517 74.887-117.238 78.591-124.233 12.826-24.225 6.403-43.462-20.33-60.887-9.882-6.442-10.422-6.579-11.256-2.859M675.07 336.886c-1.613 5.799-.571 12.986 3.047 21.002 3.698 8.195 3.24 9.302-2.117 5.112-2.168-1.696-6-2.731-6-1.621 0 .209 1.145 2.881 2.545 5.939 2.337 5.103 3.378 6.095 12.693 12.094 5.582 3.594 10.313 6.371 10.513 6.171.2-.201-1.175-2.776-3.057-5.724-7.775-12.181-10.846-20.066-14.163-36.359l-2.24-11-1.221 4.386m-81.682-.218c.537 2.603 5.56 46.831 7.107 62.575.615 6.255.802 6.669 2.584 5.715 2.613-1.399 2.523-6.004-.668-34.411-3.643-32.424-4.35-35.965-7.268-36.379-2.086-.297-2.275-.027-1.755 2.5m-18.695-.968c-4.195 1.088-4.126 4.7.84 43.624 3.387 26.552 3.484 26.958 6.72 28.096 8.385 2.949 9.291-2.778 5.79-36.61-3.594-34.741-4.597-37.378-13.35-35.11M553 336.972c-2.577.824-13.703 5.955-58.5 26.975-25.503 11.967-37.383 17.184-46.64 20.482-2.552.909-6.827 3.081-9.5 4.827-5.345 3.491-69.36 66.578-69.36 68.354 0 .608 9.113 8.253 20.25 16.989s24.416 19.375 29.507 23.642c5.092 4.267 9.531 7.759 9.864 7.759.334 0 12.195-11.25 26.359-25 14.164-13.75 26.039-25 26.388-25 1.218 0 87.141-41.199 88.376-42.375.991-.944.955-2.702-.18-8.655-1.888-9.902-6.297-45.025-7.151-56.97-.873-12.202-1.918-13.426-9.413-11.028m56.428 11.778c1.343 8.345 5.572 48.009 5.568 52.227-.008 9.658-6.156 14.231-20.607 15.325-13.34 1.01-13.12.732-27.895 35.198-8.561 19.97-15.221 31.604-28.004 48.919-6.869 9.306-12.49 17.029-12.49 17.163 0 .574 27.487 17.732 29.067 18.146 1.107.289 1.967-.261 2.364-1.512 1.26-3.969 7.463-9.217 10.867-9.194 7.696.053 24.768 11.407 26.294 17.488.413 1.647-.392 4.603-2.457 9.016l-3.072 6.564 6.202 3.922c5.318 3.362 6.469 3.744 8.076 2.678 1.956-1.299 31.55-46.444 31.59-48.19.012-.55-5.87-4.786-13.072-9.412-23.929-15.372-31.016-24.483-31.71-40.771-.943-22.132 15.686-45.853 36.358-51.862 13.071-3.8 23.918-.468 46.993 14.435 6.05 3.908 11.519 7.106 12.154 7.107 1.127.003 6.316-7.681 15.686-23.23 2.563-4.253 4.66-7.924 4.66-8.158 0-1.592-94.025-59.609-96.606-59.609-.313 0-.298 1.688.034 3.75m96.423 75.436c-9.031 14.062-11.221 17.808-10.682 18.267.182.155 8.258 5.485 17.947 11.843 30.808 20.219 34.374 24.907 34.38 45.204.004 11.658-.092 12.185-3.348 18.5-16.143 31.299-39.69 39.893-66.648 24.322-4.4-2.542-13.442-8.154-20.094-12.471-6.652-4.318-12.547-7.851-13.101-7.851-.553 0-2.358 2.138-4.011 4.75s-8.695 13.712-15.65 24.665C617.69 562.368 612 571.662 612 572.069c0 .704 11.696 8.452 18.892 12.516 2.763 1.559 3.484 1.656 3.881.523 1.229-3.503 7.562-9.08 11.056-9.736 7-1.313 27.172 11.826 27.17 17.698 0 1.336-1.337 5.254-2.97 8.706l-2.969 6.276 7.22 4.633C686.185 620.324 693.987 625 694.829 625c.437 0 3.879-5.513 7.65-12.25 16.395-29.297 16.839-29.919 40.863-57.179l14.92-16.928-.541-7.072c-.297-3.889-1.524-9.546-2.727-12.571-2.87-7.218-3.059-16.148-.405-19.144 2.8-3.162 11.186-6.677 36.661-15.367 12.513-4.269 22.75-8.119 22.75-8.557 0-2.165-92.579-63.21-98.05-64.652-1.08-.285-4.135 3.619-10.099 12.906m92.269-11.641c-10.133 4.399-34.783 7.358-46.104 5.535-3.52-.567-6.523-.906-6.675-.754-.152.152 4.193 3.066 9.656 6.475 9.676 6.039 10.106 6.198 16.717 6.158l6.786-.041-4.25-3.845c-2.337-2.115-4.25-4.029-4.25-4.255 0-.225 3.938-.394 8.75-.375 9.42.037 16.137-2.5 21.373-8.074 2.579-2.746 2.5-2.778-2.003-.824m-171.417 11.897c-16.092 5.741-30.723 31.508-26.78 47.167 2.689 10.677 6.506 13.881 49.577 41.606 34.053 21.921 40.869 25.789 47.668 27.053 29.281 5.446 54.292-40.029 33.636-61.157-6.52-6.669-72.536-49.557-82.804-53.794-6.345-2.618-15.371-2.989-21.297-.875m-85.203 13.94c-12.65 6.222-23.966 12.394-25.147 13.715-6.157 6.89-30.599 47.365-32.249 53.403-2.527 9.248-.071 24.372 5.229 32.199 4.89 7.223 2.413 9.394 27.716-24.3 23.492-31.282 30.653-43.072 42.4-69.808 6.611-15.047 7.162-16.619 5.801-16.556-.413.019-11.1 5.125-23.75 11.347m94.427-3.646c-3.859 4.395-18.624 26.639-22.305 33.601-3.678 6.959-2.4 9.53 8.424 16.946 11.12 7.618 14.731 8.724 18.871 5.776 5.682-4.046 26.041-36.941 26.069-42.122.018-3.226-3.205-6.295-13.486-12.842-10.02-6.381-12.964-6.609-17.573-1.359m3.862 10.014c-12.195 18.466-17.831 28.495-16.746 29.802 2.464 2.968 13.266 7.568 14.598 6.216C639.703 478.674 656 451.761 656 450.45c0-1.057-11.712-9.45-13.187-9.45-.301 0-1.662 1.688-3.024 3.75m39.968 22.296c-19.754 4.854-25.575 31.356-9.651 43.943 16.959 13.406 40.363 2.099 40.342-19.489-.017-16.384-14.988-28.312-30.691-24.454m-330.237 9.931-2.98 1.965 5.48 5.303c6.365 6.16 44.085 36.476 51.565 41.442 5.635 3.742 8.051 3.612 9.081-.491.55-2.194-.1-3.271-4.308-7.14-12.941-11.896-52.507-43.061-54.654-43.049-.662.003-2.545.89-4.184 1.97m330.925-.018c-3.01 1.219-8.058 7.339-9.395 11.39-4.862 14.731 16.001 24.887 26.207 12.758 9.932-11.804-2.654-29.882-16.812-24.148m114.184 16.453C765.503 503.304 762 504.865 762 507.946c0 1.689 3.139.852 28.25-7.535 15.538-5.19 30.95-10.178 34.25-11.084 7.218-1.982 7.099-1.9 5.52-3.803-2.291-2.761-7.378-1.627-35.391 7.888m-465.06 17.028-16.932 16.339-.444 11.595c-.496 12.977.419 15.82 5.5 17.073 1.544.38 4.648 2.686 6.898 5.122 7.356 7.967 13.321 5.133 15.937-7.569 1.767-8.582 4.51-13.279 10.656-18.247 8.358-6.756 7.352-6.721 23.805-.847 11.656 4.16 11.802 5.806 1.512 17.018-5.263 5.735-6.501 7.714-6.501 10.392 0 7.182 8.211 10.236 14.61 5.434 12.032-9.028 14.999-13.322 16.836-24.367.671-4.031.574-4.211-4.631-8.641-8.715-7.419-49.274-39.728-49.815-39.683-.275.023-8.119 7.394-17.431 16.381M801 506.911c-35.085 11.687-34 11.198-34 15.315 0 3.812 2.38 7.774 4.67 7.774 2.092 0 39.287-12.282 51.945-17.152 12.654-4.869 14.395-6.508 12.076-11.37-2.387-5.005-4.215-4.719-34.691 5.433m15.5 18.611c-13.2 4.546-29.444 9.763-36.098 11.593l-12.099 3.328-.649 20.029c-.357 11.015-.65 33.379-.651 49.696L767 639.837l-11.624 33.658c-6.5 18.822-11.238 34.019-10.75 34.478 3.063 2.877 67.041 35.693 67.904 34.83.706-.706 6.87-17.147 21.859-58.303l11.291-31-.639-66.5c-.351-36.575-1.002-67.288-1.447-68.25-1.069-2.316.269-2.65-27.094 6.772m-306.97 14.055-10.819 13.577 6.144 6.2c6.594 6.653 7.184 8.474 4.26 13.146-7.325 11.705-63.949 73.79-70.315 77.097-4.083 2.121-9.397 1.696-16.032-1.281l-5.981-2.685-1.644 2.073c-.903 1.14-3.705 4.486-6.226 7.435-2.521 2.948-8.105 11.886-12.409 19.861-9.149 16.95-35.534 63.996-47.903 85.413-4.737 8.202-8.499 15.006-8.359 15.12.14.115 4.979 3.131 10.754 6.703 5.775 3.573 22.826 14.227 37.89 23.677 15.065 9.449 28.621 17.817 30.126 18.595l2.735 1.414 37.874-55.135 37.875-55.135 29.57-29.826C543.334 669.422 557.202 656 557.888 656c1.636 0 2.228-1.764-14.267 42.5l-14.16 38-23.599 40C472.172 833.604 462 851.104 462 851.959c0 .413 9.788 6.983 21.75 14.6s29.539 18.932 39.06 25.145c9.52 6.213 17.703 11.296 18.183 11.296 1.413 0 6.328-6.517 33.56-44.5 14.195-19.8 29.797-41.294 34.67-47.764 9.848-13.077 16.742-24.91 16.763-28.778.009-1.715-1.476-3.992-4.569-7-6.015-5.852-8.779-11.241-8.145-15.881.606-4.442 26.888-65.934 35.72-83.577 7.924-15.829 8.497-16.193 18.985-12.079 3.889 1.526 7.763 2.509 8.609 2.184 1.894-.726 15.808-29.661 14.707-30.583-1.764-1.476-23.014-14.877-26.001-16.397-4.165-2.12-4.44-1.825-16.92 18.156-15.857 25.388-18.452 26.964-31.577 19.167-9.5-5.644-14.795-10.864-14.795-14.585 0-3.359 6.413-15.022 18.114-32.94 4.337-6.642 7.885-12.492 7.883-13-.003-.688-34.277-23.265-43.5-28.654-.859-.502-4.651 4.665-12.102 16.489C559.505 603.717 553.987 610 548.911 610c-4.245 0-14.501-5.789-20.745-11.71-7.068-6.701-6.347-8.765 14.223-40.727 7.305-11.352 7.594-12.018 5.896-13.584C546.55 542.378 521.43 526 520.71 526c-.198 0-5.229 6.11-11.18 13.577m58.277-2.862c-4.646 5.296-5.046 8.008-1.557 10.575 10.375 7.634 11.713 7.875 15.117 2.731 3.6-5.439 3.429-5.998-3.126-10.212-7.639-4.911-8.591-5.194-10.434-3.094m-211.554 6.535c-9.939 10.288-9.065 26.75 1.42 26.75h2.827l.275-15c.151-8.25-.099-15-.554-15-.456 0-2.241 1.462-3.968 3.25M490 560.906c4.675 4.413 8.95 8.018 9.5 8.011 1.274-.015-13.326-13.758-16-15.06-1.1-.536 1.825 2.637 6.5 7.049m64.036-2.302c-3.881 6.12-4.163 5.353 3.952 10.749 8.457 5.624 7.434 5.628 11.034-.049 3.794-5.982 3.894-5.569-2.272-9.361-2.888-1.776-6.246-3.88-7.464-4.677-2.107-1.379-2.361-1.217-5.25 3.338m191.414 9.012c-13.223 15.235-17.841 21.315-23.761 31.285-8.856 14.915-18.72 33.664-19.781 37.599-.593 2.2-3.965 10.025-7.493 17.39-3.528 7.364-6.415 13.599-6.415 13.855 0 .256 5.288.289 11.75.073 21.085-.705 25.443-4.282 47.979-39.388l9.033-14.07.742-29.68c.45-18.009.379-29.68-.181-29.68-.508 0-5.851 5.677-11.873 12.616m-290.154 15.63c-39.827 44.854-39.757 44.742-33.062 52.368 4.027 4.587 8.754 6.721 12.083 5.456 2.53-.962 40.817-42.442 57.538-62.336 1.361-1.62.835-2.368-6.328-9-4.298-3.979-8.403-7.582-9.124-8.008-.912-.538-7.34 6.016-21.107 21.52m84.109-2.099c-6.357 9.919-6.434 9.153 1.444 14.391 8.122 5.401 7.621 5.532 13.683-3.586 5.498-8.27 5.408-8.742-2.656-13.954-7.83-5.061-7.088-5.248-12.471 3.149m105.287 7.603a393.275 393.275 0 0 0-3.063 4.987c-.702 1.188 11.863 10.263 14.21 10.263 1.571 0 7.074-8.063 6.509-9.536-.457-1.19-13.361-9.464-14.76-9.464-.31 0-1.613 1.688-2.896 3.75m-13.15 20.588c-3.48 5.937-4.395 4.613 8.663 12.525l3.705 2.244 3.045-4.203c4.131-5.703 3.964-6.267-3.205-10.859-7.917-5.071-9.081-5.043-12.208.293m-11.154 17.412c-.911 1.513-2.947 4.676-4.523 7.029-3.454 5.159-3.531 6.269-.615 8.911 2.232 2.023 10.905 7.31 11.992 7.31.609 0 10.758-15.519 10.758-16.451 0-.769-13.781-9.549-14.987-9.549-.532 0-1.713 1.237-2.625 2.75m42.162 46.089c1.446 1.279 18.578 8.367 19.058 7.886.54-.54-17.03-8.725-18.729-8.725-.778 0-.906.329-.329.839m-9.529 15.911c-3.33 6.954-18.387 42.464-26.091 61.531-5.164 12.778-4.825 14.338 4.118 18.969 9.654 4.999 11.671 3.987 17.511-8.782 5.168-11.3 28.02-64.513 28.878-67.245.655-2.086-.081-2.655-8.727-6.75-12.077-5.721-11.843-5.755-15.689 2.277m-131.347 16.288c-17.75 18.423-29.427 34.23-73.938 100.095-17.636 26.095-19.58 29.419-21.145 36.151-1.415 6.087-8.943 18.616-15.689 26.109-4.998 5.552-17.581 30.021-20.332 39.539-2.287 7.913-2.125 14.068.371 14.068 1.068 0 2.219.45 2.559 1 .34.55 2.099 1 3.909 1 6.395 0 13.658-7.324 29.091-29.337 3.85-5.491 8.242-10.903 9.761-12.027l2.76-2.042 5.444 2.67c8.694 4.264 64.396 39.673 75.301 47.867 5.218 3.922 5.273 3.937 6.101 1.701 1.96-5.301.835-6.242-35.931-30.067-37.547-24.33-42.439-27.03-47.742-26.344l-4.306.556 2.635-4.842c1.449-2.662 5.777-8.395 9.618-12.738 8.782-9.932 15.276-19.634 26.704-39.897 10.589-18.774 16.653-29.203 29.657-51 23.493-39.38 32.394-61.126 29.841-72.905l-.846-3.905-13.823 14.348M741 718.756c0 1.25 16.194 10.012 41 22.183 20.099 9.862 27.9 13.049 17 6.944-14.199-7.952-58-29.949-58-29.127m-7.704 11.471c-4.141 5.346-2.416 6.864 22.204 19.542 42.442 21.855 44.938 22.783 47.933 17.835 1.907-3.15-5.119-7.661-35.683-22.91-31.734-15.834-32.987-16.36-34.454-14.467m-14.966 21.304c-6.588 4.775-7.781 7.015-10.258 19.268-1.58 7.81-1.339 10.024 1.383 12.746 5.4 5.401 11.556 1.439 15.982-10.288 1.825-4.834 3.661-7.903 5.523-9.228l2.788-1.986 9.126 9.434c9.657 9.982 10.007 10.771 8.017 18.023-2.505 9.128-5.695 14.072-11.874 18.407-6.354 4.457-9.017 7.481-9.017 10.239 0 3.038 4.757 7.586 8.71 8.327 2.047.384 5.269 2.057 7.161 3.718 4.515 3.965 7.745 3.449 18.402-2.94 9.567-5.735 9.538-5.689 17.724-28.813 6.858-19.374 6.735-18.672 3.753-21.475-2.856-2.685-57.063-29.973-59.462-29.934-.983.017-4.565 2.042-7.958 4.502m21.24 34.356c-.301.487-2.24 1.197-4.309 1.577-2.069.379-5.819 2.001-8.335 3.605-2.516 1.603-6.316 3.517-8.444 4.254-5.052 1.749-5.341 3.072-1.465 6.693 3.744 3.497 5.694 3.682 10.889 1.032 7.818-3.988 11.107-7.825 13.542-15.798.667-2.187-.738-3.208-1.878-1.363m-408.839 1.81c-1.596 1.597-1.53 1.768 1.122 2.883 5.818 2.446 70.841 43.25 79.712 50.021 4.752 3.627 5.435 3.483 5.435-1.149 0-3.915-.005-3.919-26-20.638-50.244-32.316-56.065-35.321-60.269-31.117M321 802c-.589 1.1-.698 2-.243 2 3.477 0 75.172 45.571 82.764 52.607 2.829 2.622 3.806 2.382 4.884-1.2 1.309-4.349-9.709-12.627-51.405-38.619-27.751-17.3-33.411-19.625-36-14.788m-7.886 17.801c-6.639 6.232-6.491 6.797 2.136 8.185 28.584 4.601 51.936 18.814 69.347 42.209l7.215 9.695 2.058-5.195c3.668-9.258 3.698-10.367.355-13.443-5.71-5.254-71.72-46.252-74.469-46.252-.841 0-3.83 2.16-6.642 4.801m-17.364 20.993c-2.062 2.584-3.75 5.505-3.75 6.491 0 1.96 19.241 14.956 62.309 42.087 25.892 16.31 26.685 16.723 26.701 13.878.005-.962 1.124-4.143 2.485-7.068l2.476-5.318-1.897-3.682c-13.431-26.062-39.804-44.724-70.158-49.647-13.582-2.203-13.844-2.156-18.166 3.259m-19 14.274c-4.501 2.377-4.614 3.452-.894 8.532 15.999 21.851 92.924 67.637 101.575 60.458 5.727-4.754 2.089-7.754-44.931-37.053-27.412-17.081-47.831-30.494-49.52-32.529-1.524-1.837-1.652-1.825-6.23.592m172.122 7.595c-1.013 1.227-1.062 1.767-.186 2.062 4.969 1.673 76.581 47.885 82.979 53.547 2.137 1.892 2.178 1.89 3.285-.178 2.327-4.349-1.178-7.467-28.45-25.311-47.577-31.131-54.016-34.496-57.628-30.12M266 869.67c0 2.462 7.619 12.802 12.993 17.634 23.422 21.058 67.592 46.002 85.398 48.226 7.244.905 6.927-.603-.653-3.108-26.086-8.62-71.017-36.688-89.988-56.215-4.262-4.388-7.75-7.329-7.75-6.537m165.581 25.43c-7.368 6.733-7.214 7.468 1.717 8.223 24.766 2.094 55.558 21.386 71.025 44.498 5.538 8.276 5.648 8.278 8.688.148 2.776-7.422 2.245-8.8-5.583-14.486C496.13 925.277 439.896 890 438.113 890c-.524 0-3.463 2.295-6.532 5.1m-18.054 21.776c-2.185 2.729-4.117 5.395-4.294 5.924-.543 1.629 8.025 7.294 74.767 49.44 12.855 8.118 13.542 8.423 14.387 6.393.488-1.173 1.996-4.522 3.352-7.441l2.465-5.308-4.852-8.079c-15.341-25.541-44.663-43.563-73.852-45.39l-8-.5-3.973 4.961m-19.777 13.696c-3.783 2.052-3.468 4.012 1.705 10.602 17.5 22.291 97.243 67.596 101.133 57.457 2.061-5.371-.655-7.465-50.088-38.611-15.95-10.049-33.162-21.14-38.25-24.646-10.007-6.896-10.4-7.026-14.5-4.802M384 945.817c0 .542 2.062 3.728 4.583 7.081 16.298 21.681 70.925 55.15 94.219 57.727 7.265.804 6.013-.555-3.302-3.583-22.901-7.443-68.209-35.506-84-52.027-5.145-5.383-11.5-10.466-11.5-9.198" fill-rule="evenodd"/>

</svg>