<svg id="svg" version="1.1" xmlns="http://www.w3.org/2000/svg" xmlns:xlink="http://www.w3.org/1999/xlink" width="400" height="137.3134328358209" viewBox="0, 0, 400,137.3134328358209"><g id="svgg"><path id="path0" d="M9.625 0.207 C 9.098 0.297,8.667 0.438,8.667 0.519 C 8.667 0.600,8.573 0.667,8.458 0.667 C 8.147 0.668,6.465 1.536,5.864 2.005 C 5.179 2.541,2.341 5.282,2.667 5.093 C 2.804 5.014,2.724 5.166,2.489 5.433 C 2.253 5.699,1.923 6.235,1.755 6.625 C 1.587 7.015,1.392 7.333,1.323 7.333 C 1.196 7.333,0.905 8.626,0.973 8.887 C 0.992 8.963,0.931 8.977,0.837 8.919 C 0.744 8.861,0.661 8.912,0.654 9.032 C 0.647 9.152,0.593 9.400,0.533 9.583 C 0.332 10.205,0.303 122.353,0.504 123.083 C 0.605 123.450,0.765 123.975,0.859 124.250 C 0.953 124.525,1.036 124.844,1.043 124.958 C 1.050 125.073,1.122 125.167,1.204 125.167 C 1.286 125.167,1.310 125.236,1.257 125.322 C 1.204 125.407,1.237 125.524,1.331 125.582 C 1.424 125.639,1.500 125.827,1.500 125.998 C 1.500 126.169,1.613 126.422,1.750 126.560 C 1.887 126.697,2.000 126.863,2.000 126.928 C 2.000 127.278,4.837 130.259,5.313 130.410 C 5.491 130.467,5.678 130.622,5.729 130.756 C 5.781 130.890,5.933 131.000,6.067 131.000 C 6.202 131.000,6.523 131.087,6.781 131.194 C 7.039 131.301,7.287 131.401,7.333 131.417 C 7.769 131.565,8.000 131.737,8.000 131.911 C 8.000 132.045,8.151 132.092,8.417 132.041 C 8.654 131.995,8.833 132.039,8.833 132.142 C 8.833 132.241,8.947 132.279,9.085 132.226 C 9.224 132.173,9.440 132.214,9.564 132.318 C 9.689 132.421,9.912 132.459,10.061 132.402 C 10.226 132.339,10.370 132.402,10.433 132.566 C 10.577 132.941,116.907 132.982,117.051 132.607 C 117.099 132.482,117.460 132.329,117.852 132.266 C 118.245 132.203,118.666 132.070,118.787 131.969 C 118.909 131.868,119.054 131.832,119.110 131.888 C 119.166 131.944,119.408 131.854,119.648 131.688 C 119.887 131.522,120.440 131.210,120.875 130.997 C 121.310 130.783,121.667 130.546,121.667 130.470 C 121.667 130.395,121.745 130.333,121.840 130.333 C 122.076 130.333,124.669 127.638,124.577 127.489 C 124.478 127.329,124.813 127.081,125.417 126.869 C 125.702 126.769,125.791 126.687,125.625 126.680 C 125.318 126.666,125.206 126.167,125.510 126.167 C 125.607 126.167,125.640 126.091,125.583 125.999 C 125.526 125.907,125.591 125.788,125.729 125.735 C 125.866 125.682,125.938 125.533,125.888 125.403 C 125.827 125.242,125.923 125.162,126.191 125.154 C 126.407 125.146,126.490 125.103,126.375 125.056 C 126.048 124.925,126.131 124.667,126.500 124.667 C 126.911 124.667,126.924 124.523,126.542 124.229 C 126.269 124.020,126.275 123.998,126.625 123.900 C 126.998 123.795,127.152 123.500,126.833 123.500 C 126.523 123.500,126.664 123.190,127.027 123.075 C 127.346 122.973,127.356 122.943,127.110 122.805 C 126.766 122.612,126.752 122.229,127.083 122.044 C 127.499 121.810,127.542 10.667,127.125 10.667 C 126.771 10.667,126.736 10.194,127.080 10.061 C 127.251 9.996,127.282 9.881,127.183 9.692 C 127.104 9.540,126.986 9.098,126.921 8.708 C 126.857 8.319,126.736 8.000,126.652 8.000 C 126.568 8.000,126.500 7.888,126.500 7.750 C 126.500 7.612,126.388 7.500,126.250 7.500 C 125.947 7.500,125.918 7.227,126.208 7.110 C 126.323 7.064,126.248 7.020,126.042 7.013 C 125.636 6.999,125.538 6.754,125.875 6.597 C 126.042 6.519,126.042 6.481,125.875 6.403 C 125.760 6.349,125.667 6.228,125.667 6.134 C 125.667 5.893,124.915 4.978,123.802 3.865 C 122.390 2.453,121.984 2.117,121.250 1.750 C 120.883 1.567,120.558 1.360,120.528 1.292 C 120.497 1.223,120.366 1.167,120.236 1.167 C 120.106 1.167,120.000 1.092,120.000 1.000 C 120.000 0.908,119.906 0.833,119.792 0.832 C 119.677 0.832,119.358 0.712,119.083 0.565 C 118.808 0.419,118.260 0.277,117.864 0.250 C 117.468 0.223,117.100 0.155,117.045 0.100 C 116.867 -0.077,10.667 0.029,9.625 0.207 M88.255 15.467 C 88.284 15.862,88.381 16.274,88.471 16.384 C 88.562 16.494,88.674 16.808,88.722 17.083 C 88.934 18.311,89.057 18.667,89.271 18.667 C 89.397 18.667,89.500 18.742,89.500 18.833 C 89.500 18.925,89.425 19.000,89.333 19.000 C 89.242 19.000,89.167 19.112,89.167 19.250 C 89.167 19.387,89.269 19.500,89.394 19.500 C 89.546 19.500,89.594 19.637,89.541 19.917 C 89.497 20.146,89.538 20.333,89.632 20.333 C 89.725 20.333,89.765 20.475,89.720 20.648 C 89.675 20.821,89.719 21.013,89.819 21.074 C 89.918 21.136,90.000 21.332,90.000 21.510 C 90.000 21.688,90.113 21.833,90.251 21.833 C 90.462 21.833,90.469 21.890,90.293 22.188 C 90.126 22.472,90.125 22.559,90.292 22.619 C 90.406 22.660,90.500 22.838,90.500 23.014 C 90.500 23.190,90.612 23.333,90.750 23.333 C 90.888 23.333,91.000 23.408,91.000 23.500 C 91.000 23.592,90.854 23.667,90.677 23.667 C 90.499 23.667,90.307 23.742,90.250 23.833 C 90.193 23.925,89.922 24.000,89.647 24.000 C 89.372 24.000,89.189 24.068,89.240 24.151 C 89.292 24.234,89.184 24.263,89.000 24.215 C 88.814 24.166,88.667 24.210,88.667 24.314 C 88.667 24.416,88.479 24.500,88.250 24.500 C 88.021 24.500,87.833 24.574,87.833 24.663 C 87.833 24.753,87.627 24.877,87.375 24.939 C 87.123 25.001,86.879 25.100,86.833 25.159 C 86.787 25.219,86.479 25.432,86.148 25.633 C 85.231 26.190,83.729 27.703,83.326 28.476 C 83.128 28.856,82.907 29.167,82.835 29.167 C 82.762 29.167,82.654 29.361,82.595 29.598 C 82.535 29.835,82.340 30.186,82.160 30.379 C 81.980 30.572,81.833 30.847,81.832 30.990 C 81.832 31.133,81.716 31.472,81.574 31.743 C 81.433 32.013,81.273 32.557,81.219 32.951 C 81.166 33.345,81.063 33.667,80.991 33.667 C 80.919 33.667,80.813 34.173,80.755 34.792 C 80.698 35.410,80.570 36.063,80.470 36.241 C 80.357 36.445,80.267 38.359,80.228 41.408 C 80.088 52.272,79.959 55.637,79.672 55.833 C 79.605 55.879,79.499 56.362,79.437 56.906 C 79.374 57.450,79.244 57.990,79.147 58.107 C 79.050 58.223,79.020 58.397,79.079 58.493 C 79.138 58.588,79.116 58.667,79.031 58.667 C 78.896 58.667,78.611 59.597,78.711 59.709 C 78.731 59.732,78.549 60.087,78.308 60.500 C 77.849 61.282,77.833 61.325,77.833 61.778 C 77.833 61.931,77.784 62.006,77.723 61.945 C 77.624 61.847,77.401 62.142,77.061 62.821 C 76.996 62.951,76.655 63.345,76.304 63.696 C 75.954 64.046,75.701 64.333,75.744 64.333 C 75.787 64.333,75.655 64.506,75.452 64.717 C 75.249 64.928,75.062 65.088,75.036 65.072 C 75.010 65.057,74.731 65.302,74.416 65.618 C 73.740 66.293,73.619 66.711,74.072 66.804 C 74.499 66.891,74.881 67.288,74.747 67.504 C 74.688 67.600,75.096 68.117,75.653 68.654 C 76.211 69.191,76.667 69.746,76.667 69.887 C 76.667 70.029,76.817 70.192,77.000 70.250 C 77.183 70.308,77.333 70.458,77.333 70.583 C 77.333 70.707,77.451 70.927,77.595 71.071 C 77.739 71.215,77.818 71.333,77.771 71.333 C 77.641 71.333,78.017 72.358,78.318 72.824 C 78.463 73.048,78.558 73.367,78.530 73.533 C 78.502 73.698,78.559 73.833,78.656 73.833 C 78.754 73.833,78.833 73.983,78.833 74.167 C 78.833 74.350,78.913 74.500,79.011 74.500 C 79.111 74.500,79.144 74.641,79.088 74.819 C 79.032 74.995,79.056 75.181,79.140 75.234 C 79.225 75.286,79.346 75.741,79.409 76.245 C 79.472 76.749,79.593 77.205,79.678 77.257 C 79.764 77.310,79.833 77.724,79.833 78.177 C 79.833 78.629,79.890 79.000,79.958 79.000 C 80.027 79.000,80.103 81.719,80.128 85.042 C 80.182 92.411,80.335 97.433,80.499 97.168 C 80.566 97.060,80.673 97.501,80.737 98.148 C 80.801 98.796,80.914 99.363,80.988 99.409 C 81.062 99.455,81.173 99.869,81.234 100.330 C 81.295 100.790,81.417 101.167,81.506 101.167 C 81.594 101.167,81.667 101.279,81.667 101.417 C 81.667 101.554,81.747 101.667,81.845 101.667 C 81.947 101.667,81.977 101.809,81.917 102.000 C 81.856 102.191,81.887 102.333,81.989 102.333 C 82.087 102.333,82.167 102.446,82.167 102.583 C 82.167 102.721,82.236 102.833,82.320 102.833 C 82.404 102.833,82.522 103.055,82.582 103.326 C 82.641 103.597,82.828 103.862,82.996 103.915 C 83.165 103.969,83.346 104.126,83.399 104.265 C 83.454 104.408,83.425 104.473,83.331 104.415 C 83.055 104.245,83.147 104.493,83.500 104.872 C 83.683 105.069,83.833 105.177,83.833 105.113 C 83.833 104.892,84.868 105.919,85.104 106.375 C 85.235 106.627,85.481 106.833,85.651 106.833 C 85.820 106.833,86.053 106.946,86.167 107.083 C 86.281 107.221,86.477 107.333,86.604 107.333 C 86.730 107.333,86.833 107.408,86.833 107.500 C 86.833 107.592,86.927 107.669,87.042 107.672 C 87.156 107.675,87.698 107.900,88.246 108.172 C 88.793 108.444,89.337 108.667,89.454 108.667 C 89.571 108.667,89.667 108.732,89.667 108.812 C 89.667 108.892,89.967 109.005,90.333 109.064 C 91.015 109.173,91.196 109.389,90.750 109.560 C 90.612 109.613,90.500 109.804,90.500 109.985 C 90.500 110.166,90.423 110.361,90.329 110.419 C 90.235 110.478,90.172 110.613,90.189 110.721 C 90.232 110.988,89.996 111.803,89.725 112.322 C 89.603 112.558,89.502 112.914,89.501 113.115 C 89.500 113.316,89.421 113.529,89.325 113.588 C 89.229 113.648,89.166 113.821,89.184 113.973 C 89.203 114.125,89.170 114.362,89.111 114.500 C 89.052 114.638,88.980 114.917,88.951 115.121 C 88.921 115.325,88.846 115.543,88.782 115.607 C 88.719 115.670,88.667 115.930,88.667 116.185 C 88.667 116.439,88.592 116.693,88.500 116.750 C 88.408 116.807,88.333 117.030,88.333 117.246 C 88.333 117.858,88.160 118.167,87.816 118.167 C 87.642 118.167,87.500 118.095,87.500 118.008 C 87.500 117.920,87.237 117.799,86.915 117.739 C 86.593 117.678,86.289 117.562,86.238 117.481 C 86.188 117.400,85.968 117.333,85.750 117.333 C 85.532 117.333,85.304 117.254,85.245 117.158 C 85.185 117.061,85.049 117.012,84.943 117.047 C 84.837 117.083,84.504 116.975,84.203 116.806 C 83.903 116.638,83.552 116.500,83.424 116.500 C 83.295 116.500,83.078 116.388,82.941 116.251 C 82.728 116.038,82.320 115.895,81.782 115.846 C 81.708 115.839,81.694 115.756,81.753 115.663 C 81.811 115.569,81.796 115.508,81.721 115.528 C 81.427 115.604,80.502 115.298,80.592 115.153 C 80.644 115.069,80.532 115.000,80.343 115.000 C 80.154 115.000,80.000 114.925,80.000 114.833 C 80.000 114.742,79.922 114.667,79.827 114.667 C 79.629 114.667,78.612 113.981,78.528 113.792 C 78.497 113.723,78.366 113.667,78.236 113.667 C 78.106 113.667,78.000 113.579,78.000 113.472 C 78.000 113.365,77.958 113.320,77.906 113.372 C 77.854 113.424,77.552 113.208,77.236 112.892 C 76.894 112.550,76.578 112.365,76.456 112.435 C 76.343 112.500,76.296 112.502,76.351 112.439 C 76.452 112.326,74.086 109.833,73.878 109.833 C 73.694 109.833,73.000 109.118,73.000 108.928 C 73.000 108.828,72.850 108.653,72.667 108.539 C 72.483 108.424,72.333 108.198,72.333 108.035 C 72.333 107.873,72.183 107.632,72.000 107.500 C 71.606 107.216,71.555 106.922,71.925 107.064 C 72.074 107.121,72.141 107.093,72.082 106.998 C 72.026 106.907,71.864 106.833,71.722 106.833 C 71.561 106.833,71.500 106.739,71.560 106.583 C 71.619 106.431,71.561 106.333,71.411 106.333 C 71.115 106.333,71.080 106.004,71.375 105.989 C 71.490 105.984,71.410 105.909,71.198 105.824 C 70.985 105.739,70.859 105.594,70.916 105.501 C 70.973 105.409,70.949 105.333,70.863 105.333 C 70.731 105.333,70.531 104.925,70.439 104.472 C 70.427 104.411,70.361 104.306,70.293 104.238 C 70.225 104.170,70.253 104.013,70.355 103.890 C 70.501 103.715,70.463 103.667,70.181 103.667 C 69.873 103.667,69.847 103.619,70.000 103.333 C 70.142 103.067,70.127 103.000,69.923 103.000 C 69.617 103.000,69.577 102.397,69.875 102.277 C 69.990 102.231,69.910 102.187,69.698 102.180 C 69.432 102.171,69.324 102.076,69.348 101.875 C 69.368 101.715,69.324 101.442,69.249 101.270 C 69.169 101.083,69.193 100.830,69.308 100.645 C 69.465 100.394,69.455 100.333,69.261 100.333 C 68.910 100.333,68.793 100.054,68.989 99.687 C 69.122 99.439,69.100 99.344,68.893 99.264 C 68.682 99.183,68.648 99.020,68.731 98.497 C 68.792 98.117,68.770 97.833,68.680 97.833 C 68.386 97.833,68.299 97.134,68.503 96.407 C 68.679 95.777,68.669 95.645,68.428 95.405 C 68.176 95.152,68.156 94.437,68.200 87.564 C 68.228 83.403,68.202 80.000,68.143 80.000 C 67.931 80.000,67.829 79.153,68.002 78.830 C 68.145 78.563,68.126 78.500,67.902 78.500 C 67.683 78.500,67.646 78.395,67.725 78.000 C 67.781 77.718,67.754 77.500,67.662 77.500 C 67.573 77.500,67.500 77.350,67.500 77.167 C 67.500 76.983,67.425 76.833,67.333 76.833 C 67.242 76.833,67.167 76.698,67.167 76.532 C 67.167 76.366,67.060 76.085,66.930 75.907 C 66.764 75.679,66.745 75.523,66.868 75.375 C 66.993 75.224,66.972 75.167,66.791 75.167 C 66.407 75.167,66.050 74.675,66.315 74.512 C 66.541 74.371,66.142 73.833,65.812 73.833 C 65.721 73.833,65.693 73.759,65.749 73.669 C 65.806 73.576,65.742 73.545,65.602 73.599 C 65.456 73.655,65.264 73.552,65.137 73.347 C 65.017 73.156,64.821 73.000,64.700 73.000 C 64.579 73.000,64.523 72.932,64.574 72.848 C 64.626 72.765,64.368 72.645,64.001 72.583 C 63.634 72.521,63.333 72.394,63.333 72.301 C 63.333 72.202,63.157 72.175,62.917 72.235 C 62.676 72.295,62.500 72.268,62.500 72.170 C 62.500 72.076,62.237 72.000,61.917 72.000 C 61.596 72.000,61.333 71.916,61.333 71.814 C 61.333 71.685,60.822 71.648,59.667 71.695 C 58.750 71.732,58.000 71.703,58.000 71.631 C 58.000 71.559,58.075 71.500,58.167 71.500 C 58.496 71.500,58.382 61.996,58.048 61.628 C 57.626 61.161,57.913 61.065,60.110 60.940 C 63.355 60.754,65.721 59.400,66.845 57.083 C 67.068 56.625,67.307 56.225,67.376 56.194 C 67.445 56.163,67.462 56.073,67.412 55.993 C 67.363 55.912,67.396 55.713,67.486 55.548 C 67.920 54.757,68.044 52.755,68.117 45.333 C 68.182 38.741,68.230 37.555,68.440 37.391 C 68.645 37.231,68.655 37.077,68.502 36.507 C 68.400 36.128,68.375 35.652,68.446 35.450 C 68.518 35.248,68.591 34.858,68.609 34.583 C 68.652 33.922,68.971 32.191,69.146 31.667 C 69.222 31.438,69.464 30.688,69.682 30.000 C 71.683 23.692,76.999 18.523,84.167 15.915 C 84.854 15.665,85.567 15.400,85.750 15.326 C 87.762 14.517,88.187 14.541,88.255 15.467 M37.633 22.367 C 37.789 22.522,37.833 22.522,37.833 22.367 C 37.833 22.215,39.227 22.167,43.604 22.167 L 49.375 22.167 49.271 22.688 C 49.214 22.974,49.167 40.296,49.167 61.182 L 49.167 99.155 42.958 99.202 C 39.544 99.229,36.721 99.234,36.686 99.214 C 36.520 99.120,36.665 23.981,36.832 23.669 C 36.968 23.416,36.946 23.239,36.741 22.926 C 36.317 22.279,37.072 21.805,37.633 22.367 M178.409 58.917 C 178.409 62.583,178.431 64.060,178.458 62.197 C 178.485 60.335,178.485 57.335,178.458 55.531 C 178.431 53.726,178.409 55.250,178.409 58.917 M163.407 60.750 C 163.407 63.408,163.430 64.472,163.458 63.115 C 163.486 61.757,163.486 59.582,163.458 58.281 C 163.430 56.981,163.407 58.092,163.407 60.750 M149.081 88.583 C 149.081 101.233,149.101 106.433,149.125 100.138 C 149.149 93.843,149.149 83.493,149.125 77.138 C 149.101 70.783,149.081 75.933,149.081 88.583 M163.412 86.833 C 163.412 92.563,163.433 94.906,163.458 92.042 C 163.484 89.177,163.484 84.490,163.458 81.625 C 163.433 78.760,163.412 81.104,163.412 86.833 M178.306 77.542 C 178.275 78.115,178.289 82.221,178.336 86.667 L 178.423 94.750 178.461 85.625 C 178.497 77.229,178.452 74.865,178.306 77.542 M236.944 84.611 C 236.883 84.672,236.841 84.953,236.850 85.236 L 236.867 85.750 237.004 85.168 C 237.147 84.561,237.132 84.423,236.944 84.611 M347.372 85.167 C 347.372 85.487,347.406 85.619,347.448 85.458 C 347.490 85.298,347.490 85.035,347.448 84.875 C 347.406 84.715,347.372 84.846,347.372 85.167 M270.539 87.333 C 270.539 87.654,270.573 87.785,270.615 87.625 C 270.657 87.465,270.657 87.202,270.615 87.042 C 270.573 86.881,270.539 87.013,270.539 87.333 M340.645 99.944 C 340.436 100.198,340.452 100.203,340.833 100.005 C 341.392 99.714,341.434 99.667,341.132 99.667 C 340.990 99.667,340.771 99.791,340.645 99.944 M188.574 106.083 C 188.574 108.833,188.597 109.982,188.625 108.635 C 188.653 107.289,188.653 105.039,188.625 103.635 C 188.597 102.232,188.574 103.333,188.574 106.083 M332.437 102.133 C 332.392 102.207,332.533 102.267,332.750 102.267 C 332.967 102.267,333.108 102.207,333.063 102.133 C 333.017 102.060,332.877 102.000,332.750 102.000 C 332.623 102.000,332.483 102.060,332.437 102.133 " stroke="none" fill="#239beb" fill-rule="evenodd"></path><path id="path1" d="M127.416 66.500 C 127.416 97.071,127.435 109.577,127.458 94.292 C 127.482 79.006,127.482 53.994,127.458 38.708 C 127.435 23.423,127.416 35.929,127.416 66.500 M80.076 45.667 C 80.076 49.104,80.098 50.510,80.125 48.792 C 80.152 47.073,80.152 44.260,80.125 42.542 C 80.098 40.823,80.076 42.229,80.076 45.667 M279.281 43.275 C 279.219 43.336,279.169 58.788,279.169 77.612 L 279.169 111.837 286.626 111.793 L 294.083 111.750 294.083 77.500 L 294.083 43.250 286.738 43.207 C 282.698 43.183,279.342 43.213,279.281 43.275 M139.583 43.656 C 139.217 43.734,138.860 43.764,138.792 43.722 C 138.723 43.681,138.667 43.714,138.667 43.796 C 138.667 43.878,138.573 43.953,138.458 43.962 C 138.344 43.972,138.100 44.017,137.917 44.061 C 137.733 44.105,137.485 44.147,137.365 44.154 C 137.245 44.161,137.190 44.236,137.243 44.321 C 137.295 44.406,137.187 44.524,137.002 44.583 C 136.818 44.641,136.667 44.764,136.667 44.854 C 136.667 44.945,136.592 44.973,136.500 44.917 C 136.298 44.792,135.623 45.235,135.779 45.390 C 135.839 45.450,135.780 45.500,135.647 45.500 C 135.514 45.500,135.272 45.725,135.110 46.000 C 134.947 46.275,134.706 46.500,134.574 46.500 C 134.442 46.500,134.331 46.594,134.327 46.708 C 134.324 46.823,134.143 47.134,133.926 47.401 C 133.708 47.667,133.569 47.985,133.616 48.109 C 133.664 48.232,133.619 48.333,133.518 48.333 C 133.416 48.333,133.333 48.413,133.333 48.510 C 133.333 48.607,133.427 48.630,133.542 48.561 C 133.705 48.463,133.707 48.489,133.552 48.681 C 133.444 48.815,133.331 49.317,133.302 49.796 C 133.274 50.275,133.210 50.667,133.161 50.667 C 133.112 50.667,133.071 50.817,133.071 51.000 C 133.071 51.183,133.114 51.333,133.167 51.333 C 133.219 51.333,133.269 51.465,133.277 51.625 C 133.285 51.785,133.313 52.348,133.338 52.875 C 133.364 53.402,133.461 53.833,133.553 53.833 C 133.646 53.833,133.676 53.880,133.619 53.937 C 133.562 53.993,133.606 54.141,133.716 54.264 C 134.209 54.815,134.333 54.998,134.333 55.166 C 134.333 55.387,135.618 56.667,135.840 56.667 C 135.928 56.667,135.981 56.749,135.958 56.849 C 135.913 57.048,136.132 57.197,136.958 57.530 C 137.256 57.650,137.500 57.801,137.500 57.866 C 137.500 58.002,138.461 58.456,138.833 58.495 C 139.799 58.598,144.087 58.632,144.234 58.538 C 144.335 58.474,144.529 58.411,144.667 58.397 C 145.145 58.349,145.667 58.127,145.667 57.971 C 145.667 57.884,145.742 57.860,145.833 57.917 C 145.925 57.973,146.000 57.940,146.000 57.843 C 146.000 57.746,146.113 57.667,146.252 57.667 C 146.390 57.667,146.738 57.442,147.026 57.167 C 147.314 56.892,147.651 56.667,147.775 56.667 C 147.899 56.667,147.981 56.576,147.958 56.466 C 147.935 56.355,148.010 56.262,148.125 56.258 C 148.240 56.253,148.332 56.192,148.329 56.121 C 148.327 56.050,148.496 55.825,148.704 55.621 C 148.913 55.417,149.109 55.100,149.140 54.917 C 149.171 54.733,149.302 54.465,149.432 54.320 C 149.561 54.175,149.667 53.946,149.667 53.810 C 149.667 53.675,149.777 53.418,149.911 53.240 C 150.170 52.898,150.264 52.087,150.028 52.233 C 149.951 52.280,149.889 52.209,149.889 52.076 C 149.889 51.943,149.951 51.833,150.028 51.833 C 150.215 51.833,150.205 49.717,150.017 49.364 C 149.934 49.210,149.825 48.822,149.775 48.503 C 149.725 48.184,149.605 47.896,149.508 47.864 C 149.412 47.832,149.333 47.729,149.333 47.636 C 149.333 47.271,148.783 46.333,148.569 46.333 C 148.444 46.333,148.226 46.108,148.083 45.833 C 147.941 45.558,147.714 45.333,147.579 45.333 C 147.444 45.333,147.333 45.258,147.333 45.167 C 147.333 45.075,147.227 45.000,147.097 45.000 C 146.967 45.000,146.836 44.944,146.806 44.875 C 146.689 44.614,145.227 43.999,144.722 44.000 C 144.432 44.000,144.169 43.923,144.138 43.829 C 144.064 43.608,140.459 43.471,139.583 43.656 M201.792 43.656 C 201.541 43.738,201.149 43.784,200.922 43.759 C 200.673 43.731,200.551 43.781,200.615 43.885 C 200.678 43.987,200.617 44.017,200.465 43.958 C 200.154 43.839,198.726 44.489,198.208 44.986 C 198.002 45.184,197.833 45.292,197.833 45.225 C 197.833 45.158,197.680 45.268,197.494 45.469 C 197.307 45.669,197.082 45.833,196.994 45.833 C 196.905 45.833,196.833 45.946,196.833 46.083 C 196.833 46.221,196.716 46.333,196.573 46.333 C 196.431 46.333,196.355 46.400,196.405 46.480 C 196.455 46.561,196.358 46.805,196.189 47.022 C 195.579 47.808,195.253 48.730,195.079 50.167 C 195.041 50.487,194.979 50.995,194.943 51.295 C 194.906 51.595,194.935 51.876,195.007 51.921 C 195.078 51.965,195.116 52.190,195.091 52.421 C 195.066 52.652,195.110 52.882,195.189 52.931 C 195.268 52.980,195.333 53.203,195.333 53.427 C 195.333 53.650,195.408 53.833,195.500 53.833 C 195.592 53.833,195.667 53.968,195.667 54.133 C 195.667 54.298,195.757 54.523,195.867 54.633 C 195.977 54.743,196.014 54.833,195.949 54.833 C 195.674 54.833,198.127 57.339,198.500 57.439 C 199.009 57.576,199.333 57.728,199.333 57.830 C 199.333 58.431,205.742 59.053,206.092 58.486 C 206.139 58.410,206.287 58.390,206.422 58.442 C 206.557 58.493,206.667 58.448,206.667 58.341 C 206.667 58.234,206.741 58.193,206.831 58.249 C 206.921 58.304,207.353 58.140,207.789 57.884 C 208.226 57.628,208.621 57.411,208.667 57.403 C 208.979 57.347,209.333 57.100,209.333 56.938 C 209.333 56.832,209.502 56.672,209.708 56.581 C 209.915 56.491,210.060 56.355,210.031 56.279 C 210.002 56.203,210.145 55.997,210.348 55.821 C 210.551 55.644,210.650 55.495,210.567 55.488 C 210.484 55.482,210.567 55.418,210.750 55.346 C 210.933 55.275,211.090 55.149,211.098 55.067 C 211.106 54.984,211.168 54.791,211.236 54.638 C 211.303 54.485,211.377 54.260,211.400 54.138 C 211.423 54.016,211.566 53.627,211.719 53.274 C 211.873 52.920,211.960 52.569,211.913 52.494 C 211.866 52.418,211.899 52.312,211.987 52.258 C 212.206 52.122,212.083 49.671,211.821 48.945 C 211.703 48.618,211.532 48.397,211.441 48.453 C 211.347 48.511,211.319 48.444,211.377 48.294 C 211.432 48.150,211.430 47.986,211.373 47.929 C 211.316 47.872,211.247 47.677,211.219 47.497 C 211.169 47.167,210.514 46.392,210.483 46.625 C 210.474 46.694,210.418 46.577,210.358 46.365 C 210.299 46.154,210.175 45.980,210.083 45.980 C 209.992 45.980,209.867 45.846,209.807 45.683 C 209.746 45.519,209.428 45.258,209.099 45.102 C 208.770 44.946,208.311 44.642,208.079 44.427 C 207.847 44.212,207.416 43.992,207.120 43.937 C 206.825 43.882,206.396 43.799,206.167 43.753 C 205.314 43.581,202.234 43.513,201.792 43.656 M177.680 51.260 C 177.666 51.450,176.039 51.982,175.304 52.037 C 175.058 52.056,174.888 52.120,174.926 52.181 C 174.963 52.242,174.620 52.341,174.163 52.401 C 173.707 52.462,173.333 52.579,173.333 52.662 C 173.333 52.745,172.977 52.864,172.542 52.927 C 172.106 52.990,171.642 53.126,171.510 53.229 C 171.320 53.377,171.299 53.367,171.410 53.183 C 171.511 53.016,171.491 52.986,171.339 53.080 C 171.223 53.152,170.892 53.269,170.605 53.341 C 170.318 53.413,169.679 53.625,169.184 53.814 C 168.689 54.002,168.225 54.120,168.154 54.075 C 168.082 54.031,167.976 54.071,167.918 54.164 C 167.861 54.257,167.589 54.333,167.314 54.333 C 167.039 54.333,166.855 54.400,166.905 54.482 C 166.956 54.564,166.754 54.664,166.457 54.705 C 165.733 54.805,165.435 54.893,165.327 55.037 C 165.277 55.102,164.875 55.192,164.434 55.235 C 163.992 55.278,163.597 55.347,163.556 55.388 C 163.515 55.429,163.488 57.721,163.495 60.481 L 163.509 65.500 159.748 65.500 L 155.987 65.500 156.035 70.840 C 156.076 75.368,156.121 76.203,156.333 76.337 C 156.471 76.424,158.144 76.496,160.052 76.497 L 163.520 76.500 163.499 87.792 C 163.488 94.002,163.490 99.121,163.505 99.167 C 163.519 99.212,163.566 99.661,163.610 100.163 C 163.653 100.665,163.755 101.155,163.836 101.253 C 163.966 101.410,164.194 102.748,164.226 103.542 C 164.233 103.702,164.297 103.833,164.369 103.833 C 164.441 103.833,164.500 104.011,164.500 104.229 C 164.500 104.447,164.680 104.953,164.899 105.354 C 165.119 105.755,165.352 106.262,165.417 106.480 C 165.483 106.698,165.711 107.073,165.925 107.313 C 166.139 107.554,166.329 107.825,166.346 107.917 C 166.364 108.008,166.518 108.181,166.689 108.301 C 166.860 108.421,167.000 108.618,167.000 108.740 C 167.000 108.862,167.150 109.000,167.333 109.048 C 167.516 109.096,167.736 109.311,167.822 109.526 C 167.912 109.749,167.986 109.810,167.996 109.667 C 168.006 109.521,168.117 109.609,168.262 109.875 C 168.399 110.127,168.583 110.343,168.672 110.354 C 168.761 110.366,168.890 110.386,168.958 110.398 C 169.027 110.411,169.286 110.627,169.534 110.878 C 169.782 111.128,170.128 111.333,170.302 111.333 C 170.477 111.333,171.041 111.558,171.557 111.833 C 172.072 112.108,172.668 112.333,172.880 112.333 C 173.093 112.333,173.338 112.401,173.425 112.484 C 173.512 112.566,174.033 112.679,174.583 112.735 C 175.133 112.790,175.846 112.872,176.167 112.916 C 177.321 113.075,180.850 113.161,180.768 113.029 C 180.722 112.954,181.186 112.882,181.800 112.868 C 183.457 112.831,185.058 112.651,185.272 112.478 C 185.376 112.394,185.721 112.315,186.038 112.303 C 186.356 112.291,187.044 112.049,187.568 111.766 L 188.520 111.250 188.552 105.794 C 188.576 101.558,188.537 100.319,188.375 100.257 C 188.260 100.213,188.166 100.269,188.164 100.380 C 188.162 100.535,188.130 100.534,188.029 100.375 C 187.929 100.217,187.809 100.247,187.537 100.501 C 187.339 100.686,187.118 100.824,187.047 100.808 C 186.837 100.761,185.935 101.032,185.709 101.210 C 185.370 101.477,182.819 101.560,182.250 101.324 C 181.975 101.209,181.600 101.088,181.417 101.053 C 181.233 101.019,181.060 100.922,181.031 100.838 C 181.002 100.754,180.884 100.722,180.769 100.766 C 180.654 100.810,180.473 100.656,180.367 100.423 C 180.261 100.190,180.060 100.000,179.920 100.000 C 179.781 100.000,179.667 99.885,179.667 99.745 C 179.667 99.604,179.554 99.446,179.417 99.394 C 179.279 99.341,179.167 99.135,179.167 98.936 C 179.167 98.737,179.055 98.414,178.918 98.219 C 178.781 98.024,178.627 97.351,178.574 96.724 C 178.521 96.097,178.451 95.321,178.417 95.000 C 178.369 94.540,178.306 82.150,178.329 77.458 L 178.333 76.500 183.178 76.500 C 185.842 76.500,188.148 76.432,188.303 76.350 C 188.558 76.213,188.579 75.724,188.537 70.850 L 188.491 65.500 183.407 65.500 L 178.323 65.500 178.333 58.792 C 178.339 55.102,178.342 51.907,178.339 51.691 C 178.335 51.419,178.260 51.326,178.094 51.389 C 177.963 51.440,177.818 51.392,177.774 51.282 C 177.728 51.169,177.687 51.159,177.680 51.260 M250.761 64.352 C 250.800 64.414,249.906 64.492,248.775 64.525 C 247.578 64.559,246.620 64.662,246.484 64.772 C 246.355 64.876,246.006 65.014,245.708 65.077 C 245.410 65.141,245.167 65.262,245.167 65.347 C 245.167 65.431,244.977 65.500,244.745 65.500 C 244.235 65.500,243.167 65.926,243.167 66.128 C 243.167 66.208,242.773 66.452,242.292 66.669 C 241.810 66.886,241.277 67.241,241.106 67.457 C 240.935 67.674,240.754 67.809,240.703 67.758 C 240.569 67.624,240.000 68.178,240.000 68.442 C 240.000 68.566,239.900 68.667,239.779 68.667 C 239.557 68.667,237.664 70.580,237.346 71.126 C 237.226 71.332,237.175 70.668,237.169 68.833 C 237.165 67.412,237.117 66.081,237.062 65.875 L 236.961 65.500 229.582 65.500 C 223.006 65.500,222.191 65.529,222.101 65.764 C 221.836 66.455,221.994 132.637,222.262 132.905 C 222.676 133.319,236.685 133.300,237.021 132.885 C 237.218 132.642,237.215 132.622,237.000 132.742 C 236.797 132.856,236.789 132.840,236.958 132.658 C 237.121 132.482,237.167 129.727,237.167 120.058 L 237.167 107.682 237.666 107.966 C 237.940 108.122,238.165 108.325,238.166 108.417 C 238.170 108.744,239.913 110.230,240.542 110.441 C 240.702 110.495,240.833 110.605,240.833 110.686 C 240.833 110.767,240.946 110.833,241.083 110.833 C 241.221 110.833,241.335 110.890,241.337 110.958 C 241.339 111.027,241.750 111.271,242.250 111.500 C 242.750 111.729,243.161 111.963,243.163 112.020 C 243.165 112.077,243.482 112.174,243.867 112.236 C 244.252 112.298,244.646 112.410,244.742 112.486 C 244.838 112.562,245.329 112.674,245.833 112.733 C 246.338 112.793,246.943 112.865,247.178 112.893 C 247.413 112.920,247.695 112.998,247.803 113.065 C 247.916 113.134,248.001 113.093,248.003 112.968 C 248.004 112.810,248.049 112.818,248.167 113.000 C 248.274 113.167,248.329 113.181,248.331 113.042 C 248.332 112.927,248.413 112.833,248.510 112.833 C 248.607 112.833,248.646 112.898,248.598 112.977 C 248.549 113.056,249.147 113.128,249.927 113.137 C 250.707 113.146,251.308 113.095,251.264 113.022 C 251.219 112.950,251.460 112.903,251.799 112.919 C 252.139 112.934,252.530 112.891,252.669 112.822 C 252.808 112.753,253.296 112.676,253.753 112.650 C 254.210 112.624,254.626 112.542,254.678 112.467 C 254.729 112.392,255.043 112.308,255.375 112.281 C 255.904 112.237,256.253 112.107,257.539 111.475 C 257.699 111.397,257.974 111.333,258.152 111.333 C 258.329 111.333,258.697 111.146,258.970 110.917 C 259.242 110.688,259.575 110.500,259.709 110.500 C 259.844 110.500,260.246 110.274,260.602 109.997 C 260.958 109.721,261.421 109.365,261.630 109.206 C 261.839 109.047,262.422 108.523,262.925 108.042 C 263.429 107.560,263.914 107.167,264.004 107.167 C 264.093 107.167,264.167 107.085,264.167 106.986 C 264.167 106.887,264.429 106.551,264.750 106.239 C 265.071 105.927,265.333 105.509,265.333 105.308 C 265.333 105.108,265.377 104.988,265.431 105.042 C 265.572 105.183,266.167 104.544,266.167 104.250 C 266.167 104.112,266.246 104.000,266.342 104.000 C 266.438 104.000,266.596 103.775,266.692 103.500 C 266.788 103.225,266.934 103.000,267.016 103.000 C 267.099 103.000,267.167 102.888,267.167 102.750 C 267.167 102.612,267.233 102.500,267.315 102.500 C 267.396 102.500,267.513 102.233,267.574 101.907 C 267.635 101.581,267.834 101.166,268.015 100.985 C 268.197 100.803,268.301 100.582,268.246 100.494 C 268.192 100.406,268.218 100.333,268.305 100.333 C 268.391 100.333,268.500 100.127,268.545 99.875 C 268.656 99.266,269.047 98.276,269.230 98.144 C 269.310 98.085,269.328 97.959,269.269 97.863 C 269.210 97.768,269.237 97.643,269.331 97.585 C 269.424 97.527,269.500 97.227,269.500 96.917 C 269.500 96.607,269.575 96.307,269.667 96.250 C 269.758 96.193,269.834 95.795,269.834 95.365 C 269.835 94.935,269.939 94.385,270.066 94.142 C 270.683 92.959,270.763 81.658,270.160 80.913 C 270.084 80.819,269.969 80.331,269.905 79.829 C 269.841 79.327,269.733 78.842,269.664 78.750 C 269.595 78.658,269.498 78.238,269.448 77.815 C 269.398 77.392,269.205 76.798,269.020 76.493 C 268.835 76.189,268.722 75.878,268.769 75.802 C 268.816 75.726,268.733 75.543,268.584 75.394 C 268.436 75.245,268.354 75.021,268.402 74.895 C 268.450 74.769,268.404 74.667,268.300 74.667 C 268.196 74.667,268.158 74.620,268.215 74.563 C 268.271 74.506,268.134 74.189,267.909 73.858 C 267.684 73.527,267.500 73.207,267.500 73.148 C 267.500 72.852,266.354 71.182,266.279 71.369 C 266.225 71.504,266.188 71.475,266.180 71.292 C 266.173 71.131,266.165 70.964,266.163 70.920 C 266.161 70.877,265.973 70.655,265.746 70.428 C 265.519 70.201,265.333 69.949,265.333 69.868 C 265.333 69.787,265.142 69.633,264.907 69.526 C 264.673 69.419,264.527 69.257,264.584 69.166 C 264.640 69.075,264.614 69.000,264.525 69.000 C 264.436 69.000,264.023 68.669,263.606 68.264 C 263.190 67.859,262.694 67.478,262.505 67.418 C 262.316 67.358,262.203 67.242,262.254 67.160 C 262.305 67.077,262.156 66.962,261.923 66.903 C 261.691 66.845,261.500 66.730,261.500 66.649 C 261.500 66.567,261.354 66.500,261.175 66.500 C 260.997 66.500,260.662 66.325,260.431 66.111 C 260.200 65.897,259.915 65.711,259.797 65.697 C 259.031 65.608,258.396 65.420,258.202 65.226 C 258.078 65.102,257.798 65.000,257.581 65.000 C 257.364 65.000,257.139 64.924,257.082 64.831 C 257.024 64.737,256.912 64.701,256.833 64.750 C 256.754 64.799,256.648 64.771,256.596 64.688 C 256.545 64.605,255.584 64.525,254.460 64.511 C 253.336 64.497,252.392 64.414,252.361 64.326 C 252.331 64.238,252.195 64.167,252.060 64.167 C 251.916 64.167,251.863 64.247,251.933 64.359 C 252.014 64.491,251.978 64.506,251.817 64.406 C 251.539 64.233,250.660 64.187,250.761 64.352 M325.228 64.292 C 325.325 64.453,324.964 64.501,323.635 64.507 C 321.365 64.515,320.135 64.617,320.015 64.805 C 319.961 64.889,319.654 65.014,319.333 65.083 C 319.012 65.152,318.712 65.265,318.667 65.335 C 318.621 65.404,318.219 65.496,317.774 65.540 C 317.329 65.584,316.917 65.692,316.858 65.780 C 316.742 65.952,315.212 66.720,314.885 66.770 C 314.776 66.787,314.424 67.001,314.103 67.246 C 313.782 67.491,313.473 67.667,313.417 67.638 C 313.286 67.568,312.500 68.322,312.500 68.517 C 312.500 68.600,312.313 68.667,312.083 68.667 C 311.824 68.667,311.667 68.761,311.667 68.917 C 311.667 69.054,311.554 69.167,311.417 69.167 C 311.279 69.167,311.167 69.254,311.167 69.361 C 311.167 69.468,311.124 69.513,311.073 69.461 C 310.945 69.334,310.028 70.216,310.119 70.379 C 310.159 70.450,310.125 70.488,310.043 70.462 C 309.961 70.437,309.578 70.735,309.191 71.125 C 308.804 71.515,308.518 71.833,308.555 71.833 C 308.592 71.833,308.370 72.101,308.061 72.429 C 307.753 72.756,307.500 73.131,307.500 73.262 C 307.500 73.393,307.413 73.500,307.306 73.500 C 307.199 73.500,307.159 73.547,307.217 73.605 C 307.275 73.663,307.136 73.857,306.909 74.035 C 306.682 74.214,306.537 74.424,306.585 74.503 C 306.634 74.582,306.578 74.707,306.462 74.781 C 306.103 75.011,305.691 75.594,306.000 75.436 C 306.196 75.336,306.194 75.356,305.987 75.529 C 305.842 75.651,305.589 76.105,305.424 76.538 C 305.259 76.972,305.054 77.283,304.967 77.230 C 304.881 77.177,304.824 77.234,304.840 77.358 C 304.885 77.704,304.647 78.333,304.471 78.333 C 304.384 78.333,304.351 78.394,304.397 78.468 C 304.532 78.686,304.138 80.050,303.823 80.460 C 303.652 80.682,303.571 80.984,303.626 81.195 C 303.698 81.470,303.666 81.520,303.485 81.411 C 303.300 81.299,303.303 81.336,303.500 81.583 C 303.646 81.766,303.663 81.845,303.542 81.772 C 303.427 81.703,303.333 81.726,303.333 81.823 C 303.333 81.921,303.427 82.001,303.542 82.003 C 303.689 82.004,303.695 82.041,303.563 82.128 C 303.359 82.262,303.152 83.290,302.895 85.458 C 302.838 85.940,302.710 86.333,302.612 86.333 C 302.493 86.333,302.497 86.397,302.626 86.526 C 302.764 86.664,302.768 86.810,302.642 87.047 C 302.513 87.287,302.520 87.409,302.667 87.500 C 302.811 87.589,302.816 87.657,302.684 87.739 C 302.426 87.899,302.440 90.706,302.700 90.967 C 302.832 91.098,302.838 91.167,302.719 91.167 C 302.539 91.167,302.530 91.977,302.707 92.264 C 302.759 92.348,302.849 92.970,302.906 93.647 C 302.964 94.323,303.080 95.004,303.163 95.159 C 303.246 95.315,303.330 95.849,303.349 96.346 C 303.368 96.843,303.457 97.344,303.546 97.458 C 303.635 97.573,303.655 97.667,303.592 97.667 C 303.528 97.667,303.595 97.785,303.740 97.930 C 303.885 98.075,303.961 98.262,303.909 98.346 C 303.857 98.431,303.931 98.666,304.074 98.870 C 304.216 99.074,304.333 99.405,304.333 99.607 C 304.333 99.808,304.427 100.010,304.542 100.056 C 304.672 100.109,304.680 100.145,304.562 100.154 C 304.308 100.171,305.695 102.997,305.958 102.999 C 306.073 102.999,306.167 103.112,306.167 103.250 C 306.167 103.388,306.236 103.500,306.320 103.500 C 306.404 103.500,306.523 103.726,306.584 104.001 C 306.644 104.277,306.763 104.460,306.847 104.408 C 306.931 104.356,307.000 104.393,307.000 104.490 C 307.000 104.587,307.131 104.806,307.292 104.975 C 307.878 105.595,308.500 106.370,308.500 106.480 C 308.500 106.629,309.132 107.167,309.307 107.167 C 309.382 107.167,309.544 107.354,309.667 107.583 C 309.789 107.813,309.975 108.000,310.080 108.000 C 310.185 108.000,310.487 108.225,310.750 108.500 C 311.013 108.775,311.289 109.000,311.362 109.000 C 311.434 109.000,311.964 109.286,312.539 109.636 C 313.660 110.318,314.176 110.569,314.375 110.526 C 314.444 110.512,314.500 110.575,314.500 110.667 C 314.500 110.758,314.612 110.833,314.750 110.833 C 314.887 110.833,315.000 110.913,315.000 111.010 C 315.000 111.107,315.075 111.140,315.167 111.083 C 315.258 111.027,315.333 111.072,315.333 111.185 C 315.333 111.297,315.377 111.346,315.429 111.293 C 315.509 111.213,316.841 111.581,317.833 111.956 C 318.331 112.144,318.596 112.204,319.292 112.285 C 319.681 112.330,320.000 112.417,320.000 112.479 C 320.000 112.541,320.490 112.611,321.088 112.635 C 321.686 112.659,322.353 112.746,322.570 112.828 C 322.787 112.911,323.115 112.939,323.298 112.891 C 323.482 112.843,323.799 112.893,324.003 113.002 C 324.251 113.134,324.336 113.139,324.260 113.017 C 324.198 112.916,324.222 112.833,324.314 112.833 C 324.405 112.833,324.521 112.899,324.570 112.978 C 324.657 113.119,328.225 113.084,330.250 112.922 C 330.800 112.878,331.813 112.799,332.500 112.745 C 333.188 112.692,333.900 112.577,334.083 112.489 C 334.267 112.402,334.829 112.302,335.333 112.266 C 335.837 112.231,336.269 112.185,336.292 112.163 C 336.315 112.142,336.390 112.114,336.458 112.102 C 336.527 112.089,336.659 112.030,336.751 111.971 C 336.844 111.912,337.219 111.808,337.585 111.741 C 337.951 111.674,338.287 111.562,338.333 111.492 C 338.379 111.423,338.717 111.341,339.083 111.310 C 339.450 111.280,340.308 110.973,340.989 110.627 C 341.671 110.282,342.334 110.000,342.463 110.000 C 343.473 110.000,343.820 106.423,343.400 100.325 L 343.288 98.702 342.601 98.937 C 342.223 99.065,341.696 99.357,341.431 99.585 C 341.165 99.813,340.866 100.011,340.766 100.025 C 340.370 100.080,340.226 100.128,339.583 100.412 C 339.217 100.574,338.825 100.721,338.713 100.738 C 338.601 100.754,338.457 100.820,338.394 100.884 C 338.330 100.948,338.103 101.000,337.889 101.000 C 337.675 101.000,337.500 101.067,337.500 101.148 C 337.500 101.286,336.772 101.465,335.875 101.548 C 335.669 101.568,335.500 101.631,335.500 101.689 C 335.500 101.747,334.937 101.847,334.249 101.911 C 333.561 101.976,333.034 102.087,333.079 102.159 C 333.194 102.346,332.439 102.281,332.304 102.093 C 332.233 101.995,332.044 102.001,331.804 102.108 C 331.261 102.350,327.430 102.415,327.575 102.179 C 327.720 101.946,327.242 101.948,326.802 102.183 C 326.614 102.284,326.505 102.294,326.560 102.204 C 326.617 102.112,326.288 101.993,325.793 101.927 C 325.315 101.864,324.830 101.733,324.715 101.637 C 324.599 101.541,324.393 101.505,324.257 101.557 C 324.122 101.609,323.966 101.580,323.912 101.493 C 323.858 101.405,323.668 101.333,323.490 101.333 C 323.312 101.333,323.167 101.252,323.167 101.153 C 323.167 101.053,323.073 101.007,322.958 101.049 C 322.751 101.125,321.677 100.570,321.481 100.286 C 321.425 100.205,321.332 100.145,321.273 100.152 C 320.941 100.197,320.825 100.148,320.916 100.001 C 320.973 99.909,320.827 99.747,320.593 99.641 C 320.358 99.534,320.167 99.379,320.167 99.297 C 320.167 99.214,320.092 99.193,320.000 99.250 C 319.908 99.307,319.833 99.207,319.833 99.029 C 319.833 98.851,319.652 98.586,319.431 98.441 C 319.210 98.297,318.979 97.951,318.918 97.673 C 318.857 97.396,318.713 97.112,318.598 97.043 C 318.301 96.863,317.820 95.833,318.033 95.833 C 318.140 95.833,318.127 95.736,318.000 95.583 C 317.886 95.446,317.842 95.333,317.902 95.333 C 317.962 95.333,317.928 95.176,317.825 94.985 C 317.722 94.793,317.613 94.435,317.582 94.190 C 317.551 93.944,317.501 93.632,317.471 93.497 C 317.423 93.281,319.256 93.245,332.243 93.207 C 342.271 93.179,347.125 93.109,347.243 92.991 C 347.423 92.810,347.503 84.167,347.325 84.167 C 347.274 84.167,347.212 83.511,347.187 82.710 C 347.162 81.909,347.083 81.178,347.012 81.085 C 346.940 80.993,346.704 80.148,346.487 79.208 C 346.270 78.269,346.030 77.500,345.953 77.500 C 345.876 77.500,345.862 77.423,345.920 77.328 C 345.979 77.233,345.870 76.891,345.680 76.568 C 345.489 76.245,345.410 76.028,345.504 76.086 C 345.598 76.144,345.528 75.931,345.349 75.612 C 345.170 75.293,345.068 74.987,345.123 74.933 C 345.178 74.878,345.135 74.833,345.028 74.833 C 344.921 74.833,344.833 74.721,344.833 74.583 C 344.833 74.446,344.758 74.333,344.667 74.333 C 344.575 74.333,344.500 74.228,344.500 74.098 C 344.500 73.799,343.655 72.500,343.461 72.500 C 343.380 72.500,343.363 72.421,343.422 72.324 C 343.482 72.228,343.299 71.927,343.015 71.656 C 342.732 71.385,342.500 71.100,342.500 71.022 C 342.500 70.944,342.223 70.588,341.884 70.232 C 341.546 69.875,341.335 69.694,341.417 69.829 C 341.499 69.964,341.227 69.739,340.814 69.329 C 339.771 68.294,339.341 67.942,338.667 67.571 C 338.346 67.394,338.046 67.212,338.000 67.167 C 337.670 66.836,337.131 66.454,337.227 66.618 C 337.306 66.753,337.192 66.740,336.880 66.577 C 336.625 66.444,336.281 66.335,336.115 66.334 C 335.949 66.334,335.860 66.258,335.917 66.167 C 335.973 66.075,335.903 66.000,335.760 66.000 C 335.617 66.000,335.500 65.921,335.500 65.823 C 335.500 65.726,335.425 65.693,335.333 65.750 C 335.242 65.807,335.167 65.774,335.167 65.677 C 335.167 65.579,334.864 65.500,334.494 65.500 C 334.124 65.500,333.643 65.383,333.424 65.239 C 333.205 65.096,332.795 64.972,332.513 64.964 C 332.231 64.956,332.000 64.898,332.000 64.836 C 332.000 64.661,331.755 64.636,329.208 64.557 C 327.902 64.516,326.833 64.426,326.833 64.357 C 326.833 64.288,326.527 64.214,326.152 64.192 C 325.632 64.161,325.502 64.202,325.601 64.367 C 325.685 64.507,325.620 64.495,325.417 64.333 C 325.234 64.188,325.155 64.170,325.228 64.292 M134.002 88.292 C 134.004 100.827,134.050 111.253,134.105 111.460 L 134.206 111.837 141.603 111.793 C 145.672 111.770,149.000 111.694,149.000 111.625 C 149.000 111.556,149.000 101.150,149.000 88.500 L 149.000 65.500 141.500 65.500 L 134.000 65.500 134.002 88.292 M195.933 65.767 C 195.877 65.913,195.833 76.335,195.835 88.927 L 195.838 111.820 203.336 111.830 L 210.833 111.840 210.833 88.670 L 210.833 65.500 203.434 65.500 C 196.807 65.500,196.025 65.528,195.933 65.767 M350.500 65.842 C 350.500 66.031,350.570 66.143,350.655 66.091 C 350.740 66.038,350.835 66.165,350.867 66.373 C 350.899 66.580,351.004 66.735,351.101 66.718 C 351.198 66.700,351.278 66.778,351.278 66.892 C 351.278 67.006,351.759 67.811,352.347 68.680 C 352.935 69.549,353.435 70.351,353.458 70.463 C 353.481 70.575,353.650 70.817,353.833 71.000 C 354.017 71.183,354.167 71.438,354.167 71.566 C 354.167 71.693,354.287 71.844,354.434 71.900 C 354.591 71.961,354.661 72.109,354.603 72.260 C 354.548 72.402,354.573 72.475,354.657 72.423 C 354.844 72.307,355.059 72.628,355.092 73.072 C 355.105 73.252,355.202 73.429,355.308 73.464 C 355.414 73.499,355.500 73.630,355.500 73.756 C 355.500 73.881,355.594 74.043,355.708 74.117 C 355.952 74.273,356.302 74.793,356.441 75.208 C 356.495 75.369,356.610 75.500,356.696 75.500 C 356.782 75.500,356.811 75.569,356.759 75.652 C 356.707 75.736,356.721 75.830,356.791 75.861 C 356.969 75.940,357.667 76.956,357.667 77.137 C 357.667 77.220,357.890 77.542,358.164 77.852 C 358.438 78.163,358.663 78.499,358.664 78.599 C 358.665 78.699,358.852 78.997,359.078 79.260 C 359.304 79.524,359.532 79.934,359.585 80.173 C 359.637 80.412,359.898 80.845,360.164 81.137 C 360.430 81.428,360.600 81.667,360.543 81.667 C 360.485 81.667,360.601 81.820,360.802 82.006 C 361.003 82.193,361.167 82.460,361.167 82.600 C 361.167 82.739,361.242 82.807,361.333 82.750 C 361.425 82.693,361.500 82.801,361.500 82.990 C 361.500 83.179,361.573 83.333,361.661 83.333 C 361.750 83.333,361.780 83.446,361.727 83.583 C 361.665 83.744,361.730 83.833,361.909 83.833 C 362.061 83.833,362.148 83.895,362.102 83.970 C 362.056 84.045,362.198 84.301,362.419 84.538 C 362.639 84.776,362.869 85.165,362.928 85.404 C 362.988 85.642,363.108 85.881,363.195 85.934 C 363.283 85.988,363.424 86.194,363.510 86.391 C 363.723 86.881,364.034 87.362,364.333 87.664 C 364.471 87.803,364.608 88.028,364.638 88.165 C 364.669 88.302,364.772 88.462,364.868 88.521 C 364.972 88.586,364.985 88.721,364.899 88.856 C 364.820 88.981,364.754 89.137,364.753 89.202 C 364.749 89.356,364.347 89.924,363.872 90.443 C 363.665 90.670,363.538 90.926,363.590 91.012 C 363.643 91.097,363.621 91.167,363.541 91.167 C 363.460 91.167,363.235 91.448,363.041 91.792 C 362.846 92.135,362.551 92.545,362.385 92.703 C 361.788 93.268,361.420 93.716,361.667 93.577 C 361.912 93.438,361.630 93.911,361.314 94.167 C 361.257 94.212,360.920 94.691,360.564 95.231 C 360.208 95.770,359.752 96.445,359.551 96.731 C 359.350 97.016,359.182 97.348,359.176 97.468 C 359.171 97.588,359.094 97.641,359.005 97.586 C 358.916 97.532,358.725 97.771,358.581 98.118 C 358.436 98.466,358.097 99.027,357.826 99.365 C 357.555 99.704,357.333 100.056,357.333 100.149 C 357.333 100.241,357.240 100.377,357.125 100.450 C 356.913 100.585,356.589 101.047,356.386 101.500 C 356.325 101.638,356.228 101.787,356.171 101.833 C 355.943 102.017,355.319 103.000,355.430 103.000 C 355.496 103.000,355.313 103.226,355.025 103.501 C 354.736 103.777,354.500 104.117,354.500 104.257 C 354.500 104.396,354.387 104.554,354.250 104.606 C 354.113 104.659,354.000 104.807,354.000 104.934 C 354.000 105.062,353.925 105.167,353.833 105.167 C 353.742 105.167,353.667 105.245,353.667 105.340 C 353.667 105.436,353.520 105.671,353.342 105.863 C 353.163 106.055,352.905 106.445,352.769 106.731 C 352.633 107.016,352.367 107.416,352.178 107.618 C 351.988 107.820,351.828 108.045,351.822 108.118 C 351.816 108.191,351.572 108.564,351.281 108.948 C 350.060 110.553,349.944 110.721,350.146 110.596 C 350.311 110.494,350.310 110.542,350.139 110.816 C 350.018 111.009,349.807 111.168,349.668 111.169 C 349.445 111.171,349.445 111.190,349.667 111.333 C 349.848 111.451,349.857 111.496,349.698 111.497 C 349.579 111.499,349.527 111.575,349.583 111.667 C 349.650 111.774,352.690 111.833,358.158 111.833 L 366.631 111.833 366.739 111.402 C 366.798 111.165,366.991 110.817,367.168 110.627 C 367.344 110.438,367.454 110.227,367.412 110.159 C 367.370 110.091,367.447 109.992,367.584 109.939 C 367.721 109.887,367.833 109.690,367.833 109.503 C 367.833 109.106,368.157 108.476,368.462 108.281 C 368.578 108.207,368.630 108.076,368.577 107.990 C 368.524 107.904,368.552 107.833,368.639 107.833 C 368.726 107.833,368.920 107.525,369.071 107.149 C 369.222 106.773,369.455 106.355,369.589 106.221 C 369.723 106.087,369.883 105.776,369.945 105.532 C 370.006 105.287,370.157 104.986,370.280 104.863 C 370.403 104.740,370.460 104.571,370.408 104.487 C 370.356 104.402,370.423 104.333,370.556 104.333 C 370.833 104.333,371.000 103.985,371.000 103.403 C 371.000 103.181,371.075 103.000,371.167 103.000 C 371.258 103.000,371.333 102.888,371.333 102.750 C 371.333 102.612,371.408 102.500,371.500 102.500 C 371.592 102.500,371.667 102.397,371.667 102.270 C 371.667 102.144,371.777 101.949,371.911 101.838 C 372.046 101.726,372.146 101.586,372.134 101.526 C 372.092 101.312,372.495 100.500,372.643 100.500 C 372.726 100.500,372.849 100.331,372.916 100.125 C 372.984 99.919,373.052 99.712,373.069 99.667 C 373.086 99.621,373.155 99.422,373.223 99.224 C 373.291 99.026,373.456 98.822,373.590 98.771 C 373.724 98.719,373.833 98.525,373.833 98.339 C 373.833 98.152,373.908 98.000,374.000 98.000 C 374.092 98.000,374.167 97.875,374.167 97.723 C 374.167 96.500,375.058 95.862,375.410 96.833 C 375.526 97.154,375.718 97.642,375.837 97.917 C 375.956 98.192,376.040 98.477,376.024 98.551 C 376.007 98.624,376.108 98.798,376.247 98.937 C 376.386 99.077,376.500 99.310,376.500 99.456 C 376.500 99.603,376.549 99.673,376.609 99.614 C 376.729 99.493,377.167 100.252,377.167 100.582 C 377.167 100.698,377.281 100.887,377.421 101.003 C 377.560 101.119,377.637 101.252,377.590 101.299 C 377.543 101.346,377.615 101.466,377.749 101.567 C 377.884 101.668,378.019 101.922,378.050 102.133 C 378.081 102.344,378.214 102.650,378.345 102.814 C 378.721 103.283,379.167 104.169,379.167 104.447 C 379.167 104.586,379.402 104.919,379.690 105.188 C 379.977 105.457,380.166 105.723,380.109 105.780 C 380.000 105.889,380.663 107.212,380.875 107.306 C 380.944 107.336,381.002 107.449,381.004 107.556 C 381.006 107.662,381.148 107.933,381.320 108.156 C 381.492 108.380,381.594 108.661,381.548 108.781 C 381.502 108.902,381.552 109.000,381.658 109.000 C 381.765 109.000,382.084 109.525,382.368 110.167 C 382.651 110.808,382.984 111.333,383.108 111.333 C 383.232 111.333,383.333 111.446,383.333 111.583 C 383.333 111.802,384.370 111.833,391.667 111.833 L 400.000 111.833 400.000 111.343 C 400.000 111.074,399.924 110.806,399.831 110.748 C 399.737 110.691,399.712 110.562,399.773 110.463 C 399.837 110.359,399.808 110.329,399.704 110.393 C 399.605 110.455,399.476 110.354,399.417 110.169 C 399.359 109.984,399.228 109.833,399.128 109.833 C 399.027 109.833,398.990 109.788,399.046 109.732 C 399.101 109.677,399.004 109.478,398.829 109.290 C 398.654 109.103,398.551 108.886,398.599 108.808 C 398.647 108.730,398.602 108.667,398.500 108.667 C 398.398 108.667,398.360 108.592,398.417 108.500 C 398.473 108.408,398.403 108.333,398.260 108.333 C 398.117 108.333,398.000 108.198,398.000 108.033 C 398.000 107.745,397.059 106.310,396.794 106.194 C 396.724 106.164,396.667 106.044,396.667 105.928 C 396.667 105.812,396.442 105.406,396.167 105.026 C 395.892 104.647,395.667 104.223,395.667 104.085 C 395.667 103.946,395.606 103.833,395.531 103.833 C 395.456 103.833,395.269 103.569,395.114 103.245 C 394.960 102.921,394.721 102.613,394.584 102.560 C 394.446 102.508,394.333 102.358,394.333 102.227 C 394.333 102.096,394.221 101.946,394.083 101.894 C 393.946 101.841,393.833 101.621,393.833 101.405 C 393.833 101.188,393.619 100.765,393.358 100.464 C 393.096 100.163,392.750 99.635,392.589 99.292 C 392.427 98.948,392.187 98.667,392.055 98.667 C 391.922 98.667,391.857 98.597,391.910 98.512 C 391.962 98.426,391.928 98.309,391.833 98.250 C 391.739 98.191,391.712 98.062,391.773 97.963 C 391.837 97.859,391.808 97.829,391.704 97.893 C 391.603 97.956,391.472 97.839,391.405 97.627 C 391.339 97.420,391.165 97.138,391.018 97.000 C 390.871 96.862,390.727 96.638,390.699 96.500 C 390.671 96.362,390.527 96.157,390.378 96.043 C 390.229 95.930,390.157 95.787,390.217 95.727 C 390.278 95.667,390.197 95.497,390.039 95.350 C 389.880 95.203,389.571 94.727,389.352 94.292 C 389.133 93.856,388.889 93.500,388.810 93.500 C 388.731 93.500,388.667 93.392,388.667 93.260 C 388.667 93.128,388.442 92.774,388.167 92.473 C 387.892 92.172,387.667 91.795,387.667 91.635 C 387.667 91.476,387.519 91.266,387.340 91.170 C 387.147 91.067,387.052 90.893,387.107 90.747 C 387.160 90.611,387.131 90.500,387.044 90.500 C 386.957 90.500,386.744 90.237,386.572 89.917 C 386.399 89.596,386.200 89.333,386.129 89.333 C 386.058 89.333,386.000 89.221,386.000 89.083 C 386.000 88.946,385.913 88.833,385.806 88.833 C 385.699 88.833,385.660 88.784,385.721 88.724 C 385.781 88.663,385.741 88.506,385.631 88.374 C 385.277 87.947,385.335 87.573,385.839 87.021 C 386.111 86.723,386.333 86.419,386.333 86.346 C 386.333 86.272,386.557 85.958,386.831 85.648 C 387.104 85.337,387.329 84.996,387.331 84.889 C 387.332 84.782,387.412 84.668,387.509 84.636 C 387.606 84.604,387.709 84.429,387.740 84.247 C 387.770 84.065,387.878 83.935,387.980 83.958 C 388.083 83.981,388.167 83.885,388.167 83.745 C 388.167 83.604,388.272 83.449,388.402 83.399 C 388.531 83.350,388.682 83.127,388.738 82.905 C 388.794 82.682,388.913 82.500,389.003 82.500 C 389.093 82.500,389.167 82.396,389.167 82.268 C 389.167 82.140,389.279 81.992,389.417 81.940 C 389.554 81.887,389.667 81.698,389.667 81.519 C 389.667 81.341,389.873 81.033,390.125 80.835 C 390.377 80.637,390.484 80.526,390.363 80.588 C 390.180 80.682,390.180 80.641,390.361 80.351 C 390.482 80.158,390.637 80.000,390.707 80.000 C 390.776 80.000,390.833 79.888,390.833 79.751 C 390.833 79.615,390.983 79.409,391.167 79.295 C 391.350 79.180,391.500 78.922,391.500 78.722 C 391.500 78.522,391.690 78.208,391.923 78.025 C 392.368 77.675,393.849 75.571,393.733 75.455 C 393.695 75.417,393.815 75.251,393.999 75.084 C 394.183 74.918,394.333 74.683,394.333 74.563 C 394.333 74.443,394.483 74.265,394.667 74.167 C 394.850 74.069,395.000 73.878,395.000 73.744 C 395.000 73.610,395.075 73.500,395.167 73.500 C 395.258 73.500,395.333 73.387,395.333 73.250 C 395.333 73.112,395.408 73.000,395.500 73.000 C 395.592 73.000,395.667 72.848,395.667 72.661 C 395.667 72.475,395.779 72.280,395.917 72.227 C 396.054 72.174,396.167 72.022,396.167 71.889 C 396.167 71.756,396.242 71.693,396.333 71.750 C 396.425 71.807,396.500 71.774,396.500 71.677 C 396.500 71.580,396.762 71.135,397.083 70.689 C 397.404 70.242,397.667 69.792,397.667 69.688 C 397.667 69.585,397.725 69.500,397.797 69.500 C 397.869 69.500,398.068 69.256,398.238 68.958 C 398.409 68.660,398.700 68.248,398.886 68.042 C 399.073 67.835,399.155 67.664,399.071 67.661 C 398.986 67.657,399.133 67.477,399.398 67.261 C 399.752 66.971,399.898 66.686,399.948 66.183 L 400.017 65.500 392.212 65.500 C 384.480 65.500,384.405 65.503,384.162 65.849 C 384.027 66.041,383.785 66.352,383.625 66.541 C 383.465 66.730,383.333 67.065,383.333 67.285 C 383.333 67.510,383.260 67.641,383.167 67.583 C 383.075 67.527,383.000 67.560,383.000 67.657 C 383.000 68.025,382.969 68.087,382.718 68.228 C 382.504 68.348,382.499 68.397,382.688 68.517 C 382.874 68.634,382.868 68.662,382.656 68.664 C 382.420 68.666,381.865 69.733,381.952 70.015 C 381.972 70.079,381.797 70.337,381.563 70.589 C 381.201 70.980,381.074 71.317,381.011 72.052 C 381.005 72.126,380.925 72.140,380.833 72.083 C 380.742 72.027,380.667 72.097,380.667 72.240 C 380.667 72.383,380.595 72.500,380.507 72.500 C 380.419 72.500,380.257 72.800,380.147 73.167 C 380.037 73.533,379.880 73.833,379.797 73.833 C 379.715 73.833,379.694 73.909,379.751 74.001 C 379.808 74.093,379.742 74.212,379.604 74.265 C 379.466 74.318,379.302 74.594,379.240 74.879 C 379.177 75.165,379.041 75.493,378.938 75.610 C 378.435 76.177,378.333 76.338,378.333 76.566 C 378.333 76.702,378.252 76.864,378.152 76.926 C 378.052 76.987,378.008 77.179,378.053 77.352 C 378.098 77.525,378.067 77.667,377.984 77.667 C 377.901 77.667,377.833 77.779,377.833 77.917 C 377.833 78.054,377.723 78.167,377.589 78.167 C 377.454 78.167,377.381 78.265,377.427 78.385 C 377.473 78.505,377.359 78.779,377.172 78.994 C 376.986 79.208,376.833 79.491,376.833 79.621 C 376.833 79.751,376.640 80.187,376.404 80.590 C 376.167 80.994,376.017 81.393,376.069 81.478 C 376.122 81.562,376.053 81.674,375.917 81.727 C 375.748 81.792,375.635 81.679,375.559 81.369 C 375.498 81.120,375.381 80.872,375.299 80.818 C 375.217 80.764,375.129 80.539,375.104 80.318 C 375.045 79.802,374.540 78.833,374.329 78.833 C 374.240 78.833,374.167 78.650,374.167 78.427 C 374.167 78.203,374.092 77.973,374.000 77.917 C 373.908 77.860,373.833 77.706,373.833 77.573 C 373.833 77.441,373.683 77.183,373.500 77.000 C 373.317 76.817,373.167 76.517,373.167 76.333 C 373.167 76.150,373.092 76.000,373.000 76.000 C 372.908 76.000,372.833 75.813,372.833 75.583 C 372.833 75.306,372.741 75.167,372.556 75.167 C 372.403 75.167,372.327 75.117,372.387 75.057 C 372.448 74.997,372.420 74.854,372.326 74.741 C 372.231 74.627,372.127 74.394,372.094 74.222 C 372.014 73.807,371.336 72.667,371.169 72.667 C 371.096 72.667,370.988 72.406,370.929 72.088 C 370.869 71.770,370.636 71.291,370.410 71.023 C 370.185 70.754,370.000 70.340,370.000 70.101 C 370.000 69.862,369.925 69.667,369.833 69.667 C 369.742 69.667,369.667 69.553,369.667 69.415 C 369.667 69.277,369.517 69.035,369.333 68.878 C 369.150 68.721,369.000 68.474,369.000 68.330 C 369.000 68.185,368.910 67.977,368.800 67.867 C 368.690 67.757,368.662 67.667,368.737 67.667 C 368.812 67.667,368.781 67.554,368.667 67.417 C 368.553 67.279,368.525 67.166,368.605 67.164 C 368.685 67.163,368.651 67.099,368.531 67.022 C 368.410 66.946,368.211 66.591,368.088 66.233 L 367.864 65.583 359.182 65.540 C 350.502 65.497,350.500 65.497,350.500 65.842 M327.667 74.687 C 327.667 74.816,327.744 74.810,327.917 74.667 C 328.054 74.553,328.167 74.531,328.167 74.618 C 328.167 74.706,328.260 74.787,328.375 74.799 C 328.995 74.862,329.616 75.077,329.863 75.314 C 330.016 75.462,330.408 75.771,330.733 76.000 C 331.058 76.229,331.326 76.510,331.329 76.625 C 331.331 76.740,331.393 76.833,331.467 76.833 C 331.589 76.833,332.564 78.259,332.598 78.486 C 332.606 78.540,332.656 78.696,332.711 78.833 C 333.351 80.456,333.771 82.790,333.543 83.458 C 333.488 83.621,331.711 83.667,325.411 83.667 L 317.349 83.667 317.422 83.208 C 317.461 82.956,317.514 82.600,317.539 82.417 C 317.563 82.233,317.645 82.038,317.719 81.983 C 317.794 81.928,317.882 81.741,317.915 81.567 C 317.948 81.392,317.990 81.231,318.008 81.208 C 318.027 81.185,318.055 81.110,318.071 81.042 C 318.176 80.589,318.401 80.069,318.526 79.988 C 318.608 79.935,318.704 79.748,318.739 79.571 C 318.860 78.967,319.654 77.751,320.244 77.263 C 320.568 76.995,320.836 76.695,320.840 76.596 C 320.847 76.399,322.073 75.500,322.336 75.500 C 322.426 75.500,322.500 75.434,322.500 75.354 C 322.500 75.153,323.345 74.819,323.974 74.771 C 324.258 74.750,324.543 74.680,324.606 74.616 C 324.809 74.414,327.667 74.480,327.667 74.687 M248.667 76.019 C 248.667 76.100,248.723 76.154,248.792 76.139 C 249.068 76.077,250.167 76.380,250.167 76.519 C 250.167 76.600,250.223 76.652,250.292 76.633 C 250.823 76.490,253.500 78.688,253.500 79.268 C 253.500 79.388,253.682 79.658,253.905 79.868 C 254.155 80.104,254.350 80.521,254.413 80.957 C 254.470 81.345,254.625 81.924,254.758 82.243 C 254.891 82.562,255.000 83.092,255.000 83.421 C 255.000 83.752,255.070 83.976,255.157 83.923 C 255.346 83.806,255.358 91.170,255.169 91.417 C 255.099 91.508,254.989 92.015,254.925 92.542 C 254.861 93.069,254.756 93.500,254.690 93.500 C 254.625 93.500,254.555 93.706,254.535 93.958 C 254.475 94.728,254.349 95.221,254.187 95.321 C 254.103 95.374,254.007 95.567,253.975 95.750 C 253.943 95.933,253.823 96.182,253.708 96.304 C 253.594 96.425,253.500 96.673,253.500 96.855 C 253.500 97.037,253.430 97.143,253.345 97.091 C 253.260 97.038,253.139 97.159,253.075 97.360 C 252.869 98.009,251.211 99.737,250.532 100.011 C 250.302 100.104,250.195 100.244,250.266 100.359 C 250.340 100.479,250.312 100.506,250.189 100.431 C 250.082 100.364,249.751 100.460,249.453 100.644 C 249.156 100.828,248.726 101.004,248.498 101.035 C 248.270 101.066,247.971 101.165,247.833 101.254 C 247.404 101.533,243.811 101.506,243.361 101.220 C 243.146 101.084,242.927 101.017,242.874 101.071 C 242.820 101.124,242.593 101.047,242.368 100.900 C 242.110 100.731,242.008 100.711,242.091 100.846 C 242.164 100.964,241.960 100.859,241.638 100.614 C 241.316 100.368,240.995 100.167,240.926 100.167 C 240.739 100.167,239.167 98.628,239.167 98.445 C 239.167 98.359,238.994 98.128,238.782 97.932 C 238.399 97.577,238.090 97.028,238.140 96.792 C 238.155 96.723,238.098 96.667,238.013 96.667 C 237.929 96.667,237.811 96.443,237.750 96.169 C 237.690 95.895,237.572 95.628,237.487 95.575 C 237.403 95.523,237.333 95.275,237.333 95.023 C 237.333 94.772,237.243 94.477,237.133 94.367 C 237.023 94.257,236.995 94.167,237.070 94.167 C 237.146 94.167,237.120 94.061,237.012 93.932 C 236.879 93.771,236.872 93.662,236.992 93.588 C 237.088 93.529,237.167 93.405,237.167 93.314 C 237.167 93.222,237.097 93.190,237.012 93.243 C 236.780 93.386,236.790 84.836,237.022 84.556 C 237.123 84.435,237.170 84.150,237.127 83.923 C 237.084 83.696,237.101 83.543,237.166 83.583 C 237.230 83.623,237.289 83.425,237.297 83.144 C 237.305 82.862,237.507 82.337,237.746 81.977 C 237.984 81.616,238.134 81.249,238.080 81.161 C 238.025 81.072,238.060 81.000,238.157 81.000 C 238.254 81.000,238.333 80.842,238.333 80.649 C 238.333 80.456,238.521 80.150,238.750 79.970 C 238.979 79.790,239.167 79.546,239.167 79.428 C 239.167 79.310,239.354 79.073,239.583 78.900 C 239.813 78.728,240.000 78.527,240.000 78.453 C 240.000 78.380,240.150 78.158,240.333 77.962 C 240.517 77.765,240.668 77.674,240.669 77.760 C 240.671 77.846,240.727 77.838,240.794 77.742 C 240.862 77.646,241.179 77.387,241.500 77.167 C 241.821 76.946,242.121 76.721,242.167 76.667 C 242.278 76.534,243.649 76.113,244.144 76.059 C 244.361 76.036,244.570 75.985,244.609 75.947 C 244.750 75.806,248.667 75.875,248.667 76.019 M80.076 87.833 C 80.076 91.271,80.098 92.677,80.125 90.958 C 80.152 89.240,80.152 86.427,80.125 84.708 C 80.098 82.990,80.076 84.396,80.076 87.833 " stroke="none" fill="#04a3eb" fill-rule="evenodd"></path><path id="path2" d="M127.168 10.164 C 126.972 10.287,126.963 10.363,127.124 10.524 C 127.366 10.766,127.552 10.630,127.473 10.267 C 127.433 10.083,127.345 10.053,127.168 10.164 M87.417 14.952 C 87.233 14.996,87.012 15.100,86.925 15.183 C 86.838 15.266,86.594 15.333,86.383 15.333 C 86.172 15.333,86.000 15.419,86.000 15.523 C 86.000 15.652,86.245 15.678,86.775 15.606 C 87.539 15.501,88.000 15.265,88.000 14.980 C 88.000 14.826,87.952 14.823,87.417 14.952 M84.917 15.825 C 84.733 15.894,84.415 16.008,84.208 16.078 C 83.744 16.236,83.717 16.500,84.167 16.500 C 84.350 16.500,84.500 16.435,84.500 16.355 C 84.500 16.275,84.800 16.161,85.167 16.103 C 85.533 16.044,85.833 15.922,85.833 15.831 C 85.833 15.644,85.407 15.641,84.917 15.825 M83.167 16.491 C 83.029 16.567,82.167 16.991,81.250 17.435 C 80.333 17.878,79.463 18.373,79.316 18.534 C 79.170 18.695,79.001 18.779,78.942 18.720 C 78.884 18.661,78.691 18.780,78.514 18.984 C 78.337 19.188,78.160 19.332,78.120 19.303 C 77.986 19.204,75.987 20.770,75.450 21.394 C 75.282 21.590,74.667 22.242,74.083 22.842 C 72.936 24.023,71.345 26.500,71.734 26.500 C 72.002 26.500,72.500 25.794,72.500 25.415 C 72.500 25.269,72.688 24.977,72.917 24.765 C 73.146 24.552,73.333 24.325,73.333 24.259 C 73.333 24.194,73.652 23.819,74.042 23.426 C 74.431 23.033,74.944 22.495,75.181 22.231 C 75.708 21.644,76.627 20.833,76.765 20.833 C 76.821 20.833,77.209 20.496,77.628 20.083 C 78.046 19.671,78.456 19.333,78.539 19.333 C 78.622 19.333,78.795 19.240,78.923 19.125 C 79.522 18.588,79.694 18.486,80.163 18.392 C 80.440 18.337,80.667 18.245,80.668 18.188 C 80.669 18.130,81.007 17.935,81.418 17.754 C 81.830 17.573,82.167 17.367,82.167 17.296 C 82.167 17.225,82.249 17.167,82.350 17.167 C 82.654 17.167,83.667 16.639,83.667 16.481 C 83.667 16.303,83.502 16.306,83.167 16.491 M36.845 22.458 C 36.879 22.818,37.143 23.245,37.155 22.958 C 37.161 22.798,37.284 22.667,37.427 22.667 C 37.569 22.667,37.640 22.592,37.583 22.500 C 37.464 22.307,36.828 22.272,36.845 22.458 M37.833 22.500 C 37.833 22.608,39.833 22.667,43.500 22.667 C 47.167 22.667,49.167 22.608,49.167 22.500 C 49.167 22.392,47.167 22.333,43.500 22.333 C 39.833 22.333,37.833 22.392,37.833 22.500 M37.082 61.250 C 37.082 82.058,37.101 90.596,37.125 80.222 C 37.149 69.848,37.149 52.823,37.125 42.388 C 37.101 31.954,37.082 40.442,37.082 61.250 M71.361 26.813 C 71.180 26.928,71.185 26.971,71.386 27.049 C 71.644 27.148,71.833 27.045,71.833 26.806 C 71.833 26.629,71.646 26.632,71.361 26.813 M71.146 27.250 C 71.134 27.296,71.116 27.411,71.104 27.506 C 71.093 27.601,70.983 27.741,70.861 27.816 C 70.682 27.927,70.691 27.974,70.903 28.055 C 71.070 28.119,71.167 28.066,71.167 27.911 C 71.167 27.777,71.242 27.667,71.333 27.667 C 71.425 27.667,71.500 27.554,71.500 27.417 C 71.500 27.191,71.196 27.048,71.146 27.250 M70.667 28.569 C 70.667 28.699,70.588 28.832,70.491 28.864 C 70.394 28.896,70.296 29.050,70.274 29.207 C 70.251 29.363,70.185 29.537,70.127 29.595 C 70.070 29.652,70.060 29.797,70.106 29.916 C 70.152 30.035,70.109 30.182,70.011 30.243 C 69.787 30.382,69.779 30.667,70.000 30.667 C 70.092 30.667,70.167 30.554,70.167 30.417 C 70.167 30.279,70.235 30.167,70.319 30.167 C 70.402 30.167,70.521 29.867,70.583 29.500 C 70.645 29.133,70.764 28.833,70.848 28.833 C 70.932 28.833,71.000 28.721,71.000 28.583 C 71.000 28.446,70.925 28.333,70.833 28.333 C 70.742 28.333,70.667 28.440,70.667 28.569 M69.667 31.250 C 69.667 31.387,69.742 31.500,69.833 31.500 C 69.925 31.500,70.000 31.387,70.000 31.250 C 70.000 31.113,69.925 31.000,69.833 31.000 C 69.742 31.000,69.667 31.113,69.667 31.250 M69.422 32.049 C 69.351 32.213,69.339 32.394,69.396 32.452 C 69.565 32.621,69.702 32.383,69.624 32.055 C 69.555 31.764,69.546 31.763,69.422 32.049 M69.169 33.375 C 69.171 33.786,69.211 33.856,69.333 33.667 C 69.545 33.339,69.545 32.833,69.333 32.833 C 69.242 32.833,69.168 33.077,69.169 33.375 M68.833 34.667 C 68.833 34.942,68.908 35.167,69.000 35.167 C 69.092 35.167,69.167 34.942,69.167 34.667 C 69.167 34.392,69.092 34.167,69.000 34.167 C 68.908 34.167,68.833 34.392,68.833 34.667 M68.709 36.417 C 68.711 36.783,68.745 36.914,68.785 36.706 C 68.824 36.499,68.823 36.199,68.781 36.040 C 68.739 35.880,68.707 36.050,68.709 36.417 M68.444 39.444 C 68.257 39.631,68.312 53.333,68.500 53.333 C 68.608 53.333,68.667 50.889,68.667 46.333 C 68.667 42.483,68.642 39.333,68.611 39.333 C 68.581 39.333,68.506 39.383,68.444 39.444 M68.111 53.778 C 67.938 53.951,67.980 54.500,68.167 54.500 C 68.258 54.500,68.333 54.313,68.333 54.083 C 68.333 53.647,68.295 53.594,68.111 53.778 M67.833 55.083 C 67.833 55.221,67.908 55.333,68.000 55.333 C 68.092 55.333,68.167 55.221,68.167 55.083 C 68.167 54.946,68.092 54.833,68.000 54.833 C 67.908 54.833,67.833 54.946,67.833 55.083 M67.333 56.583 C 67.333 56.721,67.408 56.833,67.500 56.833 C 67.592 56.833,67.667 56.721,67.667 56.583 C 67.667 56.446,67.592 56.333,67.500 56.333 C 67.408 56.333,67.333 56.446,67.333 56.583 M67.000 57.158 C 67.000 57.880,65.196 59.665,63.833 60.291 C 63.329 60.522,62.786 60.777,62.627 60.856 C 62.468 60.935,62.074 61.000,61.752 61.000 C 61.430 61.000,61.167 61.075,61.167 61.167 C 61.167 61.258,61.467 61.333,61.833 61.333 C 62.200 61.333,62.500 61.268,62.500 61.188 C 62.500 61.108,62.875 60.993,63.333 60.932 C 63.792 60.872,64.167 60.749,64.167 60.661 C 64.167 60.572,64.319 60.500,64.505 60.500 C 64.691 60.500,64.887 60.387,64.940 60.250 C 64.992 60.112,65.123 60.000,65.230 60.000 C 65.523 60.000,66.717 58.668,67.045 57.975 C 67.373 57.284,67.408 57.000,67.167 57.000 C 67.075 57.000,67.000 57.071,67.000 57.158 M58.167 61.407 C 58.167 61.751,58.383 61.834,58.618 61.581 C 58.776 61.410,58.764 61.342,58.562 61.265 C 58.199 61.126,58.167 61.137,58.167 61.407 M68.333 86.823 C 68.333 91.052,68.392 93.333,68.500 93.333 C 68.608 93.333,68.667 91.087,68.667 86.927 C 68.667 82.835,68.606 80.482,68.500 80.417 C 68.390 80.349,68.333 82.526,68.333 86.823 M68.705 96.500 C 68.705 96.821,68.740 96.952,68.782 96.792 C 68.823 96.631,68.823 96.369,68.782 96.208 C 68.740 96.048,68.705 96.179,68.705 96.500 M68.833 98.417 C 68.833 98.554,68.908 98.667,69.000 98.667 C 69.092 98.667,69.167 98.554,69.167 98.417 C 69.167 98.279,69.092 98.167,69.000 98.167 C 68.908 98.167,68.833 98.279,68.833 98.417 M69.167 99.750 C 69.167 99.888,69.242 100.000,69.333 100.000 C 69.425 100.000,69.500 99.888,69.500 99.750 C 69.500 99.612,69.425 99.500,69.333 99.500 C 69.242 99.500,69.167 99.612,69.167 99.750 M88.167 108.667 C 88.167 108.758,88.279 108.833,88.417 108.833 C 88.554 108.833,88.667 108.758,88.667 108.667 C 88.667 108.575,88.554 108.500,88.417 108.500 C 88.279 108.500,88.167 108.575,88.167 108.667 M127.000 122.417 C 127.000 122.554,127.112 122.667,127.250 122.667 C 127.388 122.667,127.500 122.554,127.500 122.417 C 127.500 122.279,127.388 122.167,127.250 122.167 C 127.112 122.167,127.000 122.279,127.000 122.417 M125.792 125.944 C 126.097 126.067,126.046 126.333,125.717 126.333 C 125.497 126.333,125.478 126.378,125.633 126.533 C 125.787 126.687,125.887 126.659,126.077 126.408 C 126.419 125.956,126.392 125.831,125.958 125.846 C 125.752 125.854,125.677 125.897,125.792 125.944 M125.169 127.159 C 124.941 127.334,124.801 127.524,124.858 127.580 C 125.048 127.770,121.756 130.760,120.910 131.168 C 119.978 131.617,119.567 131.960,119.753 132.133 C 119.822 132.197,119.912 132.156,119.953 132.042 C 119.994 131.927,120.179 131.833,120.363 131.833 C 121.101 131.833,123.015 130.295,124.547 128.469 C 125.503 127.331,125.667 127.112,125.667 126.974 C 125.667 126.785,125.646 126.792,125.169 127.159 M5.925 131.146 C 6.247 131.443,7.710 132.179,7.799 132.089 C 7.942 131.947,7.306 131.508,6.792 131.394 C 6.540 131.338,6.333 131.226,6.333 131.146 C 6.333 131.066,6.206 131.000,6.050 131.000 C 5.878 131.000,5.829 131.058,5.925 131.146 M118.833 132.151 C 118.833 132.234,118.458 132.354,118.000 132.417 C 116.765 132.587,116.702 132.914,117.932 132.770 C 118.474 132.707,118.942 132.583,118.972 132.494 C 119.003 132.406,119.138 132.333,119.274 132.333 C 119.409 132.333,119.473 132.258,119.417 132.167 C 119.288 131.959,118.833 131.946,118.833 132.151 M9.667 132.667 C 9.472 132.793,9.518 132.829,9.875 132.831 C 10.127 132.832,10.333 132.758,10.333 132.667 C 10.333 132.456,9.993 132.456,9.667 132.667 " stroke="none" fill="#07283c" fill-rule="evenodd"></path><path id="path3" d="M85.357 15.525 C 85.049 15.613,84.824 15.710,84.857 15.740 C 84.982 15.852,86.000 15.622,86.000 15.481 C 86.000 15.400,85.981 15.340,85.958 15.348 C 85.935 15.357,85.665 15.436,85.357 15.525 M83.923 16.059 C 83.594 16.199,83.497 16.312,83.631 16.395 C 83.742 16.463,83.833 16.440,83.833 16.343 C 83.833 16.246,83.941 16.167,84.073 16.167 C 84.206 16.167,84.360 16.092,84.417 16.000 C 84.542 15.797,84.536 15.797,83.923 16.059 M81.284 17.198 C 80.936 17.386,80.683 17.572,80.722 17.611 C 80.798 17.687,82.167 17.012,82.167 16.900 C 82.167 16.772,81.912 16.858,81.284 17.198 M79.127 18.405 C 78.968 18.521,78.884 18.662,78.939 18.717 C 78.994 18.772,79.152 18.705,79.290 18.567 C 79.613 18.244,79.501 18.132,79.127 18.405 M74.913 21.781 C 73.956 22.760,73.200 23.589,73.234 23.622 C 73.267 23.656,73.734 23.214,74.272 22.642 C 74.810 22.069,75.625 21.241,76.083 20.800 C 76.541 20.360,76.857 20.000,76.785 20.000 C 76.713 20.000,75.870 20.801,74.913 21.781 M47.294 22.285 C 47.501 22.324,47.801 22.323,47.960 22.281 C 48.120 22.239,47.950 22.207,47.583 22.209 C 47.217 22.211,47.086 22.245,47.294 22.285 M36.786 24.208 C 36.626 24.930,36.662 97.625,36.822 98.026 C 36.921 98.272,36.983 84.569,36.989 61.125 C 36.995 40.615,36.971 23.833,36.935 23.833 C 36.899 23.833,36.832 24.002,36.786 24.208 M71.880 25.542 C 71.706 25.766,71.503 26.272,71.519 26.441 C 71.524 26.499,71.428 26.610,71.306 26.687 C 71.183 26.765,71.158 26.828,71.250 26.828 C 71.342 26.828,71.529 26.756,71.667 26.667 C 71.824 26.565,71.842 26.504,71.714 26.503 C 71.581 26.501,71.630 26.299,71.855 25.917 C 72.190 25.350,72.205 25.122,71.880 25.542 M70.886 27.292 C 70.829 27.452,70.746 27.649,70.701 27.730 C 70.657 27.811,70.724 27.842,70.852 27.799 C 70.979 27.757,71.083 27.632,71.083 27.522 C 71.083 27.411,71.196 27.250,71.333 27.163 C 71.545 27.029,71.538 27.005,71.286 27.003 C 71.123 27.001,70.943 27.131,70.886 27.292 M70.552 28.208 C 70.231 28.639,69.785 29.845,69.768 30.329 C 69.758 30.606,69.694 30.833,69.625 30.833 C 69.556 30.833,69.509 31.002,69.519 31.208 C 69.534 31.491,69.558 31.511,69.615 31.292 C 69.657 31.131,69.769 31.000,69.863 31.000 C 69.958 31.000,69.989 30.878,69.932 30.729 C 69.874 30.580,69.907 30.363,70.003 30.246 C 70.099 30.130,70.167 29.971,70.153 29.893 C 70.139 29.814,70.142 29.712,70.160 29.667 C 70.178 29.621,70.220 29.435,70.254 29.253 C 70.288 29.071,70.394 28.896,70.491 28.864 C 70.588 28.832,70.667 28.699,70.667 28.569 C 70.667 28.440,70.742 28.333,70.833 28.333 C 70.925 28.333,71.000 28.258,71.000 28.167 C 71.000 27.934,70.738 27.959,70.552 28.208 M69.227 31.917 C 69.174 32.054,69.174 32.279,69.227 32.417 C 69.280 32.554,69.250 32.667,69.161 32.667 C 69.073 32.667,69.010 32.873,69.023 33.125 C 69.042 33.518,69.056 33.530,69.118 33.208 C 69.157 33.002,69.265 32.833,69.356 32.833 C 69.448 32.833,69.474 32.680,69.414 32.492 C 69.355 32.304,69.396 32.042,69.507 31.909 C 69.654 31.731,69.657 31.667,69.515 31.667 C 69.409 31.667,69.280 31.779,69.227 31.917 M68.746 34.179 C 68.686 34.369,68.681 34.569,68.735 34.624 C 68.789 34.678,68.833 34.597,68.833 34.444 C 68.833 34.292,68.908 34.167,69.000 34.167 C 69.092 34.167,69.167 34.092,69.167 34.000 C 69.167 33.696,68.858 33.828,68.746 34.179 M68.611 35.444 C 68.550 35.506,68.507 35.787,68.515 36.069 L 68.530 36.583 68.691 36.023 C 68.852 35.464,68.821 35.235,68.611 35.444 M68.417 37.833 C 68.312 37.990,68.247 40.849,68.241 45.500 L 68.232 52.917 68.281 46.333 C 68.313 42.055,68.393 39.630,68.510 39.407 C 68.744 38.958,68.657 37.474,68.417 37.833 M68.122 53.267 C 68.055 53.334,68.000 53.504,68.000 53.644 C 68.000 53.832,68.049 53.851,68.185 53.715 C 68.287 53.613,68.342 53.443,68.307 53.337 C 68.272 53.232,68.188 53.201,68.122 53.267 M67.383 56.204 C 67.117 56.547,66.997 57.000,67.172 57.000 C 67.261 57.000,67.333 56.856,67.333 56.681 C 67.333 56.505,67.427 56.328,67.542 56.287 C 67.656 56.246,67.704 56.163,67.649 56.102 C 67.593 56.042,67.473 56.088,67.383 56.204 M65.844 58.711 C 65.370 59.296,65.351 59.346,65.735 59.000 C 66.133 58.641,66.607 57.994,66.464 58.003 C 66.438 58.005,66.159 58.323,65.844 58.711 M64.583 59.774 L 64.083 60.202 64.625 59.898 C 64.923 59.731,65.167 59.536,65.167 59.464 C 65.167 59.281,65.144 59.293,64.583 59.774 M63.333 60.417 C 63.104 60.548,62.992 60.655,63.083 60.655 C 63.175 60.655,63.438 60.548,63.667 60.417 C 63.896 60.286,64.008 60.178,63.917 60.178 C 63.825 60.178,63.563 60.286,63.333 60.417 M61.917 60.833 L 61.417 60.961 61.948 60.980 C 62.241 60.991,62.527 60.925,62.583 60.833 C 62.697 60.649,62.642 60.649,61.917 60.833 M60.667 61.167 C 60.667 61.258,60.779 61.333,60.917 61.333 C 61.054 61.333,61.167 61.258,61.167 61.167 C 61.167 61.075,61.054 61.000,60.917 61.000 C 60.779 61.000,60.667 61.075,60.667 61.167 M188.574 70.750 C 188.574 73.592,188.597 74.778,188.625 73.385 C 188.652 71.993,188.653 69.668,188.625 68.219 C 188.597 66.769,188.574 67.908,188.574 70.750 M73.977 67.169 C 74.398 67.523,74.667 67.594,74.667 67.350 C 74.667 67.267,74.423 67.118,74.125 67.019 L 73.583 66.838 73.977 67.169 M66.841 75.417 C 66.837 75.664,67.135 76.088,67.239 75.983 C 67.289 75.933,67.221 75.748,67.087 75.571 C 66.953 75.395,66.843 75.325,66.841 75.417 M68.012 79.198 C 68.005 79.445,68.075 79.693,68.167 79.750 C 68.366 79.873,68.366 79.546,68.167 79.083 C 68.039 78.786,68.022 78.798,68.012 79.198 M68.242 87.250 C 68.242 90.550,68.264 91.924,68.291 90.302 C 68.319 88.681,68.319 85.981,68.291 84.302 C 68.264 82.624,68.242 83.950,68.242 87.250 M68.333 94.167 C 68.333 94.625,68.408 95.000,68.500 95.000 C 68.592 95.000,68.667 94.625,68.667 94.167 C 68.667 93.708,68.592 93.333,68.500 93.333 C 68.408 93.333,68.333 93.708,68.333 94.167 M68.517 96.875 C 68.507 97.219,68.575 97.500,68.667 97.500 C 68.857 97.500,68.857 97.262,68.667 96.667 C 68.548 96.295,68.531 96.317,68.517 96.875 M69.038 100.031 C 69.121 100.280,69.500 100.417,69.500 100.198 C 69.500 100.109,69.381 99.990,69.236 99.934 C 69.074 99.872,68.998 99.909,69.038 100.031 M83.917 105.667 C 84.083 105.850,84.282 106.000,84.361 106.000 C 84.439 106.000,84.409 105.850,84.295 105.667 C 84.180 105.483,83.980 105.333,83.851 105.333 C 83.670 105.333,83.685 105.410,83.917 105.667 M72.500 108.146 C 72.500 108.227,72.607 108.381,72.737 108.489 C 72.931 108.650,72.958 108.624,72.884 108.343 C 72.797 108.008,72.500 107.856,72.500 108.146 M73.336 109.089 C 73.340 109.376,73.645 109.744,73.773 109.616 C 73.841 109.548,73.770 109.365,73.615 109.210 C 73.460 109.055,73.334 109.001,73.336 109.089 M90.333 109.333 C 90.656 109.542,90.833 109.542,90.833 109.333 C 90.833 109.242,90.665 109.168,90.458 109.169 C 90.155 109.171,90.131 109.203,90.333 109.333 M122.917 129.461 C 122.000 130.348,121.550 130.838,121.917 130.550 C 122.582 130.027,124.811 127.827,124.662 127.841 C 124.619 127.844,123.833 128.574,122.917 129.461 M119.584 131.832 C 119.418 132.016,119.336 132.167,119.403 132.167 C 119.578 132.167,120.054 131.665,119.963 131.574 C 119.921 131.532,119.751 131.648,119.584 131.832 M118.333 132.167 L 117.917 132.300 118.375 132.317 C 118.627 132.326,118.833 132.258,118.833 132.167 C 118.833 132.075,118.815 132.007,118.792 132.017 C 118.769 132.026,118.563 132.093,118.333 132.167 " stroke="none" fill="#14689f" fill-rule="evenodd"></path><path id="path4" d="M74.824 21.625 C 73.605 22.945,73.136 23.543,74.006 22.667 C 75.022 21.644,75.590 21.000,75.476 21.000 C 75.435 21.000,75.141 21.281,74.824 21.625 M40.958 22.291 C 42.081 22.320,43.919 22.320,45.042 22.291 C 46.165 22.262,45.246 22.239,43.000 22.239 C 40.754 22.239,39.835 22.262,40.958 22.291 M90.500 23.500 C 90.500 23.592,90.612 23.667,90.750 23.667 C 90.888 23.667,91.000 23.592,91.000 23.500 C 91.000 23.408,90.888 23.333,90.750 23.333 C 90.612 23.333,90.500 23.408,90.500 23.500 M36.563 26.500 C 36.563 27.554,36.590 27.985,36.623 27.458 C 36.656 26.931,36.656 26.069,36.623 25.542 C 36.590 25.015,36.563 25.446,36.563 26.500 M70.506 27.822 C 70.295 28.217,70.285 28.383,70.480 28.262 C 70.627 28.172,70.856 27.500,70.740 27.500 C 70.706 27.500,70.601 27.645,70.506 27.822 M69.488 30.542 C 69.382 30.931,69.231 31.438,69.151 31.667 C 68.989 32.133,68.679 33.776,68.585 34.667 C 68.551 34.987,68.483 35.475,68.434 35.750 C 68.385 36.025,68.388 36.100,68.441 35.917 C 68.493 35.733,68.609 35.493,68.699 35.382 C 68.789 35.271,68.815 34.962,68.756 34.694 C 68.686 34.375,68.730 34.127,68.884 33.973 C 69.030 33.827,69.089 33.534,69.041 33.202 C 68.998 32.908,69.035 32.667,69.125 32.667 C 69.214 32.667,69.251 32.480,69.208 32.252 C 69.157 31.985,69.215 31.804,69.373 31.744 C 69.529 31.684,69.589 31.503,69.539 31.242 C 69.496 31.017,69.526 30.833,69.606 30.833 C 69.685 30.833,69.758 30.608,69.768 30.333 C 69.792 29.648,69.715 29.706,69.488 30.542 M36.725 36.333 C 36.725 37.112,36.754 37.431,36.789 37.042 C 36.824 36.652,36.824 36.015,36.789 35.625 C 36.754 35.235,36.725 35.554,36.725 36.333 M68.278 37.444 C 68.217 37.506,68.180 38.012,68.197 38.569 C 68.227 39.575,68.227 39.577,68.290 38.750 C 68.325 38.292,68.424 37.845,68.510 37.758 C 68.596 37.671,68.667 37.540,68.667 37.467 C 68.667 37.305,68.431 37.291,68.278 37.444 M36.717 39.667 C 36.717 40.171,36.748 40.377,36.786 40.125 C 36.824 39.873,36.824 39.460,36.786 39.208 C 36.748 38.956,36.717 39.162,36.717 39.667 M36.730 43.000 C 36.730 44.054,36.757 44.485,36.790 43.958 C 36.823 43.431,36.823 42.569,36.790 42.042 C 36.757 41.515,36.730 41.946,36.730 43.000 M294.248 77.667 C 294.248 96.412,294.268 104.081,294.292 94.708 C 294.315 85.335,294.315 69.998,294.292 60.625 C 294.268 51.252,294.248 58.921,294.248 77.667 M68.000 52.167 C 68.000 52.839,68.051 53.338,68.112 53.277 C 68.230 53.159,68.192 51.136,68.070 51.014 C 68.031 50.976,68.000 51.494,68.000 52.167 M67.807 54.083 C 67.701 54.846,67.702 54.855,67.925 54.699 C 68.016 54.636,68.048 54.321,67.996 54.000 L 67.901 53.417 67.807 54.083 M65.573 58.875 L 65.083 59.417 65.625 58.927 C 66.130 58.471,66.243 58.333,66.115 58.333 C 66.086 58.333,65.842 58.577,65.573 58.875 M59.417 61.000 C 57.925 61.118,57.937 61.143,59.542 61.272 C 60.256 61.330,60.667 61.301,60.667 61.192 C 60.667 61.099,60.873 60.991,61.125 60.953 C 61.812 60.849,61.069 60.869,59.417 61.000 M188.667 70.800 L 188.750 76.083 188.794 70.927 C 188.818 68.092,188.781 65.714,188.711 65.644 C 188.641 65.574,188.621 67.894,188.667 70.800 M73.752 66.837 C 73.863 67.016,74.500 67.158,74.500 67.004 C 74.500 66.931,74.315 66.837,74.088 66.794 C 73.862 66.750,73.711 66.770,73.752 66.837 M36.712 70.000 C 36.712 70.412,36.745 70.581,36.784 70.375 C 36.824 70.169,36.824 69.831,36.784 69.625 C 36.745 69.419,36.712 69.587,36.712 70.000 M66.192 74.658 C 66.263 74.873,66.492 74.912,66.512 74.712 C 66.519 74.646,66.435 74.562,66.325 74.525 C 66.215 74.488,66.155 74.548,66.192 74.658 M67.124 76.405 C 67.198 76.795,67.667 77.160,67.667 76.828 C 67.667 76.739,67.592 76.667,67.500 76.667 C 67.408 76.667,67.333 76.517,67.333 76.333 C 67.333 76.150,67.269 76.000,67.190 76.000 C 67.111 76.000,67.081 76.182,67.124 76.405 M67.680 78.125 C 67.671 78.377,67.762 78.499,67.958 78.497 C 68.138 78.496,68.180 78.448,68.067 78.372 C 67.966 78.305,67.840 78.137,67.788 78.000 C 67.725 77.833,67.689 77.874,67.680 78.125 M347.392 89.250 C 347.392 90.075,347.420 90.434,347.455 90.047 C 347.490 89.660,347.490 88.985,347.456 88.547 C 347.422 88.109,347.393 88.425,347.392 89.250 M36.572 93.833 C 36.572 95.987,36.595 96.869,36.624 95.792 C 36.653 94.715,36.653 92.952,36.624 91.875 C 36.595 90.798,36.572 91.679,36.572 93.833 M68.198 94.028 C 68.165 95.021,68.269 95.500,68.518 95.500 C 68.600 95.500,68.667 95.388,68.667 95.250 C 68.667 95.112,68.595 95.000,68.508 95.000 C 68.421 95.000,68.323 94.569,68.290 94.042 L 68.230 93.083 68.198 94.028 M80.098 94.625 C 80.254 95.490,80.333 95.513,80.333 94.694 C 80.333 94.313,80.255 94.000,80.159 94.000 C 80.049 94.000,80.026 94.229,80.098 94.625 M68.359 97.000 C 68.335 97.488,68.592 97.964,68.778 97.778 C 68.849 97.707,68.823 97.596,68.720 97.533 C 68.618 97.469,68.499 97.229,68.456 97.000 L 68.379 96.583 68.359 97.000 M36.677 98.542 C 36.669 99.189,36.720 99.333,36.958 99.331 C 37.173 99.329,37.193 99.292,37.036 99.192 C 36.918 99.118,36.865 98.945,36.917 98.809 C 36.969 98.673,36.939 98.379,36.850 98.156 C 36.710 97.805,36.686 97.857,36.677 98.542 M68.734 98.820 C 68.750 99.213,69.167 99.551,69.167 99.171 C 69.167 99.066,69.097 99.024,69.011 99.076 C 68.926 99.129,68.825 99.002,68.787 98.794 C 68.723 98.443,68.719 98.444,68.734 98.820 M343.381 99.917 C 343.382 100.375,343.415 100.543,343.453 100.289 C 343.491 100.036,343.490 99.661,343.451 99.456 C 343.411 99.251,343.380 99.458,343.381 99.917 M188.741 105.750 C 188.741 108.683,188.764 109.860,188.791 108.365 C 188.819 106.869,188.819 104.469,188.791 103.031 C 188.764 101.593,188.741 102.817,188.741 105.750 M69.168 100.948 C 69.167 101.149,69.235 101.356,69.318 101.407 C 69.401 101.458,69.430 101.650,69.382 101.833 C 69.334 102.017,69.374 102.167,69.470 102.167 C 69.700 102.167,69.652 101.527,69.382 101.000 C 69.178 100.602,69.169 100.599,69.168 100.948 M69.680 102.625 C 69.671 102.877,69.762 102.999,69.958 102.997 C 70.138 102.996,70.180 102.948,70.067 102.872 C 69.966 102.805,69.840 102.638,69.788 102.500 C 69.725 102.333,69.689 102.374,69.680 102.625 M70.282 103.940 C 70.224 103.999,70.229 104.130,70.294 104.232 C 70.358 104.333,70.423 104.454,70.437 104.500 C 70.621 105.115,70.730 105.333,70.853 105.333 C 70.934 105.333,70.981 105.423,70.958 105.532 C 70.935 105.641,71.067 105.757,71.250 105.791 C 71.524 105.840,71.539 105.820,71.333 105.678 C 71.196 105.583,71.158 105.502,71.250 105.497 C 71.342 105.493,71.291 105.417,71.138 105.327 C 70.985 105.238,70.810 104.940,70.750 104.666 C 70.690 104.391,70.567 104.167,70.477 104.167 C 70.387 104.167,70.360 104.092,70.417 104.000 C 70.532 103.814,70.447 103.776,70.282 103.940 M84.172 105.448 C 84.169 105.558,84.243 105.694,84.336 105.752 C 84.429 105.809,84.468 105.918,84.421 105.993 C 84.375 106.067,84.494 106.170,84.685 106.220 C 84.877 106.270,84.984 106.391,84.924 106.489 C 84.863 106.587,84.893 106.667,84.990 106.667 C 85.087 106.667,85.167 106.593,85.167 106.503 C 85.167 106.262,84.177 105.214,84.172 105.448 M85.708 107.027 C 85.960 107.119,86.167 107.254,86.167 107.328 C 86.167 107.401,86.317 107.500,86.500 107.548 C 86.683 107.596,86.833 107.567,86.833 107.484 C 86.833 107.401,86.730 107.333,86.604 107.333 C 86.477 107.333,86.281 107.221,86.167 107.083 C 86.053 106.946,85.800 106.839,85.605 106.846 C 85.303 106.858,85.319 106.885,85.708 107.027 M71.667 107.167 C 71.667 107.258,71.835 107.332,72.042 107.331 C 72.345 107.329,72.369 107.297,72.167 107.167 C 71.844 106.958,71.667 106.958,71.667 107.167 M72.125 107.610 C 72.240 107.657,72.333 107.829,72.333 107.993 C 72.333 108.158,72.458 108.395,72.610 108.521 C 72.858 108.726,72.868 108.715,72.706 108.417 C 72.606 108.233,72.484 107.952,72.434 107.792 C 72.384 107.631,72.248 107.506,72.130 107.513 C 71.963 107.523,71.962 107.545,72.125 107.610 M87.000 107.833 C 87.000 107.925,87.131 108.000,87.292 108.001 C 87.452 108.002,87.792 108.111,88.047 108.244 C 88.302 108.377,88.466 108.413,88.411 108.324 C 88.326 108.187,87.259 107.667,87.063 107.667 C 87.028 107.667,87.000 107.742,87.000 107.833 M73.000 108.980 C 73.000 109.060,73.107 109.214,73.237 109.322 C 73.431 109.484,73.458 109.458,73.384 109.176 C 73.297 108.841,73.000 108.689,73.000 108.980 M123.667 128.583 C 123.262 128.996,122.968 129.333,123.014 129.333 C 123.060 129.333,123.428 128.996,123.833 128.583 C 124.238 128.171,124.532 127.833,124.486 127.833 C 124.440 127.833,124.072 128.171,123.667 128.583 " stroke="none" fill="#1678b2" fill-rule="evenodd"></path></g></svg>