<?xml version="1.0" standalone="no"?>
<!DOCTYPE svg PUBLIC "-//W3C//DTD SVG 20010904//EN"
 "http://www.w3.org/TR/2001/REC-SVG-20010904/DTD/svg10.dtd">
<svg version="1.0" xmlns="http://www.w3.org/2000/svg"
 width="401.000000pt" height="80.000000pt" viewBox="0 0 401.000000 80.000000"
 preserveAspectRatio="xMidYMid meet">

<g transform="translate(0.000000,80.000000) scale(0.100000,-0.100000)"
fill="#1DA1F2" stroke="none">
<path d="M3069 773 c11 -16 152 -192 313 -393 l294 -365 87 -3 c48 -1 87 0 87
3 0 3 -69 92 -154 197 l-154 191 145 181 c81 100 153 189 161 199 14 16 10 17
-74 17 l-90 0 -113 -140 c-62 -77 -116 -140 -120 -140 -3 1 -55 63 -116 140
l-110 139 -88 0 -88 1 20 -27z"/>
<path d="M950 385 l0 -355 55 0 55 0 0 103 c0 57 3 106 6 110 3 3 46 -43 95
-104 l90 -109 70 0 70 0 -93 106 c-51 58 -99 114 -107 124 -12 18 -5 29 83
129 53 61 96 112 96 116 0 3 -29 5 -64 5 l-64 0 -83 -104 c-45 -58 -86 -103
-91 -100 -4 3 -8 102 -8 220 l0 214 -55 0 -55 0 0 -355z"/>
<path d="M1992 730 c-35 -15 -48 -54 -28 -84 36 -56 116 -37 116 28 0 48 -41
74 -88 56z"/>
<path d="M2570 385 l0 -355 55 0 55 0 0 151 c0 136 2 155 21 189 27 47 54 62
104 58 28 -2 44 -10 59 -31 19 -26 21 -44 24 -198 l3 -169 55 0 56 0 -4 188
c-3 165 -5 192 -24 226 -24 47 -74 76 -131 76 -55 0 -91 -14 -130 -53 l-33
-31 0 152 0 152 -55 0 -55 0 0 -355z"/>
<path d="M2290 636 c-33 -12 -35 -16 -40 -67 l-5 -54 -40 -5 c-39 -5 -40 -6
-40 -45 0 -40 0 -40 43 -43 l42 -3 0 -164 0 -165 28 -31 c31 -35 87 -50 149
-40 37 6 38 8 41 50 l3 43 -31 -7 c-21 -5 -39 -2 -55 9 -25 16 -25 18 -25 161
l0 145 55 0 55 0 0 45 0 45 -55 0 -55 0 0 70 c0 78 -3 80 -70 56z"/>
<path d="M285 507 c-16 -8 -39 -24 -49 -36 -26 -29 -36 -26 -36 9 0 30 -1 30
-55 30 l-55 0 0 -240 0 -240 55 0 55 0 0 148 c1 195 24 252 105 252 78 0 95
-43 95 -245 l0 -155 55 0 55 0 0 148 c1 203 26 258 117 250 26 -2 42 -11 57
-31 19 -26 21 -44 24 -198 l4 -169 55 0 55 0 -4 188 c-3 165 -5 192 -24 226
-24 47 -74 76 -131 76 -56 0 -91 -15 -134 -56 l-35 -34 -13 22 c-31 57 -130
85 -196 55z"/>
<path d="M1565 505 c-50 -17 -117 -89 -133 -142 -7 -22 -12 -71 -12 -109 0
-170 109 -258 286 -233 98 14 114 24 114 76 0 48 -1 49 -35 27 -36 -24 -144
-30 -181 -11 -42 22 -64 50 -71 91 l-6 36 168 0 168 0 -6 58 c-12 110 -53 179
-124 208 -41 18 -117 17 -168 -1z m134 -80 c16 -8 34 -28 40 -46 20 -59 21
-59 -99 -59 -70 0 -110 4 -110 10 0 21 30 69 56 89 31 25 74 27 113 6z"/>
<path d="M1962 268 l3 -243 53 -3 52 -3 0 245 0 246 -55 0 -55 0 2 -242z"/>
<path d="M3216 218 c-55 -68 -115 -142 -134 -165 l-34 -43 89 0 89 0 87 107
c48 60 87 112 87 118 0 5 -19 32 -43 58 l-42 48 -99 -123z"/>
</g>
</svg>
