<svg id="svg" version="1.1" xmlns="http://www.w3.org/2000/svg" xmlns:xlink="http://www.w3.org/1999/xlink" width="400" height="94.8024948024948" viewBox="0, 0, 400,94.8024948024948"><g id="svgg"><path id="path0" d="M85.716 4.215 C 85.606 4.326,85.419 4.507,85.300 4.617 C 85.181 4.727,84.992 4.915,84.880 5.034 C 84.620 5.309,84.309 5.620,84.034 5.880 C 83.915 5.992,83.727 6.178,83.617 6.294 C 83.291 6.637,72.534 17.398,72.299 17.617 C 72.180 17.727,71.993 17.915,71.883 18.034 C 71.773 18.153,71.585 18.340,71.466 18.450 C 71.347 18.561,71.160 18.748,71.050 18.867 C 70.939 18.986,70.752 19.173,70.633 19.284 C 70.514 19.394,70.327 19.581,70.216 19.700 C 70.106 19.819,69.919 20.007,69.800 20.117 C 69.681 20.227,69.493 20.415,69.383 20.534 C 69.273 20.653,69.085 20.840,68.966 20.950 C 68.847 21.061,68.660 21.248,68.550 21.367 C 68.439 21.486,68.252 21.673,68.133 21.784 C 68.014 21.894,67.827 22.081,67.716 22.200 C 67.606 22.319,67.419 22.507,67.300 22.617 C 67.181 22.727,66.993 22.915,66.883 23.034 C 66.773 23.153,66.585 23.340,66.466 23.450 C 66.347 23.561,66.160 23.748,66.050 23.867 C 65.939 23.986,65.752 24.173,65.633 24.284 C 65.514 24.394,65.327 24.581,65.216 24.700 C 65.106 24.819,64.919 25.007,64.800 25.117 C 64.681 25.227,64.493 25.415,64.383 25.534 C 64.273 25.653,64.085 25.840,63.966 25.950 C 63.847 26.061,63.660 26.248,63.550 26.367 C 63.439 26.486,63.252 26.673,63.133 26.784 C 63.014 26.894,62.827 27.081,62.716 27.200 C 62.606 27.319,62.419 27.507,62.300 27.617 C 62.181 27.727,61.993 27.915,61.883 28.034 C 61.773 28.153,61.585 28.340,61.466 28.450 C 61.347 28.561,61.160 28.748,61.050 28.867 C 60.939 28.986,60.752 29.173,60.633 29.284 C 60.514 29.394,60.327 29.581,60.216 29.700 C 60.106 29.819,59.919 30.007,59.800 30.117 C 59.681 30.227,59.493 30.415,59.383 30.534 C 59.273 30.653,59.085 30.842,58.966 30.954 C 58.847 31.066,58.665 31.244,58.562 31.349 C 58.459 31.454,57.221 32.692,55.812 34.099 C 54.403 35.506,53.160 36.754,53.050 36.871 C 52.939 36.988,52.752 37.173,52.633 37.284 C 52.514 37.394,52.327 37.581,52.216 37.700 C 52.106 37.819,51.919 38.007,51.800 38.117 C 51.681 38.227,51.493 38.415,51.383 38.534 C 51.273 38.653,51.085 38.840,50.966 38.950 C 50.847 39.061,50.660 39.248,50.550 39.367 C 50.439 39.486,50.252 39.673,50.133 39.784 C 50.014 39.894,49.827 40.081,49.716 40.200 C 49.606 40.319,49.419 40.507,49.300 40.617 C 49.181 40.727,48.993 40.915,48.883 41.034 C 48.773 41.153,48.585 41.340,48.466 41.450 C 48.347 41.561,48.160 41.748,48.050 41.867 C 47.939 41.986,47.752 42.173,47.633 42.284 C 47.514 42.394,47.327 42.581,47.216 42.700 C 47.106 42.819,46.919 43.007,46.800 43.117 C 46.681 43.227,46.493 43.415,46.383 43.534 C 46.273 43.653,46.085 43.840,45.966 43.950 C 45.847 44.061,45.660 44.248,45.550 44.367 C 45.439 44.486,45.252 44.673,45.133 44.784 C 45.014 44.894,44.827 45.081,44.716 45.200 C 44.606 45.319,44.419 45.507,44.300 45.617 C 44.181 45.727,43.993 45.915,43.883 46.034 C 43.773 46.153,43.585 46.342,43.466 46.454 C 43.347 46.566,43.175 46.733,43.083 46.826 C 42.992 46.919,39.317 50.594,34.917 54.993 C 30.517 59.392,26.842 63.067,26.750 63.161 C 26.658 63.254,21.240 68.653,14.708 75.157 C 8.177 81.661,2.833 87.062,2.833 87.158 C 2.833 87.279,7.741 87.333,18.745 87.333 L 34.657 87.333 63.428 58.583 C 79.253 42.771,92.262 29.833,92.339 29.833 C 92.415 29.833,92.524 29.687,92.581 29.509 C 92.637 29.330,92.826 29.139,93.000 29.083 C 93.174 29.028,93.361 28.841,93.417 28.667 C 93.472 28.493,93.659 28.305,93.833 28.250 C 94.007 28.195,94.195 28.007,94.250 27.833 C 94.305 27.659,94.493 27.472,94.667 27.417 C 94.841 27.361,95.028 27.174,95.083 27.000 C 95.139 26.826,95.326 26.639,95.500 26.583 C 95.674 26.528,95.863 26.337,95.919 26.158 C 96.286 25.002,96.333 27.276,96.333 46.167 L 96.333 66.500 96.743 66.500 C 96.969 66.500,97.250 66.384,97.368 66.242 C 97.487 66.100,97.681 65.894,97.800 65.784 C 97.919 65.673,98.106 65.486,98.216 65.367 C 98.327 65.248,98.514 65.061,98.633 64.950 C 98.752 64.840,98.939 64.653,99.050 64.534 C 99.160 64.415,99.347 64.227,99.466 64.117 C 99.585 64.007,99.773 63.819,99.883 63.700 C 99.993 63.581,100.179 63.394,100.295 63.284 C 100.639 62.959,106.398 57.204,106.617 56.967 C 106.727 56.848,106.915 56.660,107.034 56.550 C 107.153 56.439,107.340 56.252,107.450 56.133 C 107.561 56.014,107.748 55.827,107.867 55.716 C 107.986 55.606,108.173 55.419,108.284 55.300 C 108.394 55.181,108.581 54.993,108.700 54.883 C 108.819 54.773,109.007 54.585,109.117 54.466 C 109.227 54.347,109.415 54.160,109.534 54.050 C 109.653 53.939,109.840 53.752,109.950 53.633 C 110.061 53.514,110.248 53.327,110.367 53.216 C 110.486 53.106,110.673 52.919,110.784 52.800 C 110.894 52.681,111.081 52.493,111.200 52.383 C 111.319 52.273,111.507 52.085,111.617 51.966 C 111.727 51.847,111.915 51.660,112.034 51.550 C 112.153 51.439,112.340 51.252,112.450 51.133 C 112.561 51.014,112.748 50.827,112.867 50.716 C 112.986 50.606,113.173 50.419,113.284 50.300 C 113.394 50.181,113.581 49.993,113.700 49.883 C 113.819 49.773,114.007 49.585,114.117 49.466 C 114.227 49.347,114.415 49.160,114.534 49.050 C 114.653 48.939,114.840 48.752,114.950 48.633 C 115.061 48.514,115.248 48.325,115.367 48.213 C 115.486 48.101,115.658 47.930,115.750 47.833 C 115.842 47.736,116.310 47.281,116.792 46.823 L 117.667 45.990 117.667 24.995 L 117.667 4.000 101.792 4.006 C 89.586 4.011,85.870 4.059,85.716 4.215 " stroke="none" fill="#747474" fill-rule="evenodd"></path><path id="path1" d="M161.505 11.644 C 157.291 15.848,153.804 19.248,153.755 19.200 C 153.707 19.151,153.667 19.187,153.667 19.280 C 153.667 19.518,153.069 20.180,152.957 20.068 C 152.906 20.017,152.816 20.127,152.757 20.312 C 152.698 20.498,152.503 20.696,152.325 20.753 C 152.146 20.809,152.000 20.914,152.000 20.986 C 152.000 21.195,151.392 21.836,151.290 21.734 C 151.239 21.683,151.149 21.793,151.090 21.979 C 151.031 22.164,150.841 22.361,150.667 22.417 C 150.493 22.472,150.305 22.659,150.250 22.833 C 150.195 23.007,150.007 23.195,149.833 23.250 C 149.659 23.305,149.472 23.493,149.417 23.667 C 149.361 23.841,149.174 24.028,149.000 24.083 C 148.826 24.139,148.639 24.326,148.583 24.500 C 148.528 24.674,148.341 24.861,148.167 24.917 C 147.993 24.972,147.805 25.159,147.750 25.333 C 147.695 25.507,147.503 25.696,147.325 25.753 C 147.146 25.809,147.000 25.917,147.000 25.992 C 147.000 26.066,146.690 26.427,146.312 26.792 C 145.933 27.158,145.555 27.523,145.472 27.603 C 145.389 27.684,144.993 28.101,144.592 28.529 C 144.191 28.957,143.826 29.270,143.780 29.225 C 143.735 29.179,143.649 29.293,143.590 29.479 C 143.531 29.664,143.336 29.863,143.156 29.920 C 142.976 29.977,142.863 30.080,142.905 30.148 C 142.948 30.217,142.826 30.380,142.635 30.511 C 142.445 30.643,142.205 30.847,142.103 30.966 C 141.896 31.207,141.761 31.340,140.926 32.125 C 140.609 32.423,140.395 32.667,140.450 32.667 C 140.506 32.667,140.378 32.817,140.167 33.000 C 139.955 33.183,139.714 33.333,139.631 33.333 C 139.548 33.333,139.527 33.408,139.583 33.500 C 139.640 33.592,139.618 33.667,139.535 33.667 C 139.452 33.667,139.211 33.817,139.000 34.000 C 138.789 34.183,138.668 34.333,138.731 34.333 C 138.795 34.333,138.750 34.438,138.632 34.566 C 138.513 34.694,138.379 34.777,138.333 34.750 C 138.287 34.723,138.153 34.806,138.035 34.934 C 137.917 35.062,137.864 35.167,137.917 35.167 C 137.970 35.167,137.916 35.272,137.798 35.400 C 137.680 35.528,137.558 35.609,137.527 35.579 C 137.475 35.530,136.618 36.383,135.624 37.474 C 135.402 37.717,134.908 38.201,134.527 38.548 C 134.145 38.896,133.833 39.247,133.833 39.329 C 133.833 39.411,133.687 39.524,133.509 39.581 C 133.330 39.637,133.139 39.826,133.083 40.000 C 133.028 40.174,132.841 40.361,132.667 40.417 C 132.493 40.472,132.305 40.659,132.250 40.833 C 132.195 41.007,132.007 41.195,131.833 41.250 C 131.659 41.305,131.472 41.493,131.417 41.667 C 131.361 41.841,131.174 42.028,131.000 42.083 C 130.826 42.139,130.639 42.326,130.583 42.500 C 130.528 42.674,130.341 42.861,130.167 42.917 C 129.993 42.972,129.805 43.159,129.750 43.333 C 129.695 43.507,129.507 43.695,129.333 43.750 C 129.159 43.805,128.972 43.993,128.917 44.167 C 128.861 44.341,128.674 44.528,128.500 44.583 C 128.326 44.639,128.139 44.826,128.083 45.000 C 128.028 45.174,127.841 45.361,127.667 45.417 C 127.493 45.472,127.305 45.659,127.250 45.833 C 127.195 46.007,126.998 46.198,126.812 46.257 C 126.627 46.316,126.517 46.406,126.568 46.457 C 126.675 46.564,126.022 47.167,125.798 47.167 C 125.715 47.167,125.685 47.228,125.731 47.303 C 125.778 47.378,125.659 47.547,125.469 47.678 C 125.278 47.809,125.038 48.014,124.936 48.133 C 124.834 48.252,124.654 48.439,124.536 48.550 C 123.363 49.651,123.000 50.041,123.000 50.201 C 123.000 50.304,122.951 50.340,122.892 50.281 C 122.779 50.168,122.167 50.788,122.167 51.014 C 122.167 51.086,122.021 51.191,121.842 51.247 C 121.663 51.304,121.469 51.502,121.410 51.688 C 121.351 51.873,121.267 51.989,121.223 51.946 C 121.156 51.878,113.961 59.004,112.646 60.440 C 112.406 60.702,111.863 61.235,111.440 61.625 C 111.016 62.015,110.717 62.333,110.774 62.333 C 110.831 62.333,110.664 62.502,110.402 62.708 C 109.694 63.265,107.500 65.502,107.500 65.668 C 107.500 65.746,107.354 65.857,107.175 65.914 C 106.997 65.971,106.805 66.159,106.750 66.333 C 106.695 66.507,106.507 66.695,106.333 66.750 C 106.159 66.805,105.970 66.998,105.913 67.178 C 105.856 67.358,105.758 67.480,105.696 67.450 C 105.544 67.377,96.020 76.965,96.133 77.078 C 96.182 77.127,96.145 77.167,96.050 77.167 C 95.767 77.167,86.059 86.927,86.130 87.140 C 86.180 87.289,90.026 87.332,102.056 87.319 C 119.165 87.300,118.275 87.342,118.542 86.542 C 118.565 86.473,118.621 86.425,118.667 86.435 C 118.764 86.455,119.314 85.892,119.375 85.708 C 119.398 85.640,119.454 85.591,119.500 85.601 C 119.598 85.622,120.167 85.038,120.167 84.917 C 120.167 84.871,120.211 84.852,120.265 84.875 C 120.319 84.898,120.472 84.710,120.604 84.458 C 120.736 84.206,120.917 84.000,121.005 84.000 C 121.234 84.000,121.825 83.381,121.708 83.264 C 121.655 83.210,121.699 83.167,121.806 83.167 C 121.912 83.167,122.150 83.017,122.333 82.833 C 122.517 82.650,122.618 82.500,122.558 82.500 C 122.498 82.500,122.622 82.350,122.833 82.167 C 123.045 81.983,123.294 81.833,123.387 81.833 C 123.480 81.833,123.510 81.788,123.455 81.733 C 123.325 81.603,124.876 80.022,125.042 80.116 C 125.110 80.155,125.167 80.112,125.167 80.020 C 125.167 79.824,132.002 73.000,132.198 73.000 C 132.273 73.000,132.333 72.887,132.333 72.750 C 132.333 72.612,132.396 72.500,132.473 72.500 C 132.588 72.500,133.333 71.799,134.284 70.795 C 134.394 70.679,134.581 70.500,134.700 70.397 C 134.819 70.295,135.024 70.055,135.155 69.865 C 135.287 69.674,135.455 69.556,135.530 69.602 C 135.605 69.648,135.667 69.615,135.667 69.529 C 135.667 69.327,145.666 59.333,145.868 59.333 C 145.952 59.333,145.973 59.258,145.917 59.167 C 145.860 59.075,145.894 59.000,145.993 59.000 C 146.244 59.000,150.173 55.062,150.047 54.936 C 149.991 54.880,150.020 54.833,150.113 54.833 C 150.369 54.833,151.010 54.232,150.886 54.108 C 150.826 54.049,150.854 54.000,150.947 54.000 C 151.202 54.000,151.843 53.398,151.719 53.275 C 151.660 53.215,151.688 53.167,151.781 53.167 C 152.006 53.167,155.644 49.533,155.532 49.421 C 155.484 49.373,155.520 49.333,155.613 49.333 C 155.869 49.333,156.510 48.732,156.386 48.608 C 156.326 48.549,156.354 48.500,156.447 48.500 C 156.702 48.500,157.343 47.898,157.219 47.775 C 157.160 47.715,157.187 47.667,157.280 47.667 C 157.535 47.667,158.176 47.065,158.053 46.941 C 157.993 46.882,158.029 46.833,158.131 46.833 C 158.364 46.833,159.167 46.045,159.167 45.816 C 159.167 45.723,159.223 45.677,159.292 45.714 C 159.456 45.801,160.668 44.557,160.542 44.431 C 160.488 44.377,160.527 44.333,160.627 44.333 C 160.864 44.333,189.167 16.028,189.167 15.791 C 189.167 15.692,189.216 15.660,189.276 15.720 C 189.335 15.780,189.549 15.606,189.750 15.333 C 189.951 15.061,190.165 14.887,190.224 14.947 C 190.284 15.007,190.333 14.943,190.333 14.806 C 190.333 14.669,190.521 14.456,190.750 14.333 C 190.979 14.211,191.167 14.027,191.167 13.924 C 191.167 13.822,191.397 13.603,191.678 13.436 C 191.960 13.270,192.152 13.096,192.105 13.049 C 191.993 12.938,192.385 12.516,192.523 12.599 C 192.581 12.634,192.722 12.551,192.835 12.415 C 192.948 12.278,192.975 12.166,192.895 12.166 C 192.815 12.166,193.002 12.012,193.310 11.824 C 193.619 11.636,193.825 11.436,193.769 11.381 C 193.714 11.325,193.896 11.140,194.176 10.970 C 194.455 10.800,194.645 10.599,194.597 10.523 C 194.550 10.446,194.696 10.285,194.922 10.164 C 195.148 10.043,195.333 9.857,195.333 9.750 C 195.333 9.643,195.521 9.456,195.750 9.333 C 195.979 9.211,196.167 9.023,196.167 8.917 C 196.167 8.810,196.354 8.623,196.583 8.500 C 196.813 8.377,197.000 8.190,197.000 8.083 C 197.000 7.977,197.188 7.789,197.417 7.667 C 197.646 7.544,197.833 7.342,197.833 7.218 C 197.833 7.093,198.021 6.920,198.250 6.833 C 198.479 6.746,198.667 6.573,198.667 6.448 C 198.667 6.322,198.854 6.135,199.083 6.030 C 199.313 5.926,199.500 5.731,199.500 5.598 C 199.500 5.465,199.646 5.309,199.825 5.253 C 200.003 5.196,200.194 5.010,200.248 4.840 C 200.302 4.670,200.472 4.482,200.627 4.423 C 201.559 4.065,199.289 4.005,184.791 4.003 L 169.165 4.000 161.505 11.644 M234.798 13.159 C 230.974 16.989,227.812 20.090,227.771 20.049 C 227.731 20.008,227.649 20.127,227.590 20.312 C 227.531 20.498,227.341 20.695,227.167 20.750 C 226.993 20.805,226.805 20.993,226.750 21.167 C 226.695 21.341,226.507 21.528,226.333 21.583 C 226.159 21.639,225.972 21.826,225.917 22.000 C 225.861 22.174,225.674 22.361,225.500 22.417 C 225.326 22.472,225.139 22.659,225.083 22.833 C 225.028 23.007,224.841 23.195,224.667 23.250 C 224.493 23.305,224.305 23.493,224.250 23.667 C 224.195 23.841,223.998 24.031,223.812 24.090 C 223.627 24.149,223.517 24.239,223.568 24.290 C 223.670 24.392,223.028 25.000,222.819 25.000 C 222.748 25.000,222.643 25.146,222.586 25.325 C 222.529 25.503,222.341 25.695,222.167 25.750 C 221.993 25.805,221.805 25.993,221.750 26.167 C 221.695 26.341,221.498 26.531,221.312 26.590 C 221.127 26.649,221.017 26.739,221.068 26.790 C 221.180 26.903,220.518 27.500,220.280 27.500 C 220.187 27.500,220.160 27.549,220.219 27.608 C 220.332 27.721,219.712 28.333,219.486 28.333 C 219.414 28.333,219.309 28.479,219.253 28.658 C 219.196 28.837,218.998 29.031,218.812 29.090 C 218.627 29.149,218.509 29.231,218.551 29.273 C 218.617 29.339,215.487 32.526,214.191 33.713 C 213.948 33.935,213.643 34.274,213.511 34.466 C 213.380 34.658,213.211 34.778,213.136 34.731 C 213.061 34.685,213.000 34.715,213.000 34.798 C 213.000 35.022,212.398 35.675,212.290 35.568 C 212.239 35.517,212.149 35.627,212.090 35.812 C 212.031 35.998,211.837 36.196,211.658 36.253 C 211.479 36.309,211.333 36.414,211.333 36.486 C 211.333 36.712,210.721 37.332,210.608 37.219 C 210.549 37.160,210.500 37.195,210.500 37.298 C 210.500 37.506,206.694 41.333,206.487 41.333 C 206.415 41.333,206.309 41.479,206.253 41.658 C 206.196 41.837,206.007 42.028,205.833 42.083 C 205.659 42.139,205.472 42.326,205.417 42.500 C 205.361 42.674,205.174 42.861,205.000 42.917 C 204.826 42.972,204.639 43.159,204.583 43.333 C 204.528 43.507,204.341 43.695,204.167 43.750 C 203.993 43.805,203.805 43.993,203.750 44.167 C 203.695 44.341,203.507 44.528,203.333 44.583 C 203.159 44.639,202.972 44.826,202.917 45.000 C 202.861 45.174,202.674 45.361,202.500 45.417 C 202.326 45.472,202.139 45.659,202.083 45.833 C 202.028 46.007,201.841 46.195,201.667 46.250 C 201.493 46.305,201.304 46.497,201.247 46.675 C 200.885 47.816,200.833 45.833,200.833 30.854 C 200.833 17.347,200.796 14.676,200.604 14.517 C 200.420 14.364,198.319 16.378,189.937 24.746 L 179.500 35.166 179.500 61.249 L 179.500 87.333 190.167 87.333 L 200.833 87.333 200.833 68.010 L 200.833 48.686 219.077 66.905 C 229.111 76.925,237.361 85.083,237.410 85.034 C 237.460 84.985,237.500 85.023,237.500 85.119 C 237.500 85.215,238.448 86.240,239.606 87.397 L 241.712 89.500 257.513 89.500 C 267.947 89.500,273.349 89.443,273.417 89.332 C 273.520 89.167,273.103 88.619,272.973 88.749 C 272.937 88.785,272.759 88.594,272.579 88.323 C 272.398 88.053,272.123 87.790,271.967 87.741 C 271.811 87.691,271.641 87.515,271.589 87.350 C 271.536 87.185,271.308 86.966,271.080 86.862 C 270.853 86.759,270.667 86.572,270.667 86.447 C 270.667 86.322,270.479 86.135,270.250 86.030 C 270.021 85.926,269.833 85.726,269.833 85.587 C 269.833 85.447,269.757 85.333,269.665 85.333 C 269.421 85.333,267.497 83.392,267.619 83.269 C 267.676 83.213,267.641 83.167,267.541 83.167 C 267.441 83.167,267.022 82.829,266.610 82.417 C 266.197 82.004,265.906 81.667,265.962 81.667 C 266.019 81.667,265.811 81.479,265.500 81.250 C 265.189 81.021,264.983 80.833,265.040 80.833 C 265.098 80.833,264.944 80.625,264.698 80.370 C 264.451 80.115,264.220 79.926,264.183 79.951 C 264.146 79.975,263.940 79.757,263.724 79.465 C 263.509 79.174,263.333 78.999,263.333 79.076 C 263.333 79.154,263.183 79.045,263.000 78.833 C 262.817 78.622,262.667 78.373,262.667 78.280 C 262.667 78.187,262.618 78.160,262.558 78.220 C 262.498 78.280,262.273 78.090,262.058 77.799 C 261.843 77.507,261.667 77.331,261.667 77.407 C 261.667 77.483,261.506 77.340,261.309 77.090 C 260.820 76.468,259.811 75.500,259.652 75.500 C 259.581 75.500,259.478 75.361,259.425 75.192 C 259.371 75.023,259.141 74.799,258.913 74.696 C 258.686 74.592,258.500 74.381,258.500 74.226 C 258.500 74.071,258.456 73.988,258.403 74.042 C 258.274 74.170,257.667 73.646,257.667 73.406 C 257.667 73.304,257.479 73.135,257.250 73.030 C 257.021 72.926,256.833 72.738,256.833 72.614 C 256.833 72.489,256.646 72.301,256.417 72.197 C 256.188 72.093,256.000 71.938,256.000 71.854 C 256.000 71.770,255.429 71.150,254.730 70.476 C 253.012 68.818,232.830 48.654,232.442 48.209 C 232.136 47.856,232.171 47.819,242.928 37.067 C 248.864 31.134,253.622 26.341,253.502 26.416 C 253.356 26.506,253.322 26.487,253.401 26.359 C 253.466 26.253,253.596 26.167,253.688 26.167 C 253.911 26.167,254.333 25.738,254.333 25.512 C 254.333 25.414,254.414 25.333,254.512 25.333 C 254.743 25.333,255.167 24.909,255.167 24.679 C 255.167 24.580,255.238 24.500,255.325 24.500 C 255.545 24.500,260.667 19.397,260.667 19.178 C 260.667 19.080,260.728 19.019,260.802 19.042 C 260.968 19.093,262.000 18.086,262.000 17.873 C 262.000 17.789,262.188 17.635,262.417 17.530 C 262.646 17.426,262.833 17.226,262.833 17.087 C 262.833 16.947,262.896 16.833,262.973 16.833 C 263.169 16.833,265.500 14.520,265.500 14.325 C 265.500 14.238,265.572 14.167,265.661 14.167 C 265.817 14.167,267.092 12.922,269.375 10.540 C 269.994 9.894,270.500 9.392,270.500 9.423 C 270.500 9.455,271.189 8.804,272.032 7.978 C 273.228 6.804,273.511 6.442,273.323 6.324 C 273.183 6.235,266.571 6.176,257.417 6.183 L 241.750 6.194 234.798 13.159 M282.833 6.390 C 282.833 6.509,283.021 6.770,283.250 6.969 C 283.479 7.168,283.667 7.402,283.667 7.488 C 283.667 7.574,283.813 7.691,283.991 7.747 C 284.170 7.804,284.361 7.993,284.417 8.167 C 284.472 8.341,284.659 8.528,284.833 8.583 C 285.007 8.639,285.195 8.826,285.250 9.000 C 285.305 9.174,285.493 9.361,285.667 9.417 C 285.841 9.472,286.028 9.659,286.083 9.833 C 286.139 10.007,286.326 10.195,286.500 10.250 C 286.674 10.305,286.861 10.493,286.917 10.667 C 286.972 10.841,287.159 11.028,287.333 11.083 C 287.507 11.139,287.698 11.336,287.757 11.521 C 287.816 11.707,287.906 11.817,287.957 11.766 C 288.069 11.653,288.667 12.316,288.667 12.553 C 288.667 12.646,288.707 12.682,288.756 12.633 C 288.804 12.585,301.701 25.388,317.414 41.086 C 333.127 56.784,346.024 69.587,346.075 69.536 C 346.125 69.486,346.167 69.528,346.167 69.631 C 346.167 69.774,362.272 85.988,364.194 87.780 C 364.408 87.979,364.872 88.448,365.225 88.821 L 365.867 89.500 381.767 89.500 C 391.618 89.500,397.667 89.440,397.667 89.343 C 397.667 89.256,397.533 89.088,397.370 88.968 C 397.207 88.848,396.907 88.534,396.704 88.269 C 396.500 88.005,396.333 87.847,396.333 87.920 C 396.333 87.992,396.183 87.878,396.000 87.667 C 395.817 87.455,395.667 87.206,395.667 87.113 C 395.667 87.020,395.618 86.993,395.559 87.053 C 395.435 87.176,394.833 86.535,394.833 86.280 C 394.833 86.187,394.785 86.160,394.725 86.219 C 394.607 86.338,394.000 85.707,394.000 85.465 C 394.000 85.382,393.939 85.352,393.864 85.398 C 393.789 85.444,393.620 85.326,393.489 85.135 C 393.357 84.945,393.152 84.705,393.032 84.603 C 392.309 83.986,391.333 82.967,391.333 82.829 C 391.333 82.740,391.223 82.667,391.089 82.667 C 390.955 82.667,390.772 82.530,390.683 82.363 C 390.556 82.126,388.529 80.055,386.624 78.216 C 386.510 78.106,386.325 77.919,386.213 77.800 C 385.954 77.524,385.642 77.213,385.367 76.954 C 385.248 76.842,385.061 76.653,384.950 76.534 C 384.639 76.197,384.449 76.020,384.016 75.664 C 383.796 75.482,383.676 75.333,383.750 75.333 C 383.824 75.333,383.711 75.183,383.500 75.000 C 383.289 74.817,383.048 74.667,382.965 74.667 C 382.882 74.667,382.844 74.610,382.880 74.542 C 382.968 74.378,381.724 73.165,381.597 73.292 C 381.544 73.345,381.500 73.307,381.500 73.206 C 381.500 72.961,379.552 71.004,379.429 71.126 C 379.377 71.179,379.333 71.135,379.333 71.028 C 379.333 70.775,378.724 70.165,378.597 70.292 C 378.544 70.345,378.500 70.264,378.500 70.111 C 378.500 69.958,378.426 69.833,378.336 69.833 C 378.094 69.833,376.997 68.726,377.118 68.604 C 377.175 68.547,377.146 68.500,377.053 68.500 C 376.798 68.500,376.157 67.898,376.281 67.775 C 376.340 67.715,376.313 67.667,376.220 67.667 C 376.127 67.667,375.878 67.517,375.667 67.333 C 375.455 67.150,375.346 67.000,375.424 67.000 C 375.501 67.000,375.311 66.812,375.000 66.583 C 374.689 66.354,374.502 66.167,374.583 66.167 C 374.665 66.167,374.493 65.991,374.201 65.776 C 373.910 65.560,373.720 65.335,373.780 65.276 C 373.840 65.216,373.799 65.167,373.689 65.167 C 373.519 65.167,371.516 63.208,368.961 60.542 C 368.588 60.152,368.219 59.833,368.141 59.833 C 368.064 59.833,368.000 59.734,368.000 59.611 C 368.000 59.489,367.813 59.289,367.583 59.167 C 367.354 59.044,367.167 58.831,367.167 58.694 C 367.167 58.557,367.123 58.488,367.069 58.542 C 366.959 58.652,366.333 58.073,366.333 57.860 C 366.333 57.783,366.146 57.635,365.917 57.530 C 365.688 57.426,365.500 57.226,365.500 57.087 C 365.500 56.947,365.434 56.833,365.353 56.833 C 365.272 56.833,358.215 49.858,349.670 41.333 C 341.126 32.808,334.067 25.833,333.984 25.833 C 333.901 25.833,333.833 25.777,333.833 25.708 C 333.833 25.510,327.620 19.245,327.469 19.292 C 327.394 19.315,327.333 19.261,327.333 19.173 C 327.333 19.085,327.033 18.716,326.667 18.353 C 326.300 17.990,326.000 17.739,326.000 17.795 C 326.000 17.852,325.813 17.644,325.583 17.333 C 325.354 17.023,325.167 16.831,325.167 16.907 C 325.167 16.983,324.999 16.829,324.795 16.564 C 324.591 16.300,322.183 13.851,319.446 11.123 L 314.468 6.163 298.650 6.168 C 285.786 6.172,282.833 6.214,282.833 6.390 M355.668 16.485 C 345.265 26.871,344.978 27.191,345.591 27.702 C 345.892 27.952,346.013 28.075,346.943 29.068 C 347.325 29.475,347.681 29.764,347.735 29.709 C 347.789 29.655,347.833 29.692,347.833 29.792 C 347.833 30.004,350.828 33.000,351.041 33.000 C 351.121 33.000,351.140 33.075,351.083 33.167 C 351.027 33.258,351.050 33.333,351.134 33.333 C 351.219 33.333,351.767 33.830,352.353 34.437 C 352.938 35.044,353.589 35.719,353.799 35.937 C 354.010 36.155,354.266 36.333,354.369 36.333 C 354.471 36.333,354.516 36.373,354.467 36.422 C 354.354 36.535,360.545 42.796,360.694 42.720 C 360.755 42.690,360.849 42.759,360.902 42.874 C 360.981 43.042,361.019 43.042,361.098 42.874 C 361.151 42.759,361.264 42.707,361.348 42.759 C 361.431 42.811,361.500 42.724,361.500 42.565 C 361.500 42.407,361.544 42.322,361.597 42.375 C 361.737 42.514,362.333 41.969,362.333 41.703 C 362.333 41.581,362.390 41.514,362.458 41.556 C 362.621 41.655,363.011 41.233,362.879 41.101 C 362.823 41.045,362.860 41.000,362.960 41.000 C 363.199 41.000,364.667 39.592,364.667 39.363 C 364.667 39.266,364.753 39.133,364.859 39.067 C 364.988 38.988,365.007 39.026,364.918 39.183 C 364.844 39.311,364.945 39.251,365.142 39.049 C 365.339 38.846,365.500 38.607,365.500 38.517 C 365.500 38.427,365.587 38.299,365.692 38.234 C 365.821 38.154,365.841 38.192,365.751 38.349 C 365.678 38.478,365.797 38.397,366.017 38.170 C 366.237 37.942,366.398 37.699,366.375 37.628 C 366.352 37.558,366.395 37.519,366.471 37.542 C 366.635 37.591,370.167 34.029,370.167 33.814 C 370.167 33.733,370.223 33.681,370.292 33.698 C 370.360 33.715,372.517 31.614,375.083 29.031 C 377.650 26.447,379.846 24.239,379.964 24.125 C 385.688 18.558,397.499 6.572,397.432 6.397 C 397.358 6.203,394.863 6.167,381.674 6.167 L 366.003 6.167 355.668 16.485 M318.132 54.000 C 317.477 54.642,316.885 55.167,316.815 55.167 C 316.746 55.167,316.643 55.313,316.586 55.491 C 316.529 55.670,316.341 55.861,316.167 55.917 C 315.993 55.972,315.805 56.159,315.750 56.333 C 315.695 56.507,315.502 56.696,315.322 56.753 C 315.142 56.811,315.030 56.913,315.072 56.982 C 315.114 57.050,314.993 57.213,314.802 57.345 C 314.611 57.476,314.372 57.681,314.269 57.800 C 314.167 57.919,313.986 58.106,313.867 58.216 C 313.748 58.327,313.561 58.514,313.450 58.633 C 313.340 58.752,313.153 58.939,313.034 59.050 C 312.915 59.160,312.727 59.347,312.617 59.466 C 312.507 59.585,312.319 59.773,312.200 59.883 C 312.081 59.993,311.894 60.181,311.784 60.300 C 311.673 60.419,311.486 60.606,311.367 60.716 C 311.248 60.827,311.061 61.014,310.950 61.133 C 310.840 61.252,310.653 61.439,310.534 61.550 C 310.415 61.660,310.227 61.847,310.117 61.966 C 310.007 62.085,309.819 62.273,309.700 62.383 C 309.581 62.493,309.394 62.681,309.284 62.800 C 309.173 62.919,308.990 63.106,308.875 63.216 C 307.019 65.002,306.500 65.545,306.500 65.702 C 306.500 65.805,306.451 65.840,306.392 65.781 C 306.268 65.657,305.667 66.298,305.667 66.553 C 305.667 66.646,305.626 66.682,305.576 66.632 C 305.455 66.511,301.705 70.216,301.788 70.375 C 301.824 70.444,301.783 70.500,301.698 70.500 C 301.528 70.500,299.334 72.646,299.333 72.813 C 299.333 72.870,299.107 73.067,298.832 73.250 C 298.557 73.433,298.290 73.711,298.241 73.866 C 298.191 74.022,298.002 74.196,297.822 74.253 C 297.642 74.311,297.538 74.427,297.591 74.512 C 297.643 74.597,297.610 74.667,297.516 74.667 C 297.355 74.667,296.521 75.474,294.224 77.854 C 293.659 78.438,292.703 79.396,292.099 79.981 C 291.494 80.566,291.000 81.114,291.000 81.199 C 291.000 81.284,290.925 81.307,290.833 81.250 C 290.742 81.193,290.667 81.217,290.667 81.302 C 290.667 81.387,290.362 81.748,289.989 82.103 C 289.616 82.459,288.097 83.978,286.614 85.478 C 285.130 86.978,283.672 88.446,283.372 88.739 C 283.073 89.033,282.879 89.324,282.942 89.386 C 283.004 89.449,290.157 89.500,298.836 89.500 L 314.617 89.500 316.069 88.055 C 316.867 87.260,317.666 86.425,317.844 86.199 C 318.021 85.973,318.167 85.825,318.167 85.871 C 318.167 85.916,318.898 85.205,319.792 84.291 C 322.715 81.301,327.333 76.719,327.333 76.809 C 327.333 76.858,327.509 76.660,327.724 76.368 C 327.940 76.076,328.158 75.880,328.209 75.931 C 328.261 75.983,328.351 75.873,328.410 75.688 C 328.469 75.502,328.659 75.305,328.833 75.250 C 329.007 75.195,329.196 75.003,329.253 74.825 C 329.309 74.646,329.420 74.500,329.498 74.500 C 329.577 74.500,330.928 73.213,332.502 71.641 C 335.537 68.608,335.741 68.258,334.677 67.920 C 334.488 67.860,334.333 67.702,334.333 67.569 C 334.333 67.435,334.146 67.241,333.917 67.136 C 333.688 67.032,333.500 66.890,333.500 66.820 C 333.500 66.616,330.362 63.527,330.260 63.629 C 330.209 63.680,330.167 63.636,330.167 63.530 C 330.167 63.286,319.879 53.010,319.757 53.132 C 319.707 53.182,319.667 53.135,319.667 53.028 C 319.667 52.627,319.288 52.867,318.132 54.000 " stroke="none" fill="#1ca4f4" fill-rule="evenodd"></path><path id="path2" d="" stroke="none" fill="#788c90" fill-rule="evenodd"></path><path id="path3" d="" stroke="none" fill="#4c8cd4" fill-rule="evenodd"></path><path id="path4" d="" stroke="none" fill="#1c8cf8" fill-rule="evenodd"></path></g></svg>