<svg xmlns="http://www.w3.org/2000/svg" viewBox="0 0 1140 567">

<path fill="#20a4f4" d="M10.25 142.662c-.991.4-1.25 27.824-1.25 132.421V407h65V298.441c0-61.962.376-108.326.877-108.017.482.298 1.903 3.137 3.158 6.309 1.254 3.172 3.922 8.242 5.927 11.267 2.005 3.025 5.369 8.65 7.475 12.5 2.106 3.85 4.835 8.125 6.063 9.5 1.228 1.375 4.176 5.875 6.551 10s9.072 14.629 14.883 23.341c5.811 8.713 12.517 19.288 14.9 23.5 2.384 4.213 5.576 9.234 7.094 11.159 1.517 1.925 4.659 6.875 6.982 11 4.119 7.313 10.405 17.321 20.633 32.845 2.774 4.21 6.56 10.355 8.414 13.655 1.855 3.3 5.269 8.56 7.588 11.69 2.318 3.129 5.914 8.754 7.991 12.5 2.076 3.745 5.28 8.499 7.119 10.563 1.84 2.064 3.345 4.223 3.345 4.798 0 .575 1.569 3.498 3.488 6.497l3.487 5.452 24.263-.035 24.262-.036 4.809-7.714c2.645-4.243 6.37-9.965 8.277-12.715 1.908-2.75 5.082-7.92 7.054-11.49 1.972-3.569 4.632-7.733 5.911-9.253 1.279-1.52 4.611-6.819 7.406-11.776 2.794-4.957 6.535-10.976 8.312-13.376 4.127-5.574 9.397-13.885 18.41-29.036 10.13-17.029 14.919-24.688 21.994-35.176 3.395-5.032 7.641-11.792 9.436-15.022 1.794-3.229 5.133-8.571 7.419-11.871 2.286-3.3 5.651-8.7 7.477-12 1.826-3.3 5.191-8.25 7.477-11 2.287-2.75 5.591-8.094 7.343-11.875 1.753-3.78 4.534-8.409 6.181-10.284 1.647-1.876 2.994-4.015 2.994-4.753 0-.739.602-1.843 1.338-2.454 1.762-1.461 2.658 46.282 2.661 141.616L393 408h22.843c12.564 0 28.268.292 34.898.648l12.055.648.352-65.065c.193-35.785.716-65.429 1.162-65.874.445-.446 2.245.795 4 2.758 1.754 1.962 4.428 4.079 5.94 4.705 1.512.625 2.75 1.571 2.75 2.101s4.162 4.322 9.25 8.427c5.087 4.104 10.572 8.855 12.187 10.557 1.615 1.702 3.322 3.095 3.793 3.095.471 0 5.891 4.572 12.044 10.16 6.153 5.588 13.558 11.677 16.456 13.531 2.899 1.854 5.27 3.767 5.27 4.251 0 .485 3.263 3.351 7.25 6.37 3.987 3.02 8.801 7.109 10.696 9.089 1.896 1.979 3.998 3.599 4.671 3.599.674 0 4.523 2.944 8.554 6.542 4.031 3.599 9.804 8.743 12.829 11.433 3.025 2.689 8.2 6.886 11.5 9.326 3.3 2.44 10.121 8.28 15.159 12.978 8.301 7.741 9.705 8.656 15 9.767 6.156 1.291 67.819.83 140.245-1.049l34.405-.893 3.638-3.552c2-1.954 4.153-3.552 4.784-3.552.631 0 3.227-1.8 5.769-4 2.542-2.2 5.49-4 6.552-4 1.062 0 2.497-.924 3.19-2.054 1.638-2.674 13.377-12.368 22.258-18.382 3.85-2.607 9.025-6.648 11.5-8.981 2.475-2.332 7.49-6.568 11.144-9.413 3.653-2.845 6.877-5.783 7.163-6.529.287-.745 2.223-2.239 4.304-3.319 5.333-2.767 9.806-8.523 9.029-11.618-.557-2.22-17.406-16.171-25.281-20.933-1.573-.95-5.238-3.763-8.146-6.25-8.587-7.342-12.162-6.311-29.213 8.428-5.775 4.992-13.875 11.388-17.999 14.213-7.451 5.102-20.285 15.015-39.281 30.338-13.653 11.013-44.523 34.338-47.652 36.005-1.413.753-4.961 3.654-7.886 6.448l-5.318 5.08-3.044-1.767c-1.674-.971-5.05-3.52-7.503-5.664-2.452-2.143-5.749-4.843-7.326-6-1.577-1.156-10.335-7.952-19.464-15.102-9.129-7.15-18.491-14.249-20.804-15.776-2.314-1.527-6.236-4.703-8.715-7.058-5.601-5.322-11.186-9.708-21.641-16.997-4.472-3.119-12.166-9.235-17.097-13.592-4.931-4.356-10.312-8.743-11.958-9.749-1.646-1.005-5.427-3.752-8.403-6.103a701.003 701.003 0 0 0-11.029-8.5c-3.092-2.324-8.717-6.862-12.5-10.085-3.784-3.223-8.915-7.136-11.401-8.695-2.487-1.559-5.494-4.151-6.683-5.759l-2.162-2.924 3.183-2.998c1.751-1.649 7.399-6.007 12.552-9.684 10.706-7.639 21.797-16.352 27.641-21.713 2.205-2.024 6.403-5.29 9.329-7.259 2.926-1.968 8.996-6.746 13.49-10.617 4.494-3.871 10.494-8.49 13.333-10.265 2.838-1.774 8.913-6.412 13.5-10.306 4.586-3.894 13.738-11.049 20.338-15.899 21.715-15.959 26.854-19.956 32.962-25.634 3.321-3.088 6.971-5.906 8.112-6.262 1.141-.356 3.362-1.993 4.937-3.637l2.863-2.988h-82.516l-25.612 21.25c-14.087 11.688-29.017 24.206-33.179 27.819-4.162 3.614-12.088 9.973-17.613 14.132-5.525 4.16-15.687 12.454-22.581 18.431-22.411 19.431-37.116 31.801-41.791 35.154-2.52 1.807-5.339 4.276-6.264 5.485-4.042 5.286-4.587-2.862-4.718-70.521L463 142h-97.574l-3.738 6.5c-2.057 3.575-4.156 6.5-4.666 6.5-.51 0-2.969 3.938-5.464 8.75-2.496 4.813-6.318 11.09-8.494 13.95-2.176 2.859-5.86 8.709-8.187 13-2.326 4.29-9.234 15.45-15.35 24.8-6.117 9.35-12.409 19.25-13.983 22-1.574 2.75-3.937 6.297-5.25 7.882-1.313 1.586-4.224 6.229-6.468 10.318-2.245 4.09-6.049 9.741-8.454 12.558-2.404 2.817-4.372 5.661-4.372 6.319 0 .659-3.423 6.311-7.608 12.56-4.184 6.25-9.655 14.963-12.158 19.363-2.502 4.4-5.798 9.575-7.322 11.5-1.525 1.925-5.988 9.463-9.918 16.75-3.93 7.288-7.726 13.25-8.436 13.25-.709 0-2.246-2.622-3.415-5.827-1.168-3.205-4.491-9.486-7.384-13.959-2.892-4.472-6.522-10.288-8.066-12.923-4.611-7.869-12.249-20.301-17.378-28.284-2.648-4.121-6.639-10.646-8.868-14.5-2.229-3.854-5.742-9.212-7.806-11.908-2.065-2.695-4.686-6.745-5.825-9-1.139-2.254-4.433-7.699-7.319-12.099-6.003-9.15-12.553-19.748-18.726-30.3-2.349-4.015-6.533-10.765-9.297-15-2.764-4.235-6.532-10.4-8.372-13.7-1.84-3.3-5.233-8.7-7.538-12-2.306-3.3-5.684-8.684-7.508-11.965-1.823-3.28-4.927-7.893-6.898-10.25L107.576 142l-48.038.079c-26.421.043-48.6.306-49.288.583m703.894 9.125c6.796 5.383 14.494 11.255 17.106 13.048 2.612 1.794 4.75 3.598 4.75 4.009 0 .411 4.163 3.967 9.25 7.901 5.087 3.935 12.625 9.915 16.75 13.288 8.625 7.055 31.822 24.882 38.781 29.805 5.889 4.166 11.854 8.959 20.219 16.248 3.575 3.116 9.567 7.746 13.315 10.29 3.748 2.545 11.173 8.359 16.5 12.921 5.327 4.562 11.035 9.138 12.685 10.168 1.65 1.031 4.8 3.381 7 5.224 2.2 1.843 11.663 9.079 21.028 16.081 9.366 7.001 20.55 15.655 24.853 19.23 4.304 3.575 11.491 9.115 15.972 12.311 4.481 3.196 9.497 7.043 11.147 8.548 1.65 1.506 4.583 3.7 6.517 4.877 1.934 1.177 4.634 3.345 6 4.82 2.428 2.621 12.936 10.962 21.347 16.944 6.842 4.866 34.878 26.502 38.136 29.43 1.65 1.483 4.125 3.184 5.5 3.781s5.65 3.617 9.5 6.713c3.85 3.095 8.676 6.08 10.724 6.633 4.291 1.159 87.178.877 88.354-.301 1.027-1.028-2.071-4.289-8.578-9.028-3.025-2.203-7.116-5.54-9.092-7.416-1.976-1.875-4.973-4.175-6.661-5.111-1.688-.935-6.146-4.329-9.908-7.541-3.761-3.212-12.239-9.862-18.839-14.778-6.6-4.915-15.15-11.596-19-14.845-11.567-9.761-23.293-18.878-26.235-20.4-1.523-.788-3.668-2.424-4.765-3.637-1.097-1.213-3.258-2.858-4.802-3.656-1.544-.799-5.968-4.353-9.831-7.898-3.864-3.545-7.449-6.446-7.968-6.446-.519 0-2.846-1.713-5.171-3.807-2.326-2.094-7.378-6.003-11.228-8.687-7.256-5.058-21.5-16.339-21.5-17.027 0-.726 13.401-11.158 25-19.463 6.325-4.528 12.85-9.5 14.5-11.048 1.65-1.548 6.238-5.212 10.196-8.141 10.659-7.89 16.747-12.729 23.246-18.477 3.203-2.832 7.113-5.964 8.69-6.959 1.578-.995 9.722-7.123 18.1-13.619 20.799-16.127 50.926-38.834 61.504-46.356 6.217-4.422 8.284-6.386 7.168-6.814-.862-.331-22.152-.602-47.311-.602h-45.744l-2.425 2.621c-1.333 1.441-4.4 3.477-6.816 4.525-4.771 2.069-7.259 3.934-18.628 13.965-4.122 3.636-12.553 10.287-18.737 14.781-6.184 4.494-15.75 11.644-21.26 15.889-12.415 9.568-38.72 29.275-46.674 34.969-9.103 6.516-12.763 5.401-31.583-9.618-7.742-6.178-17.743-13.126-18.921-13.144-.443-.007-2.817-1.92-5.277-4.25-2.46-2.331-6.78-6.038-9.6-8.238-14.085-10.987-41.59-33.141-46.638-37.565-3.141-2.752-7.191-5.626-9-6.388-1.81-.761-4.612-2.77-6.227-4.465L796.626 142h-94.839l12.357 9.787" fill-rule="evenodd"/>

</svg>