<svg xmlns="http://www.w3.org/2000/svg" viewBox="0 0 531 528" width="32" height="32">
  <path fill="#1da1f2" d="M74.342 4.479C40.545 10.612 14.126 34.544 4.771 67.5l-2.271 8-.266 184.99c-.29 202.046-.531 192.681 5.364 208.385 9.533 25.395 32.36 45.741 59.902 53.392l8 2.222 183 .313c132.074.226 185.644-.003 192.5-.822 37.041-4.427 66.876-29.884 76.257-65.068l2.243-8.412v-373l-2.243-8.412c-9.229-34.615-38.402-60.046-74.579-65.014-12.31-1.69-368.893-1.308-378.336.405m22.456 26.586C64.959 34.505 39.74 57.368 32.342 89.5c-2.385 10.358-2.908 348.187-.559 361 3.828 20.876 22.507 39.353 47.717 47.199l9 2.801h175c193.488 0 179.731.438 194.942-6.207 19.126-8.354 36.79-26.717 40.683-42.293 2.431-9.726 1.999-352.838-.457-363.312-6.25-26.65-27.392-48.073-55.168-55.901l-8-2.254-165.5-.15c-91.025-.083-168.966.224-173.202.682m266.233 12.583c-35.079 10.671-59.736 32.985-69.452 62.852-5.793 17.809-5.777 17.63-7.013 78.5-.475 23.383-1.443 29.919-5.657 38.179C274.82 235.113 263.228 241 245.816 241H240v45l8.75.042c18.437.087 29.778 8.402 35.405 25.958 1.9 5.926 2.155 10.03 2.89 46.5.84 41.661 1.086 44.116 6.013 60 7.535 24.29 26.412 45.27 51.371 57.093 9.001 4.264 21.81 8.811 28.054 9.958l3.017.555 5.889-17.303c3.238-9.517 6.081-17.819 6.317-18.45.248-.662-1.821-1.878-4.888-2.873-16.02-5.2-26.62-14.212-33.807-28.74-7.082-14.316-8.077-21.586-8.659-63.24-.74-52.965-4.407-66.668-22.777-85.12l-7.089-7.12 6.52-6.38c9.194-8.997 15.263-19.758 20.234-35.88 1.788-5.797 2.091-10.72 2.809-45.5.819-39.739 1.376-46.145 5.06-58.178C351.194 97.444 362.767 85.246 381 79.49c3.025-.955 5.824-2.027 6.22-2.383.708-.636-10.675-34.966-12.028-36.277-.381-.369-5.853.899-12.161 2.818M144 238.5V405h55V72h-55v166.5" fill-rule="evenodd"/>
</svg>
