<svg xmlns="http://www.w3.org/2000/svg" width="805.107" height="438.659" viewBox="0 0 805.107 438.659" xmlns:xlink="http://www.w3.org/1999/xlink" role="img" artist="Katerina Limpitsouni" source="https://undraw.co/">
  <g id="Group_230" data-name="Group 230" transform="translate(-497 -210.244)">
    <rect id="Rectangle_817" data-name="Rectangle 817" width="10.345" height="73.451" transform="translate(1019.552 375.768)" fill="#25292e"/>
    <rect id="Rectangle_818" data-name="Rectangle 818" width="10.345" height="413.159" transform="translate(643.202 229.041) rotate(-67.908)" fill="#25292e"/>
    <rect id="Rectangle_819" data-name="Rectangle 819" width="90.004" height="35.174" transform="translate(1131.28 523.705)" fill="#25292e"/>
    <rect id="Rectangle_820" data-name="Rectangle 820" width="443.811" height="39.312" transform="translate(769.197 554.74)" fill="#25292e"/>
    <path id="Path_3677-2259" data-name="Path 3677" d="M765.756,403.428H659.2V269.458h79.659l26.9,67.568Z" transform="translate(374.318 170.968)" fill="#d0cde1"/>
    <rect id="Rectangle_821" data-name="Rectangle 821" width="45.519" height="45.519" transform="translate(1050.07 448.702)" fill="#fff"/>
    <path id="Path_3678-2260" data-name="Path 3678" d="M766.884,325.271H737.918V279.752h12.415Z" transform="translate(362.844 169.468)" fill="#fff"/>
    <rect id="Rectangle_822" data-name="Rectangle 822" width="10.345" height="19.656" transform="translate(1052.139 520.084)" fill="#25292e"/>
    <path id="Path_3679-2261" data-name="Path 3679" d="M748.212,313.661h.517a9.828,9.828,0,0,1,9.828,9.828h0a9.828,9.828,0,0,1-9.828,9.828h-.517Z" transform="translate(361.343 164.525)" fill="#25292e"/>
    <path id="Path_3680-2262" data-name="Path 3680" d="M297.7,403.278h.517a9.828,9.828,0,0,1,9.828,9.828h0a9.828,9.828,0,0,1-9.828,9.828H297.7Z" transform="translate(427.009 151.463)" fill="#25292e"/>
    <path id="Path_3681-2263" data-name="Path 3681" d="M922.391,585.95c15.765,0,29.945,7.637,39.784,19.8h20.218L962.738,551l-91.555-18.057,2.586,72.81h8.838C892.446,593.587,906.627,585.95,922.391,585.95Z" transform="translate(259.063 -31.357)" fill="#d0cde1"/>
    <circle id="Ellipse_595" data-name="Ellipse 595" cx="45.002" cy="45.002" r="45.002" transform="translate(1137.487 542.326)" fill="#25292e"/>
    <circle id="Ellipse_596" data-name="Ellipse 596" cx="23.685" cy="23.685" r="23.685" transform="translate(1158.804 563.643)" fill="#f2f2f2"/>
    <circle id="Ellipse_597" data-name="Ellipse 597" cx="39.312" cy="39.312" r="39.312" transform="translate(736.609 553.189)" fill="#25292e"/>
    <circle id="Ellipse_598" data-name="Ellipse 598" cx="20.69" cy="20.69" r="20.69" transform="translate(755.23 571.811)" fill="#f2f2f2"/>
    <rect id="Rectangle_823" data-name="Rectangle 823" width="21.725" height="156.73" transform="translate(1014.896 421.805)" fill="#25292e"/>
    <rect id="Rectangle_824" data-name="Rectangle 824" width="312.426" height="9.311" transform="translate(724.195 550.086)" fill="#25292e"/>
    <rect id="Rectangle_825" data-name="Rectangle 825" width="353.107" height="9.311" transform="translate(557 584.257) rotate(-15.22)" fill="#25292e"/>
    <rect id="Rectangle_826" data-name="Rectangle 826" width="7.242" height="60.528" transform="translate(868.627 507.142) rotate(-36.311)" fill="#25292e"/>
    <rect id="Rectangle_827" data-name="Rectangle 827" width="10.345" height="4.138" transform="translate(1105.417 496.808)" fill="#25292e"/>
    <path id="Path_3682-2264" data-name="Path 3682" d="M724.355,556.62H588.832a1.034,1.034,0,0,1-.294-2.026l132.419-39.312a1.034,1.034,0,0,1,1.325.91l3.1,39.312a1.035,1.035,0,0,1-1.032,1.116Zm-128.4-2.069H723.236l-2.915-36.922Z" transform="translate(300.37 -28.777)" fill="#25292e"/>
    <path id="Path_3683-2265" data-name="Path 3683" d="M312.8,487.02h-.01l-29.7-.28a1.035,1.035,0,0,1-1.018-1.152l15.431-134.641a1.035,1.035,0,0,1,1.028-.917h0a1.035,1.035,0,0,1,1.024.926l14.268,134.921a1.035,1.035,0,0,1-1.029,1.143Zm-28.54-2.338,27.389.258L298.5,360.511Z" transform="translate(344.932 -4.696)" fill="#25292e"/>
    <path id="Path_3684-2266" data-name="Path 3684" d="M0,0H.517a9.828,9.828,0,0,1,9.828,9.828h0A9.828,9.828,0,0,1,.517,19.656H0Z" transform="matrix(-0.935, 0.354, -0.354, -0.935, 1228.561, 538.826)" fill="#25292e"/>
    <rect id="Rectangle_828" data-name="Rectangle 828" width="29.967" height="4.757" transform="translate(570.431 552.938) rotate(-15.637)" fill="#25292e"/>
    <path id="Path_3685-2267" data-name="Path 3685" d="M451.582,501.906l-5.57,3.041L219.73,568.284l-3.36-4.173a49.692,49.692,0,0,1-10.747-24.9c-.854-6.821-.229-14.01,4.529-18.386l-8.642-69.7,125.146-35.2,59.357,25.541s22.736-6.794,39.468,5.194c5.3,3.8,9.993,9.478,13.169,17.86l2.736,7.9Z" transform="translate(356.675 -14.303)" fill="#1da1f2"/>
    <circle id="Ellipse_599" data-name="Ellipse 599" cx="29.016" cy="29.016" r="29.016" transform="translate(729.221 471.354)" fill="#25292e"/>
    <circle id="Ellipse_600" data-name="Ellipse 600" cx="15.271" cy="15.271" r="15.271" transform="translate(742.965 485.099)" fill="#f2f2f2"/>
    <circle id="Ellipse_601" data-name="Ellipse 601" cx="29.016" cy="29.016" r="29.016" transform="translate(591.345 509.946)" fill="#25292e"/>
    <circle id="Ellipse_602" data-name="Ellipse 602" cx="15.271" cy="15.271" r="15.271" transform="translate(605.089 523.69)" fill="#f2f2f2"/>
    <path id="Path_3686-2268" data-name="Path 3686" d="M278.114,251.826l-89.781,25.13-7.564-27.026L238.027,233.9Z" transform="translate(444.054 176.15)" fill="#fff"/>
    <rect id="Rectangle_829" data-name="Rectangle 829" width="37.102" height="28.064" transform="translate(578.1 439.159) rotate(-15.637)" fill="#fff"/>
    <rect id="Rectangle_830" data-name="Rectangle 830" width="4.757" height="9.038" transform="translate(638.028 473.262) rotate(-15.637)" fill="#25292e"/>
    <rect id="Rectangle_831" data-name="Rectangle 831" width="4.757" height="9.038" transform="translate(714.726 438.455) rotate(74.363)" fill="#25292e"/>
    <path id="Path_3687-2269" data-name="Path 3687" d="M0,0H.523a9.941,9.941,0,0,1,9.941,9.941h0A9.941,9.941,0,0,1,.523,19.883H0Z" transform="translate(704.435 422.865) rotate(-15.637)" fill="#25292e"/>
    <path id="Path_3688-2270" data-name="Path 3688" d="M478.72,477.676a15.366,15.366,0,0,1-15.9-25.763c5.3,3.8,9.993,9.478,13.169,17.86Z" transform="translate(319.341 -19.547)" fill="#25292e"/>
    <rect id="Rectangle_832" data-name="Rectangle 832" width="10.345" height="151.041" transform="translate(637.812 219.555)" fill="#25292e"/>
    <circle id="Ellipse_603" data-name="Ellipse 603" cx="14.483" cy="14.483" r="14.483" transform="translate(628.501 210.244)" fill="#25292e"/>
    <circle id="Ellipse_604" data-name="Ellipse 604" cx="14.483" cy="14.483" r="14.483" transform="translate(1010.241 363.354)" fill="#25292e"/>
    <path id="Path_3689-2271" data-name="Path 3689" d="M866.427,511.523c-15.838,5.276-33.439,10.228-52.586,14.8-220.654,1.034-486.557.905-701.543-.294-18.519-4.459-35.583-9.267-50.978-14.385,44.651-.3,92.075-.533,141.261-.717q29.2-.116,59.2-.2,29.755-.077,60.092-.14h.015C505.477,510.232,701.852,510.559,866.427,511.523Z" transform="translate(435.68 121.882)" fill="#f2f2f2"/>
  </g>
</svg>