<svg viewBox="0 0 512.00006 292" xmlns="http://www.w3.org/2000/svg" xmlns:xlink="http://www.w3.org/1999/xlink"><filter id="a" color-interpolation-filters="sRGB" height="1.225307" width="1.114599" x="-.057299" y="-.112654"><feGaussianBlur stdDeviation="8.9351949"/></filter><g clip-rule="evenodd" fill-rule="evenodd" stroke-width=".808093" transform="matrix(1.2257281 0 0 1.2493489 -57.784648 -154.42944)"><path d="m81.17 145.29c-5.2331.0408-9.8259 3.3438-11.564 8.2637-.56825 1.5996-.73438 3.2187-.73438 4.8965v164.92c.19351 6.8719 5.5697 12.231 12.379 12.248 14.273.0189 43.666-.0508 43.666-.0508l-.0527-12.764h-42.871c-.22753-1.371-.17072-162.77.05078-163.51 1.3133-.18331 346.9-.11711 347.66.0606.209 1.2448.14852 162.66-.0801 163.51h-289.02v12.766s1.1283-.001 1.6445.0176h288.62c5.1761-.0514 9.763-3.2979 11.527-8.1777.5682-1.5544.73047-3.1562.73047-4.7949v-165.23c-.1088-5.4584-3.823-10.252-9.0781-11.703h-.0176c-1.3916-.37228-2.779-.43945-4.2168-.43945zm160.93 48.426c-.10811.2075-.1858.35815-.22852.5-11.713 31.409-23.414 62.832-35.123 94.236-.0514.0514-.0508.14852-.0508.20899v.0996c0 .0408.0514.0602.0605.10742h16.078l.0293.006c.12396-.35829.26691-.66657.375-1 2.4896-7.073 4.9821-14.134 7.4785-21.213.41529-1.1378.82782-2.2814 1.2031-3.4238.14854-.4769.39164-.72641.89453-.66601.1629.0189.35207 0 .51757 0h35.145c3.1769 8.8018 6.3315 17.54 9.4746 26.279h16.451c-11.868-31.798-23.685-63.47-35.48-95.135zm-61.836.32031c-.91684 0-1.4947.26694-2.0996.97851-12.25 14.507-24.53 29.016-36.809 43.506-.16289.18556-.37472.35157-.72852.67774v-36.088c0-2.987.0514-5.9842 0-8.9727h-15.406v94.629c1.223.21468 14.605.1695 15.43-.0527v-1.2031l-.043-.006v-33.008c0-.74445.21031-1.2683.81836-1.7402 2.5493-2.0159 5.0644-4.0885 7.5801-6.1465.25096-.18633.49365-.35168.80664-.58008.27137.35074.50023.63776.71094.95313 4.2762 6.1693 8.5566 12.333 12.83 18.492 5.2437 7.5874 10.496 15.14 15.729 22.691.29065.43835.55681.76953 1.2012.76953 5.5098-.0189 11.014-.0176 16.518-.0176.18218 0 .36992-.0612.66016-.12695-12.185-17.746-24.32-35.37-36.492-53.1 2.4488-2.8427 4.8172-5.5772 7.1836-8.3809 2.3725-2.7449 4.7368-5.4997 7.1055-8.2637 2.3651-2.757 4.7127-5.5175 7.084-8.2774 2.3664-2.7662 4.7366-5.5268 7.0762-8.2852 2.3558-2.7376 4.6943-5.4764 7.1914-8.4297h-1.3887c-4.9863 0-9.97.0296-14.957-.0195zm124.84.0996c-.25701 1.1832-.19489 93.964.0508 94.742h55.42v-13.184h-26.734c-2.2474 0-4.5106.0189-6.748 0-2.2054-.0189-4.4021.0815-6.6895-.0508v-74.188l-.0137-.0137c0-2.4505.0907-4.8794-.0703-7.3066zm66.014.0293v94.686h15.348c.051-.15912.0899-.24422.0899-.35156v-93.781l-.008.002c0-.14702.00021-.26933-.0508-.42187 0-.0408-.0527-.051-.0527-.0801 0-.0189-.0605-.0527-.0605-.0527zm-120.77 13.252c.16291.24869.28976.40065.33399.56445 2.5735 9.6091 6.0907 18.932 9.2852 28.357 1.327 3.922 2.7018 7.8218 4.0527 11.746.1028.35112.20536.70253.33007 1.1367h-27.605c.12319-.40895.22823-.76152.34765-1.1133 3.24-9.3819 6.5265-18.722 9.6836-28.129 1.2668-3.7807 2.2224-7.6812 3.3008-11.537.0911-.29216.14864-.58553.27148-1.0254z" filter="url(#a)" opacity=".3" stroke-width="1.21513"/><path d="m434.03 145.73c-1.3916-.37228-2.7798-.44066-4.2176-.44066h-348.65c-5.2331.0408-9.8268 3.3448-11.565 8.2647-.56825 1.5996-.73349 3.2186-.73349 4.8964v164.92c.19351 6.8719 5.5699 12.231 12.379 12.248 14.273.0189 43.665-.0514 43.665-.0514l-.0518-12.763h-42.871c-.22752-1.371-.1697-162.77.0518-163.51 1.3133-.18331 346.9-.11716 347.66.0605.209 1.2448.1486 162.66-.08 163.51h-289.02v12.764s1.128 0 1.6443.0189h288.62c5.1761-.0514 9.7622-3.2983 11.526-8.1781.5682-1.5544.73151-3.1568.73151-4.7955v-165.23c-.1088-5.4584-3.8237-10.253-9.0788-11.704zm-293.42 141.77v-33.007c0-.74445.209-1.2672.81705-1.7392 2.5493-2.0159 5.0642-4.0891 7.5798-6.147.25096-.18633.49496-.35187.80795-.58027.27137.35074.49961.6378.71032.95316 4.2762 6.1693 8.5557 12.332 12.829 18.491 5.2437 7.5874 10.496 15.14 15.729 22.692.29065.43835.55733.77072 1.2017.77072 5.5098-.0189 11.014-.0189 16.517-.0189.18218 0 .36964-.0605.65987-.12623-12.185-17.746-24.32-35.369-36.492-53.099 2.4488-2.8427 4.8178-5.5786 7.1841-8.3822 2.3725-2.7449 4.7365-5.4992 7.1051-8.2632 2.3651-2.757 4.7131-5.5185 7.0844-8.2783 2.3664-2.7662 4.7365-5.526 7.076-8.2844 2.3558-2.7376 4.6946-5.4765 7.1917-8.4298h-1.3883c-4.9863 0-9.97.0302-14.957-.0189-.91684 0-1.495.26569-2.1.97726-12.25 14.507-24.53 29.016-36.808 43.506-.16289.18556-.37455.35187-.72835.67804v-36.088c0-2.987.0514-5.983 0-8.9715h-15.406v94.628c1.223.21468 14.605.17084 15.43-.0514v-1.204zm82.258 1.3696c.12396-.35829.2657-.66602.37378-.99945 2.4896-7.073 4.9818-14.134 7.4782-21.213.41529-1.1378.82821-2.2819 1.2035-3.4244.14854-.4769.39175-.72642.89464-.66602.1629.0189.35226 0 .51776 0h35.144c3.1769 8.8018 6.3318 17.54 9.4749 26.279h16.452c-11.868-31.798-23.686-63.47-35.481-95.134h-16.823c-.10811.2075-.18747.35868-.23019.50053-11.713 31.409-23.413 62.831-35.122 94.235-.0514.0514-.0514.14854-.0514.20901v.10054c0 .0408.0514.0605.0605.10771h16.078zm14.223-40.766c3.24-9.3819 6.5261-18.722 9.6832-28.129 1.2668-3.7807 2.2217-7.6804 3.3002-11.536.0911-.29216.14854-.58538.27138-1.0252.1629.24869.29027.40037.33449.56417 2.5735 9.6091 6.0914 18.932 9.2859 28.358 1.327 3.922 2.7014 7.8202 4.0524 11.744.1028.35112.20447.70232.32919 1.1365h-27.605c.12321-.40895.22753-.76067.34696-1.1124zm83.301-46.666c0-2.4505.0903-4.8786-.0707-7.3058h-15.215c-.25701 1.1832-.19427 93.963.0514 94.741h55.419v-13.182h-26.733c-2.2474 0-4.5124.0189-6.7499 0-2.2054-.0189-4.4016.0809-6.689-.0514v-74.188zm66.157-6.7226c0-.14702 0-.2691-.051-.42164 0-.0408-.051-.0514-.051-.0805 0-.0189-.061-.0514-.061-.0514h-15.267v94.685h15.348c.051-.15912.09-.24378.09-.35112v-93.781z" fill="#2777ff" stroke-width=".808093"/></g></svg>