<svg id="svg" version="1.1" xmlns="http://www.w3.org/2000/svg" xmlns:xlink="http://www.w3.org/1999/xlink" width="400" height="70.62706270627062" viewBox="0, 0, 400,70.62706270627062"><g id="svgg"><path id="path0" d="M284.250 31.430 C 283.189 31.577,282.000 31.893,282.000 32.027 C 282.000 32.104,281.855 32.167,281.678 32.167 C 281.009 32.167,277.833 34.566,277.833 35.071 C 277.833 35.130,277.702 35.379,277.542 35.623 C 276.767 36.807,276.396 38.426,276.224 41.375 L 276.119 43.167 274.226 43.167 L 272.333 43.167 272.333 45.917 L 272.333 48.667 274.249 48.667 L 276.164 48.667 276.207 57.625 L 276.250 66.583 280.083 66.628 L 283.917 66.673 283.872 57.670 L 283.828 48.667 286.580 48.667 L 289.333 48.667 289.333 45.917 L 289.333 43.167 286.567 43.167 L 283.800 43.167 283.895 41.625 C 283.947 40.777,283.996 39.937,284.003 39.758 C 284.010 39.579,284.094 39.338,284.189 39.223 C 284.284 39.109,284.314 38.936,284.255 38.841 C 284.195 38.745,284.214 38.667,284.295 38.667 C 284.377 38.667,284.549 38.471,284.677 38.231 C 284.873 37.864,285.435 37.484,285.861 37.431 C 285.922 37.423,286.028 37.360,286.097 37.292 C 286.308 37.081,288.145 37.153,288.725 37.395 C 289.026 37.521,289.455 37.615,289.678 37.604 L 290.083 37.583 290.083 34.673 L 290.083 31.764 289.500 31.631 C 288.817 31.475,284.978 31.328,284.250 31.430 M217.750 49.250 L 217.750 66.667 221.542 66.667 L 225.333 66.667 225.333 49.250 L 225.333 31.833 221.542 31.833 L 217.750 31.833 217.750 49.250 M77.542 32.114 C 77.152 32.154,76.833 32.238,76.833 32.302 C 76.833 32.366,76.615 32.515,76.347 32.634 C 75.687 32.926,75.007 33.860,74.753 34.821 C 74.540 35.631,74.601 37.333,74.843 37.333 C 74.917 37.333,75.022 37.475,75.077 37.648 C 75.219 38.093,75.806 38.686,76.583 39.169 C 77.456 39.711,80.735 39.801,81.021 39.290 C 81.110 39.130,81.331 39.000,81.513 39.000 C 82.162 39.000,83.163 37.093,83.165 35.852 C 83.169 33.143,81.083 31.757,77.542 32.114 M109.333 32.104 C 108.216 32.237,107.994 32.345,107.235 33.125 C 105.998 34.398,105.591 36.588,106.421 37.505 C 106.556 37.654,106.667 37.834,106.667 37.905 C 106.667 37.975,106.893 38.245,107.170 38.503 C 109.279 40.473,113.222 39.932,114.273 37.530 C 115.703 34.256,113.314 31.632,109.333 32.104 M165.343 32.114 C 162.049 32.446,161.027 37.768,164.019 39.008 C 164.284 39.118,164.500 39.261,164.500 39.326 C 164.500 39.793,167.785 39.695,168.733 39.199 C 169.610 38.741,170.167 38.278,170.167 38.008 C 170.167 37.921,170.277 37.788,170.412 37.713 C 171.018 37.374,171.024 34.342,170.419 33.898 C 170.280 33.797,170.167 33.660,170.167 33.595 C 170.167 33.438,169.641 32.917,169.484 32.917 C 169.416 32.917,169.180 32.767,168.960 32.583 C 168.740 32.400,168.481 32.234,168.383 32.215 C 167.863 32.112,165.985 32.050,165.343 32.114 M190.125 33.782 L 189.667 33.855 189.667 50.264 L 189.667 66.673 193.542 66.628 L 197.417 66.583 197.461 61.042 L 197.504 55.500 198.711 55.496 C 204.210 55.476,207.877 54.610,209.727 52.894 C 209.969 52.670,210.167 52.527,210.167 52.576 C 210.167 52.668,211.394 51.431,211.832 50.898 C 212.613 49.946,213.430 48.155,213.762 46.667 C 214.017 45.529,213.967 41.612,213.695 41.284 C 213.589 41.157,213.547 41.008,213.601 40.954 C 213.656 40.900,213.638 40.757,213.563 40.636 C 213.488 40.515,213.412 40.324,213.395 40.211 C 213.338 39.839,212.921 39.000,212.793 39.000 C 212.723 39.000,212.676 38.944,212.686 38.875 C 212.740 38.537,212.617 38.304,212.042 37.647 C 211.148 36.628,210.287 35.843,210.153 35.925 C 210.090 35.964,209.944 35.884,209.830 35.746 C 209.656 35.536,208.495 34.919,207.917 34.729 C 205.153 33.823,203.835 33.700,196.917 33.704 C 193.433 33.706,190.377 33.741,190.125 33.782 M96.653 36.164 C 96.508 36.249,96.164 36.358,95.890 36.407 C 95.615 36.455,95.077 36.605,94.695 36.740 C 94.313 36.875,94.000 36.942,94.000 36.889 C 94.000 36.836,93.906 36.870,93.792 36.965 C 93.584 37.136,92.363 37.431,92.125 37.367 C 92.056 37.349,92.000 37.400,92.000 37.481 C 92.000 37.563,91.906 37.623,91.792 37.616 C 91.677 37.608,91.227 37.707,90.792 37.836 L 90.000 38.069 90.000 40.612 L 90.000 43.156 88.125 43.203 L 86.250 43.250 86.204 45.958 L 86.158 48.667 88.079 48.667 L 90.000 48.667 90.000 54.485 C 90.000 62.778,90.456 64.543,93.025 66.201 C 94.473 67.136,98.528 67.636,100.667 67.145 C 101.079 67.050,101.529 66.948,101.667 66.918 C 101.804 66.888,102.123 66.783,102.375 66.686 L 102.833 66.508 102.833 63.675 L 102.833 60.842 102.412 61.002 C 100.399 61.767,98.707 61.447,97.988 60.164 C 97.639 59.541,97.635 59.473,97.571 53.875 L 97.512 48.667 100.173 48.667 L 102.833 48.667 102.833 45.917 L 102.833 43.167 100.157 43.167 L 97.482 43.167 97.532 39.583 C 97.588 35.700,97.569 35.628,96.653 36.164 M264.486 36.164 C 264.341 36.249,263.966 36.363,263.653 36.417 C 263.083 36.514,262.209 36.765,261.583 37.010 C 261.191 37.164,260.321 37.394,260.083 37.407 C 259.992 37.412,259.879 37.459,259.833 37.511 C 259.787 37.563,259.337 37.713,258.833 37.845 L 257.917 38.086 257.871 40.621 L 257.825 43.156 255.954 43.203 L 254.083 43.250 254.083 45.917 L 254.083 48.583 255.958 48.630 L 257.833 48.678 257.848 54.297 C 257.856 57.388,257.889 60.142,257.923 60.417 C 258.106 61.915,258.226 62.517,258.355 62.597 C 258.435 62.646,258.500 62.822,258.500 62.989 C 258.500 63.446,259.293 64.769,259.845 65.234 C 260.113 65.460,260.333 65.725,260.333 65.823 C 260.333 65.920,260.445 66.000,260.581 66.000 C 260.718 66.000,260.983 66.131,261.170 66.292 C 261.358 66.452,261.565 66.590,261.630 66.598 C 261.770 66.615,262.246 66.788,262.833 67.037 C 263.968 67.518,268.841 67.292,270.053 66.702 L 270.680 66.397 270.690 63.793 C 270.702 60.671,270.746 60.772,269.546 61.194 C 268.663 61.504,268.431 61.515,267.046 61.308 C 265.815 61.125,265.520 59.689,265.505 53.822 L 265.492 48.667 268.071 48.667 L 270.651 48.667 270.701 45.916 L 270.750 43.166 268.125 43.166 L 265.500 43.167 265.500 39.583 L 265.500 36.000 265.125 36.005 C 264.919 36.008,264.631 36.080,264.486 36.164 M202.167 39.968 C 203.526 40.336,205.060 41.218,205.090 41.649 C 205.094 41.705,205.269 42.125,205.479 42.583 C 206.540 44.899,205.175 48.646,203.100 49.112 C 202.999 49.135,202.617 49.233,202.250 49.331 C 201.883 49.429,200.665 49.540,199.542 49.579 L 197.500 49.649 197.500 44.658 L 197.500 39.667 199.292 39.671 C 200.467 39.674,201.456 39.776,202.167 39.968 M133.750 42.672 C 131.533 42.867,130.160 43.533,128.386 45.275 L 127.512 46.132 127.465 44.691 L 127.417 43.250 123.625 43.205 L 119.833 43.160 119.833 54.910 L 119.833 66.660 120.208 66.752 C 120.415 66.803,122.121 66.823,124.000 66.797 L 127.417 66.750 127.500 59.083 L 127.583 51.417 127.983 50.583 C 129.376 47.683,133.042 47.581,134.329 50.407 C 134.676 51.168,134.687 51.394,134.673 57.139 C 134.665 60.408,134.709 63.928,134.770 64.961 L 134.883 66.840 138.566 66.795 L 142.250 66.750 142.350 59.333 C 142.457 51.345,142.435 51.544,143.403 50.000 C 144.327 48.525,146.800 47.816,147.816 48.734 C 148.009 48.909,148.167 49.000,148.167 48.937 C 148.167 48.622,149.201 50.055,149.418 50.671 C 149.786 51.713,149.817 52.416,149.825 59.946 L 149.833 66.809 153.306 66.827 C 155.215 66.836,156.904 66.796,157.059 66.736 C 157.389 66.610,157.468 50.850,157.146 49.250 C 157.054 48.792,156.941 48.229,156.896 48.000 C 156.851 47.771,156.743 47.512,156.657 47.425 C 156.571 47.338,156.500 47.134,156.500 46.972 C 156.500 45.522,153.820 43.113,151.792 42.738 C 149.863 42.382,145.500 42.818,145.500 43.367 C 145.500 43.440,145.405 43.500,145.290 43.500 C 144.920 43.500,142.833 44.998,142.833 45.263 C 142.833 45.404,142.777 45.485,142.708 45.444 C 142.640 45.402,142.398 45.662,142.171 46.022 L 141.760 46.677 141.476 46.302 C 141.320 46.095,141.220 45.882,141.253 45.828 C 141.287 45.774,141.056 45.439,140.740 45.084 C 140.425 44.730,140.167 44.378,140.167 44.303 C 140.167 44.228,140.054 44.167,139.917 44.167 C 139.779 44.167,139.667 44.100,139.667 44.020 C 139.667 43.880,138.048 43.017,137.618 42.926 C 137.507 42.903,137.304 42.841,137.167 42.789 C 136.736 42.625,134.966 42.564,133.750 42.672 M238.667 42.688 C 237.796 42.757,236.933 42.849,236.750 42.894 C 233.852 43.597,232.969 43.840,232.641 44.021 C 232.426 44.141,232.213 44.247,232.167 44.258 C 231.507 44.419,231.500 44.451,231.500 47.273 C 231.500 50.465,231.508 50.478,232.889 49.594 C 233.400 49.267,233.971 49.000,234.159 49.000 C 234.346 49.000,234.500 48.925,234.500 48.833 C 234.500 48.742,234.646 48.667,234.823 48.667 C 235.001 48.667,235.194 48.590,235.252 48.497 C 235.309 48.404,235.424 48.370,235.507 48.421 C 235.589 48.472,235.868 48.405,236.125 48.271 C 236.520 48.067,238.579 47.781,239.750 47.768 C 240.421 47.760,241.836 48.036,241.933 48.193 C 241.988 48.281,242.196 48.416,242.397 48.493 C 242.598 48.569,242.901 48.920,243.072 49.274 C 243.243 49.627,243.446 50.047,243.525 50.206 C 243.806 50.779,243.695 51.331,243.292 51.358 C 242.725 51.395,242.484 51.423,241.667 51.548 C 241.254 51.611,240.504 51.703,240.000 51.752 C 237.192 52.026,234.685 52.584,233.558 53.186 C 233.086 53.438,232.669 53.614,232.631 53.576 C 232.329 53.273,230.237 55.822,229.752 57.083 C 229.312 58.229,229.289 58.379,229.289 60.083 C 229.289 61.657,229.329 61.956,229.640 62.716 C 229.745 62.972,229.875 63.358,229.929 63.574 C 229.983 63.790,230.153 64.106,230.306 64.275 C 230.459 64.445,230.792 64.836,231.048 65.145 C 232.952 67.449,238.937 68.117,240.995 66.254 C 241.150 66.114,241.364 66.000,241.471 66.000 C 241.579 66.000,241.667 65.930,241.667 65.845 C 241.667 65.759,241.798 65.645,241.958 65.592 C 242.119 65.538,242.471 65.196,242.740 64.831 C 243.411 63.922,243.479 63.976,243.535 65.458 L 243.583 66.750 246.833 66.797 C 248.621 66.823,250.257 66.802,250.469 66.750 L 250.855 66.655 250.789 58.452 C 250.727 50.562,250.693 49.863,250.333 48.915 C 250.244 48.680,250.185 48.435,250.202 48.369 C 250.219 48.304,250.068 47.917,249.867 47.510 C 249.665 47.104,249.500 46.677,249.500 46.562 C 249.500 46.448,249.012 45.854,248.417 45.244 C 247.821 44.633,247.333 44.190,247.333 44.259 C 247.333 44.328,247.202 44.269,247.042 44.126 C 246.779 43.893,246.071 43.547,244.805 43.033 C 244.420 42.877,243.606 42.789,240.833 42.602 C 240.512 42.581,239.537 42.619,238.667 42.688 M302.250 42.680 C 301.333 42.735,300.171 42.898,299.667 43.044 C 298.093 43.499,297.167 43.859,297.167 44.016 C 297.167 44.099,297.088 44.167,296.991 44.167 C 296.725 44.167,294.808 45.500,294.333 46.015 C 293.296 47.140,293.033 47.511,292.363 48.792 C 291.896 49.683,291.833 49.847,291.833 50.164 C 291.833 50.349,291.768 50.500,291.688 50.500 C 291.609 50.500,291.497 50.819,291.441 51.208 C 291.385 51.598,291.274 52.276,291.195 52.715 C 290.799 54.911,291.217 58.796,292.019 60.373 C 292.100 60.532,292.167 60.740,292.167 60.835 C 292.167 61.236,293.968 63.716,294.634 64.230 C 294.881 64.421,295.108 64.635,295.139 64.705 C 295.169 64.776,295.301 64.833,295.431 64.833 C 295.560 64.833,295.667 64.901,295.667 64.983 C 295.667 65.066,296.342 65.482,297.167 65.908 C 297.992 66.334,298.667 66.639,298.667 66.587 C 298.667 66.534,298.897 66.610,299.178 66.756 C 299.459 66.901,299.775 66.992,299.880 66.957 C 299.984 66.922,300.485 66.991,300.993 67.111 C 302.439 67.451,306.116 67.357,307.417 66.947 C 307.508 66.918,307.846 66.837,308.167 66.767 C 309.015 66.583,310.667 65.939,310.667 65.793 C 310.667 65.723,310.747 65.667,310.844 65.667 C 310.942 65.667,311.268 65.479,311.569 65.250 C 311.869 65.021,312.164 64.833,312.224 64.833 C 312.455 64.833,314.133 63.051,314.499 62.417 C 314.711 62.050,314.988 61.665,315.115 61.561 C 315.242 61.456,315.375 61.218,315.411 61.031 C 315.447 60.844,315.603 60.498,315.757 60.262 C 315.912 60.026,315.983 59.833,315.915 59.833 C 315.848 59.833,315.886 59.721,316.000 59.583 C 316.114 59.446,316.146 59.333,316.070 59.333 C 315.995 59.333,316.017 59.249,316.120 59.146 C 316.223 59.044,316.268 58.856,316.219 58.730 C 316.171 58.603,316.215 58.500,316.319 58.500 C 316.432 58.500,316.474 58.321,316.425 58.052 C 316.381 57.806,316.428 57.503,316.531 57.379 C 316.821 57.030,316.750 52.829,316.427 51.250 C 316.389 51.067,316.344 50.898,316.325 50.875 C 316.307 50.852,316.273 50.758,316.250 50.667 C 316.227 50.575,316.190 50.462,316.167 50.417 C 316.144 50.371,316.109 50.277,316.090 50.208 C 315.943 49.688,315.410 48.535,314.918 47.672 C 314.623 47.155,312.195 44.667,311.985 44.667 C 311.900 44.667,311.520 44.442,311.140 44.167 C 310.761 43.892,310.330 43.664,310.183 43.661 C 310.037 43.658,309.771 43.546,309.593 43.411 C 309.415 43.277,309.071 43.167,308.829 43.167 C 308.587 43.167,308.333 43.110,308.264 43.042 C 308.195 42.973,308.089 42.911,308.028 42.905 C 305.134 42.595,304.256 42.561,302.250 42.680 M353.500 42.675 C 352.223 42.800,350.000 43.637,350.000 43.993 C 350.000 44.089,349.876 44.167,349.725 44.167 C 349.440 44.167,347.794 45.736,347.623 46.171 C 347.570 46.306,347.520 45.685,347.513 44.792 L 347.500 43.167 343.666 43.167 L 339.831 43.167 339.874 54.958 L 339.917 66.750 343.611 66.750 C 345.643 66.750,347.344 66.712,347.390 66.665 C 347.437 66.619,347.502 63.206,347.536 59.082 C 347.608 50.210,347.712 49.768,350.000 48.590 C 351.419 47.860,354.156 49.016,354.378 50.438 C 354.404 50.610,354.486 50.845,354.558 50.961 C 354.631 51.078,354.683 54.657,354.673 58.915 L 354.657 66.658 355.037 66.751 C 355.246 66.802,356.989 66.823,358.910 66.797 L 362.403 66.750 362.459 59.433 C 362.492 55.234,362.583 51.989,362.675 51.819 C 362.762 51.655,362.833 51.329,362.833 51.094 C 362.833 50.859,362.908 50.667,363.000 50.667 C 363.092 50.667,363.167 50.551,363.167 50.410 C 363.167 50.136,364.291 48.957,364.824 48.671 C 365.613 48.250,368.000 48.388,368.000 48.855 C 368.000 48.935,368.075 49.000,368.167 49.000 C 368.619 49.000,369.426 50.323,369.590 51.333 C 369.627 51.563,369.692 51.900,369.733 52.083 C 369.774 52.267,369.814 55.660,369.821 59.625 L 369.833 66.833 373.292 66.831 C 375.194 66.830,376.900 66.788,377.083 66.739 C 377.417 66.649,377.569 52.710,377.267 49.944 C 377.097 48.395,377.014 47.967,376.840 47.759 C 376.746 47.645,376.706 47.516,376.751 47.471 C 377.060 47.162,374.721 43.833,374.195 43.833 C 374.110 43.833,373.944 43.717,373.825 43.574 C 373.371 43.026,369.821 42.297,368.965 42.575 C 368.847 42.614,368.251 42.682,367.642 42.727 C 367.033 42.772,366.395 42.879,366.225 42.963 C 366.056 43.048,365.617 43.260,365.250 43.433 C 364.883 43.607,364.492 43.836,364.379 43.942 C 364.267 44.047,363.911 44.297,363.588 44.497 C 363.264 44.697,363.000 44.916,363.000 44.984 C 363.000 45.051,362.731 45.421,362.401 45.806 L 361.802 46.506 361.485 46.102 C 361.310 45.879,361.167 45.634,361.167 45.556 C 361.167 45.149,359.123 43.412,358.443 43.242 C 358.197 43.180,357.959 43.068,357.912 42.993 C 357.837 42.871,357.149 42.767,355.333 42.604 C 355.012 42.575,354.188 42.607,353.500 42.675 M389.583 42.673 C 388.758 42.738,387.875 42.874,387.621 42.976 C 387.366 43.078,386.991 43.193,386.787 43.232 C 386.583 43.271,386.192 43.397,385.917 43.512 C 385.642 43.626,385.360 43.708,385.292 43.694 C 385.223 43.679,385.167 43.733,385.167 43.813 C 385.167 43.894,384.942 44.053,384.667 44.167 C 384.392 44.281,384.167 44.440,384.167 44.520 C 384.167 44.601,384.087 44.667,383.989 44.667 C 382.371 44.667,380.460 50.212,381.432 52.086 C 381.561 52.335,381.668 52.698,381.670 52.894 C 381.676 53.660,384.085 56.088,385.000 56.251 C 385.046 56.259,385.458 56.460,385.917 56.697 C 386.375 56.934,387.238 57.261,387.833 57.423 C 388.429 57.586,389.113 57.817,389.354 57.936 C 389.594 58.056,389.838 58.106,389.896 58.049 C 389.953 57.991,390.000 58.024,390.000 58.121 C 390.000 58.218,390.195 58.346,390.433 58.406 C 391.561 58.689,392.383 59.737,392.141 60.583 C 391.853 61.590,390.297 62.151,388.083 62.047 C 387.350 62.012,386.581 61.986,386.375 61.990 C 386.169 61.993,386.000 61.916,386.000 61.818 C 386.000 61.719,385.906 61.671,385.792 61.709 C 385.677 61.748,385.340 61.678,385.042 61.555 C 384.745 61.431,384.445 61.320,384.376 61.309 C 384.171 61.275,383.458 60.988,382.846 60.692 C 382.533 60.541,382.233 60.427,382.180 60.439 C 382.127 60.451,381.935 60.357,381.755 60.230 C 381.180 59.828,381.158 59.941,381.205 63.035 L 381.250 66.071 381.667 66.276 C 382.032 66.456,383.330 66.779,384.917 67.087 C 386.693 67.431,392.244 67.286,392.893 66.878 C 392.998 66.812,393.266 66.733,393.488 66.703 C 394.898 66.509,398.921 63.713,398.581 63.163 C 398.543 63.101,398.656 62.896,398.832 62.706 C 399.009 62.517,399.193 62.187,399.242 61.973 C 400.175 57.862,399.028 55.091,395.750 53.533 C 394.232 52.812,392.690 52.193,391.750 51.929 C 391.200 51.774,390.637 51.576,390.500 51.489 C 390.363 51.402,390.064 51.238,389.836 51.124 C 387.970 50.191,388.428 48.400,390.667 47.876 C 390.964 47.807,393.107 47.815,393.583 47.887 C 394.485 48.024,395.317 48.245,395.960 48.520 C 396.351 48.687,396.689 48.828,396.710 48.833 C 397.311 48.981,397.500 49.065,397.500 49.186 C 397.500 49.267,397.631 49.333,397.792 49.333 C 398.058 49.333,398.083 49.083,398.084 46.416 L 398.085 43.499 397.584 43.344 C 395.594 42.727,392.359 42.456,389.583 42.673 M333.500 42.784 C 333.179 42.820,332.521 43.033,332.037 43.258 C 331.553 43.483,331.118 43.667,331.069 43.667 C 330.928 43.667,329.333 45.371,329.333 45.522 C 329.333 45.597,329.181 45.904,328.994 46.204 L 328.655 46.750 328.702 44.958 L 328.750 43.166 324.917 43.166 L 321.083 43.167 321.083 54.917 L 321.083 66.667 324.917 66.666 L 328.750 66.666 328.761 60.458 C 328.774 53.585,328.805 53.139,329.345 52.127 C 329.430 51.968,329.500 51.732,329.500 51.603 C 329.500 51.474,329.623 51.322,329.774 51.264 C 329.924 51.206,330.003 51.114,329.948 51.059 C 329.801 50.912,331.190 49.667,331.501 49.667 C 331.647 49.667,331.852 49.582,331.956 49.477 C 332.348 49.085,334.503 49.155,335.570 49.594 C 336.785 50.094,336.638 50.502,336.698 46.450 L 336.750 42.992 336.167 42.830 C 335.596 42.672,334.666 42.656,333.500 42.784 M75.077 43.375 C 75.033 43.490,75.016 48.758,75.040 55.083 L 75.083 66.583 78.875 66.628 L 82.667 66.673 82.667 54.920 L 82.667 43.167 78.911 43.167 C 76.061 43.167,75.137 43.217,75.077 43.375 M106.500 54.917 L 106.500 66.667 110.333 66.667 L 114.167 66.667 114.167 54.917 L 114.167 43.167 110.333 43.167 L 106.500 43.167 106.500 54.917 M162.745 43.372 C 162.700 43.488,162.683 48.758,162.707 55.083 L 162.750 66.583 166.500 66.583 L 170.250 66.583 170.250 54.917 L 170.250 43.250 166.538 43.205 C 163.658 43.170,162.807 43.208,162.745 43.372 M306.121 48.775 C 306.467 48.937,306.841 49.185,306.953 49.326 C 307.065 49.468,307.158 49.509,307.161 49.417 C 307.169 49.172,308.267 50.761,308.458 51.294 C 309.203 53.372,309.081 57.080,308.205 58.974 C 307.956 59.512,306.500 61.171,306.500 60.917 C 306.500 60.849,306.404 60.872,306.286 60.970 C 304.721 62.269,300.747 61.199,299.733 59.205 C 299.559 58.863,299.365 58.544,299.302 58.496 C 298.980 58.253,298.555 53.667,298.855 53.667 C 298.933 53.667,298.972 53.435,298.941 53.151 C 298.879 52.585,299.561 50.692,299.932 50.398 C 300.061 50.297,300.167 50.155,300.167 50.085 C 300.167 49.725,301.461 48.916,302.583 48.574 C 303.472 48.304,305.341 48.410,306.121 48.775 M243.621 57.029 C 243.425 59.445,242.912 60.378,241.186 61.462 C 239.995 62.210,236.875 61.719,236.735 60.761 C 236.709 60.590,236.603 60.397,236.498 60.332 C 236.209 60.154,236.150 58.683,236.410 58.179 C 237.072 56.899,238.372 56.331,241.250 56.061 C 241.800 56.010,242.512 55.911,242.833 55.843 C 243.629 55.672,243.721 55.809,243.621 57.029 M42.333 57.917 C 42.644 58.237,42.936 58.500,42.982 58.500 C 43.028 58.500,42.811 58.237,42.500 57.917 C 42.189 57.596,41.897 57.333,41.851 57.333 C 41.805 57.333,42.022 57.596,42.333 57.917 " stroke="none" fill="#04a3eb" fill-rule="evenodd"></path><path id="path1" d="M7.333 1.821 C 5.699 2.423,4.540 3.324,3.581 4.738 L 3.167 5.348 3.167 35.393 L 3.167 65.437 3.875 66.366 C 4.463 67.137,5.930 68.378,6.315 68.431 C 6.371 68.438,6.642 68.542,6.917 68.662 C 7.192 68.781,7.546 68.873,7.705 68.867 C 7.864 68.860,8.037 68.925,8.090 69.011 C 8.221 69.223,64.786 69.222,64.861 69.010 C 64.892 68.924,65.129 68.815,65.388 68.769 C 66.603 68.551,69.333 66.453,69.333 65.737 C 69.333 65.606,69.408 65.500,69.500 65.500 C 69.592 65.500,69.656 65.444,69.643 65.375 C 69.595 65.122,70.038 64.167,70.203 64.167 C 70.304 64.167,70.290 64.065,70.168 63.919 C 70.002 63.718,70.014 63.651,70.231 63.567 C 70.604 63.424,70.650 7.214,70.277 7.071 C 70.150 7.022,70.067 6.773,70.084 6.493 C 70.100 6.222,70.050 6.000,69.973 6.000 C 69.896 6.000,69.833 5.854,69.833 5.677 C 69.833 5.499,69.757 5.306,69.664 5.248 C 69.571 5.191,69.532 5.082,69.579 5.008 C 69.666 4.865,67.646 2.667,67.427 2.667 C 67.358 2.667,67.102 2.526,66.859 2.355 C 65.594 1.463,66.878 1.498,36.308 1.522 C 10.471 1.543,8.020 1.568,7.333 1.821 M49.823 10.500 C 50.039 11.188,50.360 12.114,50.536 12.558 C 50.912 13.506,50.838 13.833,50.248 13.833 C 48.676 13.833,46.164 16.385,45.736 18.417 C 45.287 20.549,45.190 21.770,45.185 25.409 C 45.181 27.604,45.133 29.629,45.078 29.909 C 44.907 30.781,44.442 32.064,44.131 32.526 C 43.967 32.769,43.833 33.018,43.833 33.079 C 43.833 33.206,43.632 33.434,42.541 34.536 C 41.804 35.281,41.778 35.338,42.047 35.619 C 44.814 38.521,45.141 39.566,45.235 45.795 C 45.330 52.104,45.602 53.306,47.359 55.177 C 47.803 55.651,48.167 55.983,48.167 55.915 C 48.167 55.848,48.279 55.885,48.416 55.999 C 48.819 56.334,50.630 57.148,50.736 57.042 C 50.938 56.840,50.822 57.485,50.515 58.269 C 50.339 58.717,50.021 59.667,49.806 60.380 C 49.513 61.354,49.355 61.656,49.167 61.597 C 47.558 61.091,44.547 59.795,44.333 59.517 C 44.288 59.458,44.042 59.277,43.789 59.115 C 43.134 58.699,40.974 56.637,41.081 56.530 C 41.130 56.481,41.006 56.267,40.806 56.054 C 40.606 55.841,40.504 55.667,40.580 55.667 C 40.656 55.667,40.591 55.526,40.436 55.355 C 40.099 54.983,39.463 53.405,39.436 52.875 C 39.425 52.669,39.352 52.500,39.274 52.500 C 39.195 52.500,39.173 52.390,39.225 52.255 C 39.277 52.121,39.256 51.972,39.180 51.925 C 39.104 51.878,39.051 51.425,39.062 50.920 C 39.074 50.414,39.025 50.000,38.953 50.000 C 38.881 50.000,38.830 48.276,38.839 46.170 C 38.849 44.063,38.816 42.273,38.766 42.193 C 38.716 42.112,38.642 41.774,38.600 41.441 C 38.455 40.266,37.232 38.607,36.372 38.416 C 36.213 38.380,35.821 38.272,35.501 38.176 C 35.181 38.079,34.603 38.000,34.217 38.000 L 33.516 38.000 33.466 35.333 L 33.417 32.666 34.000 32.664 C 36.006 32.656,38.713 30.981,38.375 29.958 C 38.352 29.890,38.392 29.833,38.464 29.833 C 38.652 29.833,38.657 29.748,38.832 24.417 C 39.023 18.605,38.964 19.333,39.357 17.878 C 40.515 13.587,43.340 10.881,48.250 9.361 C 49.427 8.996,49.327 8.924,49.823 10.500 M28.666 13.042 C 28.667 13.110,28.667 21.904,28.667 32.583 L 28.667 52.000 25.331 52.000 L 21.996 52.000 22.002 32.431 L 22.008 12.863 25.337 12.890 C 27.168 12.905,28.666 12.973,28.666 13.042 M217.747 49.250 C 217.747 58.783,217.767 62.659,217.792 57.862 C 217.816 53.066,217.816 45.266,217.792 40.529 C 217.767 35.792,217.747 39.717,217.747 49.250 M97.571 39.750 C 97.571 41.675,97.595 42.440,97.624 41.449 C 97.654 40.459,97.654 38.884,97.624 37.949 C 97.595 37.015,97.570 37.825,97.571 39.750 M283.892 41.833 C 283.892 42.612,283.920 42.931,283.955 42.542 C 283.990 42.152,283.990 41.515,283.955 41.125 C 283.920 40.735,283.892 41.054,283.892 41.833 M270.735 46.000 C 270.735 47.512,270.760 48.131,270.791 47.375 C 270.822 46.619,270.822 45.381,270.791 44.625 C 270.760 43.869,270.735 44.487,270.735 46.000 M321.079 54.917 C 321.079 61.333,321.100 63.934,321.125 60.696 C 321.150 57.458,321.150 52.208,321.125 49.029 C 321.100 45.851,321.079 48.500,321.079 54.917 M328.728 44.917 C 328.728 45.833,328.756 46.187,328.790 45.703 C 328.824 45.218,328.823 44.468,328.789 44.036 C 328.755 43.604,328.727 44.000,328.728 44.917 M336.737 46.583 C 336.737 48.417,336.761 49.189,336.791 48.301 C 336.821 47.412,336.821 45.912,336.791 44.967 C 336.761 44.023,336.737 44.750,336.737 46.583 M398.048 44.750 C 398.049 45.208,398.081 45.376,398.120 45.123 C 398.158 44.869,398.157 44.494,398.117 44.289 C 398.078 44.084,398.046 44.292,398.048 44.750 M398.055 47.917 C 398.055 48.558,398.086 48.800,398.122 48.455 C 398.158 48.109,398.157 47.584,398.120 47.288 C 398.083 46.992,398.054 47.275,398.055 47.917 M283.911 57.583 C 283.911 62.533,283.932 64.534,283.958 62.030 C 283.984 59.526,283.984 55.476,283.958 53.030 C 283.932 50.584,283.911 52.633,283.911 57.583 M198.792 49.621 C 199.090 49.658,199.577 49.658,199.875 49.621 C 200.173 49.584,199.929 49.553,199.333 49.553 C 198.737 49.553,198.494 49.584,198.792 49.621 M97.572 53.833 C 97.572 56.171,97.596 57.127,97.625 55.958 C 97.653 54.790,97.653 52.877,97.625 51.708 C 97.596 50.540,97.572 51.496,97.572 53.833 M377.410 59.250 C 377.410 63.283,377.432 64.909,377.458 62.864 C 377.485 60.818,377.485 57.518,377.458 55.530 C 377.432 53.543,377.410 55.217,377.410 59.250 M328.736 63.333 C 328.736 65.121,328.761 65.852,328.791 64.958 C 328.821 64.065,328.821 62.602,328.791 61.708 C 328.761 60.815,328.736 61.546,328.736 63.333 M270.733 63.833 C 270.733 65.162,270.759 65.706,270.790 65.042 C 270.822 64.377,270.822 63.290,270.790 62.625 C 270.759 61.960,270.733 62.504,270.733 63.833 M362.392 65.083 C 362.392 65.908,362.420 66.267,362.455 65.880 C 362.490 65.493,362.490 64.818,362.456 64.380 C 362.422 63.942,362.393 64.258,362.392 65.083 M134.721 65.583 C 134.722 66.225,134.752 66.467,134.788 66.121 C 134.824 65.775,134.824 65.250,134.787 64.955 C 134.750 64.659,134.721 64.942,134.721 65.583 " stroke="none" fill="#239beb" fill-rule="evenodd"></path><path id="path2" d="M48.575 9.349 C 48.297 9.458,48.315 9.478,48.698 9.488 C 48.945 9.495,49.186 9.438,49.233 9.361 C 49.340 9.187,49.004 9.182,48.575 9.349 M47.500 9.763 L 47.083 10.014 47.500 9.905 C 47.729 9.845,47.988 9.729,48.075 9.648 C 48.330 9.410,47.964 9.483,47.500 9.763 M46.000 10.320 C 43.532 11.577,42.552 12.352,41.179 14.133 C 40.875 14.526,40.666 14.888,40.714 14.936 C 40.762 14.984,41.029 14.699,41.307 14.303 C 42.402 12.744,43.394 11.920,45.586 10.749 C 47.300 9.835,47.634 9.487,46.000 10.320 M24.125 13.124 C 24.973 13.154,26.360 13.154,27.208 13.124 C 28.056 13.094,27.363 13.069,25.667 13.069 C 23.971 13.069,23.277 13.094,24.125 13.124 M40.341 15.486 C 40.239 15.677,40.224 15.833,40.310 15.833 C 40.481 15.833,40.717 15.329,40.601 15.212 C 40.560 15.171,40.443 15.295,40.341 15.486 M40.000 16.043 C 40.000 16.066,39.926 16.342,39.836 16.657 C 39.655 17.289,39.828 17.172,40.131 16.458 C 40.249 16.181,40.262 16.000,40.163 16.000 C 40.073 16.000,40.000 16.019,40.000 16.043 M39.455 17.767 C 39.388 17.834,39.338 18.083,39.344 18.319 L 39.354 18.750 39.515 18.348 C 39.689 17.914,39.653 17.569,39.455 17.767 M39.001 21.500 C 38.971 21.729,38.930 23.248,38.909 24.875 C 38.889 26.502,38.826 28.264,38.771 28.791 C 38.685 29.605,38.699 29.687,38.866 29.333 C 38.988 29.075,39.088 27.678,39.128 25.667 C 39.190 22.586,39.128 20.538,39.001 21.500 M38.208 30.628 C 37.776 31.397,37.285 31.857,36.417 32.307 C 35.560 32.750,35.795 32.769,36.751 32.333 C 37.445 32.017,38.044 31.396,38.493 30.527 C 38.830 29.874,38.583 29.962,38.208 30.628 M38.848 45.417 C 38.854 47.067,38.918 48.754,38.991 49.167 C 39.080 49.664,39.131 48.736,39.143 46.417 C 39.154 44.406,39.093 42.810,39.000 42.667 C 38.893 42.500,38.842 43.422,38.848 45.417 M347.558 44.667 C 347.558 45.446,347.587 45.765,347.622 45.375 C 347.657 44.985,347.657 44.348,347.622 43.958 C 347.587 43.569,347.558 43.887,347.558 44.667 M347.574 61.250 C 347.574 64.183,347.597 65.360,347.625 63.865 C 347.652 62.369,347.652 59.969,347.625 58.531 C 347.597 57.093,347.574 58.317,347.574 61.250 M68.055 67.255 C 67.252 68.060,66.777 68.380,65.888 68.717 C 65.262 68.954,64.862 69.152,65.000 69.157 C 65.928 69.188,68.220 67.762,68.998 66.670 C 69.549 65.896,69.188 66.120,68.055 67.255 M191.625 66.791 C 192.656 66.820,194.344 66.820,195.375 66.791 C 196.406 66.762,195.563 66.738,193.500 66.738 C 191.438 66.738,190.594 66.762,191.625 66.791 " stroke="none" fill="#061727" fill-rule="evenodd"></path><path id="path3" d="M47.292 9.615 C 47.131 9.657,47.000 9.763,47.000 9.851 C 47.000 9.944,47.159 9.929,47.375 9.817 C 48.000 9.491,47.977 9.436,47.292 9.615 M43.384 11.762 L 42.917 12.191 43.458 11.814 C 43.756 11.607,44.000 11.414,44.000 11.385 C 44.000 11.254,43.816 11.367,43.384 11.762 M42.158 12.770 C 41.842 13.102,41.733 13.282,41.917 13.171 C 42.218 12.988,42.932 12.167,42.790 12.167 C 42.758 12.167,42.474 12.438,42.158 12.770 M23.667 12.947 C 26.332 13.067,28.796 13.073,28.725 12.958 C 28.682 12.890,27.283 12.848,25.615 12.866 C 23.948 12.884,23.071 12.921,23.667 12.947 M41.310 13.792 C 40.831 14.371,40.627 14.667,40.710 14.667 C 40.756 14.667,40.994 14.404,41.239 14.083 C 41.693 13.488,41.748 13.263,41.310 13.792 M22.081 32.833 C 22.081 43.421,22.101 47.752,22.125 42.458 C 22.149 37.165,22.149 28.502,22.125 23.208 C 22.101 17.915,22.081 22.246,22.081 32.833 M40.347 15.141 C 40.075 15.650,40.131 15.792,40.434 15.360 C 40.581 15.150,40.662 14.939,40.614 14.892 C 40.566 14.844,40.446 14.956,40.347 15.141 M39.144 18.458 C 39.131 18.619,39.097 19.041,39.067 19.397 C 39.037 19.753,39.048 20.007,39.093 19.963 C 39.214 19.841,39.373 18.167,39.262 18.167 C 39.210 18.167,39.156 18.298,39.144 18.458 M38.879 21.333 C 38.879 21.746,38.911 21.915,38.951 21.708 C 38.991 21.502,38.991 21.165,38.951 20.958 C 38.911 20.752,38.879 20.921,38.879 21.333 M38.879 24.667 C 38.879 25.079,38.911 25.248,38.951 25.042 C 38.991 24.835,38.991 24.498,38.951 24.292 C 38.911 24.085,38.879 24.254,38.879 24.667 M37.250 31.612 C 36.883 31.940,36.733 32.132,36.917 32.037 C 37.226 31.877,38.146 30.991,37.987 31.007 C 37.948 31.011,37.617 31.283,37.250 31.612 M38.879 49.333 C 38.879 49.746,38.911 49.915,38.951 49.708 C 38.991 49.502,38.991 49.165,38.951 48.958 C 38.911 48.752,38.879 48.921,38.879 49.333 M39.833 54.230 C 39.833 54.409,40.329 55.333,40.425 55.333 C 40.471 55.333,40.385 55.090,40.233 54.792 C 39.924 54.183,39.833 54.056,39.833 54.230 M328.729 58.417 C 328.729 59.425,328.757 59.816,328.790 59.286 C 328.823 58.755,328.823 57.930,328.789 57.452 C 328.756 56.974,328.729 57.408,328.729 58.417 M69.724 64.918 C 69.618 65.146,69.585 65.366,69.650 65.406 C 69.715 65.446,69.851 65.259,69.953 64.990 C 70.177 64.395,69.993 64.337,69.724 64.918 " stroke="none" fill="#126290" fill-rule="evenodd"></path><path id="path4" d="M33.567 35.417 C 33.567 36.792,33.593 37.332,33.624 36.617 C 33.655 35.903,33.655 34.778,33.624 34.117 C 33.592 33.457,33.566 34.042,33.567 35.417 M339.746 54.917 C 339.746 61.333,339.766 63.934,339.792 60.696 C 339.817 57.458,339.817 52.208,339.792 49.029 C 339.766 45.851,339.746 48.500,339.746 54.917 M157.410 59.667 C 157.410 63.471,157.431 65.027,157.458 63.125 C 157.485 61.223,157.485 58.110,157.458 56.208 C 157.431 54.306,157.410 55.862,157.410 59.667 M142.409 59.833 C 142.409 63.546,142.431 65.065,142.458 63.208 C 142.485 61.352,142.485 58.315,142.458 56.458 C 142.431 54.602,142.409 56.121,142.409 59.833 " stroke="none" fill="#0404fc" fill-rule="evenodd"></path></g></svg>