<svg id="svg" version="1.1" xmlns="http://www.w3.org/2000/svg" xmlns:xlink="http://www.w3.org/1999/xlink" width="400" height="69.88749172733289" viewBox="0, 0, 400,69.88749172733289"><g id="svgg"><path id="path0" d="M280.507 30.094 C 279.353 30.311,278.436 30.625,277.833 31.008 C 277.696 31.096,277.402 31.245,277.180 31.340 C 276.734 31.532,275.110 33.137,274.573 33.917 C 273.686 35.207,273.288 36.982,273.265 39.741 L 273.250 41.583 271.292 41.630 L 269.333 41.677 269.333 44.505 L 269.333 47.333 271.250 47.333 L 273.167 47.333 273.167 56.333 L 273.167 65.333 277.042 65.333 L 280.917 65.333 280.872 56.338 L 280.828 47.342 283.539 47.296 L 286.250 47.250 286.298 44.833 C 286.367 41.335,286.656 41.667,283.538 41.667 L 280.917 41.667 280.965 39.792 C 281.025 37.487,281.040 37.333,281.198 37.333 C 281.268 37.333,281.441 37.109,281.583 36.834 C 282.081 35.870,284.406 35.474,286.083 36.067 C 286.449 36.196,286.806 36.267,286.875 36.225 C 287.036 36.125,287.034 30.644,286.872 30.395 C 286.583 29.951,282.336 29.750,280.507 30.094 M214.333 47.833 L 214.333 65.333 218.250 65.333 L 222.167 65.333 222.167 48.097 C 222.167 38.617,222.121 30.742,222.066 30.597 C 221.977 30.367,221.474 30.333,218.149 30.333 L 214.333 30.333 214.333 47.833 M74.065 30.672 C 71.969 31.088,70.957 32.386,71.016 34.585 C 71.034 35.272,71.113 35.833,71.191 35.833 C 71.269 35.833,71.333 35.927,71.334 36.042 C 71.334 36.305,72.533 37.667,72.764 37.667 C 72.860 37.667,73.248 37.817,73.627 38.000 C 74.860 38.595,77.153 38.294,78.105 37.411 C 78.349 37.185,78.599 37.000,78.661 37.000 C 78.723 37.000,78.953 36.606,79.172 36.125 C 80.687 32.798,77.971 29.898,74.065 30.672 M105.375 30.690 C 104.894 30.783,104.500 30.928,104.500 31.013 C 104.500 31.097,104.402 31.167,104.281 31.167 C 103.963 31.167,103.261 31.970,102.825 32.833 C 101.287 35.879,104.717 39.177,108.333 38.128 C 111.043 37.342,112.028 34.229,110.285 31.958 C 110.021 31.615,109.699 31.333,109.569 31.333 C 109.440 31.333,109.333 31.266,109.333 31.183 C 109.333 30.733,106.792 30.416,105.375 30.690 M161.709 30.727 C 157.957 31.540,157.925 37.161,161.667 38.091 C 161.712 38.103,161.862 38.159,162.000 38.217 C 162.307 38.346,164.282 38.274,164.427 38.128 C 164.485 38.070,164.626 38.059,164.740 38.102 C 164.853 38.146,165.042 38.067,165.159 37.926 C 165.276 37.785,165.438 37.712,165.520 37.762 C 165.602 37.813,165.714 37.737,165.769 37.594 C 165.824 37.451,165.957 37.333,166.064 37.333 C 166.278 37.333,166.576 37.015,167.078 36.250 C 167.455 35.674,167.582 33.550,167.281 32.837 C 166.539 31.082,164.185 30.190,161.709 30.727 M186.792 32.278 L 186.333 32.355 186.333 48.847 L 186.333 65.339 190.208 65.295 L 194.083 65.250 194.127 59.708 L 194.171 54.167 195.794 54.164 C 198.350 54.160,201.043 53.884,202.367 53.492 C 204.002 53.007,205.874 52.086,206.586 51.417 C 206.781 51.233,207.254 50.811,207.637 50.477 C 208.020 50.144,208.333 49.792,208.333 49.694 C 208.333 49.596,208.427 49.457,208.542 49.383 C 208.865 49.176,209.500 48.209,209.500 47.923 C 209.500 47.782,209.566 47.667,209.647 47.667 C 209.776 47.667,209.850 47.511,210.086 46.750 C 210.729 44.672,210.929 42.746,210.658 41.250 C 210.575 40.792,210.469 40.186,210.423 39.903 C 209.862 36.481,206.963 33.661,203.167 32.847 C 202.471 32.698,202.084 32.616,201.000 32.388 C 200.465 32.276,187.400 32.174,186.792 32.278 M92.000 35.003 C 91.037 35.254,89.964 35.579,89.614 35.726 C 89.264 35.872,88.926 35.978,88.864 35.961 C 88.801 35.944,88.300 36.066,87.750 36.232 C 87.200 36.399,86.656 36.562,86.542 36.596 C 86.387 36.641,86.333 37.300,86.333 39.156 L 86.333 41.656 84.458 41.703 L 82.583 41.750 82.583 44.500 L 82.583 47.250 84.458 47.297 L 86.333 47.344 86.353 53.047 C 86.364 56.184,86.361 58.815,86.347 58.894 C 86.027 60.660,88.626 64.918,90.233 65.261 C 90.517 65.322,90.825 65.427,90.917 65.495 C 91.643 66.031,97.259 66.130,97.773 65.616 C 97.837 65.552,98.047 65.500,98.241 65.500 C 99.259 65.500,99.354 65.213,99.321 62.234 C 99.287 59.254,99.332 59.357,98.250 59.767 C 96.795 60.319,95.665 60.164,94.762 59.289 C 94.080 58.629,94.018 58.083,94.005 52.588 L 93.992 47.342 96.580 47.296 C 98.003 47.271,99.167 47.194,99.167 47.125 C 99.167 47.056,99.167 45.800,99.167 44.333 L 99.167 41.667 96.583 41.667 L 94.000 41.667 94.000 38.177 C 94.000 36.257,93.944 34.655,93.875 34.617 C 93.806 34.579,92.962 34.753,92.000 35.003 M261.686 34.618 C 261.560 34.668,260.697 34.919,259.770 35.176 C 258.842 35.433,257.558 35.806,256.917 36.005 C 256.275 36.203,255.563 36.407,255.333 36.458 C 254.704 36.597,254.672 36.732,254.669 39.292 L 254.667 41.667 252.764 41.667 L 250.862 41.667 250.841 44.500 L 250.821 47.333 252.744 47.333 L 254.667 47.333 254.687 52.875 C 254.711 59.340,254.746 59.946,255.188 61.333 C 255.705 62.956,257.253 64.785,258.438 65.171 C 258.793 65.287,259.121 65.431,259.167 65.491 C 259.618 66.086,264.713 66.103,266.539 65.515 L 267.662 65.155 267.616 62.369 L 267.570 59.583 267.078 59.638 C 266.808 59.667,266.488 59.774,266.366 59.876 C 265.429 60.653,262.962 59.772,262.738 58.580 C 262.679 58.261,262.569 58.000,262.494 58.000 C 262.420 58.000,262.350 55.600,262.340 52.667 L 262.322 47.333 264.994 47.333 L 267.667 47.333 267.667 44.500 L 267.667 41.667 265.000 41.667 L 262.333 41.667 262.333 38.083 C 262.333 34.394,262.328 34.363,261.686 34.618 M198.271 38.394 C 198.741 38.436,199.356 38.590,199.638 38.735 C 199.920 38.881,200.243 39.000,200.357 39.000 C 200.767 39.000,201.954 40.462,202.250 41.333 C 202.266 41.379,202.347 41.567,202.431 41.750 C 202.676 42.287,202.601 44.006,202.287 45.030 C 201.629 47.180,200.113 47.987,196.466 48.126 L 194.167 48.213 194.167 43.280 L 194.167 38.347 195.542 38.298 C 196.298 38.272,197.029 38.265,197.167 38.284 C 197.304 38.302,197.801 38.352,198.271 38.394 M130.967 41.084 C 130.939 41.109,130.430 41.172,129.836 41.224 C 129.241 41.276,128.729 41.396,128.697 41.492 C 128.665 41.588,128.456 41.667,128.232 41.667 C 127.464 41.667,124.674 43.736,124.083 44.743 C 123.964 44.946,123.917 44.560,123.917 43.389 L 123.917 41.750 120.125 41.705 L 116.333 41.660 116.333 53.479 C 116.333 64.102,116.360 65.308,116.597 65.399 C 117.121 65.600,123.589 65.511,123.800 65.300 C 123.949 65.151,124.000 63.257,124.000 57.806 C 124.000 50.745,124.011 50.482,124.360 49.548 C 125.515 46.447,129.331 46.050,130.772 48.881 L 131.178 49.678 131.174 57.381 C 131.171 61.617,131.230 65.179,131.305 65.295 C 131.409 65.458,132.283 65.496,135.095 65.462 L 138.750 65.417 138.840 58.083 C 138.921 51.531,138.963 50.661,139.235 49.917 C 140.771 45.723,145.718 46.119,146.242 50.477 C 146.272 50.719,146.304 54.193,146.314 58.197 L 146.333 65.476 149.958 65.489 C 151.952 65.495,153.679 65.439,153.797 65.362 C 154.342 65.009,153.903 47.342,153.317 46.051 C 153.143 45.666,153.000 45.235,153.000 45.092 C 153.000 44.950,152.943 44.833,152.874 44.833 C 152.805 44.833,152.641 44.593,152.511 44.298 C 152.080 43.324,150.431 41.972,149.132 41.528 C 147.012 40.803,142.442 41.149,141.658 42.094 C 141.549 42.225,141.335 42.333,141.183 42.333 C 141.031 42.333,140.799 42.483,140.667 42.667 C 140.535 42.850,140.345 43.000,140.246 43.000 C 140.014 43.000,139.154 43.902,138.613 44.713 C 138.237 45.276,138.181 45.307,138.086 45.008 C 137.765 43.997,135.383 41.667,134.670 41.667 C 134.521 41.667,134.326 41.593,134.235 41.502 C 134.145 41.412,133.699 41.298,133.244 41.251 C 131.685 41.087,131.018 41.038,130.967 41.084 M236.955 41.100 C 236.932 41.123,236.352 41.158,235.665 41.179 C 234.979 41.199,234.079 41.316,233.667 41.439 C 233.254 41.562,232.689 41.664,232.410 41.665 C 232.132 41.666,231.610 41.817,231.250 42.000 C 230.890 42.183,230.463 42.333,230.300 42.333 C 230.137 42.333,229.627 42.497,229.168 42.698 L 228.333 43.062 228.333 45.865 C 228.333 49.055,228.276 48.958,229.705 48.201 C 234.280 45.775,239.107 45.782,240.085 48.217 C 240.735 49.835,240.685 49.921,239.000 50.072 C 237.262 50.229,236.472 50.331,236.333 50.417 C 236.268 50.457,235.772 50.533,235.232 50.586 C 233.632 50.742,232.992 50.845,232.525 51.022 C 232.282 51.115,232.046 51.188,232.000 51.186 C 231.836 51.177,231.080 51.381,230.917 51.479 C 230.825 51.533,230.713 51.581,230.667 51.584 C 229.815 51.640,227.539 53.504,226.959 54.621 C 225.934 56.592,225.701 59.832,226.452 61.667 C 226.508 61.804,226.563 61.954,226.573 62.000 C 226.647 62.335,227.868 63.981,228.241 64.250 C 228.496 64.433,228.805 64.680,228.929 64.798 C 229.153 65.010,230.158 65.473,230.658 65.594 C 230.800 65.629,231.254 65.741,231.667 65.844 C 233.532 66.308,237.787 65.515,238.139 64.638 C 238.169 64.562,238.270 64.500,238.363 64.500 C 238.616 64.500,240.000 63.133,240.000 62.884 C 240.000 61.931,240.331 62.971,240.368 64.042 L 240.417 65.417 243.667 65.464 C 245.454 65.490,247.091 65.468,247.305 65.416 L 247.692 65.321 247.622 56.952 C 247.556 49.038,247.500 47.833,247.180 47.422 C 247.032 47.231,246.774 46.264,246.861 46.226 C 246.892 46.213,246.794 46.063,246.645 45.892 C 246.495 45.722,246.317 45.402,246.250 45.181 C 246.182 44.959,245.956 44.607,245.747 44.399 C 245.538 44.190,245.341 43.957,245.309 43.882 C 245.002 43.164,242.530 41.821,240.833 41.449 C 239.766 41.216,237.081 40.974,236.955 41.100 M300.616 41.106 C 300.591 41.132,299.975 41.166,299.249 41.183 C 298.523 41.200,297.701 41.308,297.422 41.424 C 297.144 41.539,296.692 41.659,296.417 41.689 C 296.142 41.719,295.671 41.876,295.370 42.039 C 295.069 42.201,294.685 42.333,294.515 42.333 C 294.346 42.333,294.114 42.446,294.000 42.583 C 293.886 42.721,293.722 42.833,293.637 42.833 C 292.618 42.833,289.624 46.246,288.935 48.191 C 288.793 48.590,288.565 49.229,288.428 49.612 C 287.824 51.289,287.995 57.562,288.663 58.229 C 288.757 58.323,288.833 58.497,288.833 58.616 C 288.833 59.154,290.108 61.379,290.814 62.073 C 291.913 63.153,292.895 64.000,293.049 64.000 C 293.121 64.000,293.342 64.150,293.538 64.333 C 293.735 64.517,294.028 64.667,294.188 64.667 C 294.349 64.667,294.518 64.728,294.564 64.802 C 294.690 65.005,296.768 65.618,298.019 65.821 C 300.103 66.159,304.033 65.926,305.333 65.387 C 305.471 65.330,305.729 65.255,305.908 65.221 C 306.243 65.157,308.019 64.321,308.167 64.158 C 308.212 64.107,308.550 63.885,308.917 63.665 C 309.515 63.305,310.262 62.606,311.259 61.472 C 311.765 60.896,312.504 59.560,312.383 59.439 C 312.325 59.381,312.357 59.333,312.453 59.333 C 312.607 59.333,312.810 58.914,312.898 58.417 C 312.914 58.325,313.055 57.961,313.212 57.607 C 313.369 57.254,313.460 56.904,313.414 56.829 C 313.368 56.755,313.439 56.230,313.571 55.663 C 313.842 54.504,313.809 50.743,313.527 50.460 C 313.435 50.368,313.397 50.195,313.443 50.075 C 313.489 49.955,313.402 49.595,313.251 49.275 C 313.099 48.954,312.948 48.555,312.917 48.388 C 312.885 48.220,312.844 48.046,312.826 48.000 C 312.808 47.954,312.803 47.860,312.814 47.792 C 312.824 47.723,312.758 47.667,312.667 47.667 C 312.575 47.667,312.500 47.521,312.500 47.344 C 312.500 47.166,312.277 46.776,312.004 46.478 C 311.732 46.180,311.538 45.906,311.574 45.871 C 311.610 45.835,311.514 45.677,311.361 45.520 C 311.208 45.362,310.858 44.975,310.583 44.659 C 309.961 43.942,308.956 43.165,308.083 42.724 C 306.850 42.101,306.110 41.750,306.013 41.742 C 305.910 41.734,304.639 41.460,304.500 41.416 C 303.854 41.210,300.759 40.963,300.616 41.106 M350.833 41.166 C 349.278 41.330,347.081 42.179,346.861 42.701 C 346.831 42.774,346.712 42.833,346.597 42.833 C 346.386 42.833,344.768 44.450,344.729 44.699 C 344.649 45.214,344.590 44.869,344.509 43.417 L 344.417 41.750 340.625 41.705 L 336.833 41.660 336.833 53.479 C 336.833 64.102,336.860 65.308,337.097 65.399 C 337.474 65.544,344.046 65.519,344.271 65.372 C 344.403 65.286,344.485 63.031,344.548 57.750 L 344.639 50.250 345.077 49.360 C 346.559 46.350,349.992 46.131,351.337 48.959 L 351.833 50.001 351.833 57.649 C 351.833 64.470,351.862 65.309,352.097 65.399 C 352.503 65.555,359.302 65.519,359.400 65.360 C 359.448 65.283,359.496 62.004,359.507 58.073 C 359.520 53.670,359.591 50.807,359.694 50.615 C 359.786 50.444,359.897 50.106,359.941 49.863 C 360.197 48.448,361.860 47.000,363.229 47.000 C 364.431 47.000,366.000 47.743,366.000 48.312 C 366.000 48.400,366.081 48.499,366.181 48.532 C 366.805 48.741,366.997 51.057,366.999 58.375 L 367.000 65.500 370.458 65.498 C 372.360 65.496,374.089 65.449,374.300 65.393 L 374.683 65.290 374.608 57.187 C 374.566 52.730,374.503 48.858,374.468 48.583 C 374.329 47.511,374.120 46.409,374.025 46.250 C 373.971 46.158,373.914 46.006,373.900 45.911 C 373.798 45.247,373.015 43.902,372.398 43.334 C 371.996 42.963,371.667 42.586,371.667 42.497 C 371.667 42.407,371.573 42.332,371.458 42.330 C 371.344 42.328,371.063 42.179,370.833 42.000 C 370.604 41.821,370.263 41.672,370.075 41.670 C 369.887 41.668,369.654 41.588,369.558 41.491 C 369.093 41.027,364.766 41.032,363.500 41.498 C 361.940 42.073,361.481 42.376,360.081 43.758 C 358.620 45.200,358.762 45.132,358.504 44.510 C 358.393 44.241,357.867 43.622,357.336 43.135 C 356.018 41.927,355.929 41.863,355.389 41.734 C 355.129 41.672,354.823 41.547,354.708 41.457 C 354.594 41.366,354.500 41.348,354.500 41.417 C 354.500 41.485,354.406 41.469,354.292 41.382 C 354.177 41.294,353.708 41.206,353.250 41.186 C 352.792 41.165,352.304 41.127,352.167 41.100 C 352.029 41.073,351.429 41.103,350.833 41.166 M387.000 41.187 C 383.226 41.464,380.247 43.173,378.965 45.797 C 378.347 47.062,378.134 49.858,378.589 50.734 C 378.706 50.960,378.851 51.369,378.912 51.644 C 378.972 51.919,379.129 52.233,379.261 52.342 C 379.392 52.451,379.500 52.635,379.500 52.750 C 379.500 53.101,381.311 54.474,382.566 55.076 C 383.778 55.656,384.660 55.988,386.805 56.672 C 388.036 57.064,389.291 57.967,389.347 58.500 C 389.432 59.318,388.927 60.188,388.320 60.271 C 388.236 60.282,388.148 60.307,388.125 60.325 C 387.316 60.978,383.035 60.711,381.490 59.911 C 381.230 59.777,380.867 59.667,380.685 59.667 C 380.502 59.667,380.308 59.594,380.253 59.506 C 380.106 59.267,378.544 58.512,378.431 58.625 C 378.377 58.678,378.333 60.058,378.333 61.691 C 378.333 65.021,378.338 65.033,379.667 65.219 C 379.988 65.264,380.700 65.426,381.250 65.579 C 384.907 66.598,392.478 65.587,393.706 63.917 C 393.775 63.822,393.829 63.818,393.831 63.906 C 393.832 63.992,393.986 63.899,394.173 63.698 C 394.360 63.497,394.585 63.333,394.673 63.333 C 394.761 63.333,394.833 63.266,394.833 63.184 C 394.833 63.102,395.055 62.798,395.326 62.508 C 395.597 62.218,395.912 61.722,396.026 61.407 C 396.140 61.091,396.281 60.833,396.339 60.833 C 396.397 60.833,396.448 60.740,396.453 60.625 C 396.458 60.510,396.539 60.089,396.634 59.689 C 397.263 57.035,396.301 54.344,394.187 52.846 C 393.580 52.416,391.852 51.500,391.647 51.500 C 391.578 51.500,391.311 51.413,391.053 51.306 C 390.794 51.199,390.546 51.099,390.500 51.083 C 390.454 51.067,390.267 50.998,390.083 50.929 C 389.900 50.860,389.150 50.579,388.417 50.304 C 386.085 49.431,385.296 48.344,386.215 47.274 C 387.330 45.977,391.708 46.197,394.583 47.694 C 395.400 48.119,395.420 48.048,395.368 44.921 L 395.319 42.009 394.701 41.862 C 391.619 41.130,389.871 40.977,387.000 41.187 M329.546 41.579 C 328.628 41.912,327.178 42.858,327.021 43.228 C 326.986 43.309,326.836 43.499,326.688 43.650 C 326.539 43.801,326.267 44.208,326.083 44.554 L 325.750 45.183 325.703 43.422 L 325.655 41.660 321.869 41.705 L 318.083 41.750 318.041 53.542 L 317.998 65.333 321.832 65.333 L 325.667 65.333 325.702 60.292 C 325.765 51.145,325.844 50.645,327.484 49.050 C 328.736 47.832,332.485 47.366,333.095 48.353 C 333.145 48.434,333.332 48.500,333.510 48.500 C 333.949 48.500,334.019 41.862,333.583 41.500 C 333.446 41.386,333.333 41.348,333.333 41.417 C 333.333 41.485,333.228 41.454,333.100 41.347 C 332.722 41.034,330.685 41.167,329.546 41.579 M71.411 41.872 C 71.367 41.988,71.350 47.296,71.374 53.667 L 71.417 65.250 75.209 65.295 L 79.002 65.340 78.959 53.545 L 78.917 41.750 75.204 41.705 C 72.325 41.670,71.474 41.708,71.411 41.872 M103.000 53.497 L 103.000 65.333 106.750 65.333 L 110.500 65.333 110.500 53.667 C 110.500 47.250,110.500 41.944,110.500 41.875 C 110.500 41.806,108.813 41.730,106.750 41.705 L 103.000 41.660 103.000 53.497 M159.333 53.500 L 159.333 65.340 163.125 65.295 L 166.917 65.250 166.917 53.500 L 166.917 41.750 163.125 41.705 L 159.333 41.660 159.333 53.500 M302.221 47.175 C 305.604 47.801,307.204 53.545,305.149 57.685 C 304.851 58.285,303.194 59.916,303.039 59.761 C 302.994 59.716,302.704 59.786,302.393 59.916 C 299.623 61.073,296.527 58.987,295.879 55.527 C 294.858 50.071,297.693 46.338,302.221 47.175 M240.394 55.673 C 240.343 58.532,238.782 60.338,236.273 60.441 C 234.771 60.502,233.441 59.797,233.241 58.833 C 233.232 58.788,233.165 58.468,233.093 58.122 C 232.770 56.575,234.160 55.198,236.333 54.912 C 236.654 54.870,237.517 54.734,238.250 54.611 C 240.474 54.238,240.421 54.211,240.394 55.673 " stroke="none" fill="#04a3eb" fill-rule="evenodd"></path><path id="path1" d="M4.984 0.472 C 3.803 1.035,2.685 2.023,1.926 3.175 L 1.333 4.076 1.333 33.922 L 1.333 63.768 1.811 64.509 C 2.340 65.329,3.661 66.828,3.664 66.613 C 3.666 66.538,3.785 66.595,3.930 66.740 C 4.075 66.885,4.262 66.960,4.347 66.908 C 4.431 66.856,4.500 66.893,4.500 66.990 C 4.500 67.087,4.556 67.155,4.625 67.140 C 4.694 67.125,4.975 67.210,5.250 67.329 C 5.525 67.448,5.881 67.540,6.042 67.533 C 6.202 67.526,6.333 67.591,6.333 67.677 C 6.333 67.889,63.044 67.889,63.258 67.677 C 63.345 67.590,63.604 67.486,63.833 67.445 C 64.959 67.241,67.825 65.041,67.831 64.375 C 67.832 64.260,67.908 64.167,68.000 64.167 C 68.092 64.167,68.153 64.110,68.136 64.042 C 68.119 63.973,68.231 63.627,68.385 63.274 C 68.539 62.920,68.623 62.564,68.572 62.482 C 68.522 62.400,68.560 62.333,68.657 62.333 C 68.780 62.333,68.833 53.806,68.833 33.917 C 68.833 15.569,68.776 5.500,68.671 5.500 C 68.579 5.500,68.552 5.282,68.608 5.000 C 68.672 4.681,68.640 4.500,68.521 4.500 C 68.418 4.500,68.333 4.350,68.333 4.167 C 68.333 3.983,68.258 3.833,68.167 3.833 C 68.075 3.833,68.009 3.777,68.020 3.708 C 68.083 3.309,67.896 3.027,66.937 2.073 C 66.218 1.358,65.516 0.851,64.770 0.509 L 63.666 0.004 34.792 0.016 L 5.917 0.028 4.984 0.472 M47.993 8.208 C 48.111 8.598,48.318 9.217,48.454 9.583 C 48.678 10.186,49.167 11.906,49.167 12.091 C 49.167 12.133,49.056 12.167,48.922 12.167 C 47.966 12.167,45.886 13.627,45.032 14.897 C 43.940 16.523,43.788 17.416,43.653 23.000 C 43.494 29.613,43.217 30.698,41.114 32.946 C 40.338 33.776,40.188 34.018,40.399 34.100 C 40.546 34.156,40.667 34.274,40.667 34.361 C 40.667 34.448,40.887 34.721,41.156 34.968 C 41.649 35.420,42.500 36.581,42.500 36.799 C 42.499 36.864,42.644 37.217,42.821 37.583 C 43.466 38.917,43.666 40.667,43.724 45.500 C 43.784 50.430,43.874 50.987,44.877 52.667 C 45.646 53.954,48.002 55.667,49.004 55.667 C 49.346 55.667,49.342 55.690,48.486 58.083 C 48.322 58.542,48.136 59.179,48.073 59.500 C 47.919 60.280,47.746 60.354,46.936 59.986 C 46.559 59.814,46.137 59.670,46.000 59.665 C 45.862 59.660,45.450 59.510,45.083 59.333 C 44.717 59.156,44.334 59.009,44.234 59.006 C 44.133 59.003,43.878 58.850,43.667 58.667 C 43.455 58.483,43.195 58.333,43.089 58.333 C 42.983 58.333,42.751 58.202,42.573 58.042 C 42.395 57.881,41.987 57.550,41.667 57.306 C 40.764 56.619,39.912 55.786,39.958 55.636 C 39.981 55.561,39.931 55.500,39.848 55.500 C 39.764 55.500,39.465 55.125,39.183 54.667 C 38.900 54.208,38.721 53.833,38.783 53.833 C 38.846 53.833,38.751 53.723,38.574 53.589 C 38.396 53.454,38.308 53.342,38.378 53.339 C 38.449 53.336,38.352 53.031,38.164 52.661 C 37.975 52.291,37.865 51.916,37.920 51.828 C 37.975 51.739,37.950 51.667,37.864 51.667 C 37.716 51.667,37.678 51.467,37.612 50.333 C 37.596 50.058,37.517 49.833,37.437 49.833 C 37.357 49.833,37.340 49.528,37.399 49.154 C 37.473 48.696,37.451 48.511,37.332 48.584 C 37.210 48.660,37.161 47.486,37.173 44.766 C 37.182 42.606,37.155 40.781,37.114 40.711 C 37.072 40.641,37.038 40.396,37.038 40.167 C 37.041 38.212,34.446 36.192,32.420 36.572 L 31.849 36.679 31.799 33.942 L 31.750 31.205 32.333 31.215 C 34.056 31.246,35.607 30.500,36.382 29.266 C 37.046 28.210,37.049 28.188,37.124 23.458 C 37.161 21.098,37.256 19.167,37.335 19.167 C 37.414 19.167,37.436 18.904,37.384 18.583 C 37.331 18.257,37.360 18.000,37.449 18.000 C 37.537 18.000,37.577 17.780,37.537 17.511 C 37.283 15.776,39.466 11.970,41.659 10.323 C 43.264 9.119,46.466 7.623,47.682 7.509 C 47.736 7.504,47.876 7.819,47.993 8.208 M27.103 11.592 C 27.046 11.740,27.000 20.592,27.000 31.264 L 27.000 50.667 23.664 50.667 L 20.328 50.667 20.336 31.012 L 20.344 11.357 23.775 11.340 C 26.866 11.325,27.196 11.350,27.103 11.592 M273.225 40.167 C 273.225 40.946,273.254 41.265,273.289 40.875 C 273.324 40.485,273.324 39.848,273.289 39.458 C 273.254 39.069,273.225 39.387,273.225 40.167 M325.728 43.500 C 325.728 44.462,325.756 44.856,325.790 44.375 C 325.823 43.894,325.823 43.106,325.790 42.625 C 325.756 42.144,325.728 42.537,325.728 43.500 M110.579 53.667 C 110.579 60.129,110.600 62.773,110.625 59.542 C 110.650 56.310,110.650 51.023,110.625 47.792 C 110.600 44.560,110.579 47.204,110.579 53.667 M202.548 43.083 C 202.549 43.542,202.581 43.709,202.620 43.456 C 202.658 43.203,202.657 42.828,202.617 42.623 C 202.578 42.418,202.546 42.625,202.548 43.083 M395.401 45.000 C 395.401 46.512,395.426 47.131,395.457 46.375 C 395.488 45.619,395.488 44.381,395.457 43.625 C 395.426 42.869,395.401 43.487,395.401 45.000 M246.961 46.924 C 247.004 47.152,247.095 47.372,247.162 47.414 C 247.230 47.456,247.250 47.304,247.206 47.076 C 247.162 46.848,247.072 46.628,247.004 46.586 C 246.937 46.544,246.917 46.696,246.961 46.924 M138.909 58.500 C 138.909 62.212,138.931 63.731,138.958 61.875 C 138.985 60.019,138.985 56.981,138.958 55.125 C 138.931 53.269,138.909 54.788,138.909 58.500 M325.741 60.333 C 325.741 63.129,325.763 64.273,325.791 62.875 C 325.819 61.477,325.819 59.190,325.791 57.792 C 325.763 56.394,325.741 57.538,325.741 60.333 M267.542 60.750 C 267.544 61.117,267.578 61.247,267.618 61.040 C 267.658 60.832,267.656 60.532,267.615 60.373 C 267.573 60.214,267.540 60.383,267.542 60.750 " stroke="none" fill="#239beb" fill-rule="evenodd"></path><path id="path2" d="M45.917 8.155 C 43.823 8.660,40.403 11.085,39.436 12.750 L 39.145 13.250 39.588 12.750 C 40.600 11.604,41.521 10.667,41.633 10.667 C 41.699 10.667,41.964 10.472,42.220 10.234 C 42.785 9.710,45.506 8.333,45.977 8.333 C 46.162 8.333,46.360 8.258,46.417 8.167 C 46.473 8.075,46.496 8.008,46.468 8.017 C 46.440 8.026,46.192 8.088,45.917 8.155 M21.455 11.454 C 21.750 11.490,22.275 11.491,22.621 11.455 C 22.967 11.419,22.725 11.389,22.083 11.388 C 21.442 11.387,21.159 11.417,21.455 11.454 M25.129 11.456 C 25.521 11.491,26.121 11.490,26.463 11.454 C 26.804 11.419,26.483 11.390,25.750 11.390 C 25.017 11.391,24.737 11.420,25.129 11.456 M38.673 13.989 C 38.461 14.384,38.452 14.550,38.647 14.429 C 38.794 14.338,39.023 13.667,38.907 13.667 C 38.873 13.667,38.767 13.812,38.673 13.989 M38.333 14.702 C 38.333 14.752,38.220 15.064,38.081 15.396 C 37.942 15.728,37.866 16.000,37.912 16.000 C 38.044 16.000,38.514 14.792,38.419 14.697 C 38.372 14.650,38.333 14.652,38.333 14.702 M37.293 20.000 C 37.102 21.416,37.143 27.141,37.342 26.801 C 37.441 26.631,37.489 25.036,37.462 22.801 C 37.431 20.295,37.376 19.382,37.293 20.000 M36.100 29.771 C 35.835 30.091,35.272 30.532,34.850 30.751 C 34.429 30.971,34.180 31.155,34.298 31.159 C 34.930 31.182,36.667 29.834,36.667 29.321 C 36.667 29.102,36.638 29.125,36.100 29.771 M37.182 44.083 C 37.187 45.733,37.251 47.421,37.325 47.833 C 37.413 48.330,37.464 47.403,37.477 45.083 C 37.487 43.073,37.426 41.477,37.333 41.333 C 37.226 41.167,37.175 42.089,37.182 44.083 M195.461 48.121 C 195.761 48.158,196.211 48.157,196.461 48.119 C 196.712 48.081,196.467 48.051,195.917 48.052 C 195.367 48.053,195.162 48.084,195.461 48.121 M67.999 64.292 C 67.997 64.636,66.077 66.513,65.384 66.849 C 64.953 67.058,64.691 67.258,64.800 67.295 C 65.137 67.407,66.087 66.711,67.152 65.573 C 68.051 64.611,68.346 64.167,68.083 64.167 C 68.037 64.167,68.000 64.223,67.999 64.292 M188.292 65.458 C 189.323 65.487,191.010 65.487,192.042 65.458 C 193.073 65.429,192.229 65.405,190.167 65.405 C 188.104 65.405,187.260 65.429,188.292 65.458 M63.750 67.604 L 63.250 67.848 63.750 67.745 C 64.025 67.689,64.321 67.573,64.408 67.488 C 64.638 67.264,64.341 67.316,63.750 67.604 " stroke="none" fill="#0a3a57" fill-rule="evenodd"></path><path id="path3" d="M23.458 11.451 C 23.665 11.491,24.002 11.491,24.208 11.451 C 24.415 11.411,24.246 11.379,23.833 11.379 C 23.421 11.379,23.252 11.411,23.458 11.451 M20.385 13.583 C 20.386 14.133,20.417 14.338,20.454 14.039 C 20.491 13.739,20.490 13.289,20.452 13.039 C 20.414 12.788,20.384 13.033,20.385 13.583 M20.395 48.000 C 20.395 48.962,20.423 49.356,20.456 48.875 C 20.490 48.394,20.490 47.606,20.456 47.125 C 20.423 46.644,20.395 47.038,20.395 48.000 " stroke="none" fill="#145480" fill-rule="evenodd"></path><path id="path4" d="M20.413 30.417 C 20.413 39.033,20.434 42.534,20.458 38.196 C 20.483 33.858,20.483 26.808,20.458 22.529 C 20.434 18.251,20.413 21.800,20.413 30.417 M33.083 31.174 C 32.851 31.280,32.952 31.295,33.417 31.224 C 33.783 31.168,34.115 31.095,34.153 31.061 C 34.296 30.935,33.403 31.029,33.083 31.174 M99.234 44.417 C 99.234 45.883,99.260 46.461,99.291 45.700 C 99.322 44.940,99.322 43.740,99.290 43.034 C 99.259 42.328,99.234 42.950,99.234 44.417 M344.560 43.333 C 344.560 44.204,344.588 44.560,344.623 44.125 C 344.657 43.690,344.657 42.977,344.623 42.542 C 344.588 42.106,344.560 42.462,344.560 43.333 M280.911 56.250 C 280.911 61.200,280.932 63.201,280.958 60.697 C 280.984 58.192,280.984 54.142,280.958 51.697 C 280.932 49.251,280.911 51.300,280.911 56.250 M20.372 50.167 C 20.372 50.487,20.406 50.619,20.448 50.458 C 20.490 50.298,20.490 50.035,20.448 49.875 C 20.406 49.715,20.372 49.846,20.372 50.167 M344.575 59.917 C 344.575 62.942,344.597 64.203,344.625 62.719 C 344.652 61.235,344.652 58.760,344.625 57.219 C 344.597 55.678,344.575 56.892,344.575 59.917 " stroke="none" fill="#146194" fill-rule="evenodd"></path></g></svg>