<!DOCTYPE svg PUBLIC "-//W3C//DTD SVG 1.1//EN" "http://www.w3.org/Graphics/SVG/1.1/DTD/svg11.dtd">

<!-- Uploaded to: SVG Repo, www.svgrepo.com, Transformed by: SVG Repo Mixer Tools -->
<svg height="200px" width="200px" version="1.1" id="Layer_1" xmlns="http://www.w3.org/2000/svg" xmlns:xlink="http://www.w3.org/1999/xlink" viewBox="-25.6 -25.6 563.20 563.20" xml:space="preserve" fill="#CAE9F7" stroke="#CAE9F7" stroke-width="0.00512">

<g id="SVGRepo_bgCarrier" stroke-width="0"/>

<g id="SVGRepo_tracerCarrier" stroke-linecap="round" stroke-linejoin="round" stroke="#CCCCCC" stroke-width="2.048"/>

<g id="SVGRepo_iconCarrier"> <g> <path style="fill:#111317;" d="M255.999,512c-45.925,0-90.973-12.304-130.274-35.582c-3.841-2.275-5.11-7.234-2.836-11.075 c2.275-3.842,7.235-5.11,11.075-2.836c36.808,21.801,79.006,33.325,122.035,33.325c132.244,0,239.833-107.588,239.833-239.832 c0-24.029-3.54-47.746-10.523-70.49c-1.311-4.268,1.088-8.79,5.356-10.101c4.27-1.311,8.79,1.088,10.101,5.356 C508.22,205.048,512,230.36,512,256c0,68.379-26.628,132.666-74.982,181.019C388.666,485.371,324.379,512,255.999,512z"/> <path style="fill:#111317;" d="M85.038,443.624c-2.003,0-4.01-0.739-5.575-2.23c-24.841-23.663-44.384-51.529-58.086-82.825 C7.193,326.164,0,291.656,0,256C0,187.62,26.628,123.334,74.982,74.981C123.334,26.629,187.619,0,255.999,0 c101.967,0,194.148,60.425,234.844,153.937c1.781,4.094-0.093,8.857-4.187,10.639c-4.095,1.782-8.858-0.093-10.639-4.187 C437.89,72.778,351.528,16.168,255.999,16.168c-132.243,0-239.83,107.588-239.83,239.832c0,66.274,26.439,127.958,74.446,173.686 c3.233,3.08,3.357,8.196,0.278,11.429C89.305,442.783,87.173,443.624,85.038,443.624z"/> <path style="fill:#111317;" d="M419.274,250.508c-0.017-0.498-0.036-0.995-0.057-1.492c-0.068-1.594-0.154-3.185-0.267-4.768 c-0.019-0.261-0.029-0.523-0.051-0.784c-0.128-1.702-0.293-3.394-0.475-5.081c-0.071-0.667-0.15-1.332-0.23-1.998 c-0.138-1.154-0.291-2.303-0.454-3.45c-0.155-1.095-0.321-2.186-0.498-3.276c-0.163-1.002-0.329-2.004-0.511-3 c-0.18-0.998-0.374-1.992-0.573-2.986c-0.108-0.531-0.22-1.062-0.333-1.592c-4.397-20.843-12.828-40.654-25.052-58.455 c-0.21-0.306-0.444-0.586-0.687-0.854c-11.248-16.129-25.326-30.14-41.512-41.312c-0.272-0.244-0.554-0.476-0.863-0.688 c-14.514-9.86-30.356-17.205-46.985-21.927c-0.03-0.009-0.061-0.018-0.093-0.027c-3.501-0.992-7.035-1.866-10.602-2.621 c-0.655-0.139-1.312-0.277-1.97-0.409c-0.922-0.183-1.844-0.364-2.77-0.532c-1.365-0.248-2.735-0.48-4.111-0.693 c-0.733-0.113-1.467-0.214-2.202-0.318c-1.174-0.166-2.351-0.32-3.531-0.461c-0.632-0.074-1.263-0.15-1.897-0.218 c-1.691-0.181-3.389-0.344-5.095-0.473c-0.287-0.022-0.572-0.034-0.859-0.054c-1.546-0.109-3.098-0.194-4.654-0.259 c-0.497-0.022-0.994-0.041-1.492-0.057c-1.809-0.06-3.622-0.101-5.446-0.101c-0.001,0-0.002,0-0.004,0c0,0,0,0-0.001,0 s-0.001,0-0.001,0c-0.002,0-0.003,0-0.004,0c-1.823,0-3.637,0.041-5.446,0.101c-0.498,0.016-0.995,0.036-1.492,0.057 c-1.556,0.066-3.11,0.15-4.654,0.259c-0.287,0.02-0.572,0.032-0.859,0.054c-1.706,0.129-3.403,0.292-5.095,0.473 c-0.634,0.068-1.265,0.142-1.897,0.218c-1.181,0.141-2.358,0.296-3.531,0.461c-0.735,0.103-1.469,0.205-2.202,0.318 c-1.375,0.213-2.746,0.446-4.11,0.693c-0.926,0.167-1.849,0.349-2.77,0.532c-0.659,0.132-1.315,0.268-1.97,0.409 c-3.567,0.756-7.101,1.63-10.602,2.621c-0.031,0.009-0.063,0.018-0.093,0.027c-16.63,4.721-32.472,12.066-46.985,21.927 c-0.309,0.21-0.592,0.444-0.863,0.688c-16.186,11.171-30.263,25.183-41.512,41.312c-0.243,0.268-0.475,0.548-0.687,0.854 c-12.224,17.801-20.656,37.613-25.052,58.455c-0.112,0.53-0.225,1.06-0.333,1.592c-0.2,0.994-0.393,1.988-0.573,2.986 c-0.182,0.996-0.347,1.997-0.511,3c-0.177,1.09-0.343,2.181-0.498,3.276c-0.163,1.147-0.316,2.296-0.454,3.45 c-0.08,0.666-0.157,1.331-0.23,1.998c-0.182,1.687-0.347,3.379-0.475,5.081c-0.022,0.261-0.031,0.522-0.051,0.784 c-0.113,1.582-0.2,3.173-0.267,4.768c-0.022,0.497-0.04,0.994-0.057,1.492c-0.061,1.824-0.102,3.653-0.102,5.492 c0,1.408,0.018,2.811,0.054,4.21c0.071,2.798,0.212,5.579,0.424,8.341c0.423,5.524,1.12,10.973,2.08,16.331 c13.676,76.359,80.587,134.494,160.819,134.494c0,0,0,0,0.001,0s0.001,0,0.001,0c80.233,0,147.143-58.135,160.819-134.494 c0.96-5.359,1.658-10.807,2.08-16.331c0.21-2.763,0.351-5.544,0.424-8.341c0.036-1.399,0.054-2.804,0.054-4.21 C419.376,254.161,419.336,252.333,419.274,250.508z M225.429,111.993c0.54-0.114,1.08-0.229,1.622-0.337 c0.861-0.172,1.725-0.34,2.59-0.497c1.141-0.206,2.284-0.4,3.431-0.579c0.757-0.119,1.517-0.226,2.277-0.334 c1.033-0.146,2.067-0.282,3.105-0.405c0.581-0.069,1.164-0.138,1.747-0.2c1.519-0.162,3.041-0.309,4.568-0.425 c0.267-0.02,0.537-0.032,0.804-0.051c1.386-0.097,2.777-0.174,4.168-0.232c0.448-0.019,0.898-0.037,1.347-0.052 c1.632-0.053,3.266-0.091,4.906-0.091c0.002,0,0.003,0,0.005,0c0.002,0,0.003,0,0.005,0c1.638,0,3.274,0.038,4.905,0.091 c0.449,0.015,0.899,0.032,1.347,0.052c1.392,0.058,2.782,0.135,4.168,0.232c0.267,0.018,0.537,0.03,0.804,0.051 c1.527,0.114,3.049,0.263,4.568,0.425c0.583,0.063,1.166,0.132,1.747,0.2c1.038,0.123,2.073,0.261,3.105,0.405 c0.76,0.108,1.52,0.215,2.277,0.334c1.147,0.179,2.289,0.372,3.431,0.579c0.867,0.157,1.729,0.326,2.59,0.497 c0.542,0.109,1.082,0.223,1.622,0.337c56.725,12.029,101.484,56.821,113.464,113.564c0.088,0.419,0.179,0.836,0.263,1.257 c0.188,0.927,0.366,1.856,0.536,2.79c0.149,0.824,0.287,1.65,0.421,2.477c0.175,1.064,0.337,2.132,0.489,3.204 c0.141,1.004,0.276,2.009,0.397,3.017c0.073,0.613,0.146,1.229,0.211,1.844c0.162,1.516,0.311,3.032,0.427,4.556 c0.018,0.241,0.028,0.485,0.046,0.726c0.101,1.422,0.18,2.849,0.239,4.277c0.019,0.449,0.038,0.898,0.053,1.348 c0.054,1.646,0.092,3.294,0.092,4.946c0,5.074-0.258,10.087-0.761,15.03c-7.553,74.138-70.35,132.178-146.447,132.179 c-76.098,0-138.894-58.041-146.447-132.179c-0.503-4.942-0.761-9.957-0.761-15.03c0-1.653,0.038-3.302,0.092-4.946 c0.015-0.451,0.033-0.899,0.053-1.348c0.059-1.429,0.138-2.855,0.239-4.277c0.018-0.243,0.028-0.485,0.046-0.726 c0.114-1.524,0.264-3.041,0.427-4.556c0.067-0.615,0.138-1.23,0.211-1.844c0.121-1.01,0.255-2.017,0.398-3.022 c0.151-1.066,0.313-2.128,0.486-3.186c0.136-0.83,0.274-1.661,0.424-2.489c0.169-0.932,0.348-1.863,0.536-2.789 c0.084-0.42,0.175-0.838,0.263-1.257C123.944,168.814,168.703,124.023,225.429,111.993z"/> </g> <g> <path style="fill:#00D8FF;" d="M146.215,117.016c-15.508,0-28.123,12.617-28.123,28.123s12.616,28.123,28.123,28.123 c15.507,0,28.121-12.617,28.121-28.123S161.722,117.016,146.215,117.016z"/> <path style="fill:#00D8FF;" d="M106.491,426.335c-15.507,0-28.122,12.616-28.122,28.123s12.616,28.123,28.122,28.123 c15.508,0,28.124-12.617,28.124-28.123C134.615,438.951,121.998,426.335,106.491,426.335z"/> </g> <circle style="fill:#1F9CEE;" cx="256" cy="256" r="70.505"/> <g> <path style="opacity:0.1;fill:#111317;enable-background:new ;" d="M136.069,145.14c0-12.363,8.023-22.882,19.134-26.641 c-2.823-0.955-5.844-1.482-8.987-1.482c-15.508,0-28.123,12.617-28.123,28.123s12.616,28.123,28.123,28.123 c3.143,0,6.164-0.526,8.987-1.481C144.093,168.021,136.069,157.503,136.069,145.14z"/> <path style="opacity:0.1;fill:#111317;enable-background:new ;" d="M96.345,454.459c0-12.365,8.023-22.882,19.134-26.641 c-2.824-0.955-5.845-1.482-8.989-1.482c-15.507,0-28.122,12.616-28.122,28.123s12.616,28.123,28.122,28.123 c3.143,0,6.164-0.526,8.989-1.481C104.368,477.341,96.345,466.823,96.345,454.459z"/> <path style="opacity:0.1;fill:#111317;enable-background:new ;" d="M203.472,256c0-35.891,26.826-65.496,61.514-69.913 c-2.945-0.375-5.941-0.59-8.989-0.59c-38.938,0-70.503,31.565-70.503,70.504c0,38.938,31.565,70.504,70.503,70.504 c3.047,0,6.043-0.216,8.989-0.59C230.298,321.496,203.472,291.891,203.472,256z"/> </g> </g>

</svg>