<svg xmlns="http://www.w3.org/2000/svg" viewBox="0 0 850 149">
<path fill="#1da4f3" stroke="#1da4f3" d="M13.884 9.792C1.508 16.257 1 18.827 1 75c0 56.47.527 59.097 13.105 65.365L19.393 143l50.553-.01 50.554-.01 5-2.357c5.958-2.81 8.674-5.575 11.416-11.623 1.965-4.334 2.041-6.327 2.052-54l.012-49.5-2.382-5.117c-1.311-2.814-3.918-6.288-5.794-7.719C123.238 6.893 124.389 7 69.646 7H19.228l-5.344 2.792m6.616 6.762c-11.031 5.782-11 5.612-11 60.99 0 52.485-.403 49.376 7.15 55.139l3.692 2.817 47.579.289c53.011.322 53.154.307 58.983-6.333 4.222-4.808 4.232-4.953 3.898-55.456-.34-51.165.008-48.804-8.144-55.394l-3.842-3.106-47.658-.259c-41.737-.227-48.031-.064-50.658 1.313m69.993 2.777C79.402 24.54 75.935 31.479 75.085 50.165c-.706 15.523-1.434 17.155-8.131 18.226L63 69.024V81h3.077C72.729 81 75 85.261 75 97.742c0 18.271 3.882 26.544 15.081 32.141 7.637 3.816 8.688 3.854 10.017.367 2.495-6.548 2.309-7.701-1.465-9.066-6.315-2.283-7.978-6.526-8.684-22.158-.631-13.951-1.575-17.917-5.18-21.766-1.907-2.035-1.957-2.4-.554-4C88.328 68.57 89.358 64.609 90 51c.788-16.691 3.029-21.469 11.4-24.296.495-.167.235-2.306-.578-4.754-1.797-5.407-3.482-5.835-10.329-2.619M38 68.5V112h15V25H38v43.5m117.03-37.221c-7.114 3.6-6.04 13.425 1.68 15.363 9.351 2.347 15.065-9.759 6.945-14.711-3.678-2.243-5.247-2.361-8.625-.652m76.858.18c-5.461 3.053-5.843 10.358-.729 13.94 5.523 3.868 13.732-.051 13.809-6.593.071-5.995-7.695-10.357-13.08-7.347m143.469-.467c-1.179.475-2.866 1.897-3.75 3.159-5.343 7.627 4.492 16.67 12.234 11.248 8.212-5.752.888-18.19-8.484-14.407M595.5 41.837c-6.539 4.091-9.384 9.931-9.456 19.413L586 67h-9v8h9v47h10V75h12v-8h-12v-6.865c0-9.611 2.165-12.381 9.376-11.998l5.124.272V40.5l-6-.27c-4.485-.202-6.757.204-9 1.607m-401.25 1.255L188 45.073v13.822l-5.25.303-5.25.302-.3 5.75-.3 5.75H188v20.599c0 23.141.586 25.746 6.632 29.482 4.236 2.618 13.727 3.616 18.722 1.967l3.646-1.203v-5.958c0-5.58-.123-5.892-1.934-4.922-2.461 1.317-6.651 1.328-9.088.023-3.018-1.615-3.966-7.403-3.972-24.238L202 71h15V59h-15v-9c0-4.95-.338-8.975-.75-8.944-.412.031-3.562.947-7 2.036M464 81.5V122h10V41h-10v40.5m-59.25-35.94c-.413.425-.75 17.798-.75 38.607V122h10V94.296l8.952-.58c18.791-1.217 28.427-9.765 28.427-25.216 0-10.946-4.729-18.012-14.379-21.483-3.953-1.421-31.095-2.648-32.25-1.457m148.75 6.992-4 1.121-.296 6.664-.295 6.663H540v8h9v18.532c0 23.757 1.81 28.347 11.779 29.871 7.386 1.128 10.679-.405 11.026-5.135l.305-4.16-3.22.924c-9.122 2.616-10.89-1.199-10.89-23.5V75h14v-8h-13.919l-.291-7.785-.29-7.785-4 1.122M414 69.503v15.748l8.336-.438c13.464-.706 19.131-5.352 19.131-15.683 0-10.518-4.649-14.227-18.717-14.935l-8.75-.44v15.748m-128.748-9.399c-2.337 1.157-5.374 3.441-6.75 5.076L276 68.153V59h-15v63h14.858l.321-21.25c.399-26.42 2.25-30.75 13.146-30.75C298.524 70 300 74.209 300 100.45V122h14.822l.351-20.25c.38-21.918.868-24.103 6.57-29.387 3.287-3.047 9.877-3.236 13.497-.389 3.845 3.025 4.76 8.879 4.76 30.469V122h15l-.016-21.25c-.021-29.41-2.024-36.593-11.385-40.845-9.03-4.1-19.98-1.677-26.849 5.942-2.062 2.287-3.75 3.742-3.75 3.233 0-1.849-5.343-7.214-9.086-9.124-5.178-2.642-13.154-2.578-18.662.148m-133.585-.437c-.367.366-.667 14.541-.667 31.5V122h15V59h-6.833c-3.759 0-7.134.3-7.5.667M229 90.5V122h14V59h-14v31.5m142.667-30.833c-.367.366-.667 14.541-.667 31.5V122h15V59h-6.833c-3.759 0-7.134.3-7.5.667M500.5 67.392c-7.627 2.4-8.5 3.236-8.5 8.143 0 5.052.176 5.172 3.846 2.618 10.904-7.588 22.76-5.1 24.688 5.179.769 4.099 1.364 3.821-12.034 5.633-15.925 2.154-21.941 7.634-21.297 19.398.35 6.405.617 7.084 4.006 10.189 7.893 7.234 20.057 6.66 27.428-1.295l2.363-2.549V122h9v-21.288c0-20.088-.127-21.54-2.25-25.75-4.033-7.998-15.641-11.222-27.25-7.57m129.885.225c-22.085 7.833-23.173 44.584-1.598 54.009 8.488 3.708 22.002 1.806 28.983-4.08 12.101-10.204 12.757-34.07 1.243-45.251-6.109-5.932-19.104-8.055-28.628-4.678m67.792.066c-1.827.9-4.415 3.245-5.75 5.209L690 76.464V67h-9v55h9l.006-16.25c.006-18.639.859-22.815 5.633-27.589 3.276-3.276 3.683-3.408 8.897-2.869l5.464.563v-4.32c0-5.889-4.629-7.397-11.823-3.852m38.323-.114c-1.65.857-4.237 2.738-5.75 4.181L728 74.374V66.89l-4.75.305-4.75.305-.266 27.25-.266 27.25H728v-18.184C728 80.046 730.617 74 740.903 74c9.982 0 11.517 3.638 11.922 28.25l.325 19.75h8.694l.328-18.75c.415-23.737 3.081-29.25 14.143-29.25 8.823 0 10.672 5.15 10.679 29.75L787 122h9l-.022-21.25c-.025-23.892-.789-27.343-7.046-31.798-7.226-5.146-20.816-3.085-26.014 3.945L760.624 76l-2.987-3.624c-5.058-6.137-14.456-8.274-21.137-4.807m83.793.079c-7.516 2.662-12.604 10.992-10.889 17.827 1.189 4.738 6.339 9.233 14.38 12.551 9.573 3.951 12.216 6.25 12.216 10.625 0 6.687-11.16 9.042-21.377 4.511-2.683-1.189-5.045-2.162-5.25-2.162-.205 0-.373 2.048-.373 4.551 0 5.854 3.649 7.741 15.054 7.787 16.039.065 25.833-10.344 20.436-21.718-2.142-4.515-5.34-6.847-14.652-10.687-3.98-1.641-8.047-3.717-9.037-4.614-2.489-2.252-2.327-7.533.304-9.914 2.791-2.526 13.92-2.665 18.645-.232l3.25 1.674V72.97c0-4.783-.072-4.896-3.75-5.917-5.221-1.45-13.957-1.176-18.957.595M632.3 76.081c-8.641 4.277-12.272 19.678-7.05 29.899 7.627 14.927 28.113 12.162 31.795-4.291 4.358-19.473-9.069-33.368-24.745-25.608M509.21 96.502c-9.012 1.633-11.92 3.435-12.759 7.905-.938 5 1.248 8.822 5.92 10.353 9.525 3.12 18.629-4.613 18.629-15.825 0-4.561-.022-4.566-11.79-2.433" fill-rule="evenodd"/>
<path fill="#1da4f3" stroke="#1da4f3" d="M19.5 7.913C12.254 9.73 6.264 14.728 3.553 21.218c-2.33 5.577-2.33 101.987 0 107.564 1.97 4.716 5.842 8.805 10.947 11.56 3.95 2.131 4.642 2.158 55.5 2.158 57.594 0 55.238.274 62.575-7.28 5.937-6.113 5.925-5.995 5.925-60.22s.012-54.107-5.925-60.22C125.282 7.271 127.304 7.52 72 7.33c-27.225-.093-50.85.169-52.5.583m5.417 6.989c-5.455 1.11-10.228 4.535-12.955 9.299L9.5 28.5V77c0 54.992-.507 51.559 8.392 56.791L22.5 136.5l43.813.308c50.964.358 52.707.172 59.608-6.347l4.579-4.326.277-48.358.278-48.359-2.355-4.459c-1.556-2.946-3.998-5.477-7.197-7.459l-4.842-3-44.081-.163c-24.244-.09-45.693.164-47.663.565m64.92 5.369C78.853 25.941 75 34.645 75 53.785 75 65.284 72.656 69 65.403 69c-2.415 0-2.492.202-2.203 5.74.254 4.853.609 5.787 2.3 6.039 8.193 1.224 9.041 2.841 9.819 18.721.869 17.766 4.682 25.504 14.942 30.324 8.117 3.813 8.345 3.78 10.133-1.468.884-2.592 1.606-4.851 1.606-5.021 0-.169-1.508-.938-3.351-1.708-6.546-2.735-7.973-6.297-8.647-21.579-.611-13.866-2.47-20.702-6.55-24.088-1.235-1.024-1.021-1.687 1.45-4.502 3.654-4.161 5.092-10.69 5.12-23.257.031-13.622 2.872-18.9 11.725-21.781.916-.298-3.203-9.42-4.254-9.42-.725 0-4.17 1.472-7.656 3.271m-51.38 5.979c-.263.688-.362 20.15-.218 43.25l.261 42 7.25.294 7.25.294V25h-7.031c-4.704 0-7.191.414-7.512 1.25m115.279 6c-4.747 3.605-3.883 10.954 1.597 13.581 8.098 3.881 15.825-6.576 9.353-12.657-2.608-2.449-8.308-2.93-10.95-.924m76.438 1.064c-6.042 6.432 1.484 16.356 9.493 12.517 4.047-1.94 5.86-6.145 4.286-9.944-2.237-5.401-9.796-6.812-13.779-2.573m143.128-.813c-3.011 2.109-3.893 6.948-1.838 10.084 4.624 7.057 15.536 4.31 15.536-3.911 0-6.416-8.124-10.077-13.698-6.173m223.2 9.05C589.246 45.394 587 49.734 587 59.913v6.977l-4.75.305c-4.704.302-4.753.341-5.06 4.055l-.311 3.75H587v47h8V75H608.121l-.311-3.75-.31-3.75-6.25-.298-6.25-.297V61.42c0-10.322 4.383-15.293 12.118-13.746 2.982.596 3.015.556 2.701-3.285L609.5 40.5l-5-.268c-3.114-.167-6.131.33-7.998 1.319M194.75 43.355 188 45.287V60h-10v11h10l.002 20.25c.001 17.283.257 20.76 1.75 23.73 3.467 6.902 12.329 10.054 22.272 7.921l4.976-1.067V111.335l-5.252.436c-8.785.729-9.184-.205-9.56-22.373L201.876 71H217V60h-14.928l-.286-9.289-.286-9.289-6.75 1.933M465 81.5V122h8V41h-8v40.5m-60 2.412V122h9V93h7.818C441.007 93 451 84.556 451 68.342c0-9.224-2.735-14.652-9.496-18.842-4.764-2.953-5.089-3.005-20.672-3.338L405 45.824v38.088m147.25-30.793c-3.235.934-3.25.968-3.25 7.41V67h-9v8H548.847l.327 19.25c.426 25.141 2.27 28.75 14.695 28.75 7.006 0 8.131-.634 8.131-4.588v-3.374l-4.42.606c-3.855.528-4.751.276-7-1.974l-2.58-2.579V75H572.121l-.311-3.75-.31-3.75-6.75-.296-6.75-.295v-7.455c0-8.032.027-8.003-5.75-6.335M414 69.5V85h7.843C434.957 85 442 79.468 442 69.167 442 58.608 435.979 54 422.184 54H414v15.5M287.684 59.389c-3.855 1.435-6.654 3.454-9.863 7.111-1.712 1.951-1.755 1.896-1.788-2.25L276 60h-15v62h15v-20.288c0-19.051.137-20.56 2.25-24.75 4.568-9.059 15.441-10.114 20.205-1.962 1.857 3.178 2.076 5.5 2.38 25.25l.334 21.75H314.886l.307-20.25c.276-18.182.518-20.653 2.376-24.193 3.807-7.258 10.617-9.936 16.821-6.616 4.765 2.55 5.61 7.079 5.61 30.079V122h14l-.006-23.25c-.006-25.807-.536-29.13-5.524-34.652-7.765-8.595-21.476-8.128-30.688 1.044l-4.718 4.698-2.082-3.369c-4.277-6.921-14.987-10.176-23.298-7.082M152 91v31h14V60h-14v31m77 0v31h14V60h-14v31m143 0v31h14V60h-14v31m130.633-23.891C494.169 69.097 492 70.8 492 75.459v4.232l5.641-2.846C510.004 70.609 521 74.344 521 84.777v2.877l-9.75 1.232c-18.169 2.295-25.166 8.224-24.003 20.338 1.369 14.242 21.404 19.298 31.05 7.835l2.703-3.212V122h9l-.006-19.75c-.003-11.25-.478-21.451-1.103-23.703-2.724-9.811-13.394-14.459-26.258-11.438m129.691.33C619.825 71.348 614 80.04 614 94.783c0 18.136 9.539 28.276 26.5 28.168 15.632-.1 25.105-9.425 26.228-25.818 1.525-22.24-14.37-35.958-34.404-29.694m68.028-.347c-3.091.896-9.2 6.802-9.509 9.193-.087.668-.424-1.035-.75-3.785l-.593-5-4.25-.307-4.25-.308V122h9l.006-16.75c.006-18.928.753-22.855 5.19-27.292 2.843-2.844 3.605-3.095 8.466-2.791l5.341.333-.002-4.133c-.001-5.218-1.993-6.203-8.649-4.275m37.904.025c-1.784.515-4.795 2.488-6.691 4.384l-3.447 3.448-.309-3.725c-.3-3.61-.439-3.733-4.559-4.031l-4.25-.308V122h9v-18.599C728 78.988 730.191 74 740.912 74 751.39 74 753 77.857 753 102.968V122h9v-18.04C762 80.239 764.853 74 775.701 74 785.894 74 787 76.787 787 102.468V122h9.14l-.32-21.75c-.304-20.68-.435-21.951-2.664-25.84-6.104-10.649-23.527-10.859-30.776-.371l-2.12 3.067-2.123-3.599c-3.581-6.07-11.82-8.718-19.881-6.39m84.223.277C813.482 70.213 810 74.549 810 82.935c0 6.651 3.063 10.038 13 14.375 10.718 4.679 11.674 5.317 12.799 8.544 3.116 8.939-10.66 13.339-22.635 7.23l-4.278-2.183.307 4.716c.371 5.694 3.192 7.186 13.807 7.301 14.05.153 22-5.364 22-15.266 0-7.602-3.291-11.346-13.784-15.682-11.125-4.596-14.418-8.238-12.082-13.364 2.101-4.611 12.107-6.203 19.52-3.106 1.975.825 3.76 1.5 3.968 1.5.208 0 .378-1.988.378-4.417v-4.417l-5.049-1.083c-6.367-1.366-10.38-1.285-15.472.311m-191.527 8.859c-8.829 5.95-11.256 22.759-4.688 32.47 6.732 9.954 23.795 9.239 29.178-1.223 2.955-5.744 2.957-20.469.004-25.497-4.713-8.023-16.882-10.879-24.494-5.75M512.5 95.626c-11.416 2.248-12.575 2.654-14.48 5.076-4.298 5.464-1.225 13.606 5.62 14.89 9.223 1.73 16.432-4.436 17.173-14.69L521.24 95l-3.37.116c-1.853.064-4.27.293-5.37.51" fill-rule="evenodd"/>
<path fill="#1da4f3" stroke="#1da4f3" d="M14.142 10.159c-4.954 2.452-9.66 8.339-11.181 13.985-.664 2.465-.93 21.436-.747 53.096L2.5 126.5l2.805 4.772c1.543 2.625 4.66 6 6.926 7.5l4.121 2.728 51.574.304c55.915.329 56.642.27 62.748-5.091 7.449-6.54 7.282-5.129 7.282-61.713 0-56.395.116-55.39-7.064-61.443-6.711-5.658-5.599-5.557-61.11-5.556-50.514.001-51.347.033-55.64 2.158m5.765 6.168c-2.424 1.279-5.757 4.243-7.407 6.585l-3 4.258-.278 48.139c-.303 52.34-.374 51.594 5.388 56.654 5.647 4.958 7.76 5.136 57.139 4.825 51.358-.323 50.668-.224 56.693-8.123l2.558-3.354V77.116c0-53.652.143-52.452-6.987-58.452-5.251-4.418-8.028-4.653-55.106-4.658L24.315 14l-4.408 2.327m73.478 2.29C81.305 22.901 76.833 30.73 76.028 49c-.732 16.644-2.32 20-9.462 20-4.114 0-3.944 10.672.184 11.541 7.353 1.547 9.246 5.443 9.248 19.027.003 16.705 3.784 24.653 14.197 29.842 7.087 3.532 8.09 3.355 9.987-1.763l1.613-4.353-3.707-1.635c-6.414-2.83-8.205-7.505-9.004-23.504-.688-13.782-1.395-16.526-5.383-20.905L81.651 75l2.127-2.264C87.65 68.615 89 63.662 89 53.581c0-13.051 1.472-19.253 5.533-23.314C96.33 28.47 98.52 27 99.4 27c.88 0 1.6-.51 1.6-1.134 0-1.957-2.288-8.87-2.908-8.787-.326.043-2.444.736-4.707 1.538M39 68.5V111h14V26H39v42.5m114.635-35.427C150.333 35.67 150.022 41.022 153 44c2.862 2.862 8.995 2.699 11.826-.314 6.634-7.062-3.494-16.668-11.191-10.613m76.82.382C225.375 38.534 228.862 46 236.314 46c4.761 0 7.686-2.827 7.686-7.427 0-6.77-8.632-10.032-13.545-5.118m143.18-.382C370.333 35.67 370.022 41.022 373 44c3.058 3.058 9.283 2.727 11.927-.635 5.945-7.557-3.651-16.303-11.292-10.292m225.279 7.883C590.842 43.402 587 49.807 587 60.816V68h-4.5c-4.476 0-4.5.019-4.5 3.5s.024 3.5 4.5 3.5h4.5v47h8V75h13v-7h-13.212l.368-8.097c.463-10.197 3.184-13.463 10.527-12.635 4.306.485 4.317.478 4.317-2.774 0-4.271-4.222-5.619-11.086-3.538M193.75 43.794 188 45.395V60h-10v10h9.858l.321 21.25c.289 19.111.522 21.591 2.321 24.637 2.862 4.847 7.695 7.113 15.169 7.113 9.767 0 11.331-.955 11.331-6.923v-4.973l-2.97 1.035c-3.678 1.283-9.576-.421-11.06-3.196-.611-1.141-.907-9.168-.743-20.17L202.5 70.5l7.25-.294 7.25-.294V60h-15v-9c0-10.082.503-9.643-8.25-7.206M465 82v40h8V42h-8v40m-60 2v38h8V93h7.818c18.858 0 30.171-9.187 30.171-24.5 0-16.203-9.284-22.5-33.171-22.5H405v38m148.293-30.765c-3.138 1.007-3.214 1.175-3.5 7.647L549.5 67.5l-4.75.305c-4.689.301-4.75.349-4.75 3.75V75h9.886l.307 20.483.307 20.483 3.05 3.047c5.673 5.67 17.45 5.457 17.45-.316 0-3.182-.04-3.208-4.407-2.861-8.112.645-8.593-.604-8.593-22.336V75h13v-7h-13v-8c0-4.4-.337-7.954-.75-7.898-.413.056-2.193.566-3.957 1.133m-139.543.317c-.413.43-.75 7.681-.75 16.115V85l8.75-.002c6.334-.001 9.711-.484 12.23-1.75 10.717-5.384 10.974-23.445.397-27.864-4.004-1.673-19.463-3.046-20.627-1.832M291 58.939c-4.961.997-9.351 3.501-12.316 7.025-3.357 3.99-3.684 3.86-3.684-1.464V60h-13v62h12.825l.347-20.75c.375-22.419.722-24.026 6.314-29.25 3.751-3.505 11.243-3.542 14.935-.074 3.931 3.692 4.567 7.845 4.573 29.824L301 122h14l.022-19.75c.025-22.081.769-25.372 6.912-30.541 3.681-3.097 7.689-3.473 12.194-1.143 5.416 2.801 6.234 6.499 6.675 30.184l.396 21.25h12.955l-.327-24.75c-.308-23.324-.455-24.989-2.549-28.905-6.891-12.886-26.578-13.312-35.504-.768l-2.588 3.638-1.218-2.357c-4.038-7.818-12.203-11.68-20.968-9.919M152 91v31h14V60h-14v31m77 0v31h14V60h-14v31m143 0v31h13V60h-13v31m126-22.221c-4.214 1.654-4.519 2.028-4.801 5.866l-.302 4.1 5.235-2.591c11.147-5.516 20.8-2.823 22.876 6.383 1.156 5.122 1.239 5.057-8.245 6.394-19.17 2.702-25.763 7.54-25.763 18.902 0 14.462 23.616 20.84 31.667 8.553 2.265-3.457 3.333-2.94 3.333 1.614v4h8.199l-.35-21.25c-.384-23.362-1.144-26.64-7.239-31.193-3.848-2.875-18.119-3.326-24.61-.778m130.429.552c-18.941 9.005-19.623 41.075-1.082 50.936 5.951 3.166 19.349 3.168 25.296.005 17.325-9.215 19.118-39.721 2.923-49.739-6.926-4.284-19.483-4.84-27.137-1.202m68.861-.366c-1.765 1.076-4.24 3.887-5.5 6.246L689.5 79.5l-.3-5.75-.3-5.75H681v54H688.777l.411-17.75c.369-15.982.634-18.177 2.651-22.039 3.056-5.848 7.416-8.477 12.911-7.785l4.25.536V67l-4.25.004c-2.453.002-5.607.831-7.46 1.961m38.121-.131c-1.698 1.067-4.013 3.116-5.144 4.553C727.499 76.907 727 76.696 727 72v-4h-8v54h8l.006-16.75c.006-18.883.786-22.972 5.317-27.879 3.961-4.289 8.889-5.313 13.968-2.903 6.048 2.87 6.709 5.622 6.709 27.933V122h9l.016-18.75c.016-17.572.158-19.001 2.266-22.75 2.828-5.031 7.848-7.772 13.066-7.134C786.143 74.441 788 79.963 788 105.049V122h8.172l-.336-21.25c-.304-19.217-.536-21.633-2.423-25.25-5.725-10.972-21.888-11.829-30.555-1.62-2.201 2.593-3.224 3.218-3.604 2.204-.292-.779-1.993-3.011-3.78-4.961-4.141-4.518-14.613-5.713-20.063-2.289m84.089.056c-6.248 2.884-8.764 6.247-9.274 12.399-.611 7.373 2.314 10.685 14.382 16.286 12.095 5.614 15.021 9.96 10.478 15.564-2.523 3.113-16.475 3.45-21.896.53l-3.311-1.783.311 4.269c.39 5.367 5.146 7.297 15.971 6.479 11.864-.896 18.832-6.495 18.832-15.134 0-7.059-2.782-10.032-14.513-15.509-11.473-5.358-13.658-7.705-11.898-12.781 2.042-5.889 13.445-7.833 21.504-3.665L843 77.051v-4.05c0-3.428-.394-4.2-2.565-5.026-4.382-1.666-16.489-1.137-20.935.915m-184.906 5.096c-13.842 4.406-16.96 29.531-4.814 38.796 5.077 3.872 15.21 4.4 20.22 1.053 10.824-7.23 11.14-31.259.498-37.836-3.854-2.382-11.647-3.368-15.904-2.013M510.939 95.479C498.517 97.572 496 99.527 496 107.082c0 9.394 13.017 12.367 20.664 4.72 4.996-4.995 7.292-18.033 3.117-17.699-.704.056-4.683.675-8.842 1.376" fill-rule="evenodd"/>
</svg>