<svg id="svg" version="1.1" xmlns="http://www.w3.org/2000/svg" xmlns:xlink="http://www.w3.org/1999/xlink" width="400" height="101.43884892086331" viewBox="0, 0, 400,101.43884892086331"><g id="svgg"><path id="path0" d="M68.625 9.806 C 68.967 10.163,69.049 10.154,68.903 9.774 C 68.845 9.623,68.693 9.500,68.566 9.500 C 68.389 9.500,68.403 9.573,68.625 9.806 M58.917 13.603 C 58.550 13.932,58.417 14.116,58.621 14.013 C 59.025 13.809,59.892 12.998,59.701 13.003 C 59.636 13.005,59.283 13.275,58.917 13.603 M70.084 13.907 C 70.224 14.560,70.652 15.571,70.747 15.475 C 70.789 15.433,70.633 14.953,70.401 14.408 C 70.168 13.863,70.026 13.638,70.084 13.907 M57.418 14.832 C 57.156 15.106,56.978 15.367,57.024 15.412 C 57.069 15.458,57.359 15.234,57.669 14.914 C 57.979 14.595,58.156 14.333,58.064 14.333 C 57.971 14.333,57.681 14.558,57.418 14.832 M26.444 15.278 C 26.383 15.339,26.333 28.914,26.333 45.444 L 26.333 75.500 31.458 75.461 L 36.583 75.422 31.541 75.375 L 26.499 75.328 26.541 45.373 L 26.583 15.417 31.667 15.330 L 36.750 15.243 31.653 15.205 C 28.849 15.184,26.506 15.217,26.444 15.278 M36.965 15.958 C 37.047 17.225,37.126 17.334,37.147 16.208 C 37.158 15.635,37.110 15.167,37.040 15.167 C 36.971 15.167,36.937 15.523,36.965 15.958 M69.917 16.911 C 69.273 17.205,69.572 17.210,70.333 16.917 C 70.654 16.793,70.804 16.690,70.667 16.687 C 70.529 16.684,70.192 16.785,69.917 16.911 M67.294 17.963 C 66.860 18.213,66.463 18.525,66.412 18.657 C 66.340 18.845,66.385 18.838,66.618 18.629 C 66.782 18.481,67.254 18.167,67.667 17.932 C 68.079 17.697,68.342 17.505,68.250 17.507 C 68.158 17.508,67.728 17.714,67.294 17.963 M37.081 46.417 C 37.081 61.358,37.101 67.446,37.125 59.945 C 37.149 52.444,37.149 40.219,37.125 32.779 C 37.101 25.338,37.081 31.475,37.081 46.417 M278.833 21.270 C 276.226 21.622,273.570 22.390,271.411 23.416 L 269.500 24.324 269.500 28.829 C 269.500 31.909,269.556 33.333,269.678 33.333 C 269.860 33.333,270.819 32.659,271.417 32.111 C 271.600 31.942,272.537 31.430,273.500 30.971 C 274.462 30.512,275.442 30.036,275.676 29.912 C 277.426 28.985,282.948 28.742,285.583 29.476 C 287.774 30.086,289.921 31.579,290.530 32.917 C 290.635 33.146,290.780 33.333,290.853 33.333 C 291.439 33.333,292.012 37.673,291.679 39.584 C 290.764 44.839,286.758 46.978,277.289 47.269 L 273.500 47.385 273.500 51.443 L 273.500 55.500 276.804 55.500 C 280.473 55.500,283.031 55.703,285.177 56.165 C 286.635 56.478,289.333 57.434,289.334 57.637 C 289.334 57.699,289.690 57.969,290.125 58.236 C 290.948 58.741,292.000 59.646,292.000 59.849 C 292.000 59.913,292.285 60.442,292.634 61.025 C 293.456 62.399,293.659 63.091,293.780 64.931 C 293.876 66.400,293.510 68.939,293.169 69.167 C 293.101 69.212,292.892 69.550,292.704 69.917 C 290.155 74.908,281.834 76.992,274.138 74.565 C 272.224 73.962,268.420 71.877,267.866 71.128 C 267.224 70.260,267.167 70.624,267.167 75.572 L 267.167 80.311 267.625 80.634 C 268.697 81.389,270.933 82.247,272.917 82.664 C 273.375 82.760,273.900 82.908,274.083 82.992 C 275.931 83.836,287.591 83.859,288.747 83.020 C 288.840 82.953,289.479 82.760,290.167 82.592 C 291.773 82.199,294.385 81.214,294.778 80.852 C 294.946 80.698,295.411 80.402,295.812 80.195 C 298.019 79.052,302.167 74.720,302.167 73.558 C 302.167 73.434,302.230 73.333,302.308 73.333 C 302.641 73.333,303.525 70.652,303.845 68.667 C 304.427 65.062,303.535 58.826,302.331 58.082 C 302.238 58.025,302.011 57.682,301.827 57.321 C 300.320 54.367,294.631 51.000,291.146 51.000 C 290.365 51.000,290.646 50.678,291.754 50.305 C 298.555 48.015,302.004 43.094,302.014 35.667 C 302.018 32.376,300.871 28.000,300.004 28.000 C 299.933 28.000,299.780 27.775,299.666 27.500 C 299.342 26.716,296.711 24.323,295.356 23.578 C 293.150 22.365,292.758 22.191,291.417 21.823 C 288.349 20.981,282.787 20.737,278.833 21.270 M335.917 21.115 C 332.391 21.572,325.500 24.367,325.500 25.339 C 325.500 25.415,325.346 25.527,325.157 25.586 C 324.706 25.730,321.652 28.679,321.052 29.550 C 320.794 29.924,320.391 30.442,320.157 30.701 C 319.922 30.960,319.403 31.751,319.002 32.461 C 318.601 33.170,318.227 33.787,318.171 33.833 C 317.876 34.072,316.000 38.500,316.000 38.957 C 316.000 39.072,315.934 39.167,315.854 39.167 C 315.702 39.167,315.589 39.524,314.917 42.129 C 314.459 43.904,313.833 47.446,313.833 48.261 C 313.833 48.565,313.766 48.855,313.683 48.906 C 313.540 48.995,313.388 51.162,313.273 54.750 C 313.202 56.997,313.465 61.544,313.702 62.167 C 313.755 62.304,313.885 63.054,313.992 63.833 C 314.332 66.319,315.520 70.833,315.835 70.833 C 315.906 70.833,316.011 71.023,316.070 71.255 C 316.248 71.966,317.711 74.832,318.093 75.218 C 318.291 75.419,318.573 75.816,318.718 76.100 C 319.124 76.893,321.444 79.264,322.486 79.952 C 322.998 80.289,323.492 80.658,323.583 80.770 C 324.144 81.460,328.696 83.181,330.833 83.512 C 333.400 83.909,338.609 83.565,340.109 82.900 C 340.397 82.772,340.725 82.667,340.836 82.667 C 341.187 82.667,344.708 81.125,344.990 80.848 C 345.139 80.702,345.467 80.475,345.720 80.343 C 348.728 78.773,352.365 73.598,353.399 69.417 C 354.627 64.453,354.247 57.070,352.608 54.055 C 352.467 53.796,352.171 53.208,351.951 52.750 C 350.711 50.169,346.725 46.167,345.394 46.167 C 345.284 46.167,345.168 46.088,345.136 45.992 C 344.865 45.177,339.879 44.279,336.167 44.375 C 330.780 44.516,327.859 45.763,324.625 49.303 C 324.098 49.880,323.667 50.240,323.667 50.102 C 323.667 48.024,324.635 41.570,324.982 41.338 C 325.054 41.290,325.314 40.664,325.560 39.948 C 325.993 38.686,327.090 36.336,327.325 36.167 C 327.389 36.121,327.746 35.633,328.117 35.083 C 329.397 33.189,332.738 30.605,334.375 30.242 C 334.627 30.186,334.833 30.079,334.833 30.005 C 334.833 29.021,345.114 29.015,345.833 29.998 C 345.879 30.061,346.517 30.322,347.250 30.578 C 347.983 30.834,348.862 31.184,349.202 31.355 C 350.393 31.955,350.333 32.180,350.333 27.114 L 350.333 22.562 349.292 22.201 C 346.478 21.227,339.454 20.656,335.917 21.115 M366.105 22.375 C 366.050 22.581,366.004 23.252,366.002 23.865 C 366.001 24.479,365.939 25.018,365.865 25.064 C 365.791 25.110,365.713 25.508,365.693 25.949 C 365.672 26.389,365.398 30.800,365.084 35.750 C 364.124 50.882,363.942 53.998,364.014 54.061 C 364.052 54.095,365.021 54.049,366.167 53.960 C 370.038 53.658,377.379 53.708,379.052 54.049 C 380.528 54.349,382.845 55.102,383.000 55.332 C 383.046 55.400,383.383 55.610,383.750 55.800 C 389.951 59.003,390.062 69.147,383.938 73.034 C 383.468 73.332,382.991 73.665,382.878 73.774 C 382.765 73.882,381.977 74.199,381.128 74.478 C 375.897 76.194,370.559 75.635,365.338 72.823 C 364.156 72.187,363.110 71.667,363.012 71.667 C 362.889 71.667,362.833 73.172,362.833 76.484 L 362.833 81.302 364.043 81.806 C 364.708 82.083,365.777 82.434,366.418 82.585 C 367.059 82.737,367.733 82.929,367.917 83.011 C 369.767 83.840,382.375 83.842,383.407 83.013 C 383.504 82.935,384.219 82.708,384.996 82.508 C 386.810 82.042,388.673 81.268,389.833 80.498 C 390.337 80.164,390.986 79.746,391.275 79.570 C 392.131 79.048,394.247 77.061,394.763 76.294 C 395.026 75.903,395.422 75.396,395.643 75.167 C 396.040 74.754,397.500 71.881,397.500 71.513 C 397.500 71.408,397.613 71.149,397.751 70.938 C 398.575 69.681,399.104 63.682,398.676 60.455 C 398.355 58.039,398.120 57.303,396.741 54.417 C 394.989 50.749,391.124 47.630,386.917 46.489 C 386.183 46.290,385.450 46.059,385.286 45.976 C 384.510 45.579,381.603 45.335,377.628 45.334 L 373.506 45.333 373.588 44.625 C 373.633 44.235,373.819 41.329,374.003 38.167 C 374.186 35.004,374.378 32.023,374.430 31.542 L 374.524 30.667 385.345 30.667 L 396.167 30.667 396.167 26.333 L 396.167 22.000 381.186 22.000 L 366.206 22.000 366.105 22.375 M62.917 24.500 C 62.853 24.788,62.836 25.059,62.879 25.101 C 62.921 25.143,63.004 24.939,63.063 24.646 C 63.201 23.951,63.067 23.816,62.917 24.500 M52.539 25.000 C 52.539 25.321,52.573 25.452,52.615 25.292 C 52.657 25.131,52.657 24.869,52.615 24.708 C 52.573 24.548,52.539 24.679,52.539 25.000 M62.542 27.250 C 62.544 27.617,62.578 27.747,62.618 27.540 C 62.658 27.332,62.656 27.032,62.615 26.873 C 62.573 26.714,62.540 26.883,62.542 27.250 M52.016 33.176 C 52.006 36.803,52.058 38.651,52.167 38.583 C 52.380 38.451,52.395 27.891,52.182 27.759 C 52.092 27.704,52.024 29.919,52.016 33.176 M62.408 34.333 C 62.408 37.404,62.431 38.660,62.458 37.125 C 62.486 35.590,62.486 33.077,62.458 31.542 C 62.431 30.006,62.408 31.262,62.408 34.333 M61.926 41.759 C 61.863 42.094,61.845 42.401,61.886 42.441 C 61.927 42.482,62.011 42.242,62.074 41.907 C 62.137 41.573,62.155 41.266,62.114 41.225 C 62.073 41.184,61.989 41.425,61.926 41.759 M50.932 42.597 C 50.669 43.099,50.230 43.697,49.956 43.928 C 49.682 44.158,49.505 44.394,49.563 44.452 C 49.752 44.641,50.483 43.801,51.008 42.792 C 51.292 42.247,51.498 41.776,51.466 41.744 C 51.435 41.712,51.194 42.096,50.932 42.597 M61.583 42.833 C 61.527 42.925,61.541 43.001,61.615 43.003 C 61.689 43.004,61.662 43.061,61.555 43.129 C 61.448 43.197,61.308 43.478,61.245 43.752 C 61.091 44.421,61.583 43.806,61.758 43.111 C 61.870 42.666,61.777 42.520,61.583 42.833 M43.768 45.597 C 43.712 45.742,43.683 47.673,43.704 49.889 L 43.741 53.917 43.829 49.750 L 43.917 45.583 44.583 45.482 L 45.250 45.381 44.559 45.357 C 44.068 45.340,43.840 45.409,43.768 45.597 M60.087 46.374 C 59.830 46.856,59.698 47.175,59.794 47.083 C 60.042 46.847,60.696 45.640,60.618 45.563 C 60.583 45.527,60.344 45.892,60.087 46.374 M58.648 48.292 C 58.088 48.911,57.775 49.333,57.876 49.333 C 57.922 49.333,58.236 48.996,58.574 48.583 C 59.253 47.756,59.299 47.572,58.648 48.292 M336.160 52.510 C 345.039 53.951,347.080 68.576,339.175 74.113 C 338.572 74.535,336.376 75.145,335.083 75.249 C 331.200 75.562,327.720 73.544,325.963 69.960 C 324.791 67.570,324.685 67.292,324.417 65.893 C 322.831 57.602,328.402 51.252,336.160 52.510 M60.633 54.325 C 60.874 54.871,61.101 55.288,61.136 55.253 C 61.214 55.175,60.386 53.333,60.273 53.333 C 60.230 53.333,60.392 53.780,60.633 54.325 M44.208 54.119 C 44.460 54.158,44.873 54.158,45.125 54.119 C 45.377 54.081,45.171 54.050,44.667 54.050 C 44.163 54.050,43.956 54.081,44.208 54.119 M46.667 54.282 C 48.207 54.539,48.913 54.882,49.975 55.888 C 50.713 56.587,50.940 56.743,50.684 56.373 C 49.871 55.199,47.900 54.125,46.678 54.189 L 46.250 54.212 46.667 54.282 M61.184 55.583 C 61.198 55.950,61.448 56.386,61.549 56.222 C 61.608 56.127,61.548 55.907,61.417 55.733 C 61.285 55.559,61.180 55.492,61.184 55.583 M62.408 65.500 C 62.408 68.571,62.431 69.827,62.458 68.292 C 62.486 66.756,62.486 64.244,62.458 62.708 C 62.431 61.173,62.408 62.429,62.408 65.500 M52.010 66.417 C 52.025 69.552,52.101 72.000,52.185 72.000 C 52.269 72.000,52.333 69.572,52.333 66.417 C 52.333 62.637,52.277 60.833,52.159 60.833 C 52.040 60.833,51.993 62.620,52.010 66.417 M62.545 72.500 C 62.545 72.912,62.578 73.081,62.618 72.875 C 62.657 72.669,62.657 72.331,62.618 72.125 C 62.578 71.919,62.545 72.087,62.545 72.500 M52.539 74.500 C 52.539 74.821,52.573 74.952,52.615 74.792 C 52.657 74.631,52.657 74.369,52.615 74.208 C 52.573 74.048,52.539 74.179,52.539 74.500 M63.190 76.000 C 63.190 76.137,63.255 76.400,63.333 76.583 C 63.424 76.793,63.477 76.824,63.477 76.667 C 63.477 76.529,63.412 76.267,63.333 76.083 C 63.243 75.873,63.190 75.842,63.190 76.000 M65.554 80.181 C 65.958 80.798,68.452 82.338,69.035 82.331 C 69.153 82.329,68.721 82.071,68.075 81.756 C 67.429 81.442,66.534 80.862,66.086 80.467 C 65.498 79.950,65.350 79.870,65.554 80.181 M70.432 82.809 C 70.383 82.887,70.546 83.044,70.794 83.156 C 71.242 83.361,71.243 83.360,70.929 83.014 C 70.574 82.621,70.553 82.613,70.432 82.809 M56.333 83.546 C 56.333 83.571,56.910 84.152,57.615 84.838 C 58.320 85.523,58.791 85.933,58.661 85.750 C 58.175 85.064,56.333 83.320,56.333 83.546 M69.755 86.601 C 68.953 89.148,69.073 89.186,69.929 86.656 C 70.300 85.562,70.549 84.667,70.484 84.667 C 70.418 84.667,70.090 85.537,69.755 86.601 M59.000 86.063 C 59.000 86.107,59.225 86.304,59.500 86.500 C 59.775 86.696,60.000 86.792,60.000 86.714 C 60.000 86.636,59.775 86.439,59.500 86.277 C 59.225 86.114,59.000 86.018,59.000 86.063 M68.426 90.097 C 68.156 90.295,68.147 90.333,68.375 90.333 C 68.525 90.333,68.696 90.253,68.757 90.156 C 68.934 89.870,68.775 89.842,68.426 90.097 " stroke="none" fill="#c4c4c4" fill-rule="evenodd"></path><path id="path1" d="M14.167 3.245 C 12.553 3.523,10.609 4.119,10.128 4.484 C 9.920 4.642,9.450 4.907,9.083 5.073 C 7.949 5.586,4.333 8.638,4.333 9.082 C 4.333 9.108,4.040 9.568,3.681 10.106 C 3.323 10.644,2.899 11.421,2.739 11.833 C 2.579 12.246,2.350 12.699,2.230 12.840 C 2.110 12.981,1.842 13.731,1.634 14.507 L 1.256 15.917 1.208 49.331 C 1.166 79.011,1.190 82.903,1.421 84.164 C 1.731 85.856,2.135 87.167,2.347 87.167 C 2.431 87.167,2.500 87.286,2.500 87.433 C 2.500 87.951,4.033 90.501,4.761 91.195 C 5.167 91.583,5.501 91.978,5.503 92.075 C 5.506 92.273,6.354 92.993,7.583 93.842 C 8.042 94.158,8.461 94.476,8.514 94.549 C 8.854 95.008,12.879 96.500,13.779 96.500 C 13.992 96.500,14.167 96.558,14.167 96.629 C 14.167 96.701,14.473 96.730,14.848 96.694 C 15.222 96.658,15.612 96.712,15.714 96.814 C 15.963 97.063,81.333 97.081,81.333 96.833 C 81.333 96.742,81.582 96.667,81.886 96.667 C 83.898 96.667,87.082 95.606,88.978 94.305 C 91.327 92.693,91.628 92.448,92.130 91.750 C 92.393 91.383,92.847 90.858,93.138 90.584 C 93.429 90.309,93.667 90.024,93.667 89.950 C 93.667 89.876,93.854 89.539,94.084 89.202 C 94.313 88.864,94.701 88.062,94.945 87.419 C 95.188 86.776,95.480 86.100,95.592 85.917 C 96.244 84.849,96.250 84.529,96.250 50.000 C 96.250 14.886,96.261 15.429,95.507 13.760 C 95.339 13.388,94.998 12.598,94.749 12.004 C 94.319 10.975,93.668 9.909,92.924 9.014 C 92.087 8.006,91.279 7.167,91.146 7.167 C 91.066 7.167,90.696 6.871,90.324 6.510 C 89.952 6.149,89.317 5.694,88.912 5.498 C 88.507 5.302,87.923 4.970,87.613 4.759 C 87.063 4.386,85.252 3.735,83.583 3.312 C 82.346 2.997,15.978 2.934,14.167 3.245 M78.413 8.170 C 84.767 8.788,89.996 13.669,90.598 19.546 C 90.661 20.162,90.777 20.667,90.856 20.667 C 90.936 20.667,91.000 34.166,91.000 51.083 C 91.000 71.250,90.944 81.500,90.833 81.500 C 90.742 81.500,90.666 81.856,90.665 82.292 C 90.662 83.341,90.314 84.600,89.728 85.681 C 89.262 86.541,86.779 89.333,86.480 89.333 C 86.398 89.333,86.113 89.540,85.847 89.792 C 85.105 90.495,82.826 91.531,81.324 91.848 C 80.825 91.953,80.311 92.124,80.183 92.228 C 79.838 92.506,17.215 92.498,16.650 92.220 C 16.430 92.111,15.650 91.856,14.917 91.653 C 13.658 91.303,11.649 90.398,11.528 90.125 C 11.497 90.056,11.370 90.000,11.244 90.000 C 11.119 90.000,10.957 89.898,10.883 89.773 C 10.810 89.647,10.271 89.130,9.687 88.622 C 8.531 87.619,7.247 85.690,7.061 84.677 C 7.001 84.351,6.889 84.042,6.813 83.992 C 6.107 83.531,6.103 19.486,6.809 18.607 C 6.893 18.502,7.012 18.154,7.074 17.833 C 7.251 16.913,8.916 13.333,9.167 13.333 C 9.238 13.333,9.725 12.808,10.250 12.167 C 10.775 11.525,11.271 11.000,11.352 11.000 C 11.433 11.000,11.856 10.745,12.291 10.434 C 12.727 10.123,13.346 9.745,13.667 9.594 C 13.987 9.444,14.512 9.178,14.833 9.003 C 15.534 8.623,16.807 8.333,18.500 8.168 C 20.436 7.980,76.477 7.982,78.413 8.170 M66.750 10.263 C 66.108 10.481,65.283 10.803,64.917 10.977 C 64.550 11.152,63.817 11.429,63.289 11.592 C 62.760 11.756,62.245 11.989,62.143 12.111 C 62.042 12.233,61.874 12.333,61.769 12.333 C 61.419 12.333,59.306 13.856,59.382 14.054 C 59.424 14.164,59.299 14.260,59.099 14.272 C 58.708 14.295,56.500 16.437,56.500 16.792 C 56.500 16.910,56.253 17.248,55.951 17.545 C 55.649 17.841,55.302 18.327,55.181 18.625 C 55.059 18.923,54.894 19.167,54.813 19.167 C 54.733 19.167,54.667 19.282,54.667 19.423 C 54.667 19.563,54.561 19.845,54.432 20.048 C 54.303 20.251,54.031 20.942,53.827 21.583 C 53.623 22.225,53.376 22.970,53.278 23.240 C 52.808 24.535,52.651 26.693,52.525 33.583 L 52.404 40.250 51.910 41.599 C 51.639 42.341,51.164 43.251,50.855 43.621 C 50.546 43.992,50.246 44.363,50.188 44.447 C 49.718 45.126,47.946 45.683,45.833 45.817 L 44.250 45.917 44.167 46.833 C 44.121 47.337,44.121 49.063,44.167 50.667 L 44.250 53.583 45.833 53.804 C 46.704 53.925,47.645 54.057,47.924 54.097 C 49.211 54.280,51.757 56.652,51.602 57.524 C 51.592 57.583,51.702 57.771,51.847 57.941 C 52.361 58.542,52.500 60.305,52.500 66.200 C 52.500 74.597,53.299 78.657,55.504 81.459 C 55.692 81.698,55.808 81.993,55.761 82.114 C 55.715 82.234,55.785 82.333,55.916 82.333 C 56.047 82.333,56.229 82.471,56.319 82.640 C 56.473 82.928,57.213 83.816,57.700 84.298 C 58.526 85.116,59.798 86.182,60.042 86.261 C 60.202 86.313,60.333 86.426,60.333 86.511 C 60.333 86.597,60.480 86.667,60.660 86.667 C 60.840 86.667,61.121 86.800,61.285 86.963 C 61.719 87.394,63.901 88.429,65.251 88.844 C 65.892 89.040,66.492 89.261,66.583 89.334 C 66.675 89.407,67.125 89.493,67.583 89.525 L 68.417 89.583 68.833 88.333 C 69.063 87.645,69.293 87.008,69.345 86.916 C 69.397 86.825,69.612 86.188,69.823 85.500 C 70.034 84.813,70.286 84.080,70.383 83.872 C 70.603 83.400,70.513 83.320,69.250 82.853 C 67.139 82.073,65.364 80.757,64.287 79.174 C 64.004 78.758,63.707 78.372,63.627 78.318 C 63.548 78.264,63.505 78.147,63.533 78.059 C 63.561 77.971,63.460 77.640,63.310 77.324 C 62.929 76.523,62.667 75.634,62.667 75.147 C 62.667 74.919,62.600 74.662,62.518 74.575 C 62.231 74.271,62.002 70.041,61.989 64.833 C 61.975 59.043,61.708 57.178,60.577 54.963 C 60.330 54.479,60.011 53.858,59.869 53.583 C 59.555 52.975,59.112 52.429,57.728 50.943 C 56.495 49.619,56.499 49.632,57.208 49.188 C 57.506 49.002,57.900 48.621,58.083 48.342 C 58.267 48.063,58.510 47.834,58.625 47.834 C 58.740 47.834,58.833 47.724,58.833 47.590 C 58.833 47.456,58.985 47.205,59.171 47.032 C 59.851 46.399,60.860 44.136,60.542 43.958 C 60.473 43.919,60.501 43.907,60.604 43.931 C 60.868 43.991,61.580 42.338,61.481 41.894 C 61.463 41.815,61.566 41.487,61.709 41.167 C 61.927 40.678,61.972 39.667,61.986 34.917 C 62.001 29.971,62.153 26.321,62.379 25.500 C 62.417 25.363,62.501 25.025,62.566 24.750 C 62.816 23.684,63.052 22.896,63.272 22.391 C 63.397 22.103,63.500 21.812,63.500 21.747 C 63.500 21.528,64.648 19.733,65.159 19.154 C 65.435 18.840,65.663 18.523,65.664 18.448 C 65.665 18.374,65.733 18.355,65.814 18.405 C 65.896 18.455,66.053 18.387,66.164 18.253 C 66.527 17.816,69.558 16.500,70.202 16.500 C 70.529 16.500,70.633 15.769,70.333 15.583 C 70.242 15.527,70.167 15.302,70.167 15.083 C 70.167 14.865,70.092 14.640,70.000 14.583 C 69.908 14.527,69.833 14.260,69.833 13.990 C 69.833 13.721,69.758 13.500,69.667 13.500 C 69.575 13.500,69.500 13.317,69.500 13.093 C 69.500 12.869,69.425 12.640,69.333 12.583 C 69.242 12.527,69.167 12.314,69.167 12.111 C 69.167 11.907,69.065 11.593,68.942 11.412 C 68.818 11.231,68.662 10.859,68.595 10.585 C 68.486 10.137,68.225 9.815,68.000 9.852 C 67.954 9.860,67.392 10.044,66.750 10.263 M26.959 44.792 C 26.936 60.810,26.940 74.198,26.968 74.542 L 27.020 75.167 31.580 75.167 C 34.088 75.167,36.258 75.121,36.403 75.066 C 36.642 74.974,36.667 72.198,36.667 45.316 L 36.667 15.667 31.834 15.667 L 27.002 15.667 26.959 44.792 M106.167 19.351 C 105.315 19.719,104.581 20.083,104.500 20.177 C 104.454 20.231,104.275 20.327,104.101 20.391 C 103.928 20.455,103.822 20.544,103.866 20.588 C 103.910 20.633,103.659 20.981,103.307 21.362 C 102.955 21.743,102.667 22.113,102.667 22.184 C 102.667 22.254,102.579 22.523,102.472 22.781 C 102.365 23.039,102.270 23.363,102.261 23.500 C 102.252 23.637,102.199 23.825,102.142 23.917 C 102.051 24.065,102.073 25.956,102.168 26.167 C 102.189 26.212,102.197 26.306,102.186 26.375 C 102.176 26.444,102.242 26.500,102.333 26.500 C 102.425 26.500,102.500 26.615,102.500 26.757 C 102.500 27.944,104.629 29.910,106.333 30.296 C 107.333 30.523,110.333 30.391,110.333 30.120 C 110.333 30.043,110.408 30.027,110.500 30.083 C 110.592 30.140,110.668 30.126,110.669 30.052 C 110.670 29.977,110.968 29.774,111.332 29.600 C 112.052 29.255,113.055 28.262,113.361 27.590 C 113.467 27.357,113.629 27.167,113.721 27.167 C 113.813 27.167,113.840 27.117,113.779 27.057 C 113.719 26.997,113.763 26.835,113.876 26.698 C 114.010 26.538,114.077 25.938,114.065 25.016 C 114.041 23.171,114.011 22.995,113.642 22.519 C 113.472 22.301,113.333 22.030,113.333 21.918 C 113.333 20.323,108.183 18.478,106.167 19.351 M155.250 19.433 C 154.792 19.578,154.285 19.814,154.125 19.958 C 153.965 20.101,153.833 20.158,153.833 20.085 C 153.833 20.011,153.639 20.169,153.402 20.434 C 153.165 20.699,152.780 21.127,152.547 21.383 C 151.096 22.980,150.986 26.397,152.333 28.053 C 153.055 28.940,154.139 29.833,154.493 29.833 C 154.589 29.833,154.667 29.921,154.667 30.028 C 154.667 30.135,154.710 30.179,154.764 30.125 C 154.817 30.072,155.110 30.133,155.416 30.260 C 156.297 30.628,159.197 30.505,159.683 30.079 C 159.889 29.898,160.002 29.845,159.934 29.960 C 159.867 30.076,160.173 29.929,160.614 29.634 C 161.056 29.338,161.442 29.038,161.472 28.965 C 161.503 28.893,161.621 28.833,161.736 28.833 C 161.850 28.833,162.044 28.646,162.167 28.417 C 162.289 28.188,162.452 28.000,162.528 28.000 C 162.604 28.000,162.667 27.906,162.668 27.792 C 162.668 27.677,162.798 27.358,162.956 27.083 C 163.181 26.693,163.244 26.183,163.244 24.750 C 163.244 22.795,163.134 22.422,162.266 21.417 C 162.028 21.142,161.834 20.856,161.834 20.782 C 161.833 20.708,161.758 20.694,161.665 20.751 C 161.573 20.808,161.451 20.734,161.395 20.586 C 160.989 19.530,157.192 18.817,155.250 19.433 M250.490 19.232 C 250.438 19.284,250.251 19.352,250.073 19.384 C 248.932 19.588,245.530 22.500,246.433 22.500 C 246.492 22.500,246.453 22.606,246.345 22.736 C 246.046 23.096,245.934 25.131,246.155 26.194 C 246.343 27.100,247.446 29.053,247.686 28.905 C 247.746 28.867,247.892 28.954,248.011 29.096 C 248.129 29.239,248.456 29.473,248.738 29.618 C 249.020 29.762,249.293 29.946,249.346 30.027 C 249.585 30.396,253.212 30.585,253.917 30.265 C 254.100 30.182,254.306 30.126,254.375 30.140 C 254.444 30.155,254.500 30.092,254.500 30.000 C 254.500 29.908,254.594 29.833,254.708 29.833 C 256.125 29.828,258.000 26.985,258.000 24.842 C 258.000 23.097,256.533 20.297,255.500 20.072 C 255.454 20.062,255.042 19.874,254.583 19.655 C 253.782 19.272,250.761 18.960,250.490 19.232 M134.500 26.773 C 133.996 26.904,133.397 27.050,133.170 27.099 C 132.943 27.147,132.718 27.242,132.670 27.309 C 132.622 27.376,131.796 27.642,130.833 27.899 C 129.871 28.157,128.390 28.557,127.542 28.790 L 126.000 29.212 126.000 34.273 L 126.000 39.333 122.417 39.333 L 118.833 39.333 118.833 43.250 L 118.833 47.167 122.410 47.167 L 125.987 47.167 126.039 60.958 C 126.096 75.856,126.147 76.671,127.092 77.616 C 127.227 77.750,127.294 77.929,127.242 78.013 C 127.190 78.098,127.208 78.167,127.283 78.167 C 127.358 78.167,127.524 78.405,127.653 78.697 C 128.311 80.184,130.574 82.049,132.458 82.658 C 132.848 82.784,133.167 82.954,133.167 83.037 C 133.167 83.120,133.298 83.170,133.458 83.149 C 133.619 83.127,134.087 83.214,134.500 83.342 C 136.267 83.890,143.224 83.597,144.750 82.910 C 145.025 82.787,145.494 82.588,145.792 82.469 L 146.333 82.252 146.333 78.293 C 146.333 76.115,146.268 74.333,146.188 74.333 C 146.108 74.333,145.714 74.515,145.313 74.736 C 142.416 76.336,137.742 75.499,136.999 73.247 C 136.894 72.928,136.757 72.667,136.695 72.667 C 136.166 72.667,136.106 71.434,136.046 59.292 L 135.986 47.167 141.160 47.167 L 146.333 47.167 146.333 43.250 L 146.333 39.333 141.167 39.333 L 136.000 39.333 136.000 32.917 C 136.000 25.645,136.170 26.342,134.500 26.773 M193.819 38.230 C 193.781 38.265,193.412 38.336,193.000 38.387 C 192.268 38.477,191.422 38.711,190.750 39.008 C 190.567 39.089,189.967 39.358,189.417 39.605 C 188.867 39.852,188.379 40.063,188.333 40.073 C 188.093 40.130,186.703 41.151,186.260 41.597 C 185.980 41.880,185.623 42.157,185.468 42.213 C 185.313 42.269,185.051 42.526,184.886 42.783 C 184.721 43.040,184.411 43.438,184.198 43.667 C 183.984 43.896,183.571 44.421,183.279 44.833 L 182.750 45.583 182.705 42.456 L 182.659 39.328 177.621 39.373 L 172.583 39.417 172.583 60.917 L 172.583 82.417 177.618 82.461 L 182.653 82.505 182.710 69.377 C 182.741 62.157,182.823 56.025,182.893 55.750 C 183.031 55.204,183.323 53.934,183.425 53.436 C 183.546 52.844,184.053 51.583,184.238 51.417 C 184.339 51.325,184.608 50.885,184.836 50.439 C 185.830 48.492,188.487 46.488,190.125 46.449 C 190.240 46.447,190.333 46.397,190.333 46.340 C 190.333 46.075,193.794 46.378,194.386 46.695 C 194.552 46.784,194.838 46.885,195.020 46.921 C 197.158 47.332,199.728 51.855,199.729 55.208 C 199.729 55.552,199.788 55.833,199.861 55.833 C 199.933 55.833,199.981 56.190,199.968 56.625 C 199.954 57.060,199.956 63.060,199.972 69.958 L 200.000 82.500 205.042 82.500 L 210.083 82.500 210.084 69.792 C 210.084 58.185,210.110 56.960,210.385 55.667 C 210.751 53.938,211.187 52.500,211.344 52.500 C 211.440 52.500,211.594 52.108,211.672 51.667 C 211.680 51.621,211.833 51.428,212.012 51.238 C 212.190 51.048,212.304 50.859,212.264 50.820 C 212.133 50.688,213.593 48.868,214.441 48.104 C 216.111 46.604,218.498 45.959,220.750 46.400 C 221.025 46.454,221.446 46.536,221.685 46.582 C 222.170 46.674,223.704 47.321,223.833 47.488 C 223.879 47.547,224.142 47.768,224.417 47.979 C 224.692 48.191,224.917 48.418,224.917 48.485 C 224.917 48.552,225.040 48.730,225.191 48.881 C 225.541 49.231,226.159 50.505,226.267 51.096 C 226.312 51.347,226.415 51.674,226.495 51.823 C 226.574 51.972,226.685 52.395,226.739 52.762 C 226.794 53.130,226.876 53.615,226.922 53.840 C 226.968 54.066,227.016 54.494,227.030 54.792 C 227.043 55.090,227.112 55.333,227.183 55.333 C 227.254 55.333,227.305 55.802,227.296 56.375 C 227.288 56.948,227.293 63.062,227.307 69.961 L 227.333 82.505 232.375 82.461 L 237.417 82.417 237.417 68.417 C 237.417 55.705,237.345 51.791,237.088 50.458 C 237.040 50.206,236.971 49.831,236.935 49.625 C 236.899 49.419,236.773 48.913,236.655 48.500 C 236.537 48.087,236.432 47.712,236.422 47.667 C 236.367 47.417,235.599 45.478,235.299 44.833 C 234.690 43.525,232.324 40.667,231.850 40.667 C 231.749 40.667,231.667 40.607,231.667 40.534 C 231.667 40.392,229.198 39.092,228.917 39.086 C 228.825 39.084,228.563 38.976,228.333 38.846 C 228.104 38.716,227.898 38.623,227.875 38.639 C 227.852 38.654,227.815 38.661,227.792 38.654 C 227.769 38.647,227.637 38.616,227.500 38.586 C 224.410 37.907,219.784 38.056,217.764 38.900 C 217.450 39.031,217.150 39.095,217.097 39.041 C 217.044 38.988,217.000 39.032,217.000 39.139 C 217.000 39.246,216.915 39.333,216.812 39.333 C 216.468 39.333,214.204 40.510,213.766 40.917 C 213.528 41.137,213.333 41.281,213.333 41.236 C 213.333 41.192,212.808 41.675,212.167 42.310 C 211.525 42.946,211.000 43.427,211.000 43.380 C 211.000 43.334,210.685 43.773,210.299 44.356 C 209.914 44.939,209.542 45.457,209.473 45.505 C 209.404 45.554,209.244 45.842,209.116 46.144 C 208.869 46.733,208.333 46.540,208.333 45.862 C 208.333 45.543,207.536 43.970,207.296 43.815 C 207.209 43.759,207.151 43.658,207.168 43.592 C 207.204 43.442,205.833 41.987,204.753 41.030 C 203.691 40.090,200.911 38.744,199.364 38.421 C 198.286 38.196,194.017 38.049,193.819 38.230 M103.000 60.917 L 103.000 82.500 108.000 82.500 L 113.000 82.500 113.000 60.917 L 113.000 39.333 108.000 39.333 L 103.000 39.333 103.000 60.917 M152.333 60.917 L 152.333 82.500 157.333 82.500 L 162.333 82.500 162.333 60.917 L 162.333 39.333 157.333 39.333 L 152.333 39.333 152.333 60.917 M246.833 60.917 L 246.833 82.505 251.875 82.461 L 256.917 82.417 256.917 60.917 L 256.917 39.417 251.875 39.373 L 246.833 39.328 246.833 60.917 " stroke="none" fill="#1ca3f3" fill-rule="evenodd"></path><path id="path2" d="M67.167 9.923 C 66.754 10.057,66.004 10.295,65.500 10.452 C 64.996 10.609,64.539 10.800,64.485 10.877 C 64.431 10.954,64.238 11.028,64.056 11.042 C 63.874 11.055,63.635 11.162,63.526 11.280 C 63.254 11.571,64.262 11.389,64.807 11.049 C 65.396 10.682,68.004 9.845,68.258 9.943 C 68.380 9.990,68.531 10.265,68.594 10.556 C 68.658 10.846,68.812 11.231,68.938 11.412 C 69.064 11.593,69.167 11.907,69.167 12.111 C 69.167 12.314,69.242 12.527,69.333 12.583 C 69.425 12.640,69.500 12.869,69.500 13.093 C 69.500 13.317,69.575 13.500,69.667 13.500 C 69.758 13.500,69.833 13.721,69.833 13.990 C 69.833 14.260,69.908 14.527,70.000 14.583 C 70.092 14.640,70.167 14.865,70.167 15.083 C 70.167 15.302,70.242 15.527,70.333 15.583 C 70.425 15.640,70.506 15.888,70.513 16.135 C 70.520 16.382,70.567 16.480,70.618 16.354 C 70.697 16.154,70.223 14.397,69.825 13.417 C 69.751 13.233,69.603 12.783,69.497 12.417 C 68.764 9.880,68.422 9.514,67.167 9.923 M62.806 11.457 C 62.775 11.527,62.186 11.869,61.496 12.219 C 59.305 13.329,56.559 15.942,55.156 18.250 C 54.486 19.352,54.180 20.115,54.482 19.928 C 54.584 19.865,54.667 19.668,54.667 19.490 C 54.667 19.312,54.733 19.167,54.813 19.167 C 54.894 19.167,55.059 18.923,55.181 18.625 C 55.302 18.327,55.649 17.841,55.951 17.545 C 56.253 17.248,56.500 16.910,56.500 16.792 C 56.500 16.505,58.597 14.378,59.009 14.247 C 59.187 14.191,59.333 14.077,59.333 13.995 C 59.333 13.836,61.064 12.614,61.701 12.323 C 62.726 11.855,63.202 11.542,63.040 11.441 C 62.942 11.381,62.837 11.388,62.806 11.457 M26.814 16.039 C 26.726 18.587,26.884 75.113,26.980 75.211 C 27.049 75.281,29.275 75.319,31.928 75.294 L 36.750 75.250 36.750 45.417 L 36.750 15.583 31.792 15.539 L 26.833 15.495 26.814 16.039 M36.667 45.316 C 36.667 72.198,36.642 74.974,36.403 75.066 C 36.258 75.121,34.088 75.167,31.580 75.167 L 27.020 75.167 26.968 74.542 C 26.940 74.198,26.936 60.810,26.959 44.792 L 27.002 15.667 31.834 15.667 L 36.667 15.667 36.667 45.316 M69.000 16.821 C 66.467 17.805,65.227 18.766,64.117 20.605 C 63.778 21.167,63.500 21.681,63.500 21.747 C 63.500 21.812,63.397 22.103,63.272 22.391 C 63.052 22.896,62.816 23.684,62.566 24.750 C 62.501 25.025,62.417 25.363,62.379 25.500 C 62.100 26.513,61.794 39.210,62.027 40.083 C 62.051 40.175,62.118 37.587,62.176 34.333 C 62.314 26.534,62.496 24.712,63.336 22.750 C 63.415 22.567,63.527 22.247,63.585 22.039 C 63.643 21.832,63.751 21.699,63.825 21.745 C 63.899 21.791,64.002 21.623,64.053 21.372 C 64.362 19.873,66.502 18.004,69.000 17.051 C 69.779 16.754,70.267 16.515,70.083 16.520 C 69.900 16.525,69.412 16.660,69.000 16.821 M53.535 21.786 C 53.198 22.670,52.967 23.523,53.044 23.600 C 53.122 23.677,53.272 23.313,53.659 22.113 C 53.898 21.370,53.796 21.102,53.535 21.786 M52.539 26.199 C 52.412 27.195,52.333 29.961,52.333 33.417 C 52.333 36.498,52.274 38.983,52.201 38.938 C 52.129 38.893,52.099 39.112,52.136 39.424 C 52.223 40.174,51.639 42.053,51.011 43.042 C 50.734 43.477,50.562 43.829,50.629 43.824 C 50.913 43.802,51.480 42.823,51.926 41.583 L 52.405 40.250 52.525 33.583 C 52.591 29.917,52.694 26.572,52.754 26.150 C 52.814 25.728,52.836 25.203,52.804 24.983 C 52.771 24.763,52.652 25.310,52.539 26.199 M61.764 41.035 C 61.702 41.245,61.541 41.829,61.406 42.333 C 61.271 42.837,61.055 43.475,60.925 43.750 C 60.796 44.025,60.459 44.753,60.176 45.368 C 59.894 45.984,59.476 46.688,59.248 46.934 C 59.020 47.181,58.833 47.484,58.833 47.608 C 58.833 47.732,58.740 47.834,58.625 47.834 C 58.510 47.834,58.267 48.063,58.083 48.342 C 57.900 48.621,57.506 49.002,57.208 49.188 C 56.499 49.632,56.495 49.619,57.728 50.943 C 59.112 52.429,59.555 52.975,59.869 53.583 C 60.011 53.858,60.330 54.479,60.577 54.963 C 61.708 57.178,61.975 59.043,61.989 64.833 C 62.002 70.041,62.231 74.271,62.518 74.575 C 62.600 74.662,62.667 74.919,62.667 75.147 C 62.667 77.961,65.737 81.555,69.250 82.853 C 70.513 83.320,70.603 83.400,70.383 83.872 C 70.286 84.080,70.034 84.813,69.823 85.500 C 69.612 86.188,69.397 86.825,69.345 86.916 C 69.293 87.008,69.063 87.645,68.833 88.333 L 68.417 89.583 67.583 89.546 L 66.750 89.509 67.500 89.723 C 68.499 90.009,68.470 90.050,69.585 86.833 C 70.835 83.229,70.836 83.204,69.667 82.810 C 67.693 82.145,65.041 80.401,65.235 79.895 C 65.287 79.759,65.257 79.694,65.167 79.750 C 65.078 79.805,64.858 79.602,64.679 79.300 C 64.500 78.997,64.270 78.655,64.168 78.540 C 64.066 78.424,64.020 78.269,64.065 78.196 C 64.111 78.123,63.976 77.863,63.766 77.619 C 63.557 77.375,63.258 76.667,63.103 76.046 C 62.948 75.425,62.748 74.685,62.659 74.402 C 62.375 73.496,62.278 71.550,62.219 65.583 C 62.150 58.712,62.008 57.698,60.702 54.750 C 60.152 53.511,58.574 51.321,57.674 50.551 C 57.049 50.016,56.793 49.500,57.153 49.500 C 57.300 49.500,57.723 49.083,58.843 47.833 C 59.446 47.160,60.833 44.863,60.833 44.537 C 60.833 44.416,60.943 44.105,61.077 43.846 C 61.359 43.301,62.046 40.824,61.944 40.722 C 61.907 40.684,61.825 40.825,61.764 41.035 M50.039 44.333 C 49.924 44.517,49.716 44.667,49.576 44.667 C 49.436 44.667,49.134 44.790,48.904 44.940 C 48.286 45.345,46.744 45.661,45.371 45.664 C 43.806 45.667,43.833 45.592,43.833 49.914 C 43.833 53.914,43.816 53.840,44.726 53.811 L 45.417 53.789 44.833 53.686 L 44.250 53.583 44.167 50.667 C 44.121 49.063,44.121 47.337,44.167 46.833 L 44.250 45.917 45.833 45.815 C 47.710 45.694,48.143 45.596,49.265 45.043 C 50.010 44.675,50.729 44.000,50.375 44.000 C 50.304 44.000,50.153 44.150,50.039 44.333 M45.667 54.000 C 45.804 54.089,46.142 54.157,46.417 54.152 C 46.846 54.145,46.870 54.123,46.583 54.000 C 46.093 53.789,45.341 53.789,45.667 54.000 M48.185 54.392 C 49.735 55.030,50.679 55.857,51.265 57.091 C 51.415 57.408,51.596 57.667,51.668 57.667 C 51.859 57.667,51.295 56.626,50.736 55.948 C 49.960 55.007,48.299 53.994,47.547 54.004 C 47.384 54.006,47.671 54.181,48.185 54.392 M51.972 58.708 C 52.174 59.401,52.247 60.947,52.322 66.111 C 52.374 69.702,52.454 72.677,52.500 72.723 C 52.546 72.768,52.568 70.131,52.549 66.861 C 52.514 60.966,52.326 58.340,51.914 57.998 C 51.778 57.885,51.796 58.109,51.972 58.708 M52.606 73.750 C 52.756 75.012,53.334 77.361,53.610 77.832 C 53.763 78.095,53.812 78.126,53.740 77.917 C 53.473 77.136,52.832 74.416,52.822 74.017 C 52.815 73.779,52.742 73.433,52.658 73.250 C 52.556 73.025,52.539 73.187,52.606 73.750 M53.927 78.833 C 53.988 79.063,54.049 79.325,54.061 79.417 C 54.073 79.508,54.128 79.621,54.183 79.667 C 54.237 79.712,54.570 80.294,54.921 80.958 C 55.273 81.623,55.622 82.167,55.697 82.167 C 55.930 82.167,55.848 81.897,55.468 81.413 C 55.266 81.158,54.813 80.379,54.459 79.683 C 54.106 78.986,53.866 78.604,53.927 78.833 M55.875 82.513 C 56.035 82.607,56.167 82.739,56.167 82.806 C 56.167 83.284,59.378 86.148,60.917 87.043 C 61.558 87.416,62.121 87.769,62.167 87.827 C 62.291 87.985,64.042 88.680,64.119 88.603 C 64.156 88.566,63.600 88.249,62.885 87.898 C 62.169 87.547,61.449 87.126,61.285 86.963 C 61.121 86.800,60.840 86.667,60.660 86.667 C 60.480 86.667,60.333 86.597,60.333 86.511 C 60.333 86.426,60.202 86.313,60.042 86.261 C 59.798 86.182,58.526 85.116,57.700 84.298 C 57.213 83.816,56.473 82.928,56.319 82.640 C 56.229 82.471,56.026 82.336,55.869 82.338 C 55.603 82.343,55.603 82.355,55.875 82.513 M65.404 89.095 C 66.039 89.316,66.593 89.462,66.636 89.419 C 66.679 89.376,66.610 89.303,66.482 89.257 C 65.357 88.847,64.750 88.669,64.521 88.679 C 64.372 88.686,64.769 88.873,65.404 89.095 " stroke="none" fill="#369cdb" fill-rule="evenodd"></path><path id="path3" d="M67.583 9.678 C 67.327 9.797,67.373 9.811,67.781 9.739 C 68.363 9.636,68.702 9.973,68.924 10.877 C 68.986 11.130,69.101 11.376,69.179 11.424 C 69.449 11.591,68.840 9.917,68.555 9.709 C 68.226 9.468,68.048 9.463,67.583 9.678 M64.970 10.437 C 63.492 10.932,62.210 11.675,63.346 11.378 C 63.522 11.332,63.667 11.244,63.667 11.183 C 63.667 11.121,63.829 11.059,64.027 11.044 C 64.225 11.029,64.431 10.954,64.485 10.877 C 64.539 10.800,65.033 10.599,65.583 10.430 C 66.916 10.021,67.313 9.858,67.000 9.848 C 66.862 9.844,65.949 10.109,64.970 10.437 M60.430 12.589 C 60.163 12.729,59.728 13.068,59.465 13.344 C 59.202 13.619,58.903 13.793,58.801 13.730 C 58.688 13.660,58.662 13.691,58.734 13.808 C 58.799 13.913,58.786 14.000,58.705 14.000 C 58.272 14.000,55.555 17.057,54.963 18.211 C 54.764 18.599,54.467 19.104,54.304 19.333 C 53.928 19.860,52.996 22.436,53.013 22.901 C 53.023 23.170,53.065 23.135,53.195 22.750 C 53.969 20.463,55.192 17.966,56.090 16.841 C 57.020 15.677,59.793 13.132,60.598 12.703 C 60.819 12.585,61.000 12.454,61.000 12.411 C 61.000 12.299,60.968 12.309,60.430 12.589 M70.428 15.250 C 70.502 15.433,70.568 15.827,70.573 16.125 C 70.580 16.460,70.668 16.667,70.805 16.667 C 71.082 16.667,70.911 15.744,70.542 15.250 L 70.292 14.917 70.428 15.250 M31.667 15.333 L 26.583 15.417 26.541 45.375 C 26.503 72.438,26.524 75.333,26.759 75.333 C 26.903 75.333,26.983 75.274,26.938 75.202 C 26.872 75.094,26.752 17.839,26.814 16.039 L 26.833 15.495 31.792 15.539 L 36.750 15.583 36.792 45.316 C 36.823 67.153,36.784 75.108,36.647 75.274 C 36.520 75.427,36.516 75.500,36.636 75.500 C 36.734 75.500,36.856 75.432,36.908 75.348 C 37.056 75.107,37.033 15.462,36.884 15.351 C 36.810 15.295,34.462 15.287,31.667 15.333 M68.667 17.175 C 67.182 17.765,65.784 18.702,65.194 19.504 C 64.818 20.014,65.841 19.214,66.496 18.486 C 66.732 18.223,68.201 17.495,69.167 17.163 C 70.323 16.765,70.529 16.663,70.153 16.673 C 70.023 16.676,69.354 16.903,68.667 17.175 M64.332 20.708 C 64.150 21.006,64.001 21.319,64.001 21.403 C 64.000 21.593,64.023 21.562,64.464 20.792 C 64.903 20.026,64.790 19.956,64.332 20.708 M63.597 21.941 C 63.456 22.310,63.574 22.396,63.818 22.102 C 63.936 21.960,63.953 21.824,63.859 21.766 C 63.772 21.712,63.654 21.791,63.597 21.941 M52.750 24.000 C 52.687 24.288,52.670 24.559,52.712 24.601 C 52.755 24.643,52.837 24.439,52.896 24.146 C 53.035 23.451,52.900 23.316,52.750 24.000 M62.422 26.589 C 62.357 27.196,62.339 27.728,62.382 27.771 C 62.425 27.813,62.513 27.352,62.578 26.744 C 62.643 26.137,62.661 25.605,62.618 25.563 C 62.575 25.520,62.487 25.982,62.422 26.589 M62.305 28.181 C 62.289 28.219,62.228 31.100,62.169 34.583 C 62.103 38.515,61.992 41.106,61.878 41.417 C 61.606 42.158,61.453 42.936,61.611 42.778 C 62.073 42.316,62.211 40.706,62.312 34.583 C 62.406 28.907,62.405 27.937,62.305 28.181 M52.124 38.625 C 52.089 38.694,52.040 39.050,52.015 39.417 C 51.990 39.783,51.902 40.165,51.819 40.265 C 51.737 40.365,51.704 40.481,51.745 40.523 C 51.867 40.645,51.362 42.174,50.992 42.800 C 50.806 43.117,50.682 43.404,50.716 43.439 C 50.842 43.564,51.643 41.896,51.887 41.000 C 52.259 39.638,52.418 38.039,52.124 38.625 M60.917 44.167 C 60.854 44.364,60.840 44.563,60.886 44.608 C 60.932 44.654,61.021 44.530,61.083 44.333 C 61.146 44.136,61.160 43.937,61.114 43.892 C 61.068 43.846,60.979 43.970,60.917 44.167 M49.910 44.345 C 49.849 44.443,49.695 44.482,49.566 44.433 C 49.438 44.384,49.333 44.416,49.333 44.505 C 49.333 44.754,49.768 44.696,50.000 44.417 C 50.114 44.279,50.165 44.167,50.114 44.167 C 50.062 44.167,49.970 44.247,49.910 44.345 M48.833 44.836 C 48.348 45.155,47.253 45.364,45.697 45.435 C 43.918 45.516,43.829 45.546,43.844 46.052 L 43.854 46.417 43.997 46.065 C 44.124 45.750,44.312 45.703,45.778 45.620 C 47.512 45.521,48.391 45.327,48.924 44.924 C 49.289 44.648,49.221 44.582,48.833 44.836 M60.111 45.989 C 59.759 46.608,59.213 47.407,58.896 47.765 C 57.785 49.022,57.305 49.500,57.153 49.500 C 56.814 49.500,57.034 49.995,57.589 50.483 C 58.389 51.185,58.504 51.136,57.788 50.399 L 57.204 49.798 58.249 48.732 C 58.824 48.146,59.247 47.664,59.189 47.661 C 59.131 47.658,59.199 47.565,59.341 47.453 C 59.616 47.237,60.903 45.013,60.807 44.920 C 60.776 44.890,60.462 45.371,60.111 45.989 M58.500 51.269 C 58.500 51.386,60.188 53.667,60.274 53.667 C 60.454 53.667,59.546 52.250,59.042 51.743 C 58.744 51.445,58.500 51.231,58.500 51.269 M43.778 53.736 C 43.693 53.958,43.815 53.996,44.547 53.972 C 45.331 53.947,45.351 53.937,44.752 53.876 C 44.387 53.839,44.041 53.733,43.984 53.640 C 43.923 53.542,43.837 53.583,43.778 53.736 M60.345 53.917 C 60.345 54.008,60.452 54.271,60.583 54.500 C 60.714 54.729,60.822 54.842,60.822 54.750 C 60.822 54.658,60.714 54.396,60.583 54.167 C 60.452 53.938,60.345 53.825,60.345 53.917 M47.083 54.167 C 47.267 54.245,47.529 54.310,47.667 54.310 C 47.824 54.310,47.793 54.257,47.583 54.167 C 47.400 54.088,47.137 54.023,47.000 54.023 C 46.842 54.023,46.873 54.076,47.083 54.167 M49.719 55.344 C 50.069 55.641,50.538 56.152,50.761 56.480 C 50.984 56.809,51.167 57.002,51.167 56.910 C 51.167 56.639,50.197 55.542,49.618 55.159 C 49.174 54.865,49.191 54.896,49.719 55.344 M61.431 56.310 C 61.375 56.401,61.403 56.649,61.493 56.863 C 61.583 57.076,61.766 57.801,61.900 58.474 C 62.033 59.147,62.191 59.747,62.251 59.807 C 62.311 59.867,62.320 59.729,62.270 59.500 C 62.220 59.271,62.056 58.446,61.905 57.667 C 61.609 56.132,61.584 56.062,61.431 56.310 M51.430 57.757 C 51.566 58.082,51.633 58.420,51.579 58.507 C 51.525 58.595,51.560 58.667,51.657 58.667 C 51.754 58.667,51.833 58.854,51.833 59.083 C 51.833 59.313,51.900 59.500,51.982 59.500 C 52.173 59.500,51.906 58.291,51.574 57.649 C 51.226 56.976,51.133 57.046,51.430 57.757 M51.965 60.169 C 52.005 60.445,52.117 60.719,52.212 60.778 C 52.324 60.847,52.348 60.743,52.279 60.484 C 52.220 60.264,52.170 59.990,52.169 59.875 C 52.168 59.760,52.105 59.667,52.029 59.667 C 51.953 59.667,51.924 59.893,51.965 60.169 M62.215 65.417 C 62.207 68.442,62.249 71.091,62.308 71.304 C 62.410 71.667,62.386 63.102,62.280 60.917 C 62.253 60.367,62.224 62.392,62.215 65.417 M62.539 73.667 C 62.539 73.987,62.573 74.119,62.615 73.958 C 62.657 73.798,62.657 73.535,62.615 73.375 C 62.573 73.215,62.539 73.346,62.539 73.667 M53.015 76.417 C 53.003 76.901,53.926 79.757,54.034 79.572 C 54.084 79.487,53.978 79.004,53.799 78.500 C 53.619 77.996,53.371 77.246,53.248 76.833 C 53.124 76.421,53.019 76.233,53.015 76.417 M64.625 79.250 C 64.723 79.433,65.079 79.883,65.415 80.250 L 66.025 80.917 65.479 80.117 C 64.876 79.235,64.305 78.655,64.625 79.250 M54.206 80.182 C 54.361 80.403,54.716 80.977,54.995 81.458 C 55.274 81.940,55.540 82.333,55.586 82.333 C 55.754 82.333,54.349 79.922,54.140 79.852 C 53.995 79.804,54.016 79.911,54.206 80.182 M66.542 81.197 C 67.503 82.034,70.108 83.152,70.365 82.838 C 70.441 82.745,70.455 82.704,70.396 82.746 C 70.337 82.787,70.131 82.734,69.936 82.627 C 69.742 82.519,69.405 82.406,69.186 82.374 C 68.801 82.318,67.342 81.607,66.500 81.065 C 66.130 80.827,66.134 80.842,66.542 81.197 M55.952 82.835 C 56.000 83.019,56.350 83.403,56.728 83.687 L 57.417 84.205 56.792 83.600 C 56.448 83.268,56.167 82.926,56.167 82.841 C 56.167 82.756,56.099 82.644,56.016 82.593 C 55.932 82.542,55.904 82.650,55.952 82.835 M70.573 83.563 C 70.568 83.849,70.504 84.215,70.431 84.375 C 70.348 84.557,70.367 84.667,70.482 84.667 C 70.584 84.667,70.655 84.610,70.640 84.542 C 70.625 84.473,70.700 84.206,70.806 83.947 C 71.052 83.353,71.050 83.221,70.792 83.122 C 70.654 83.069,70.580 83.218,70.573 83.563 M58.337 85.295 C 58.556 85.595,59.001 85.996,59.326 86.185 C 59.651 86.374,59.842 86.459,59.750 86.374 C 58.390 85.104,57.957 84.773,58.337 85.295 M60.500 86.977 C 60.500 87.052,60.688 87.199,60.917 87.303 C 61.146 87.407,61.333 87.432,61.333 87.357 C 61.333 87.282,61.146 87.135,60.917 87.030 C 60.688 86.926,60.500 86.902,60.500 86.977 M69.087 88.185 C 68.552 89.880,68.441 90.033,67.893 89.824 C 67.369 89.625,67.000 89.623,67.000 89.819 C 67.000 90.093,68.346 90.226,68.584 89.976 C 68.807 89.742,69.699 86.976,69.587 86.865 C 69.553 86.831,69.328 87.425,69.087 88.185 M62.333 88.048 C 62.333 88.182,65.305 89.334,65.626 89.325 C 65.786 89.320,65.242 89.067,64.417 88.762 C 63.592 88.457,62.785 88.153,62.625 88.086 C 62.465 88.019,62.333 88.002,62.333 88.048 " stroke="none" fill="#54a3d2" fill-rule="evenodd"></path><path id="path4" d="M152.248 60.917 C 152.248 72.833,152.267 77.684,152.292 71.695 C 152.316 65.707,152.316 55.957,152.292 50.029 C 152.267 44.100,152.248 49.000,152.248 60.917 M204.667 40.885 C 204.667 40.914,204.910 41.158,205.208 41.427 L 205.750 41.917 205.260 41.375 C 204.804 40.870,204.667 40.757,204.667 40.885 M199.912 70.250 C 199.912 77.033,199.933 79.784,199.958 76.363 C 199.983 72.941,199.983 67.391,199.958 64.029 C 199.933 60.667,199.912 63.467,199.912 70.250 M210.079 70.750 C 210.079 77.167,210.100 79.767,210.125 76.529 C 210.150 73.291,210.150 68.041,210.125 64.863 C 210.100 61.684,210.079 64.333,210.079 70.750 M14.417 96.751 C 14.798 96.884,15.804 96.920,15.728 96.799 C 15.684 96.726,15.333 96.673,14.948 96.680 C 14.564 96.687,14.325 96.719,14.417 96.751 M81.711 96.786 C 81.964 96.825,82.339 96.824,82.544 96.784 C 82.749 96.744,82.542 96.713,82.083 96.714 C 81.625 96.716,81.457 96.748,81.711 96.786 " stroke="none" fill="#21acf9" fill-rule="evenodd"></path></g></svg>