<svg id="svg" version="1.1" xmlns="http://www.w3.org/2000/svg" xmlns:xlink="http://www.w3.org/1999/xlink" width="400" height="70.5803869246164" viewBox="0, 0, 400,70.5803869246164"><g id="svgg"><path id="path0" d="M323.998 22.166 C 323.493 22.246,322.869 22.391,322.612 22.489 C 322.355 22.587,321.986 22.667,321.792 22.667 C 321.457 22.667,321.174 22.780,319.000 23.786 C 307.426 29.142,306.266 48.620,317.101 55.676 C 319.130 56.997,320.359 57.497,322.917 58.042 C 337.865 61.225,348.840 46.444,342.626 31.500 C 339.809 24.724,332.132 20.878,323.998 22.166 M221.333 40.243 L 221.333 57.833 228.458 57.830 C 235.708 57.827,236.875 57.752,239.667 57.108 C 244.568 55.978,249.008 52.415,250.929 48.071 C 254.554 39.875,252.157 28.559,246.132 25.426 C 245.830 25.269,245.171 24.927,244.667 24.666 C 243.749 24.190,242.107 23.634,239.917 23.057 C 238.868 22.781,237.873 22.745,230.042 22.701 L 221.333 22.653 221.333 40.243 M329.000 29.348 C 333.393 30.359,336.495 36.390,335.508 42.000 C 335.403 42.596,335.253 43.496,335.174 44.000 C 335.095 44.504,334.912 45.142,334.767 45.417 C 334.621 45.692,334.502 46.043,334.501 46.198 C 334.500 46.354,334.424 46.527,334.331 46.585 C 334.238 46.642,334.061 46.931,333.937 47.227 C 332.349 51.028,325.775 52.383,322.220 49.643 C 317.868 46.288,316.968 36.805,320.583 32.394 C 322.751 29.749,325.859 28.624,329.000 29.348 M235.917 29.648 C 240.089 30.492,242.711 33.000,243.649 37.044 C 244.079 38.899,243.772 43.145,243.094 44.707 C 242.964 45.005,242.815 45.362,242.763 45.500 C 242.352 46.588,240.861 48.319,239.583 49.191 C 237.677 50.492,236.365 50.818,232.542 50.946 L 229.500 51.047 229.500 40.190 L 229.500 29.333 231.958 29.339 C 233.656 29.343,234.881 29.438,235.917 29.648 M265.417 32.185 C 265.142 32.272,264.542 32.462,264.083 32.608 C 262.957 32.964,261.903 33.465,261.660 33.758 C 261.549 33.891,261.375 34.001,261.271 34.002 C 261.168 34.004,260.651 34.386,260.122 34.852 C 253.424 40.756,254.395 53.290,261.835 56.962 C 265.919 58.978,273.611 58.843,277.375 56.690 L 277.833 56.428 277.833 53.575 C 277.833 50.204,277.930 50.380,276.481 51.116 C 273.750 52.503,269.733 52.942,267.427 52.105 C 265.541 51.420,264.685 50.587,264.085 48.854 C 263.570 47.363,262.776 47.500,271.940 47.500 L 280.047 47.500 279.947 44.375 C 279.728 37.523,277.421 33.916,272.295 32.411 C 270.808 31.975,266.523 31.834,265.417 32.185 M361.500 32.441 C 360.813 32.679,360.132 32.977,359.987 33.103 C 359.842 33.230,359.640 33.333,359.537 33.333 C 359.434 33.333,358.821 33.855,358.175 34.492 L 357.000 35.651 357.000 34.072 L 357.000 32.494 352.958 32.539 L 348.917 32.583 348.874 50.875 L 348.832 69.167 352.916 69.167 L 357.000 69.167 357.000 62.318 L 357.000 55.469 357.839 56.224 C 362.373 60.300,370.022 58.603,373.229 52.809 C 375.694 48.357,375.782 39.473,373.390 36.654 C 373.267 36.509,373.167 36.318,373.167 36.230 C 373.167 35.894,370.962 33.674,370.207 33.250 C 367.805 31.901,364.064 31.553,361.500 32.441 M384.727 32.423 C 383.211 32.818,382.190 33.256,381.265 33.908 C 380.537 34.421,379.333 35.612,379.333 35.818 C 379.333 35.918,379.266 36.000,379.184 36.000 C 378.695 36.000,378.095 38.262,378.101 40.083 C 378.114 43.794,379.548 45.645,383.733 47.350 C 384.384 47.615,384.990 47.832,385.080 47.833 C 385.233 47.833,385.855 48.062,387.917 48.874 C 389.433 49.471,390.068 50.396,389.593 51.315 C 388.614 53.207,383.590 53.121,379.629 51.143 C 378.920 50.789,378.262 50.500,378.167 50.500 C 378.050 50.500,378.008 51.587,378.038 53.787 L 378.083 57.073 378.917 57.383 C 382.540 58.728,388.690 58.723,392.167 57.373 C 396.169 55.818,398.250 52.281,397.423 48.437 C 396.791 45.494,395.190 44.040,390.896 42.510 C 386.813 41.056,386.000 40.543,386.000 39.423 C 386.000 37.327,392.160 36.986,395.110 38.919 C 395.981 39.490,396.000 39.428,396.000 36.023 L 396.000 32.879 395.042 32.675 C 392.155 32.058,391.635 32.001,389.000 32.013 C 386.668 32.024,386.018 32.086,384.727 32.423 M281.092 33.041 C 281.158 33.339,281.305 33.807,281.420 34.083 C 281.948 35.351,282.333 36.445,282.333 36.678 C 282.333 36.819,282.402 37.005,282.485 37.092 C 282.568 37.179,282.751 37.625,282.890 38.083 C 283.030 38.542,283.377 39.554,283.662 40.333 C 283.946 41.112,284.330 42.162,284.514 42.667 C 284.699 43.171,284.916 43.808,284.998 44.083 C 285.079 44.358,285.383 45.221,285.672 46.000 C 285.962 46.779,286.300 47.717,286.423 48.083 C 286.546 48.450,286.844 49.275,287.084 49.917 C 287.324 50.558,287.587 51.308,287.669 51.583 C 287.750 51.858,287.967 52.496,288.151 53.000 C 288.335 53.504,288.718 54.554,289.002 55.333 C 289.286 56.112,289.593 56.994,289.684 57.292 L 289.849 57.833 294.405 57.833 C 298.599 57.833,298.968 57.810,299.051 57.542 C 299.101 57.381,299.678 55.862,300.334 54.167 C 300.989 52.471,301.589 50.858,301.667 50.583 C 301.744 50.308,302.344 48.696,303.000 47.000 C 303.655 45.304,304.232 43.767,304.281 43.583 C 304.375 43.236,305.150 41.166,306.317 38.151 C 306.693 37.179,307.000 36.312,307.000 36.224 C 307.000 36.135,307.150 35.752,307.333 35.373 C 307.517 34.993,307.667 34.612,307.667 34.526 C 307.667 34.440,307.815 34.043,307.996 33.643 C 308.547 32.430,308.785 32.500,304.095 32.500 C 300.202 32.500,299.849 32.524,299.768 32.792 C 299.659 33.152,298.751 36.342,298.498 37.250 C 298.303 37.953,297.746 39.877,297.473 40.793 C 297.384 41.091,297.020 42.366,296.665 43.626 C 295.935 46.217,295.768 46.804,295.321 48.333 C 295.147 48.929,294.956 49.717,294.897 50.083 L 294.789 50.750 294.569 50.250 C 294.448 49.975,294.345 49.583,294.341 49.378 C 294.337 49.174,294.191 48.537,294.016 47.962 C 293.842 47.387,293.542 46.354,293.349 45.667 C 293.156 44.979,292.730 43.479,292.403 42.333 C 291.858 40.426,291.578 39.427,290.931 37.083 C 290.804 36.625,290.459 35.406,290.164 34.375 L 289.627 32.500 285.300 32.500 L 280.974 32.500 281.092 33.041 M269.766 37.745 C 271.203 38.172,272.140 39.448,272.285 41.177 L 272.382 42.333 268.108 42.333 C 263.134 42.333,263.429 42.487,264.414 40.411 C 265.546 38.026,267.475 37.065,269.766 37.745 M364.537 38.885 C 368.120 41.007,367.461 49.798,363.583 51.608 C 359.138 53.682,355.793 49.136,357.066 42.750 C 357.825 38.946,361.462 37.064,364.537 38.885 " stroke="none" fill="#c4c4c4" fill-rule="evenodd"></path><path id="path1" d="M143.500 39.833 L 143.500 57.500 147.333 57.500 L 151.167 57.500 151.167 39.833 L 151.167 22.167 147.333 22.167 L 143.500 22.167 143.500 39.833 M71.377 22.549 C 69.543 22.972,68.453 24.394,68.462 26.353 C 68.486 31.244,76.781 31.550,77.134 26.673 C 77.353 23.641,74.745 21.772,71.377 22.549 M103.306 22.494 C 100.969 22.917,99.540 25.708,100.563 27.852 C 102.382 31.668,109.000 30.508,109.000 26.374 C 109.000 23.562,106.568 21.905,103.306 22.494 M91.101 26.455 C 91.030 26.525,90.622 26.672,90.195 26.781 C 89.767 26.889,89.079 27.064,88.667 27.169 C 88.254 27.274,87.692 27.435,87.417 27.527 C 86.922 27.692,85.550 28.070,84.583 28.307 L 84.083 28.430 84.037 31.043 L 83.992 33.656 82.121 33.703 L 80.250 33.750 80.204 36.311 C 80.147 39.484,80.043 39.333,82.270 39.333 L 84.000 39.333 84.003 45.125 C 84.008 54.085,84.540 55.747,87.917 57.339 C 89.958 58.302,95.147 58.343,96.574 57.407 L 97.000 57.128 97.000 54.407 C 97.000 51.301,97.058 51.420,95.759 51.858 C 93.898 52.486,92.536 51.957,91.936 50.372 C 91.709 49.772,91.667 48.847,91.667 44.497 L 91.667 39.333 94.070 39.333 C 97.305 39.333,97.000 39.639,97.000 36.399 L 97.000 33.667 94.337 33.667 L 91.673 33.667 91.628 30.055 C 91.585 26.616,91.503 26.053,91.101 26.455 M127.750 33.173 C 125.908 33.347,124.296 34.151,122.878 35.604 L 121.833 36.675 121.833 35.171 L 121.833 33.667 118.000 33.667 L 114.167 33.667 114.167 50.982 C 114.167 66.618,114.192 68.307,114.430 68.399 C 114.821 68.549,121.382 68.517,121.623 68.364 C 121.780 68.264,121.840 66.689,121.873 61.783 L 121.917 55.333 122.680 56.044 C 124.343 57.593,127.287 58.456,129.434 58.025 C 129.959 57.920,130.592 57.833,130.841 57.833 C 132.197 57.833,135.908 55.348,136.378 54.125 C 136.439 53.965,136.558 53.833,136.641 53.833 C 136.936 53.833,138.167 51.057,138.599 49.417 C 139.077 47.597,139.277 44.060,138.994 42.417 C 138.220 37.926,136.702 35.452,133.833 34.003 C 133.421 33.795,132.955 33.560,132.797 33.481 C 132.529 33.347,131.589 33.226,129.833 33.101 C 129.421 33.072,128.483 33.105,127.750 33.173 M165.679 33.189 C 164.815 33.264,164.032 33.402,163.938 33.496 C 163.844 33.590,163.599 33.667,163.393 33.667 C 163.188 33.667,162.977 33.736,162.925 33.821 C 162.872 33.905,162.605 34.024,162.331 34.084 C 162.057 34.144,161.833 34.257,161.833 34.335 C 161.833 34.414,161.665 34.530,161.458 34.595 C 161.092 34.709,159.991 35.563,159.048 36.466 C 157.522 37.926,156.102 40.685,155.901 42.583 C 155.852 43.042,155.742 43.679,155.657 44.000 C 155.325 45.248,155.705 49.614,156.235 50.638 C 156.381 50.920,156.500 51.274,156.500 51.424 C 156.500 53.631,161.580 57.607,164.666 57.814 C 165.079 57.842,165.464 57.894,165.522 57.930 C 165.837 58.125,168.554 58.183,169.882 58.023 C 170.726 57.921,171.717 57.809,172.083 57.774 C 172.874 57.699,174.230 57.289,175.500 56.743 L 176.417 56.348 176.462 53.507 C 176.510 50.526,176.499 50.480,175.833 51.000 C 175.604 51.179,175.334 51.328,175.234 51.330 C 175.133 51.332,174.808 51.454,174.512 51.603 C 172.105 52.803,166.335 52.791,165.333 51.583 C 165.219 51.446,165.030 51.333,164.912 51.333 C 164.465 51.333,163.167 48.832,163.167 47.970 C 163.167 47.895,166.612 47.833,170.822 47.833 C 178.457 47.833,178.478 47.832,178.589 47.483 C 178.730 47.038,178.525 42.056,178.342 41.500 C 178.267 41.271,178.112 40.746,177.997 40.333 C 177.723 39.345,176.811 37.333,176.637 37.333 C 176.562 37.333,176.500 37.238,176.500 37.120 C 176.500 37.003,176.369 36.786,176.208 36.637 C 176.048 36.488,175.729 36.152,175.499 35.891 C 174.453 34.704,171.797 33.410,170.083 33.253 C 168.138 33.075,167.161 33.061,165.679 33.189 M68.956 45.542 L 68.996 57.417 72.789 57.417 L 76.583 57.417 76.626 45.542 L 76.669 33.667 72.793 33.667 L 68.917 33.667 68.956 45.542 M100.667 45.583 L 100.667 57.500 104.500 57.500 L 108.333 57.500 108.333 45.583 L 108.333 33.667 104.500 33.667 L 100.667 33.667 100.667 45.583 M180.167 33.790 C 180.167 33.858,180.418 34.289,180.724 34.749 C 182.046 36.728,182.833 38.001,182.833 38.161 C 182.833 38.256,182.911 38.333,183.005 38.333 C 183.100 38.333,183.231 38.465,183.297 38.625 C 183.439 38.972,184.361 40.548,184.492 40.667 C 184.542 40.712,184.696 40.951,184.833 41.197 C 184.971 41.444,185.308 41.986,185.583 42.403 C 187.675 45.573,187.645 45.511,187.353 46.025 C 187.204 46.285,187.027 46.498,186.958 46.499 C 186.890 46.500,186.833 46.598,186.833 46.719 C 186.833 46.839,186.702 47.083,186.542 47.260 C 186.059 47.796,185.334 48.802,185.327 48.947 C 185.323 49.022,185.098 49.343,184.827 49.660 C 184.555 49.978,184.333 50.334,184.333 50.452 C 184.333 50.570,184.258 50.667,184.167 50.667 C 184.075 50.667,184.000 50.745,184.000 50.840 C 184.000 50.936,183.700 51.420,183.333 51.917 C 182.967 52.413,182.667 52.891,182.667 52.979 C 182.667 53.067,182.599 53.164,182.517 53.194 C 182.370 53.249,180.833 55.467,180.833 55.625 C 180.833 55.669,180.571 56.063,180.250 56.500 C 179.929 56.937,179.667 57.341,179.667 57.397 C 179.667 57.454,181.653 57.500,184.081 57.500 L 188.496 57.500 188.745 56.958 C 188.882 56.660,189.444 55.592,189.993 54.583 C 190.542 53.575,191.349 52.020,191.787 51.128 C 192.712 49.243,192.684 49.260,193.150 50.292 C 193.346 50.727,193.572 51.196,193.652 51.333 C 193.732 51.471,194.030 51.982,194.315 52.469 C 194.600 52.957,194.833 53.455,194.833 53.577 C 194.833 53.698,194.946 53.841,195.083 53.894 C 195.221 53.946,195.333 54.106,195.333 54.247 C 195.333 54.389,195.577 54.935,195.874 55.461 C 196.171 55.987,196.527 56.642,196.666 56.917 L 196.917 57.417 201.292 57.461 C 204.005 57.489,205.667 57.445,205.667 57.346 C 205.667 57.189,205.056 56.078,204.790 55.750 C 204.715 55.658,204.347 55.096,203.972 54.500 C 202.492 52.150,202.336 51.910,202.169 51.713 C 202.073 51.601,201.923 51.319,201.835 51.088 C 201.747 50.856,201.607 50.667,201.524 50.667 C 201.440 50.667,201.325 50.535,201.267 50.375 C 201.140 50.025,200.880 49.590,200.375 48.887 C 200.169 48.600,200.000 48.309,200.000 48.240 C 200.000 48.171,199.813 47.869,199.583 47.569 C 199.354 47.268,199.167 46.946,199.167 46.853 C 199.167 46.760,199.073 46.623,198.958 46.550 C 198.380 46.180,197.995 45.056,198.340 44.744 C 198.520 44.581,198.667 44.374,198.667 44.283 C 198.667 44.192,198.918 43.810,199.224 43.434 C 199.531 43.058,199.879 42.563,199.999 42.333 C 200.119 42.104,200.264 41.879,200.322 41.833 C 200.422 41.755,201.557 40.109,201.917 39.522 C 202.008 39.373,202.121 39.212,202.167 39.167 C 202.213 39.121,202.550 38.633,202.916 38.083 C 203.282 37.533,203.676 36.984,203.791 36.863 C 203.906 36.742,204.000 36.590,204.000 36.525 C 204.000 36.460,204.375 35.887,204.833 35.250 C 206.059 33.548,206.283 33.654,201.567 33.705 L 197.467 33.750 197.096 34.417 C 196.673 35.178,194.483 39.334,193.847 40.583 C 193.614 41.042,193.380 41.567,193.327 41.750 C 193.256 41.996,192.932 41.472,192.092 39.750 C 191.465 38.467,190.888 37.392,190.809 37.361 C 190.731 37.331,190.667 37.226,190.667 37.129 C 190.667 36.887,189.946 35.430,189.792 35.361 C 189.723 35.331,189.667 35.166,189.667 34.996 C 189.667 34.826,189.587 34.637,189.490 34.577 C 189.392 34.517,189.244 34.287,189.161 34.067 L 189.008 33.667 184.587 33.667 C 182.156 33.667,180.167 33.722,180.167 33.790 M169.752 38.873 C 170.585 39.407,171.333 40.940,171.333 42.110 L 171.333 43.000 167.250 43.000 C 162.799 43.000,162.954 43.038,163.357 42.050 C 164.041 40.373,164.555 39.648,165.712 38.723 C 166.360 38.205,168.857 38.298,169.752 38.873 M128.783 39.387 C 130.530 40.302,131.187 41.877,131.178 45.130 C 131.165 50.248,128.547 53.083,124.896 51.932 C 123.857 51.605,122.333 50.257,122.333 49.665 C 122.333 49.494,122.269 49.313,122.190 49.265 C 121.543 48.865,121.517 43.675,122.156 42.274 C 122.345 41.858,122.502 41.458,122.504 41.384 C 122.520 40.934,124.291 39.424,125.114 39.160 C 125.851 38.923,128.172 39.067,128.783 39.387 " stroke="none" fill="#04a3eb" fill-rule="evenodd"></path><path id="path2" d="M4.614 0.244 C 4.466 0.391,4.305 0.509,4.256 0.506 C 3.818 0.477,3.774 0.507,3.971 0.704 C 4.132 0.865,4.244 0.865,4.502 0.704 C 4.897 0.458,5.608 0.436,5.750 0.667 C 5.812 0.767,5.592 0.833,5.197 0.833 C 4.573 0.833,4.044 1.155,4.279 1.390 C 4.340 1.451,4.180 1.500,3.925 1.500 C 3.479 1.500,2.167 2.607,2.167 2.982 C 2.167 3.064,2.054 3.174,1.917 3.227 C 1.779 3.280,1.667 3.475,1.667 3.661 C 1.667 3.848,1.592 4.000,1.500 4.000 C 1.408 4.000,1.332 4.244,1.331 4.542 C 1.329 4.840,1.262 5.188,1.181 5.316 C 0.982 5.631,0.487 5.418,0.554 5.047 C 0.659 4.468,1.152 3.500,1.343 3.500 C 1.449 3.500,1.494 3.392,1.444 3.261 C 1.393 3.129,1.442 2.985,1.551 2.941 C 1.660 2.896,1.619 2.854,1.458 2.846 C 1.298 2.839,1.167 2.908,1.167 3.000 C 1.167 3.290,1.109 3.409,0.818 3.722 C 0.526 4.035,0.117 5.332,0.309 5.335 C 0.368 5.336,0.438 5.904,0.465 6.599 C 0.500 7.525,0.461 7.829,0.319 7.741 C 0.172 7.650,0.151 14.343,0.233 35.512 C 0.310 55.369,0.393 63.434,0.523 63.514 C 0.651 63.593,0.647 63.645,0.509 63.691 C 0.399 63.728,0.362 63.881,0.425 64.044 C 0.485 64.202,0.603 64.289,0.687 64.238 C 0.770 64.186,0.796 64.074,0.743 63.988 C 0.690 63.903,0.726 63.833,0.823 63.833 C 0.921 63.833,1.002 63.590,1.005 63.292 C 1.010 62.779,1.024 62.768,1.255 63.074 C 1.390 63.251,1.500 63.603,1.500 63.855 C 1.500 64.107,1.575 64.360,1.667 64.417 C 1.758 64.473,1.831 64.721,1.828 64.968 C 1.824 65.388,1.811 65.395,1.634 65.083 C 1.530 64.900,1.394 64.712,1.331 64.667 C 1.268 64.621,1.174 64.471,1.121 64.333 C 1.047 64.139,1.023 64.150,1.013 64.385 C 1.006 64.551,0.925 64.640,0.833 64.583 C 0.742 64.527,0.667 64.560,0.667 64.657 C 0.667 64.754,0.733 64.833,0.813 64.833 C 0.894 64.833,1.050 65.052,1.161 65.319 C 1.462 66.045,2.569 66.984,2.904 66.797 C 3.091 66.692,3.160 66.709,3.128 66.851 C 3.104 66.964,3.244 67.140,3.441 67.243 C 3.637 67.346,3.900 67.511,4.024 67.610 C 4.148 67.709,4.531 67.841,4.875 67.902 C 5.219 67.964,5.500 68.070,5.500 68.138 C 5.500 68.344,59.853 68.241,60.333 68.034 C 60.699 67.877,60.709 67.852,60.417 67.831 C 60.155 67.812,60.186 67.770,60.561 67.633 C 61.211 67.397,60.834 67.173,59.780 67.169 C 59.031 67.167,58.995 67.148,59.253 66.890 C 59.430 66.712,59.570 66.675,59.640 66.786 C 59.701 66.882,60.237 67.020,60.833 67.093 C 61.429 67.167,61.772 67.259,61.595 67.298 C 61.291 67.365,60.694 67.833,60.911 67.833 C 61.492 67.833,63.500 66.321,63.500 65.884 C 63.500 65.764,63.594 65.667,63.710 65.667 C 63.825 65.667,64.123 65.329,64.372 64.917 C 64.621 64.504,64.762 64.167,64.686 64.167 C 64.609 64.167,64.583 63.972,64.629 63.735 C 64.685 63.439,64.753 63.370,64.842 63.515 C 65.200 64.093,65.248 60.393,65.223 34.464 L 65.196 6.512 64.765 6.112 C 64.420 5.792,64.333 5.556,64.333 4.939 C 64.333 4.269,64.288 4.167,63.989 4.167 C 63.727 4.167,63.668 4.091,63.744 3.853 C 63.807 3.655,63.749 3.503,63.588 3.442 C 63.448 3.388,63.333 3.229,63.333 3.089 C 63.333 2.948,63.213 2.833,63.066 2.833 C 62.896 2.833,62.833 2.742,62.894 2.583 C 62.946 2.446,62.904 2.333,62.800 2.333 C 62.696 2.333,62.493 2.218,62.347 2.076 C 61.600 1.347,60.913 0.833,60.687 0.833 C 60.495 0.833,60.480 0.787,60.626 0.640 C 60.772 0.494,60.883 0.501,61.083 0.667 C 61.279 0.829,61.396 0.837,61.535 0.698 C 61.674 0.560,61.661 0.489,61.486 0.427 C 61.356 0.381,61.039 0.266,60.782 0.172 C 60.419 0.039,60.342 0.047,60.439 0.209 C 60.538 0.373,60.511 0.374,60.314 0.215 C 59.941 -0.087,5.168 -0.095,5.164 0.207 C 5.162 0.367,5.129 0.365,5.022 0.196 C 4.908 0.017,4.831 0.026,4.614 0.244 M3.275 0.915 C 3.137 1.053,2.962 1.167,2.887 1.167 C 2.652 1.167,1.444 2.500,1.568 2.623 C 1.632 2.688,1.755 2.630,1.840 2.495 C 1.925 2.360,1.996 2.318,1.997 2.401 C 1.999 2.483,2.150 2.378,2.333 2.167 C 2.517 1.955,2.667 1.714,2.667 1.631 C 2.667 1.548,2.742 1.527,2.833 1.583 C 2.925 1.640,3.000 1.615,3.000 1.528 C 3.000 1.441,3.188 1.322,3.417 1.265 C 3.840 1.159,3.958 0.930,3.680 0.758 C 3.596 0.706,3.414 0.777,3.275 0.915 M61.583 0.833 C 61.527 0.925,61.522 1.009,61.573 1.021 C 61.625 1.032,61.723 1.061,61.792 1.085 C 61.860 1.109,62.085 1.183,62.290 1.250 C 62.495 1.317,62.615 1.449,62.556 1.545 C 62.493 1.645,62.529 1.668,62.641 1.599 C 62.747 1.534,62.833 1.564,62.833 1.667 C 62.833 1.769,62.903 1.810,62.987 1.758 C 63.139 1.664,63.833 2.501,63.833 2.777 C 63.833 2.856,63.975 3.008,64.148 3.117 C 64.422 3.287,64.452 3.271,64.379 2.990 C 64.333 2.812,64.216 2.667,64.119 2.667 C 64.023 2.667,63.989 2.622,64.044 2.567 C 64.171 2.440,63.433 1.721,62.566 1.125 C 61.829 0.619,61.734 0.590,61.583 0.833 M64.500 4.093 C 64.500 4.236,64.575 4.307,64.667 4.250 C 64.817 4.157,64.906 4.376,64.853 4.708 C 64.842 4.777,64.946 4.833,65.083 4.833 C 65.399 4.833,65.397 4.752,65.064 4.244 C 64.759 3.778,64.500 3.708,64.500 4.093 M46.067 8.102 C 46.149 8.367,46.345 8.883,46.502 9.250 C 46.659 9.617,46.838 10.217,46.901 10.583 C 46.963 10.950,47.097 11.463,47.200 11.724 C 47.411 12.260,47.133 12.591,46.683 12.339 C 46.546 12.263,46.262 12.267,46.050 12.350 C 45.839 12.432,45.460 12.580,45.208 12.678 C 44.775 12.847,44.768 12.867,45.074 13.038 C 45.313 13.172,45.416 13.169,45.463 13.027 C 45.499 12.920,45.747 12.833,46.014 12.833 C 46.281 12.833,46.500 12.758,46.500 12.667 C 46.500 12.575,46.570 12.500,46.656 12.500 C 46.982 12.500,46.758 13.167,46.423 13.195 C 46.236 13.211,45.969 13.232,45.829 13.243 C 45.689 13.253,45.391 13.391,45.167 13.548 C 44.943 13.705,44.663 13.833,44.546 13.833 C 44.429 13.833,44.333 13.946,44.333 14.083 C 44.333 14.221,44.254 14.333,44.157 14.333 C 44.060 14.333,44.027 14.408,44.083 14.500 C 44.140 14.592,44.032 14.667,43.843 14.667 C 43.609 14.667,43.500 14.775,43.500 15.005 C 43.500 15.191,43.387 15.387,43.250 15.440 C 43.112 15.492,43.000 15.615,43.000 15.713 C 43.000 15.811,42.890 16.012,42.756 16.160 C 42.622 16.308,42.474 16.689,42.428 17.007 C 42.381 17.324,42.268 17.883,42.176 18.250 C 42.083 18.617,42.003 20.417,41.997 22.250 C 41.982 26.563,41.652 30.351,41.249 30.833 C 41.134 30.971,40.983 31.267,40.914 31.492 C 40.846 31.717,40.687 32.004,40.561 32.129 C 40.436 32.255,40.333 32.456,40.333 32.577 C 40.333 32.699,40.216 32.843,40.073 32.898 C 39.929 32.953,39.856 33.068,39.909 33.153 C 39.961 33.239,39.853 33.358,39.667 33.417 C 39.481 33.476,39.375 33.599,39.431 33.690 C 39.487 33.781,39.376 33.897,39.183 33.947 C 38.816 34.043,38.713 34.406,39.003 34.585 C 39.096 34.643,39.134 34.751,39.088 34.826 C 39.042 34.901,39.150 35.000,39.329 35.047 C 39.584 35.114,39.641 35.245,39.590 35.650 C 39.527 36.144,39.673 36.271,40.208 36.186 C 40.277 36.176,40.333 36.250,40.333 36.351 C 40.333 36.453,40.216 36.491,40.072 36.435 C 39.878 36.361,39.901 36.450,40.160 36.780 C 40.431 37.123,40.462 37.255,40.297 37.360 C 40.125 37.469,40.126 37.495,40.302 37.497 C 40.421 37.499,40.473 37.575,40.417 37.667 C 40.360 37.758,40.401 37.833,40.508 37.833 C 40.615 37.833,40.665 37.931,40.619 38.050 C 40.456 38.476,40.908 39.062,41.163 38.754 C 41.332 38.551,41.339 38.439,41.193 38.293 C 41.087 38.187,41.001 37.984,41.003 37.842 C 41.005 37.614,41.024 37.613,41.167 37.833 C 41.256 37.971,41.337 38.008,41.348 37.917 C 41.477 36.851,41.865 41.478,41.977 45.417 C 42.056 48.167,42.199 50.642,42.296 50.917 C 42.393 51.192,42.518 51.626,42.574 51.882 C 42.631 52.138,42.749 52.302,42.838 52.247 C 42.927 52.192,43.000 52.339,43.000 52.573 C 43.000 52.808,42.925 53.000,42.833 53.000 C 42.742 53.000,42.667 52.883,42.667 52.740 C 42.667 52.597,42.592 52.527,42.500 52.583 C 42.397 52.647,42.446 52.842,42.625 53.088 C 42.902 53.469,43.299 53.683,43.085 53.335 C 43.027 53.243,43.090 53.212,43.228 53.265 C 43.364 53.317,43.517 53.470,43.569 53.605 C 43.622 53.743,43.591 53.806,43.498 53.749 C 43.407 53.693,43.256 53.695,43.161 53.753 C 42.952 53.883,43.822 54.603,44.108 54.537 C 44.218 54.512,44.363 54.580,44.430 54.688 C 44.506 54.812,44.480 54.841,44.359 54.766 C 44.253 54.701,44.167 54.688,44.167 54.738 C 44.167 54.788,44.410 54.942,44.708 55.080 C 45.006 55.219,45.512 55.491,45.833 55.686 C 46.154 55.880,46.435 56.031,46.458 56.020 C 46.481 56.009,46.575 56.000,46.667 56.000 C 46.938 56.000,46.857 56.455,46.566 56.567 C 46.413 56.625,46.340 56.776,46.394 56.918 C 46.447 57.055,46.433 57.167,46.364 57.167 C 46.294 57.167,46.226 57.317,46.212 57.500 C 46.173 58.019,46.461 57.892,46.583 57.335 C 46.775 56.460,47.059 56.530,46.958 57.428 C 46.907 57.874,46.791 58.264,46.699 58.295 C 46.607 58.325,46.567 58.576,46.611 58.852 C 46.654 59.129,46.610 59.450,46.513 59.568 C 46.416 59.685,46.386 59.830,46.446 59.890 C 46.506 59.951,46.468 60.000,46.361 60.000 C 46.254 60.000,46.167 60.109,46.167 60.242 C 46.167 60.669,45.801 61.303,45.511 61.379 C 45.118 61.481,43.193 61.079,43.500 60.958 C 43.650 60.899,43.566 60.854,43.292 60.846 C 43.040 60.839,42.833 60.750,42.833 60.647 C 42.833 60.543,42.686 60.500,42.499 60.549 C 42.291 60.603,42.086 60.524,41.957 60.340 C 41.843 60.178,41.511 59.992,41.218 59.928 C 40.850 59.847,40.714 59.737,40.777 59.572 C 40.845 59.396,40.732 59.333,40.351 59.333 C 40.020 59.333,39.833 59.250,39.833 59.101 C 39.833 58.974,39.659 58.826,39.445 58.772 C 39.232 58.719,38.853 58.485,38.603 58.254 C 38.354 58.023,38.078 57.833,37.991 57.833 C 37.904 57.833,37.833 57.729,37.833 57.601 C 37.833 57.473,37.721 57.326,37.583 57.273 C 37.446 57.220,37.333 57.062,37.333 56.922 C 37.333 56.782,37.277 56.667,37.207 56.667 C 37.138 56.667,36.977 56.423,36.850 56.125 C 36.723 55.827,36.493 55.433,36.339 55.250 C 35.983 54.826,35.618 53.602,35.827 53.531 C 36.048 53.456,35.839 53.000,35.584 53.000 C 35.466 53.000,35.322 52.809,35.263 52.577 C 35.205 52.344,35.084 52.198,34.995 52.253 C 34.906 52.308,34.833 52.199,34.833 52.010 C 34.833 51.821,34.900 51.667,34.982 51.667 C 35.229 51.667,35.288 50.352,35.046 50.259 C 34.883 50.196,34.833 49.349,34.831 46.630 C 34.829 42.420,34.641 40.918,34.267 42.125 C 34.218 42.285,34.213 42.042,34.257 41.583 C 34.302 41.125,34.403 40.728,34.483 40.701 C 34.693 40.630,34.289 39.836,34.042 39.835 C 33.927 39.834,33.833 39.713,33.833 39.566 C 33.833 39.079,32.840 38.000,32.393 38.000 C 32.160 38.000,32.025 37.927,32.083 37.833 C 32.148 37.729,31.765 37.666,31.052 37.664 C 29.371 37.660,29.452 37.837,29.525 34.360 C 29.588 31.294,29.722 30.655,30.200 31.133 C 30.698 31.631,32.982 31.024,33.676 30.209 C 34.667 29.046,34.743 28.599,34.854 23.250 C 34.999 16.280,35.714 13.809,38.361 11.132 C 38.750 10.738,39.053 10.360,39.034 10.292 C 39.015 10.223,39.056 10.180,39.125 10.196 C 39.413 10.263,40.174 9.759,40.095 9.554 C 40.039 9.408,40.148 9.333,40.414 9.333 C 40.635 9.333,40.893 9.202,40.987 9.042 C 41.080 8.881,41.159 8.805,41.162 8.873 C 41.164 8.940,41.598 8.803,42.125 8.567 C 42.652 8.332,43.552 7.992,44.125 7.813 C 44.698 7.633,45.167 7.405,45.167 7.306 C 45.167 6.957,45.916 7.621,46.067 8.102 M45.571 8.125 C 45.631 8.377,45.699 8.757,45.722 8.969 C 45.745 9.181,45.865 9.417,45.989 9.493 C 46.119 9.574,46.176 9.780,46.123 9.983 C 46.072 10.176,46.104 10.333,46.192 10.333 C 46.281 10.333,46.307 10.408,46.250 10.500 C 46.193 10.592,46.264 10.667,46.407 10.667 C 46.695 10.667,46.762 10.245,46.500 10.083 C 46.408 10.027,46.333 9.789,46.333 9.556 C 46.333 9.240,46.267 9.157,46.075 9.230 C 45.932 9.285,45.859 9.260,45.912 9.175 C 46.056 8.941,45.815 7.667,45.626 7.667 C 45.531 7.667,45.507 7.860,45.571 8.125 M41.667 8.000 C 41.667 8.092,41.559 8.167,41.427 8.167 C 41.294 8.167,41.140 8.092,41.083 8.000 C 41.027 7.908,41.135 7.833,41.323 7.833 C 41.512 7.833,41.667 7.908,41.667 8.000 M28.652 8.317 L 29.054 8.626 28.704 8.813 C 28.326 9.016,28.056 8.813,28.262 8.481 C 28.325 8.379,28.273 8.231,28.146 8.151 C 28.020 8.071,27.992 8.006,28.083 8.006 C 28.175 8.007,28.431 8.147,28.652 8.317 M0.620 9.289 C 0.581 9.543,0.549 9.375,0.548 8.917 C 0.546 8.458,0.578 8.251,0.617 8.456 C 0.657 8.661,0.658 9.036,0.620 9.289 M40.628 8.534 C 40.591 8.644,40.319 8.797,40.024 8.874 C 39.729 8.950,39.533 9.085,39.587 9.173 C 39.642 9.261,39.569 9.333,39.427 9.333 C 38.967 9.333,39.149 9.012,39.792 8.686 C 40.550 8.302,40.715 8.272,40.628 8.534 M38.356 9.117 C 38.164 9.193,38.164 9.229,38.356 9.351 C 38.534 9.464,38.520 9.495,38.292 9.497 C 38.131 9.499,38.000 9.387,38.000 9.250 C 38.000 9.112,38.131 9.006,38.292 9.013 C 38.495 9.022,38.515 9.054,38.356 9.117 M56.625 9.430 C 56.928 9.627,57.000 9.828,57.000 10.472 C 57.000 10.915,57.109 11.413,57.245 11.593 C 57.618 12.087,57.572 12.955,57.167 13.083 C 56.800 13.200,56.784 13.317,56.940 14.800 L 57.046 15.816 57.648 15.866 C 58.639 15.949,58.533 16.730,57.521 16.802 L 56.792 16.855 56.871 17.469 C 56.914 17.807,56.896 18.458,56.830 18.917 L 56.711 19.750 56.689 18.658 C 56.677 18.058,56.578 17.478,56.469 17.369 C 56.286 17.186,56.233 16.629,56.185 14.388 C 56.171 13.729,56.069 13.409,55.750 13.030 C 55.467 12.694,55.332 12.329,55.328 11.893 C 55.325 11.539,55.177 10.950,55.000 10.583 C 54.353 9.245,55.304 8.570,56.625 9.430 M23.833 9.667 C 23.833 9.758,23.646 9.833,23.417 9.833 C 23.188 9.833,23.000 9.758,23.000 9.667 C 23.000 9.575,23.188 9.500,23.417 9.500 C 23.646 9.500,23.833 9.575,23.833 9.667 M18.274 10.458 C 18.217 10.802,18.170 11.440,18.169 11.875 C 18.167 12.310,18.092 12.667,18.000 12.667 C 17.908 12.667,17.833 12.383,17.833 12.037 C 17.833 11.598,17.732 11.334,17.500 11.167 C 16.852 10.700,17.212 9.852,18.063 9.838 C 18.333 9.834,18.363 9.920,18.274 10.458 M9.772 11.026 C 11.129 11.695,11.022 12.525,9.487 13.229 L 8.500 13.682 8.500 14.686 C 8.500 15.329,8.585 15.775,8.735 15.926 C 9.058 16.249,8.891 16.754,8.384 16.985 C 7.890 17.210,7.500 16.987,7.500 16.480 C 7.500 16.307,7.416 16.167,7.313 16.167 C 7.179 16.167,7.176 16.106,7.305 15.951 C 7.506 15.708,7.501 15.000,7.298 15.000 C 7.226 15.000,7.167 14.734,7.167 14.408 C 7.167 14.083,7.063 13.614,6.937 13.367 C 6.750 12.999,6.690 12.094,6.810 11.461 C 6.962 10.659,8.554 10.426,9.772 11.026 M22.542 10.623 C 22.060 10.657,21.273 10.657,20.792 10.623 C 20.310 10.589,20.704 10.562,21.667 10.562 C 22.629 10.562,23.023 10.589,22.542 10.623 M22.348 11.301 C 25.498 11.253,25.831 11.280,25.546 11.565 C 25.353 11.758,25.314 13.135,25.499 13.249 C 25.603 13.314,25.667 13.025,25.667 12.482 C 25.667 12.003,25.705 11.650,25.753 11.697 C 25.800 11.744,25.837 20.452,25.835 31.048 C 25.832 42.600,25.892 50.350,25.984 50.407 C 26.251 50.572,25.910 51.408,25.488 51.623 C 24.984 51.879,20.167 51.919,20.167 51.667 C 20.167 51.563,21.102 51.500,22.639 51.500 C 25.104 51.500,25.111 51.499,25.333 51.084 C 25.456 50.855,25.506 50.617,25.445 50.556 C 25.383 50.495,25.333 50.569,25.333 50.722 C 25.333 51.009,24.128 51.081,20.526 51.009 C 19.824 50.996,19.205 51.066,19.075 51.174 C 18.771 51.426,18.419 51.215,18.660 50.925 C 18.781 50.778,18.835 44.599,18.833 30.981 C 18.831 10.138,18.828 10.580,18.950 11.051 C 19.023 11.331,19.262 11.349,22.348 11.301 M46.333 11.000 C 46.126 11.134,46.140 11.162,46.417 11.167 C 46.693 11.171,46.707 11.199,46.500 11.333 C 46.290 11.469,46.300 11.495,46.562 11.497 C 46.834 11.500,46.845 11.536,46.645 11.782 C 46.490 11.974,46.483 12.024,46.625 11.939 C 46.746 11.866,46.833 11.899,46.833 12.018 C 46.833 12.130,46.876 12.180,46.927 12.128 C 47.048 12.008,46.832 10.832,46.690 10.836 C 46.631 10.837,46.471 10.911,46.333 11.000 M44.327 13.258 C 44.218 13.389,44.081 13.470,44.023 13.437 C 43.841 13.335,43.160 14.143,43.336 14.251 C 43.426 14.307,43.500 14.269,43.500 14.167 C 43.500 14.064,43.587 14.034,43.692 14.099 C 43.810 14.172,43.840 14.145,43.769 14.031 C 43.699 13.917,43.820 13.801,44.077 13.737 C 44.309 13.678,44.500 13.569,44.500 13.494 C 44.500 13.419,44.631 13.331,44.792 13.299 C 45.060 13.245,45.061 13.231,44.804 13.130 C 44.644 13.067,44.440 13.122,44.327 13.258 M18.618 14.040 C 18.578 14.247,18.544 14.117,18.542 13.750 C 18.540 13.383,18.573 13.214,18.615 13.373 C 18.656 13.532,18.658 13.832,18.618 14.040 M43.003 14.446 C 43.001 14.554,42.882 14.761,42.738 14.905 C 42.519 15.124,42.515 15.167,42.718 15.167 C 43.086 15.167,43.340 14.780,43.160 14.494 C 43.067 14.348,43.004 14.329,43.003 14.446 M42.313 15.417 C 42.252 15.660,42.196 15.805,41.933 16.395 C 41.775 16.749,41.614 17.274,41.575 17.561 C 41.352 19.193,41.302 19.903,41.416 19.797 C 41.487 19.731,41.566 19.506,41.593 19.297 C 41.619 19.088,41.688 18.617,41.746 18.250 C 41.804 17.883,41.868 17.471,41.888 17.333 C 41.909 17.196,42.092 16.718,42.296 16.270 C 42.500 15.823,42.667 15.430,42.667 15.395 C 42.667 15.301,42.336 15.321,42.313 15.417 M18.625 35.542 C 18.600 39.048,18.579 36.179,18.579 29.167 C 18.579 22.154,18.600 19.285,18.625 22.792 C 18.650 26.298,18.650 32.035,18.625 35.542 M41.284 20.292 C 41.109 20.607,41.216 27.000,41.396 27.003 C 41.530 27.004,41.529 27.040,41.390 27.128 C 41.120 27.300,40.908 28.500,41.148 28.500 C 41.250 28.500,41.345 28.331,41.359 28.125 C 41.400 27.513,41.419 27.427,41.563 27.198 C 41.638 27.077,41.654 26.736,41.599 26.439 C 41.543 26.143,41.491 24.610,41.483 23.033 C 41.470 20.314,41.447 19.996,41.284 20.292 M18.167 25.917 C 18.167 26.685,18.092 27.360,18.000 27.417 C 17.893 27.483,17.833 26.943,17.833 25.917 C 17.833 24.890,17.893 24.351,18.000 24.417 C 18.092 24.473,18.167 25.148,18.167 25.917 M33.454 27.205 C 33.417 27.505,33.386 27.300,33.385 26.750 C 33.384 26.200,33.414 25.955,33.452 26.205 C 33.490 26.456,33.491 26.906,33.454 27.205 M40.833 28.833 C 40.833 28.925,40.946 29.000,41.083 29.000 C 41.221 29.000,41.333 28.925,41.333 28.833 C 41.333 28.742,41.221 28.667,41.083 28.667 C 40.946 28.667,40.833 28.742,40.833 28.833 M40.752 29.770 C 40.614 30.102,40.500 30.462,40.500 30.570 C 40.500 30.678,40.411 30.855,40.303 30.964 C 40.194 31.072,40.162 31.217,40.231 31.286 C 40.408 31.464,41.015 30.638,40.941 30.320 C 40.907 30.175,40.982 29.917,41.106 29.747 C 41.374 29.380,41.397 29.167,41.169 29.167 C 41.078 29.167,40.891 29.438,40.752 29.770 M31.333 30.323 C 31.333 30.567,31.059 30.679,30.751 30.561 C 30.529 30.475,30.517 30.425,30.694 30.313 C 30.992 30.124,31.333 30.130,31.333 30.323 M39.792 31.912 C 39.631 32.132,39.500 32.374,39.500 32.450 C 39.500 32.525,39.350 32.680,39.167 32.795 C 38.983 32.909,38.833 33.115,38.833 33.251 C 38.833 33.388,38.723 33.500,38.589 33.500 C 38.455 33.500,38.265 33.650,38.167 33.833 C 38.023 34.102,38.040 34.167,38.254 34.167 C 38.400 34.167,38.478 34.100,38.428 34.018 C 38.377 33.936,38.517 33.823,38.739 33.768 C 39.002 33.702,39.245 33.435,39.437 33.000 C 39.598 32.633,39.810 32.333,39.907 32.332 C 40.004 32.331,40.170 32.144,40.276 31.915 C 40.534 31.359,40.195 31.357,39.792 31.912 M25.388 37.417 C 25.389 38.058,25.419 38.300,25.455 37.955 C 25.491 37.609,25.490 37.084,25.454 36.788 C 25.417 36.492,25.387 36.775,25.388 37.417 M30.000 37.083 C 30.000 37.282,30.230 37.331,31.125 37.321 L 32.250 37.308 31.667 37.083 C 30.847 36.768,30.000 36.768,30.000 37.083 M33.667 38.434 C 33.667 38.483,33.779 38.636,33.917 38.774 C 34.133 38.991,34.167 38.991,34.167 38.780 C 34.167 38.645,34.054 38.492,33.917 38.440 C 33.779 38.387,33.667 38.384,33.667 38.434 M41.000 40.250 C 41.000 40.387,41.056 40.500,41.125 40.500 C 41.194 40.500,41.231 42.187,41.208 44.250 C 41.182 46.477,41.228 48.000,41.320 48.000 C 41.409 48.000,41.473 46.873,41.470 45.351 C 41.468 43.894,41.517 42.466,41.581 42.178 C 41.652 41.856,41.621 41.562,41.500 41.417 C 41.393 41.287,41.351 41.106,41.407 41.015 C 41.542 40.796,41.339 40.000,41.149 40.000 C 41.067 40.000,41.000 40.112,41.000 40.250 M33.518 41.500 C 33.440 42.096,33.366 42.392,33.354 42.158 C 33.343 41.925,33.248 41.648,33.143 41.543 C 33.000 41.400,33.028 41.194,33.254 40.718 C 33.632 39.922,33.700 40.122,33.518 41.500 M18.167 48.823 C 18.167 49.276,18.092 49.693,18.000 49.750 C 17.897 49.814,17.833 49.502,17.833 48.927 C 17.833 48.417,17.908 48.000,18.000 48.000 C 18.092 48.000,18.167 48.371,18.167 48.823 M41.434 48.930 C 41.286 49.318,41.311 49.667,41.489 49.667 C 41.574 49.667,41.638 49.442,41.630 49.167 C 41.614 48.599,41.578 48.556,41.434 48.930 M39.083 57.980 C 39.450 58.349,39.844 58.654,39.958 58.658 C 40.073 58.663,40.167 58.746,40.167 58.843 C 40.167 58.940,40.242 58.973,40.333 58.917 C 40.425 58.860,40.500 58.731,40.500 58.629 C 40.500 58.528,40.453 58.491,40.397 58.548 C 40.251 58.693,39.083 57.873,39.083 57.625 C 39.083 57.513,38.933 57.396,38.750 57.365 C 38.494 57.322,38.571 57.465,39.083 57.980 M46.083 58.167 C 46.140 58.258,46.119 58.333,46.038 58.333 C 45.956 58.333,45.889 58.433,45.889 58.556 C 45.889 58.938,46.301 58.798,46.379 58.389 C 46.429 58.129,46.375 58.000,46.217 58.000 C 46.087 58.000,46.027 58.075,46.083 58.167 M45.656 59.115 C 45.651 59.189,45.610 59.587,45.567 60.000 C 45.493 60.701,45.502 60.723,45.709 60.333 C 45.978 59.825,46.034 59.207,45.823 59.077 C 45.737 59.024,45.662 59.041,45.656 59.115 M41.667 59.615 C 41.667 59.701,41.929 59.897,42.250 60.050 C 42.858 60.340,43.083 60.145,42.500 59.833 C 42.317 59.735,42.167 59.704,42.167 59.765 C 42.167 59.825,42.054 59.781,41.917 59.667 C 41.779 59.553,41.667 59.529,41.667 59.615 M43.167 60.361 C 43.167 60.438,43.312 60.500,43.490 60.500 C 43.668 60.500,43.860 60.575,43.917 60.667 C 44.044 60.873,44.500 60.888,44.500 60.686 C 44.500 60.539,44.007 60.338,43.458 60.263 C 43.298 60.240,43.167 60.285,43.167 60.361 M44.743 60.677 C 44.586 60.933,44.746 61.036,45.194 60.968 L 45.583 60.909 45.218 60.704 C 44.964 60.561,44.820 60.553,44.743 60.677 M64.585 62.273 C 64.282 62.575,64.253 62.561,64.093 62.041 C 64.011 61.776,64.054 61.635,64.239 61.565 C 64.382 61.509,64.500 61.297,64.500 61.093 C 64.500 60.364,64.751 60.484,64.801 61.237 C 64.836 61.773,64.771 62.086,64.585 62.273 M64.167 64.170 C 64.167 64.356,63.792 64.886,63.333 65.349 C 62.875 65.812,62.500 66.261,62.500 66.346 C 62.500 66.431,62.379 66.500,62.231 66.500 C 62.040 66.500,61.988 66.601,62.052 66.846 C 62.124 67.122,62.085 67.169,61.863 67.073 C 61.709 67.007,61.377 66.917,61.125 66.874 C 60.873 66.831,60.667 66.729,60.667 66.648 C 60.667 66.566,60.407 66.500,60.089 66.500 C 59.647 66.500,59.533 66.442,59.605 66.253 C 59.716 65.963,60.745 65.643,61.113 65.784 C 61.253 65.838,61.433 65.777,61.514 65.649 C 61.620 65.483,61.662 65.476,61.664 65.625 C 61.668 65.960,62.305 65.865,62.500 65.500 C 62.598 65.317,62.788 65.167,62.923 65.167 C 63.256 65.167,63.230 64.890,62.875 64.667 C 62.611 64.502,62.616 64.493,62.917 64.572 C 63.140 64.631,63.360 64.526,63.583 64.255 C 63.994 63.755,64.167 63.730,64.167 64.170 M41.483 66.261 C 41.523 66.301,39.462 66.319,36.903 66.302 C 34.213 66.284,32.883 66.231,33.750 66.177 C 35.368 66.076,41.363 66.141,41.483 66.261 M5.500 67.146 C 5.500 67.227,5.393 67.381,5.263 67.489 C 5.069 67.650,5.042 67.624,5.116 67.343 C 5.203 67.008,5.500 66.856,5.500 67.146 " stroke="none" fill="#249cec" fill-rule="evenodd"></path><path id="path3" d="M4.575 0.680 C 4.514 0.779,4.286 0.816,4.070 0.761 C 3.768 0.686,3.698 0.720,3.770 0.908 C 3.833 1.072,3.722 1.188,3.432 1.261 C 3.194 1.321,3.000 1.441,3.000 1.528 C 3.000 1.615,2.925 1.640,2.833 1.583 C 2.742 1.527,2.667 1.548,2.667 1.631 C 2.667 1.873,2.060 2.505,1.941 2.386 C 1.882 2.326,1.833 2.373,1.833 2.490 C 1.833 2.610,1.725 2.661,1.583 2.606 C 1.446 2.554,1.333 2.583,1.333 2.672 C 1.333 2.761,1.427 2.834,1.542 2.836 C 1.685 2.838,1.674 2.886,1.508 2.992 C 1.375 3.076,1.194 3.101,1.107 3.047 C 1.020 2.993,0.997 3.027,1.057 3.123 C 1.116 3.220,1.053 3.341,0.916 3.394 C 0.779 3.447,0.667 3.570,0.667 3.668 C 0.667 3.766,0.830 3.694,1.030 3.508 C 1.229 3.322,1.430 3.208,1.476 3.253 C 1.522 3.299,1.437 3.430,1.287 3.543 C 1.029 3.739,0.673 4.458,0.567 4.997 C 0.540 5.133,0.439 5.270,0.342 5.303 C 0.108 5.381,0.113 7.614,0.348 7.759 C 0.474 7.837,0.512 7.498,0.473 6.644 C 0.421 5.516,0.442 5.421,0.732 5.471 C 1.131 5.540,1.328 5.234,1.331 4.542 C 1.332 4.244,1.408 4.000,1.500 4.000 C 1.592 4.000,1.667 3.848,1.667 3.661 C 1.667 3.475,1.779 3.280,1.917 3.227 C 2.054 3.174,2.167 3.064,2.167 2.982 C 2.167 2.607,3.479 1.500,3.925 1.500 C 4.180 1.500,4.340 1.451,4.279 1.390 C 4.044 1.155,4.573 0.833,5.197 0.833 C 5.592 0.833,5.812 0.767,5.750 0.667 C 5.612 0.443,4.715 0.454,4.575 0.680 M60.583 0.667 C 60.527 0.758,60.584 0.833,60.710 0.833 C 60.916 0.833,61.622 1.369,62.347 2.076 C 62.493 2.218,62.696 2.333,62.800 2.333 C 62.904 2.333,62.946 2.446,62.894 2.583 C 62.833 2.742,62.896 2.833,63.066 2.833 C 63.213 2.833,63.333 2.948,63.333 3.089 C 63.333 3.229,63.448 3.388,63.588 3.442 C 63.749 3.503,63.807 3.655,63.744 3.853 C 63.668 4.091,63.727 4.167,63.989 4.167 C 64.288 4.167,64.333 4.269,64.333 4.939 C 64.333 5.556,64.420 5.792,64.765 6.112 L 65.196 6.512 65.223 34.464 C 65.238 49.838,65.190 62.698,65.117 63.042 C 65.027 63.467,65.044 63.667,65.169 63.667 C 65.270 63.667,65.310 63.597,65.257 63.512 C 65.204 63.426,65.235 63.311,65.326 63.254 C 65.572 63.103,65.565 5.766,65.319 5.306 C 65.186 5.058,65.185 4.992,65.317 5.073 C 65.418 5.135,65.500 5.107,65.500 5.010 C 65.500 4.913,65.350 4.833,65.167 4.833 C 64.983 4.833,64.842 4.777,64.853 4.708 C 64.906 4.376,64.817 4.157,64.667 4.250 C 64.575 4.307,64.500 4.236,64.500 4.093 C 64.500 3.745,64.776 3.763,64.987 4.125 C 65.317 4.692,65.162 4.168,64.815 3.547 C 64.416 2.831,64.231 2.613,64.384 3.039 C 64.471 3.281,64.439 3.298,64.192 3.144 C 63.903 2.963,63.393 2.029,63.459 1.802 C 63.478 1.739,63.345 1.716,63.163 1.751 C 62.982 1.786,62.833 1.739,62.833 1.647 C 62.833 1.555,62.740 1.537,62.625 1.605 C 62.461 1.704,62.462 1.675,62.627 1.471 C 62.800 1.257,62.785 1.170,62.544 0.980 C 62.277 0.771,62.271 0.777,62.479 1.042 C 62.720 1.349,62.384 1.496,62.097 1.208 C 62.028 1.140,61.885 1.080,61.778 1.076 C 61.671 1.072,61.601 0.981,61.623 0.873 C 61.645 0.766,61.559 0.719,61.432 0.767 C 61.304 0.816,61.151 0.776,61.090 0.678 C 60.952 0.454,60.718 0.449,60.583 0.667 M45.035 7.429 C 44.858 7.625,44.865 7.667,45.077 7.667 C 45.218 7.667,45.334 7.760,45.336 7.875 C 45.338 8.016,45.388 8.004,45.493 7.838 C 45.702 7.509,45.773 7.618,45.916 8.479 C 46.002 9.003,45.984 9.176,45.849 9.093 C 45.746 9.029,45.695 8.922,45.736 8.856 C 45.778 8.789,45.742 8.625,45.658 8.492 C 45.537 8.300,45.505 8.321,45.503 8.597 C 45.501 8.788,45.555 9.000,45.623 9.067 C 45.690 9.135,45.754 9.279,45.764 9.387 C 45.774 9.495,45.794 9.715,45.808 9.875 C 45.843 10.280,46.167 10.243,46.167 9.833 C 46.167 9.650,46.087 9.500,45.990 9.500 C 45.893 9.500,45.860 9.425,45.917 9.333 C 46.105 9.029,46.333 9.161,46.333 9.573 C 46.333 9.797,46.408 10.027,46.500 10.083 C 46.757 10.242,46.697 10.667,46.417 10.667 C 46.279 10.667,46.167 10.747,46.167 10.845 C 46.167 10.947,46.309 10.977,46.500 10.917 C 46.760 10.834,46.833 10.887,46.833 11.155 C 46.833 11.369,46.725 11.500,46.550 11.500 C 46.341 11.500,46.315 11.549,46.454 11.687 C 46.556 11.790,46.605 11.968,46.561 12.082 C 46.460 12.344,46.873 12.515,47.167 12.333 C 47.339 12.227,47.346 12.094,47.200 11.724 C 47.097 11.463,46.963 10.950,46.901 10.583 C 46.838 10.217,46.659 9.617,46.502 9.250 C 46.345 8.883,46.149 8.367,46.067 8.102 C 45.864 7.452,45.330 7.103,45.035 7.429 M41.083 8.000 C 41.140 8.092,41.294 8.167,41.427 8.167 C 41.559 8.167,41.667 8.092,41.667 8.000 C 41.667 7.908,41.512 7.833,41.323 7.833 C 41.135 7.833,41.027 7.908,41.083 8.000 M43.279 8.075 C 42.555 8.333,42.199 8.607,42.833 8.417 C 43.452 8.232,44.275 7.861,44.083 7.854 C 43.992 7.851,43.630 7.950,43.279 8.075 M28.146 8.151 C 28.273 8.231,28.325 8.379,28.262 8.481 C 28.056 8.813,28.326 9.016,28.704 8.813 L 29.054 8.626 28.652 8.317 C 28.431 8.147,28.175 8.007,28.083 8.006 C 27.992 8.006,28.020 8.071,28.146 8.151 M0.548 8.917 C 0.549 9.375,0.581 9.543,0.620 9.289 C 0.658 9.036,0.657 8.661,0.617 8.456 C 0.578 8.251,0.546 8.458,0.548 8.917 M39.792 8.686 C 39.149 9.012,38.967 9.333,39.427 9.333 C 39.569 9.333,39.642 9.261,39.587 9.173 C 39.533 9.085,39.729 8.950,40.024 8.874 C 40.319 8.797,40.591 8.644,40.628 8.534 C 40.715 8.272,40.550 8.302,39.792 8.686 M41.708 8.748 C 41.410 8.878,41.164 8.931,41.162 8.867 C 41.159 8.803,41.080 8.881,40.987 9.042 C 40.893 9.202,40.635 9.333,40.414 9.333 C 40.120 9.333,40.037 9.403,40.109 9.589 C 40.195 9.815,40.258 9.811,40.645 9.556 C 40.886 9.397,41.365 9.130,41.708 8.963 C 42.052 8.796,42.333 8.623,42.333 8.579 C 42.333 8.476,42.339 8.474,41.708 8.748 M38.000 9.250 C 38.000 9.387,38.131 9.499,38.292 9.497 C 38.520 9.495,38.534 9.464,38.356 9.351 C 38.164 9.229,38.164 9.193,38.356 9.117 C 38.515 9.054,38.495 9.022,38.292 9.013 C 38.131 9.006,38.000 9.112,38.000 9.250 M55.017 9.274 C 54.590 9.572,54.588 9.731,55.000 10.583 C 55.177 10.950,55.325 11.539,55.328 11.893 C 55.332 12.329,55.467 12.694,55.750 13.030 C 56.069 13.409,56.171 13.729,56.185 14.388 C 56.233 16.629,56.286 17.186,56.469 17.369 C 56.578 17.478,56.677 18.058,56.689 18.658 L 56.711 19.750 56.830 18.917 C 56.896 18.458,56.914 17.807,56.871 17.469 L 56.792 16.855 57.521 16.802 C 58.533 16.730,58.639 15.949,57.648 15.866 L 57.046 15.816 56.940 14.800 C 56.784 13.317,56.800 13.200,57.167 13.083 C 57.572 12.955,57.618 12.087,57.245 11.593 C 57.109 11.413,57.000 10.915,57.000 10.472 C 57.000 9.360,55.869 8.677,55.017 9.274 M23.000 9.667 C 23.000 9.758,23.188 9.833,23.417 9.833 C 23.646 9.833,23.833 9.758,23.833 9.667 C 23.833 9.575,23.646 9.500,23.417 9.500 C 23.188 9.500,23.000 9.575,23.000 9.667 M17.458 10.013 C 17.066 10.242,17.089 10.870,17.500 11.167 C 17.732 11.334,17.833 11.598,17.833 12.037 C 17.833 12.383,17.908 12.667,18.000 12.667 C 18.092 12.667,18.167 12.310,18.169 11.875 C 18.170 11.440,18.217 10.802,18.274 10.458 C 18.385 9.784,18.110 9.634,17.458 10.013 M39.559 10.077 C 39.367 10.212,39.157 10.268,39.091 10.202 C 39.026 10.137,38.992 10.158,39.016 10.250 C 39.041 10.342,38.691 10.804,38.239 11.278 C 37.787 11.752,37.280 12.390,37.113 12.695 L 36.810 13.250 37.183 12.750 C 37.388 12.475,38.100 11.706,38.766 11.042 C 39.431 10.377,39.960 9.833,39.942 9.833 C 39.923 9.833,39.751 9.943,39.559 10.077 M7.458 10.927 C 7.115 11.153,6.823 11.393,6.810 11.461 C 6.690 12.094,6.750 12.999,6.937 13.367 C 7.063 13.614,7.167 14.083,7.167 14.408 C 7.167 14.734,7.226 15.000,7.298 15.000 C 7.501 15.000,7.506 15.708,7.305 15.951 C 7.176 16.106,7.179 16.167,7.313 16.167 C 7.416 16.167,7.500 16.307,7.500 16.480 C 7.500 16.987,7.890 17.210,8.384 16.985 C 8.891 16.754,9.058 16.249,8.735 15.926 C 8.585 15.775,8.500 15.329,8.500 14.686 L 8.500 13.682 9.487 13.229 C 11.022 12.525,11.129 11.695,9.772 11.026 C 8.666 10.481,8.168 10.460,7.458 10.927 M20.792 10.623 C 21.273 10.657,22.060 10.657,22.542 10.623 C 23.023 10.589,22.629 10.562,21.667 10.562 C 20.704 10.562,20.310 10.589,20.792 10.623 M18.851 11.000 C 18.840 11.137,18.832 20.129,18.833 30.981 C 18.835 44.599,18.781 50.778,18.660 50.925 C 18.490 51.130,18.746 51.476,18.930 51.292 C 18.972 51.251,19.004 42.281,19.001 31.358 L 18.997 11.500 22.175 11.500 C 24.673 11.500,25.326 11.545,25.228 11.708 C 25.143 11.850,25.193 11.843,25.385 11.688 C 25.895 11.274,25.699 11.250,22.348 11.301 C 19.262 11.349,19.023 11.331,18.950 11.051 C 18.897 10.845,18.866 10.829,18.851 11.000 M25.667 12.482 C 25.667 13.026,25.603 13.314,25.498 13.249 C 25.385 13.179,25.335 19.346,25.344 32.031 C 25.352 42.418,25.308 51.048,25.245 51.208 C 25.144 51.468,24.858 51.500,22.649 51.500 C 21.105 51.500,20.167 51.563,20.167 51.667 C 20.167 51.919,24.984 51.879,25.488 51.623 C 25.910 51.408,26.251 50.572,25.984 50.407 C 25.892 50.350,25.832 42.600,25.835 31.048 C 25.837 20.452,25.800 11.744,25.753 11.697 C 25.705 11.650,25.667 12.003,25.667 12.482 M46.500 12.667 C 46.500 12.758,46.281 12.833,46.014 12.833 C 45.747 12.833,45.501 12.913,45.469 13.010 C 45.437 13.106,45.281 13.136,45.123 13.075 C 44.965 13.015,44.883 12.879,44.942 12.774 C 45.001 12.669,44.945 12.680,44.818 12.799 C 44.620 12.982,44.623 13.037,44.835 13.171 C 45.046 13.304,45.039 13.329,44.792 13.331 C 44.631 13.332,44.500 13.408,44.500 13.500 C 44.500 13.592,44.387 13.667,44.250 13.667 C 44.112 13.667,43.869 13.798,43.708 13.958 C 43.548 14.119,43.310 14.250,43.181 14.250 C 43.051 14.250,42.914 14.362,42.876 14.500 C 42.822 14.699,42.840 14.704,42.964 14.528 C 43.092 14.345,43.137 14.349,43.214 14.549 C 43.321 14.828,43.042 15.167,42.707 15.167 C 42.582 15.167,42.522 15.234,42.572 15.315 C 42.623 15.397,42.497 15.828,42.292 16.274 C 41.931 17.062,41.893 17.179,41.853 17.635 C 41.841 17.763,41.748 17.802,41.625 17.728 C 41.462 17.630,41.463 17.660,41.628 17.864 C 41.744 18.007,41.797 18.235,41.745 18.370 C 41.693 18.505,41.625 18.833,41.594 19.099 C 41.563 19.366,41.529 19.644,41.519 19.718 C 41.509 19.792,41.425 19.807,41.333 19.750 C 41.242 19.693,41.167 19.806,41.167 20.000 C 41.167 20.194,41.235 20.311,41.318 20.259 C 41.406 20.205,41.475 21.360,41.483 23.033 C 41.491 24.610,41.543 26.143,41.599 26.439 C 41.654 26.736,41.641 27.074,41.569 27.190 C 41.497 27.306,41.414 27.626,41.384 27.901 C 41.353 28.175,41.236 28.459,41.123 28.531 C 40.960 28.634,40.960 28.662,41.125 28.664 C 41.240 28.666,41.333 28.742,41.333 28.833 C 41.333 28.925,41.221 29.000,41.083 29.000 C 40.946 29.000,40.833 29.073,40.833 29.161 C 40.833 29.250,40.946 29.280,41.083 29.227 C 41.396 29.107,41.405 29.339,41.102 29.753 C 40.975 29.927,40.905 30.160,40.948 30.271 C 41.052 30.542,40.544 31.295,40.196 31.388 C 39.939 31.455,39.939 31.463,40.193 31.481 C 40.512 31.503,40.235 32.330,39.907 32.332 C 39.810 32.333,39.598 32.633,39.437 33.000 C 39.245 33.435,39.002 33.702,38.739 33.768 C 38.515 33.824,38.384 33.947,38.444 34.044 C 38.512 34.155,38.420 34.185,38.193 34.125 C 37.941 34.059,37.833 34.107,37.833 34.284 C 37.833 34.467,37.943 34.509,38.233 34.436 C 38.513 34.365,38.663 34.416,38.736 34.608 C 38.824 34.836,38.799 34.846,38.587 34.670 C 38.214 34.360,38.277 34.731,38.656 35.074 C 38.838 35.238,39.068 35.311,39.182 35.241 C 39.301 35.167,39.342 35.185,39.281 35.283 C 39.224 35.375,39.269 35.576,39.380 35.728 C 39.559 35.973,39.586 35.954,39.609 35.566 C 39.626 35.262,39.537 35.101,39.319 35.044 C 39.146 34.999,39.042 34.901,39.088 34.826 C 39.134 34.751,39.096 34.643,39.003 34.585 C 38.713 34.406,38.816 34.043,39.183 33.947 C 39.376 33.897,39.487 33.781,39.431 33.690 C 39.375 33.599,39.481 33.476,39.667 33.417 C 39.853 33.358,39.961 33.239,39.909 33.153 C 39.856 33.068,39.929 32.953,40.073 32.898 C 40.216 32.843,40.333 32.699,40.333 32.577 C 40.333 32.456,40.436 32.255,40.561 32.129 C 40.687 32.004,40.846 31.717,40.914 31.492 C 40.983 31.267,41.134 30.971,41.249 30.833 C 41.652 30.351,41.982 26.563,41.997 22.250 C 42.003 20.417,42.083 18.617,42.176 18.250 C 42.268 17.883,42.381 17.324,42.428 17.007 C 42.474 16.689,42.622 16.308,42.756 16.160 C 42.890 16.012,43.000 15.811,43.000 15.713 C 43.000 15.615,43.112 15.492,43.250 15.440 C 43.387 15.387,43.500 15.191,43.500 15.005 C 43.500 14.775,43.609 14.667,43.843 14.667 C 44.032 14.667,44.140 14.592,44.083 14.500 C 44.027 14.408,44.060 14.333,44.157 14.333 C 44.254 14.333,44.333 14.221,44.333 14.083 C 44.333 13.946,44.429 13.833,44.546 13.833 C 44.663 13.833,44.943 13.705,45.167 13.548 C 45.391 13.391,45.689 13.253,45.829 13.243 C 45.969 13.232,46.236 13.211,46.423 13.195 C 46.758 13.167,46.982 12.500,46.656 12.500 C 46.570 12.500,46.500 12.575,46.500 12.667 M18.542 13.750 C 18.544 14.117,18.578 14.247,18.618 14.040 C 18.658 13.832,18.656 13.532,18.615 13.373 C 18.573 13.214,18.540 13.383,18.542 13.750 M36.421 13.825 C 36.131 14.386,36.101 14.560,36.317 14.427 C 36.476 14.329,36.866 13.333,36.746 13.333 C 36.707 13.333,36.561 13.555,36.421 13.825 M35.924 14.821 C 35.265 15.888,34.950 18.345,34.844 23.250 C 34.749 27.686,34.701 28.325,34.419 28.917 C 34.244 29.283,34.067 29.658,34.026 29.750 C 33.985 29.842,34.110 29.775,34.305 29.603 C 34.500 29.430,34.619 29.224,34.570 29.144 C 34.520 29.065,34.572 29.000,34.685 29.000 C 34.797 29.000,34.844 28.955,34.788 28.900 C 34.733 28.844,34.772 28.601,34.874 28.358 C 34.984 28.097,35.113 26.005,35.190 23.250 C 35.334 18.083,35.389 17.305,35.658 16.602 C 35.759 16.338,35.885 15.850,35.938 15.519 C 35.990 15.188,36.120 14.862,36.225 14.794 C 36.367 14.703,36.366 14.671,36.218 14.669 C 36.109 14.668,35.977 14.736,35.924 14.821 M18.579 29.167 C 18.579 36.179,18.600 39.048,18.625 35.542 C 18.650 32.035,18.650 26.298,18.625 22.792 C 18.600 19.285,18.579 22.154,18.579 29.167 M151.247 39.917 C 151.247 49.633,151.267 53.633,151.292 48.804 C 151.316 43.976,151.316 36.026,151.292 31.138 C 151.267 26.249,151.247 30.200,151.247 39.917 M41.212 23.667 C 41.212 24.079,41.245 24.248,41.284 24.042 C 41.324 23.835,41.324 23.498,41.284 23.292 C 41.245 23.085,41.212 23.254,41.212 23.667 M17.833 25.917 C 17.833 26.943,17.893 27.483,18.000 27.417 C 18.092 27.360,18.167 26.685,18.167 25.917 C 18.167 25.148,18.092 24.473,18.000 24.417 C 17.893 24.351,17.833 24.890,17.833 25.917 M33.385 26.750 C 33.386 27.300,33.417 27.505,33.454 27.205 C 33.491 26.906,33.490 26.456,33.452 26.205 C 33.414 25.955,33.384 26.200,33.385 26.750 M30.694 30.313 C 30.517 30.425,30.529 30.475,30.751 30.561 C 31.059 30.679,31.333 30.567,31.333 30.323 C 31.333 30.130,30.992 30.124,30.694 30.313 M32.574 30.908 C 32.261 31.142,32.263 31.147,32.628 31.055 C 32.835 31.003,33.046 30.894,33.096 30.813 C 33.237 30.585,32.932 30.641,32.574 30.908 M29.721 31.208 C 29.466 31.613,29.437 37.358,29.689 37.518 C 29.814 37.597,30.427 37.663,31.052 37.664 C 31.765 37.666,32.148 37.729,32.083 37.833 C 32.025 37.927,32.160 38.000,32.393 38.000 C 32.840 38.000,33.833 39.079,33.833 39.566 C 33.833 39.713,33.927 39.834,34.042 39.835 C 34.289 39.836,34.693 40.630,34.483 40.701 C 34.403 40.728,34.302 41.125,34.257 41.583 C 34.213 42.042,34.218 42.285,34.267 42.125 C 34.641 40.918,34.829 42.420,34.831 46.630 C 34.833 49.349,34.883 50.196,35.046 50.259 C 35.288 50.352,35.229 51.667,34.982 51.667 C 34.900 51.667,34.833 51.821,34.833 52.010 C 34.833 52.199,34.906 52.308,34.995 52.253 C 35.084 52.198,35.205 52.344,35.263 52.577 C 35.322 52.809,35.466 53.000,35.584 53.000 C 35.839 53.000,36.048 53.456,35.827 53.531 C 35.618 53.602,35.983 54.826,36.339 55.250 C 36.493 55.433,36.723 55.827,36.850 56.125 C 36.977 56.423,37.138 56.667,37.207 56.667 C 37.277 56.667,37.333 56.782,37.333 56.922 C 37.333 57.062,37.446 57.220,37.583 57.273 C 37.721 57.326,37.833 57.473,37.833 57.601 C 37.833 57.729,37.904 57.833,37.991 57.833 C 38.078 57.833,38.354 58.023,38.603 58.254 C 38.853 58.485,39.232 58.719,39.445 58.772 C 39.659 58.826,39.833 58.974,39.833 59.101 C 39.833 59.250,40.020 59.333,40.351 59.333 C 40.732 59.333,40.845 59.396,40.777 59.572 C 40.714 59.737,40.850 59.847,41.218 59.928 C 41.511 59.992,41.843 60.178,41.957 60.340 C 42.086 60.524,42.291 60.603,42.499 60.549 C 42.686 60.500,42.833 60.543,42.833 60.647 C 42.833 60.750,43.040 60.839,43.292 60.846 C 43.566 60.854,43.650 60.899,43.500 60.958 C 43.193 61.079,45.118 61.481,45.511 61.379 C 45.801 61.303,46.167 60.669,46.167 60.242 C 46.167 60.109,46.254 60.000,46.361 60.000 C 46.468 60.000,46.506 59.951,46.446 59.890 C 46.386 59.830,46.416 59.685,46.513 59.568 C 46.610 59.450,46.654 59.129,46.611 58.852 C 46.567 58.576,46.607 58.325,46.699 58.295 C 46.791 58.264,46.907 57.874,46.958 57.428 C 47.058 56.535,46.776 56.458,46.585 57.325 C 46.526 57.594,46.352 57.846,46.197 57.887 C 45.953 57.952,45.951 57.964,46.185 57.981 C 46.380 57.995,46.432 58.116,46.373 58.420 C 46.305 58.779,46.254 58.809,46.031 58.629 C 45.828 58.464,45.797 58.463,45.895 58.625 C 45.966 58.745,45.936 58.833,45.823 58.833 C 45.686 58.833,45.678 58.897,45.795 59.042 C 46.077 59.390,45.770 60.750,45.453 60.554 C 45.343 60.486,45.317 60.550,45.383 60.723 C 45.465 60.937,45.392 61.000,45.060 61.000 C 44.747 61.000,44.657 60.932,44.727 60.750 C 44.780 60.612,44.756 60.500,44.675 60.500 C 44.594 60.500,44.494 60.594,44.452 60.708 C 44.392 60.875,44.306 60.875,44.024 60.708 C 43.830 60.594,43.558 60.500,43.419 60.500 C 43.280 60.500,43.167 60.427,43.167 60.339 C 43.167 60.250,43.298 60.223,43.458 60.280 C 43.652 60.348,43.694 60.327,43.583 60.216 C 43.349 59.983,41.135 58.980,41.244 59.157 C 41.293 59.237,41.177 59.261,40.986 59.211 C 40.759 59.152,40.706 59.079,40.833 59.000 C 40.973 58.914,40.959 58.853,40.784 58.786 C 40.650 58.735,40.445 58.781,40.329 58.888 C 40.164 59.041,40.138 59.024,40.213 58.811 C 40.325 58.489,39.469 57.594,39.151 57.700 C 39.035 57.738,39.228 57.947,39.583 58.167 C 39.937 58.385,40.140 58.592,40.035 58.627 C 39.784 58.711,38.447 57.469,38.652 57.342 C 38.740 57.288,38.463 56.870,38.038 56.414 C 37.613 55.957,37.272 55.546,37.281 55.500 C 37.299 55.410,36.849 54.501,36.327 53.573 C 36.150 53.258,36.041 53.000,36.084 53.000 C 36.127 53.000,36.010 52.616,35.825 52.147 C 35.640 51.677,35.457 50.877,35.418 50.369 C 35.379 49.861,35.250 49.383,35.132 49.308 C 35.014 49.233,34.992 49.171,35.083 49.169 C 35.461 49.164,35.177 41.027,34.746 39.500 C 34.733 39.454,34.667 39.219,34.598 38.978 C 34.428 38.377,33.473 37.489,32.713 37.224 C 32.007 36.978,31.371 36.932,31.917 37.167 C 32.149 37.266,31.911 37.313,31.132 37.322 L 30.015 37.333 29.966 34.416 L 29.917 31.500 30.667 31.475 C 31.228 31.456,31.291 31.432,30.917 31.379 C 30.642 31.340,30.345 31.238,30.258 31.154 C 30.042 30.944,29.878 30.961,29.721 31.208 M68.912 45.500 C 68.912 51.962,68.933 54.606,68.958 51.375 C 68.984 48.144,68.984 42.856,68.958 39.625 C 68.933 36.394,68.912 39.037,68.912 45.500 M39.699 36.458 C 39.836 36.619,39.996 36.881,40.053 37.042 C 40.110 37.202,40.242 37.333,40.347 37.333 C 40.469 37.333,40.439 37.182,40.265 36.917 C 40.115 36.688,40.069 36.500,40.163 36.500 C 40.543 36.500,40.302 36.237,39.891 36.203 C 39.483 36.169,39.468 36.190,39.699 36.458 M41.003 37.842 C 41.001 37.984,41.088 38.188,41.196 38.296 C 41.346 38.446,41.326 38.565,41.110 38.804 C 40.806 39.140,40.825 39.858,41.140 39.963 C 41.356 40.035,41.402 40.434,41.208 40.542 C 41.140 40.581,41.185 40.586,41.310 40.554 C 41.475 40.512,41.509 40.609,41.435 40.905 C 41.378 41.129,41.413 41.363,41.511 41.424 C 41.623 41.493,41.647 41.787,41.576 42.208 C 41.514 42.578,41.466 44.033,41.469 45.441 C 41.473 46.910,41.410 48.000,41.321 48.000 C 41.121 48.000,41.119 48.784,41.319 48.908 C 41.403 48.960,41.505 48.908,41.545 48.793 C 41.585 48.678,41.620 48.808,41.623 49.083 C 41.625 49.358,41.549 49.633,41.453 49.693 C 41.342 49.763,41.384 49.908,41.569 50.092 C 41.801 50.325,41.814 50.409,41.637 50.522 C 41.456 50.636,41.458 50.662,41.645 50.664 C 41.823 50.666,41.831 50.719,41.679 50.902 C 41.543 51.065,41.538 51.170,41.661 51.247 C 41.759 51.307,41.796 51.426,41.743 51.512 C 41.690 51.597,41.783 51.668,41.948 51.669 C 42.204 51.671,42.212 51.696,42.000 51.833 C 41.798 51.964,41.822 51.995,42.125 51.997 C 42.331 51.999,42.500 52.083,42.500 52.184 C 42.500 52.286,42.383 52.324,42.239 52.269 C 42.032 52.190,42.002 52.246,42.095 52.543 C 42.292 53.169,42.842 53.750,43.247 53.757 C 43.662 53.766,43.650 53.426,43.228 53.265 C 43.090 53.212,43.027 53.243,43.085 53.335 C 43.299 53.683,42.902 53.469,42.625 53.088 C 42.446 52.842,42.397 52.647,42.500 52.583 C 42.592 52.527,42.667 52.597,42.667 52.740 C 42.667 52.883,42.742 53.000,42.833 53.000 C 42.925 53.000,43.000 52.808,43.000 52.573 C 43.000 52.339,42.927 52.192,42.838 52.247 C 42.749 52.302,42.631 52.138,42.574 51.882 C 42.518 51.626,42.393 51.192,42.296 50.917 C 42.199 50.642,42.056 48.167,41.977 45.417 C 41.865 41.478,41.477 36.851,41.348 37.917 C 41.337 38.008,41.256 37.971,41.167 37.833 C 41.024 37.613,41.005 37.614,41.003 37.842 M34.222 38.762 C 34.148 38.956,34.098 38.955,33.900 38.758 C 33.581 38.439,33.607 38.349,33.988 38.449 C 34.177 38.498,34.274 38.628,34.222 38.762 M33.254 40.718 C 33.028 41.194,33.000 41.400,33.143 41.543 C 33.248 41.648,33.343 41.925,33.354 42.158 C 33.366 42.392,33.440 42.096,33.518 41.500 C 33.700 40.122,33.632 39.922,33.254 40.718 M0.245 51.833 C 0.245 57.746,0.266 60.165,0.292 57.208 C 0.317 54.252,0.317 49.415,0.292 46.458 C 0.266 43.502,0.245 45.921,0.245 51.833 M17.833 48.927 C 17.833 49.502,17.897 49.814,18.000 49.750 C 18.092 49.693,18.167 49.276,18.167 48.823 C 18.167 48.371,18.092 48.000,18.000 48.000 C 17.908 48.000,17.833 48.417,17.833 48.927 M43.000 54.125 C 43.000 54.385,44.224 55.211,45.340 55.704 C 45.978 55.986,46.500 56.280,46.500 56.358 C 46.500 56.436,46.575 56.500,46.667 56.500 C 46.758 56.500,46.833 56.387,46.833 56.250 C 46.833 56.044,46.647 55.930,46.458 56.020 C 46.435 56.031,46.154 55.880,45.833 55.686 C 45.512 55.491,45.006 55.219,44.708 55.080 C 44.410 54.942,44.167 54.788,44.167 54.738 C 44.167 54.688,44.253 54.701,44.359 54.766 C 44.482 54.842,44.506 54.811,44.426 54.681 C 44.356 54.569,44.202 54.515,44.082 54.561 C 43.963 54.607,43.733 54.499,43.573 54.322 C 43.276 53.994,43.000 53.899,43.000 54.125 M42.167 59.765 C 42.167 59.704,42.317 59.735,42.500 59.833 C 43.083 60.145,42.858 60.340,42.250 60.050 C 41.929 59.897,41.667 59.701,41.667 59.615 C 41.667 59.529,41.779 59.553,41.917 59.667 C 42.054 59.781,42.167 59.825,42.167 59.765 M64.625 60.596 C 64.556 60.665,64.500 60.889,64.500 61.093 C 64.500 61.297,64.382 61.509,64.239 61.565 C 64.009 61.653,64.024 62.210,64.263 62.478 C 64.488 62.732,64.845 61.908,64.801 61.237 C 64.773 60.815,64.694 60.526,64.625 60.596 M1.005 63.292 C 1.002 63.590,0.935 63.833,0.856 63.833 C 0.777 63.833,0.730 64.002,0.751 64.208 C 0.809 64.758,0.842 64.785,1.000 64.417 C 1.122 64.132,1.145 64.126,1.155 64.375 C 1.161 64.535,1.230 64.667,1.308 64.667 C 1.386 64.667,1.530 64.835,1.630 65.042 C 1.809 65.412,1.811 65.411,1.822 64.968 C 1.828 64.721,1.758 64.473,1.667 64.417 C 1.575 64.360,1.500 64.107,1.500 63.855 C 1.500 63.603,1.390 63.251,1.255 63.074 C 1.024 62.768,1.010 62.779,1.005 63.292 M64.627 63.743 C 64.583 63.976,64.609 64.167,64.686 64.167 C 64.762 64.167,64.621 64.504,64.372 64.917 C 64.123 65.329,63.825 65.667,63.710 65.667 C 63.594 65.667,63.500 65.756,63.500 65.866 C 63.500 65.975,63.298 66.294,63.051 66.574 C 62.803 66.854,63.037 66.652,63.569 66.124 C 64.798 64.907,65.247 64.087,64.931 63.637 C 64.718 63.333,64.705 63.338,64.627 63.743 M63.583 64.255 C 63.360 64.526,63.140 64.631,62.917 64.572 C 62.616 64.493,62.611 64.502,62.875 64.667 C 63.230 64.890,63.256 65.167,62.923 65.167 C 62.788 65.167,62.598 65.317,62.500 65.500 C 62.305 65.865,61.668 65.960,61.664 65.625 C 61.662 65.476,61.620 65.483,61.514 65.649 C 61.433 65.777,61.253 65.838,61.113 65.784 C 60.745 65.643,59.716 65.963,59.605 66.253 C 59.533 66.442,59.647 66.500,60.089 66.500 C 60.407 66.500,60.667 66.575,60.667 66.667 C 60.667 66.758,60.835 66.836,61.042 66.839 C 61.248 66.842,61.604 66.960,61.833 67.101 C 62.063 67.241,62.131 67.321,61.984 67.277 C 61.838 67.233,61.276 67.143,60.734 67.076 C 60.193 67.009,59.701 66.878,59.640 66.784 C 59.571 66.676,59.428 66.715,59.253 66.890 C 58.995 67.148,59.031 67.167,59.780 67.169 C 60.807 67.172,61.276 67.424,60.581 67.599 C 60.149 67.707,60.132 67.735,60.423 67.849 C 60.690 67.953,60.699 67.979,60.468 67.988 C 60.313 67.995,60.142 68.072,60.087 68.160 C 60.029 68.255,60.194 68.248,60.494 68.144 C 60.772 68.047,60.953 67.892,60.896 67.799 C 60.833 67.699,60.917 67.668,61.104 67.724 C 61.528 67.849,62.655 67.262,62.272 67.115 C 61.931 66.984,61.913 66.500,62.250 66.500 C 62.387 66.500,62.500 66.431,62.500 66.346 C 62.500 66.261,62.875 65.812,63.333 65.349 C 63.792 64.886,64.167 64.356,64.167 64.170 C 64.167 63.730,63.994 63.755,63.583 64.255 M33.750 66.177 C 32.883 66.231,34.213 66.284,36.903 66.302 C 39.462 66.319,41.523 66.301,41.483 66.261 C 41.363 66.141,35.368 66.076,33.750 66.177 M2.838 66.827 C 2.703 66.912,2.628 67.010,2.671 67.045 C 2.925 67.250,3.978 67.833,4.095 67.833 C 4.294 67.833,3.929 67.496,3.472 67.259 C 3.258 67.147,3.102 66.968,3.125 66.861 C 3.175 66.629,3.155 66.626,2.838 66.827 M5.116 67.343 C 5.042 67.624,5.069 67.650,5.263 67.489 C 5.528 67.269,5.578 67.000,5.353 67.000 C 5.272 67.000,5.165 67.154,5.116 67.343 M61.667 67.500 C 61.344 67.709,61.167 67.709,61.167 67.500 C 61.167 67.408,61.335 67.334,61.542 67.336 C 61.845 67.338,61.869 67.369,61.667 67.500 M4.917 68.067 C 5.192 68.197,5.448 68.272,5.486 68.235 C 5.603 68.120,5.438 68.031,4.916 67.929 L 4.417 67.831 4.917 68.067 M16.049 68.291 C 16.764 68.322,17.889 68.322,18.549 68.290 C 19.210 68.259,18.625 68.233,17.250 68.233 C 15.875 68.234,15.335 68.259,16.049 68.291 M34.970 68.292 C 37.842 68.317,42.492 68.317,45.304 68.292 C 48.116 68.266,45.767 68.245,40.083 68.245 C 34.400 68.245,32.099 68.266,34.970 68.292 " stroke="none" fill="#2494eb" fill-rule="evenodd"></path><path id="path4" d="M43.583 8.148 C 41.078 9.122,39.586 10.075,38.206 11.580 C 37.312 12.556,36.364 14.090,36.362 14.565 C 36.362 14.646,36.288 14.759,36.198 14.815 C 36.107 14.871,35.988 15.217,35.933 15.583 C 35.862 16.052,35.881 16.176,35.997 16.000 C 36.087 15.862,36.163 15.656,36.164 15.542 C 36.178 14.450,38.114 11.759,39.884 10.372 C 41.216 9.328,43.947 8.000,44.761 8.000 C 44.973 8.000,45.193 7.925,45.250 7.833 C 45.422 7.555,44.812 7.670,43.583 8.148 M19.041 31.292 L 19.082 51.083 19.125 31.379 L 19.168 11.674 22.292 11.625 L 25.417 11.576 22.208 11.538 L 19.000 11.500 19.041 31.292 M35.238 23.583 C 35.238 25.692,35.262 26.531,35.291 25.449 C 35.320 24.367,35.320 22.642,35.291 21.616 C 35.262 20.590,35.238 21.475,35.238 23.583 M33.833 30.138 C 33.264 30.743,32.863 31.000,32.167 31.204 C 31.150 31.502,31.526 31.604,32.583 31.317 C 33.316 31.118,34.065 30.501,34.436 29.792 C 34.755 29.181,34.709 29.207,33.833 30.138 M35.238 44.917 C 35.238 46.933,35.262 47.735,35.291 46.699 C 35.320 45.663,35.320 44.013,35.291 43.032 C 35.262 42.052,35.238 42.900,35.238 44.917 M64.678 64.833 C 64.645 65.372,62.397 67.337,61.223 67.853 C 60.091 68.350,60.321 68.416,61.568 67.951 C 62.698 67.530,64.977 65.291,64.779 64.797 C 64.717 64.644,64.689 64.654,64.678 64.833 " stroke="none" fill="#051520" fill-rule="evenodd"></path></g></svg>