<svg id="svg" version="1.1" xmlns="http://www.w3.org/2000/svg" xmlns:xlink="http://www.w3.org/1999/xlink" width="400" height="400" viewBox="0, 0, 400,400"><g id="svgg"><path id="path0" d="M277.400 29.890 C 266.204 33.064,256.846 36.824,250.200 40.817 C 249.100 41.477,247.930 42.137,247.600 42.283 C 246.593 42.728,242.340 45.693,239.888 47.660 C 224.121 60.306,215.636 76.302,212.548 99.200 C 212.075 102.707,211.851 110.118,211.605 130.400 C 211.388 148.250,211.130 157.592,210.818 158.800 C 209.820 162.675,209.497 163.830,209.195 164.600 C 209.022 165.040,208.646 166.030,208.359 166.800 C 204.535 177.065,194.790 182.800,181.174 182.800 L 176.000 182.800 176.000 200.146 L 176.000 217.493 182.100 217.718 C 198.739 218.333,206.833 225.015,210.664 241.304 C 211.128 243.277,211.322 249.329,211.591 270.200 C 211.964 299.234,212.257 303.176,214.787 313.200 C 219.604 332.292,232.278 349.472,248.100 358.358 C 248.925 358.821,250.275 359.588,251.100 360.062 C 256.975 363.436,261.585 365.360,272.182 368.861 C 280.080 371.470,279.764 371.547,281.399 366.600 C 290.073 340.342,289.794 341.600,286.947 341.600 C 286.452 341.600,285.936 341.420,285.800 341.200 C 285.664 340.980,285.201 340.800,284.771 340.800 C 284.341 340.800,283.677 340.641,283.295 340.447 C 282.913 340.252,282.150 339.911,281.600 339.689 C 271.310 335.524,264.116 328.977,259.541 319.616 C 257.246 314.919,257.057 314.478,256.371 312.200 C 256.105 311.320,255.741 310.150,255.560 309.600 C 255.096 308.186,254.123 303.168,253.581 299.400 C 253.301 297.453,252.997 285.704,252.804 269.400 C 252.511 244.576,252.425 242.263,251.638 238.024 C 248.905 223.301,244.008 213.854,234.328 204.629 L 229.655 200.177 230.928 199.208 C 234.796 196.263,241.494 188.768,243.625 185.000 C 245.239 182.146,247.463 177.764,247.700 176.972 C 247.826 176.547,248.328 175.120,248.814 173.800 C 252.183 164.653,252.479 161.483,252.815 131.000 C 253.107 104.578,253.251 101.725,254.645 94.800 C 255.205 92.013,255.486 90.952,256.496 87.800 C 257.884 83.471,261.253 76.991,263.979 73.409 C 267.872 68.295,276.290 62.393,282.600 60.354 C 283.480 60.069,284.371 59.693,284.580 59.518 C 284.789 59.343,285.363 59.200,285.856 59.200 C 286.349 59.200,286.864 59.020,287.000 58.800 C 287.136 58.580,287.586 58.400,288.000 58.400 C 289.377 58.400,289.238 57.719,285.572 46.526 C 283.568 40.406,281.550 34.230,281.088 32.800 C 279.960 29.307,279.826 29.202,277.400 29.890 M111.200 204.004 L 111.200 354.008 128.500 353.904 L 145.800 353.800 145.901 203.900 L 146.001 54.000 128.601 54.000 L 111.200 54.000 111.200 204.004 " stroke="none" fill="#2c2c34" fill-rule="evenodd"></path><path id="path1" d="M30.100 0.291 C 29.165 0.376,28.400 0.616,28.400 0.823 C 28.400 1.030,27.961 1.200,27.424 1.200 C 26.887 1.200,26.336 1.380,26.200 1.600 C 26.064 1.820,25.513 2.000,24.976 2.000 C 24.439 2.000,24.000 2.180,24.000 2.400 C 24.000 2.620,23.640 2.800,23.200 2.800 C 22.760 2.800,22.400 2.980,22.400 3.200 C 22.400 3.420,22.040 3.600,21.600 3.600 C 21.160 3.600,20.800 3.780,20.800 4.000 C 20.800 4.220,20.440 4.400,20.000 4.400 C 19.560 4.400,19.200 4.580,19.200 4.800 C 19.200 5.020,18.975 5.200,18.700 5.201 C 18.425 5.201,17.570 5.741,16.800 6.400 C 16.030 7.059,15.260 7.599,15.089 7.599 C 14.167 7.602,7.600 14.356,7.600 15.301 C 7.600 15.588,7.240 16.083,6.800 16.400 C 6.360 16.717,6.000 17.207,6.000 17.488 C 6.000 17.770,5.820 18.000,5.600 18.000 C 5.380 18.000,5.200 18.270,5.200 18.600 C 5.200 18.930,5.020 19.200,4.800 19.200 C 4.580 19.200,4.400 19.560,4.400 20.000 C 4.400 20.440,4.220 20.800,4.000 20.800 C 3.780 20.800,3.600 21.160,3.600 21.600 C 3.600 22.040,3.420 22.400,3.200 22.400 C 2.980 22.400,2.800 22.760,2.800 23.200 C 2.800 23.640,2.620 24.000,2.400 24.000 C 2.180 24.000,2.000 24.439,2.000 24.976 C 2.000 25.513,1.820 26.064,1.600 26.200 C 1.380 26.336,1.200 26.872,1.200 27.390 C 1.200 27.909,0.975 28.408,0.700 28.500 C -0.036 28.745,-0.036 371.255,0.700 371.500 C 0.975 371.592,1.200 372.091,1.200 372.610 C 1.200 373.128,1.380 373.664,1.600 373.800 C 1.820 373.936,2.000 374.487,2.000 375.024 C 2.000 375.561,2.180 376.000,2.400 376.000 C 2.620 376.000,2.800 376.360,2.800 376.800 C 2.800 377.240,2.980 377.600,3.200 377.600 C 3.420 377.600,3.600 377.960,3.600 378.400 C 3.600 378.840,3.780 379.200,4.000 379.200 C 4.220 379.200,4.400 379.560,4.400 380.000 C 4.400 380.440,4.580 380.800,4.800 380.800 C 5.020 380.800,5.200 381.070,5.200 381.400 C 5.200 381.730,5.380 382.000,5.600 382.000 C 5.820 382.000,6.000 382.230,6.000 382.512 C 6.000 382.793,6.360 383.283,6.800 383.600 C 7.240 383.917,7.600 384.435,7.600 384.751 C 7.600 385.066,8.306 386.017,9.169 386.862 C 10.031 387.708,10.632 388.400,10.504 388.400 C 10.376 388.400,10.966 388.985,11.816 389.700 C 12.666 390.415,13.645 391.270,13.993 391.600 C 14.340 391.930,15.114 392.455,15.712 392.768 C 16.310 393.080,16.800 393.485,16.800 393.668 C 16.800 393.850,17.070 394.000,17.400 394.000 C 17.730 394.000,18.000 394.180,18.000 394.400 C 18.000 394.620,18.270 394.800,18.600 394.800 C 18.930 394.800,19.200 394.980,19.200 395.200 C 19.200 395.420,19.560 395.600,20.000 395.600 C 20.440 395.600,20.800 395.780,20.800 396.000 C 20.800 396.220,21.160 396.400,21.600 396.400 C 22.040 396.400,22.400 396.580,22.400 396.800 C 22.400 397.020,22.760 397.200,23.200 397.200 C 23.640 397.200,24.000 397.380,24.000 397.600 C 24.000 397.820,24.439 398.000,24.976 398.000 C 25.513 398.000,26.064 398.180,26.200 398.400 C 26.336 398.620,26.872 398.800,27.390 398.800 C 27.909 398.800,28.408 399.025,28.500 399.300 C 28.745 400.036,371.255 400.036,371.500 399.300 C 371.592 399.025,372.091 398.800,372.610 398.800 C 373.128 398.800,373.664 398.620,373.800 398.400 C 373.936 398.180,374.487 398.000,375.024 398.000 C 375.561 398.000,376.000 397.820,376.000 397.600 C 376.000 397.380,376.360 397.200,376.800 397.200 C 377.240 397.200,377.600 397.020,377.600 396.800 C 377.600 396.580,377.960 396.400,378.400 396.400 C 378.840 396.400,379.200 396.220,379.200 396.000 C 379.200 395.780,379.560 395.600,380.000 395.600 C 380.440 395.600,380.800 395.420,380.800 395.200 C 380.800 394.980,381.070 394.800,381.400 394.800 C 381.730 394.800,382.000 394.620,382.000 394.400 C 382.000 394.180,382.188 394.000,382.417 394.000 C 382.646 394.000,383.220 393.640,383.692 393.200 C 384.164 392.760,384.798 392.400,385.099 392.400 C 385.401 392.400,385.536 392.220,385.400 392.000 C 385.264 391.780,385.388 391.599,385.676 391.598 C 386.554 391.594,392.400 385.616,392.400 384.723 C 392.400 384.422,392.760 383.917,393.200 383.600 C 393.640 383.283,394.000 382.793,394.000 382.512 C 394.000 382.230,394.180 382.000,394.400 382.000 C 394.620 382.000,394.800 381.730,394.800 381.400 C 394.800 381.070,394.980 380.800,395.200 380.800 C 395.420 380.800,395.600 380.440,395.600 380.000 C 395.600 379.560,395.780 379.200,396.000 379.200 C 396.220 379.200,396.400 378.840,396.400 378.400 C 396.400 377.960,396.580 377.600,396.800 377.600 C 397.020 377.600,397.200 377.240,397.200 376.800 C 397.200 376.360,397.380 376.000,397.600 376.000 C 397.820 376.000,398.000 375.561,398.000 375.024 C 398.000 374.487,398.180 373.936,398.400 373.800 C 398.620 373.664,398.800 373.013,398.800 372.353 C 398.800 371.693,398.964 371.254,399.164 371.378 C 399.364 371.502,399.644 370.119,399.785 368.301 C 400.315 361.509,399.839 28.680,399.300 28.500 C 399.025 28.408,398.800 27.909,398.800 27.390 C 398.800 26.872,398.620 26.336,398.400 26.200 C 398.180 26.064,398.000 25.513,398.000 24.976 C 398.000 24.439,397.820 24.000,397.600 24.000 C 397.380 24.000,397.200 23.640,397.200 23.200 C 397.200 22.760,397.020 22.400,396.800 22.400 C 396.580 22.400,396.400 22.040,396.400 21.600 C 396.400 21.160,396.220 20.800,396.000 20.800 C 395.780 20.800,395.600 20.440,395.600 20.000 C 395.600 19.560,395.420 19.200,395.200 19.200 C 394.980 19.200,394.800 18.930,394.800 18.600 C 394.800 18.270,394.620 18.000,394.400 18.000 C 394.180 18.000,394.000 17.770,394.000 17.488 C 394.000 17.207,393.640 16.717,393.200 16.400 C 392.760 16.083,392.400 15.588,392.400 15.301 C 392.400 14.356,385.833 7.602,384.911 7.599 C 384.740 7.599,383.970 7.059,383.200 6.400 C 382.430 5.741,381.575 5.201,381.300 5.201 C 381.025 5.200,380.800 5.020,380.800 4.800 C 380.800 4.580,380.440 4.400,380.000 4.400 C 379.560 4.400,379.200 4.220,379.200 4.000 C 379.200 3.780,378.840 3.600,378.400 3.600 C 377.960 3.600,377.600 3.420,377.600 3.200 C 377.600 2.980,377.240 2.800,376.800 2.800 C 376.360 2.800,376.000 2.620,376.000 2.400 C 376.000 2.180,375.561 2.000,375.024 2.000 C 374.487 2.000,373.936 1.820,373.800 1.600 C 373.664 1.380,373.128 1.200,372.610 1.200 C 372.091 1.200,371.592 0.975,371.500 0.700 C 371.343 0.229,35.199 -0.174,30.100 0.291 M281.394 31.800 C 281.897 33.340,284.041 39.879,286.158 46.332 C 290.034 58.146,290.173 58.800,288.800 58.800 C 288.386 58.800,287.936 58.980,287.800 59.200 C 287.664 59.420,287.124 59.600,286.600 59.600 C 286.076 59.600,285.536 59.780,285.400 60.000 C 285.264 60.220,284.801 60.400,284.371 60.400 C 283.941 60.400,283.277 60.565,282.895 60.766 C 282.513 60.968,281.480 61.435,280.600 61.805 C 273.067 64.971,267.229 69.746,262.488 76.617 C 261.438 78.139,259.359 82.212,258.311 84.800 C 258.089 85.350,257.748 86.113,257.553 86.495 C 257.359 86.877,257.200 87.541,257.200 87.971 C 257.200 88.401,257.020 88.864,256.800 89.000 C 256.580 89.136,256.400 89.766,256.400 90.400 C 256.400 91.034,256.239 91.652,256.042 91.774 C 255.684 91.996,255.537 92.730,254.872 97.645 C 254.676 99.101,254.368 100.528,254.189 100.818 C 254.009 101.108,253.729 113.958,253.566 129.373 C 253.393 145.675,253.097 158.237,252.859 159.400 C 252.633 160.500,252.237 162.660,251.978 164.200 C 251.046 169.744,248.441 177.718,246.327 181.500 C 244.377 184.987,243.818 185.915,242.304 188.169 C 241.406 189.506,238.436 192.830,235.705 195.555 L 230.739 200.510 232.870 202.346 C 237.552 206.382,244.800 215.054,244.800 216.620 C 244.800 216.761,245.131 217.354,245.537 217.938 C 247.591 220.899,250.977 230.732,251.963 236.600 C 252.222 238.140,252.627 240.480,252.863 241.800 C 253.120 243.238,253.405 255.190,253.574 271.621 C 253.728 286.702,254.003 299.282,254.185 299.575 C 254.366 299.869,254.676 301.299,254.872 302.755 C 255.537 307.670,255.684 308.404,256.042 308.626 C 256.239 308.748,256.400 309.366,256.400 310.000 C 256.400 310.634,256.580 311.264,256.800 311.400 C 257.020 311.536,257.200 311.999,257.200 312.429 C 257.200 312.859,257.359 313.523,257.553 313.905 C 257.748 314.287,258.085 315.050,258.303 315.600 C 259.202 317.871,260.637 320.702,261.684 322.272 C 262.298 323.192,262.800 324.137,262.800 324.372 C 262.800 324.607,262.941 324.800,263.114 324.800 C 263.286 324.800,263.745 325.338,264.133 325.995 C 266.774 330.465,274.549 336.124,282.400 339.290 C 282.950 339.512,283.713 339.852,284.095 340.047 C 284.477 340.241,285.141 340.400,285.571 340.400 C 286.001 340.400,286.464 340.580,286.600 340.800 C 286.736 341.020,287.242 341.206,287.724 341.213 C 290.560 341.254,290.784 340.289,281.385 368.600 L 280.455 371.400 278.728 371.286 C 277.777 371.223,276.010 370.835,274.800 370.424 C 273.590 370.013,271.340 369.290,269.800 368.817 C 265.526 367.503,258.416 364.565,254.089 362.323 C 251.950 361.215,249.796 360.104,249.303 359.854 C 248.810 359.604,248.405 359.265,248.403 359.100 C 248.401 358.935,248.212 358.800,247.982 358.800 C 247.601 358.800,241.670 354.979,241.200 354.431 C 241.090 354.303,239.685 353.135,238.077 351.835 C 234.418 348.877,228.432 342.563,226.287 339.400 C 225.392 338.080,224.532 336.910,224.376 336.800 C 224.220 336.690,223.712 335.925,223.246 335.100 C 222.781 334.275,222.021 332.925,221.557 332.100 C 221.094 331.275,220.583 330.420,220.423 330.200 C 218.528 327.605,214.100 314.352,213.005 308.000 C 212.873 307.230,212.593 305.610,212.384 304.400 C 211.432 298.894,211.099 291.323,210.807 268.600 C 210.628 254.727,210.312 243.251,210.074 242.000 C 209.398 238.451,209.162 237.453,208.770 236.500 C 208.566 236.005,208.220 235.150,208.000 234.600 C 203.526 223.415,194.260 218.000,179.596 218.000 L 175.592 218.000 175.696 200.300 L 175.800 182.600 181.213 182.346 C 189.978 181.936,194.468 180.717,199.198 177.465 C 203.189 174.720,208.400 167.518,208.400 164.747 C 208.400 164.362,208.580 163.936,208.800 163.800 C 209.020 163.664,209.200 163.059,209.200 162.456 C 209.200 161.853,209.363 161.189,209.561 160.980 C 210.298 160.205,210.475 156.031,210.801 131.800 C 211.162 104.916,211.350 101.684,213.159 91.400 C 214.517 83.682,218.132 73.900,222.242 66.824 C 223.355 64.907,226.395 60.326,226.770 60.000 C 226.896 59.890,227.810 58.810,228.799 57.600 C 229.788 56.390,230.958 54.976,231.399 54.457 C 232.076 53.660,234.981 51.031,239.629 47.010 C 240.863 45.943,246.125 42.368,248.153 41.220 C 248.949 40.769,250.275 40.010,251.100 39.533 C 256.556 36.378,265.442 32.769,273.600 30.397 C 275.250 29.917,276.960 29.370,277.400 29.180 C 279.552 28.252,280.421 28.822,281.394 31.800 M146.800 203.957 C 146.800 340.694,146.743 354.336,146.167 354.557 C 144.554 355.176,111.272 354.815,110.629 354.171 C 109.987 353.530,109.604 55.897,110.243 54.233 C 110.459 53.669,112.455 53.600,128.643 53.600 L 146.800 53.600 146.800 203.957 " stroke="none" fill="#f3fbfb" fill-rule="evenodd"></path><path id="path2" d="" stroke="none" fill="#9ca4a4" fill-rule="evenodd"></path><path id="path3" d="M277.200 29.628 C 275.990 30.009,275.196 30.339,275.436 30.361 C 275.676 30.382,276.697 30.152,277.705 29.849 C 279.015 29.454,279.660 29.420,279.969 29.729 C 280.277 30.037,280.400 30.035,280.400 29.723 C 280.400 28.947,279.448 28.918,277.200 29.628 M268.000 32.400 C 267.467 32.745,267.467 32.788,268.000 32.788 C 268.330 32.788,268.870 32.613,269.200 32.400 C 269.733 32.055,269.733 32.012,269.200 32.012 C 268.870 32.012,268.330 32.187,268.000 32.400 M251.100 39.829 C 250.495 40.157,250.000 40.510,250.000 40.613 C 250.000 40.999,250.632 40.757,251.600 40.000 C 252.789 39.070,252.611 39.009,251.100 39.829 M248.300 41.429 C 247.695 41.757,247.200 42.110,247.200 42.213 C 247.200 42.599,247.832 42.357,248.800 41.600 C 249.989 40.670,249.811 40.609,248.300 41.429 M239.551 47.631 L 237.800 49.262 239.700 47.746 C 240.745 46.913,241.600 46.179,241.600 46.115 C 241.600 45.807,241.163 46.130,239.551 47.631 M235.453 51.031 C 234.382 52.026,233.583 52.917,233.677 53.011 C 233.771 53.105,234.731 52.286,235.809 51.191 C 238.252 48.711,238.049 48.620,235.453 51.031 M286.800 50.164 C 286.800 50.254,287.340 51.981,288.000 54.001 C 289.252 57.830,289.251 58.400,288.000 58.400 C 287.586 58.400,287.143 58.568,287.016 58.774 C 286.788 59.143,289.095 58.639,289.502 58.231 C 289.708 58.025,287.227 50.000,286.958 50.000 C 286.871 50.000,286.800 50.074,286.800 50.164 M110.987 54.096 C 110.881 54.373,110.841 122.010,110.898 204.400 L 111.000 354.200 127.800 354.311 C 137.040 354.372,145.005 354.324,145.501 354.203 L 146.401 353.984 146.301 203.892 L 146.200 53.800 128.689 53.696 C 114.893 53.614,111.138 53.699,110.987 54.096 M145.901 203.900 L 145.800 353.800 128.500 353.904 L 111.200 354.008 111.200 204.004 L 111.200 54.000 128.601 54.000 L 146.001 54.000 145.901 203.900 M229.766 56.911 C 227.210 60.000,224.391 63.836,226.066 61.946 C 226.580 61.366,227.840 59.836,228.867 58.546 C 229.893 57.256,231.127 55.783,231.607 55.274 C 232.087 54.764,232.408 54.274,232.318 54.185 C 232.229 54.096,231.081 55.323,229.766 56.911 M276.300 63.029 C 274.749 63.870,274.925 64.161,276.500 63.359 C 278.008 62.593,278.275 62.394,277.767 62.416 C 277.565 62.425,276.905 62.701,276.300 63.029 M222.586 66.900 L 221.952 68.200 222.767 67.200 C 223.552 66.237,223.808 65.600,223.410 65.600 C 223.306 65.600,222.935 66.185,222.586 66.900 M268.160 68.984 C 266.597 70.400,265.008 72.063,264.629 72.679 C 264.249 73.296,264.717 72.941,265.669 71.891 C 266.621 70.841,268.300 69.184,269.400 68.209 C 270.500 67.234,271.310 66.430,271.200 66.422 C 271.090 66.415,269.722 67.568,268.160 68.984 M220.627 70.347 C 219.214 73.136,219.345 73.489,220.808 70.834 C 221.465 69.643,221.924 68.590,221.828 68.495 C 221.732 68.399,221.192 69.232,220.627 70.347 M262.072 76.045 C 261.341 77.163,260.811 78.144,260.894 78.227 C 260.976 78.310,261.693 77.392,262.485 76.189 C 263.278 74.985,263.808 74.003,263.663 74.007 C 263.518 74.011,262.802 74.928,262.072 76.045 M216.600 79.600 C 216.450 80.073,216.417 80.550,216.527 80.660 C 216.637 80.770,216.850 80.473,217.000 80.000 C 217.150 79.527,217.183 79.050,217.073 78.940 C 216.963 78.830,216.750 79.127,216.600 79.600 M258.981 81.637 C 258.629 82.318,258.412 82.945,258.499 83.032 C 258.586 83.119,258.956 82.562,259.322 81.795 C 260.144 80.070,259.859 79.938,258.981 81.637 M215.049 84.615 C 214.912 84.973,214.815 85.566,214.834 85.933 C 214.853 86.300,215.027 86.069,215.221 85.420 C 215.598 84.158,215.465 83.533,215.049 84.615 M256.955 86.300 C 256.834 86.685,256.570 87.413,256.367 87.919 C 256.165 88.424,256.015 89.144,256.034 89.519 C 256.056 89.951,256.191 89.834,256.403 89.200 C 257.234 86.716,257.530 85.600,257.360 85.600 C 257.258 85.600,257.076 85.915,256.955 86.300 M214.200 88.000 C 214.048 88.691,214.007 89.341,214.109 89.442 C 214.211 89.544,214.409 89.053,214.550 88.350 C 214.883 86.683,214.560 86.360,214.200 88.000 M213.456 90.884 C 213.321 91.388,213.228 92.250,213.249 92.800 C 213.272 93.389,213.431 93.071,213.636 92.025 C 214.003 90.152,213.873 89.327,213.456 90.884 M255.457 91.100 C 255.348 91.485,255.155 92.430,255.028 93.200 C 254.738 94.949,255.360 93.621,255.730 91.700 C 255.993 90.334,255.795 89.899,255.457 91.100 M254.255 96.655 C 254.113 97.686,254.074 98.608,254.169 98.702 C 254.263 98.796,254.465 98.039,254.618 97.018 C 254.771 95.998,254.810 95.076,254.704 94.971 C 254.598 94.865,254.396 95.623,254.255 96.655 M212.509 97.600 C 212.509 98.590,212.587 98.995,212.682 98.500 C 212.778 98.005,212.778 97.195,212.682 96.700 C 212.587 96.205,212.509 96.610,212.509 97.600 M253.411 103.011 C 253.253 104.906,253.209 106.542,253.313 106.646 C 253.417 106.750,253.632 105.285,253.789 103.389 C 253.947 101.494,253.991 99.858,253.887 99.754 C 253.783 99.650,253.568 101.115,253.411 103.011 M211.856 101.845 C 211.715 102.872,211.628 105.262,211.661 107.156 C 211.718 110.296,211.749 110.141,212.018 105.400 C 212.330 99.904,212.278 98.766,211.856 101.845 M252.897 130.641 C 252.843 142.984,252.717 154.234,252.615 155.641 L 252.430 158.200 252.816 155.800 C 253.040 154.406,253.158 143.931,253.097 130.800 L 252.993 108.200 252.897 130.641 M211.386 132.400 C 211.386 143.730,211.437 148.365,211.500 142.700 C 211.562 137.035,211.562 127.765,211.500 122.100 C 211.437 116.435,211.386 121.070,211.386 132.400 M210.870 155.050 C 210.831 155.958,210.711 157.308,210.601 158.050 L 210.403 159.400 210.823 158.062 C 211.053 157.327,211.174 155.977,211.091 155.062 L 210.940 153.400 210.870 155.050 M252.064 159.850 C 252.029 160.538,251.911 161.708,251.801 162.450 L 251.603 163.800 252.024 162.458 C 252.255 161.720,252.373 160.550,252.286 159.858 L 252.128 158.600 252.064 159.850 M210.054 160.267 C 210.025 160.744,209.896 161.464,209.770 161.867 C 209.552 162.561,209.564 162.562,209.996 161.888 C 210.247 161.497,210.375 160.777,210.281 160.288 C 210.109 159.401,210.109 159.401,210.054 160.267 M251.249 164.800 C 251.216 165.130,251.089 165.850,250.967 166.400 C 250.775 167.264,250.807 167.303,251.199 166.688 C 251.448 166.297,251.575 165.577,251.481 165.088 C 251.386 164.600,251.282 164.470,251.249 164.800 M207.913 166.981 C 207.542 167.981,207.317 168.800,207.414 168.800 C 207.693 168.800,208.831 165.894,208.703 165.509 C 208.639 165.318,208.284 165.980,207.913 166.981 M250.229 169.029 C 250.081 169.615,250.051 170.184,250.161 170.294 C 250.271 170.404,250.481 170.015,250.629 169.429 C 250.776 168.842,250.806 168.273,250.696 168.163 C 250.586 168.053,250.376 168.442,250.229 169.029 M205.475 171.471 C 204.653 172.720,204.309 173.445,204.711 173.081 C 205.399 172.458,207.414 169.200,207.111 169.200 C 207.034 169.200,206.298 170.222,205.475 171.471 M197.265 178.987 C 195.299 180.064,194.642 180.587,195.812 180.144 C 196.825 179.761,199.200 178.370,199.200 178.160 C 199.200 177.929,199.172 177.941,197.265 178.987 M190.600 181.600 C 190.096 181.817,190.022 181.944,190.400 181.944 C 190.730 181.944,191.360 181.789,191.800 181.600 C 192.304 181.383,192.378 181.256,192.000 181.256 C 191.670 181.256,191.040 181.411,190.600 181.600 M185.800 182.400 L 184.600 182.705 185.800 182.705 C 186.460 182.705,187.540 182.568,188.200 182.400 L 189.400 182.095 188.200 182.095 C 187.540 182.095,186.460 182.232,185.800 182.400 M244.214 183.835 C 243.841 184.404,243.627 184.961,243.739 185.072 C 243.850 185.183,244.229 184.718,244.581 184.037 C 245.359 182.533,245.144 182.415,244.214 183.835 M175.783 200.200 C 175.783 209.660,175.836 213.473,175.900 208.673 C 175.964 203.873,175.963 196.133,175.899 191.473 C 175.836 186.813,175.783 190.740,175.783 200.200 M241.144 188.700 C 239.993 190.089,239.506 190.800,239.704 190.800 C 239.814 190.800,240.386 190.170,240.973 189.400 C 242.063 187.971,242.195 187.432,241.144 188.700 M235.600 194.811 C 233.730 196.687,231.647 198.667,230.972 199.211 L 229.743 200.200 235.236 205.600 C 238.257 208.570,240.399 210.542,239.996 209.983 C 239.594 209.424,237.259 207.029,234.808 204.662 L 230.352 200.357 234.876 196.022 C 237.364 193.638,239.310 191.622,239.200 191.543 C 239.090 191.465,237.470 192.935,235.600 194.811 M243.609 215.900 C 243.614 216.065,243.985 216.650,244.433 217.200 L 245.248 218.200 244.614 216.900 C 244.011 215.665,243.589 215.245,243.609 215.900 M178.517 217.897 C 180.011 217.974,182.351 217.974,183.717 217.896 C 185.082 217.818,183.860 217.755,181.000 217.755 C 178.140 217.756,177.022 217.820,178.517 217.897 M188.000 218.400 C 188.550 218.576,189.360 218.720,189.800 218.720 C 190.433 218.720,190.392 218.654,189.600 218.400 C 189.050 218.224,188.240 218.080,187.800 218.080 C 187.167 218.080,187.208 218.146,188.000 218.400 M191.600 219.182 C 191.930 219.405,192.545 219.591,192.967 219.594 C 193.990 219.602,193.671 219.373,192.200 219.044 C 191.324 218.848,191.162 218.885,191.600 219.182 M194.095 219.820 C 194.258 219.987,195.158 220.467,196.095 220.885 C 197.033 221.304,197.620 221.465,197.400 221.244 C 197.180 221.023,196.280 220.543,195.400 220.179 C 194.520 219.814,193.933 219.653,194.095 219.820 M202.386 225.350 C 203.589 226.588,204.632 227.600,204.705 227.600 C 205.087 227.600,202.123 224.314,201.237 223.755 C 200.667 223.395,201.184 224.113,202.386 225.350 M205.445 229.012 C 205.810 229.569,206.186 229.947,206.282 229.851 C 206.519 229.614,205.484 228.000,205.095 228.000 C 204.922 228.000,205.080 228.456,205.445 229.012 M207.078 231.795 C 207.444 232.562,207.814 233.119,207.901 233.032 C 208.084 232.849,206.870 230.400,206.596 230.400 C 206.495 230.400,206.712 231.028,207.078 231.795 M250.056 230.800 C 250.056 231.130,250.211 231.760,250.400 232.200 C 250.617 232.704,250.744 232.778,250.744 232.400 C 250.744 232.070,250.589 231.440,250.400 231.000 C 250.183 230.496,250.056 230.422,250.056 230.800 M251.062 235.000 C 251.196 235.880,251.372 236.675,251.453 236.767 C 251.756 237.110,251.529 234.968,251.181 234.200 C 250.929 233.642,250.893 233.885,251.062 235.000 M251.881 239.600 C 252.006 240.810,252.174 241.875,252.254 241.967 C 252.535 242.287,252.317 239.391,251.987 238.400 C 251.771 237.754,251.734 238.180,251.881 239.600 M209.862 239.400 C 209.996 240.280,210.172 241.075,210.253 241.167 C 210.556 241.510,210.329 239.368,209.981 238.600 C 209.729 238.042,209.693 238.285,209.862 239.400 M210.699 244.200 C 210.816 245.740,210.977 247.075,211.056 247.167 C 211.334 247.488,211.117 243.389,210.803 242.400 C 210.619 241.819,210.575 242.573,210.699 244.200 M252.706 264.800 C 252.764 276.790,252.864 287.770,252.928 289.200 C 252.991 290.630,253.063 281.720,253.087 269.400 C 253.110 257.080,253.011 246.100,252.865 245.000 C 252.719 243.900,252.648 252.810,252.706 264.800 M211.386 267.400 C 211.386 278.400,211.437 282.842,211.500 277.272 C 211.563 271.702,211.562 262.702,211.500 257.272 C 211.437 251.842,211.385 256.400,211.386 267.400 M211.751 293.200 C 211.751 295.730,211.816 296.765,211.896 295.500 C 211.975 294.235,211.975 292.165,211.896 290.900 C 211.816 289.635,211.751 290.670,211.751 293.200 M253.293 295.200 C 253.285 295.970,253.416 297.590,253.583 298.800 C 253.848 300.716,253.890 300.793,253.909 299.400 C 253.920 298.520,253.790 296.900,253.618 295.800 C 253.369 294.197,253.304 294.078,253.293 295.200 M212.093 299.200 C 212.093 299.970,212.175 300.285,212.276 299.900 C 212.376 299.515,212.376 298.885,212.276 298.500 C 212.175 298.115,212.093 298.430,212.093 299.200 M212.440 302.633 C 212.462 303.495,212.627 304.650,212.807 305.200 C 213.011 305.821,213.051 305.291,212.912 303.800 C 212.654 301.021,212.382 300.349,212.440 302.633 M254.272 303.400 C 254.399 304.500,254.569 305.475,254.651 305.567 C 254.932 305.882,254.720 303.399,254.380 302.400 C 254.151 301.726,254.116 302.051,254.272 303.400 M255.058 307.400 C 255.192 308.280,255.456 309.270,255.644 309.600 C 256.058 310.326,255.634 307.771,255.146 306.600 C 254.936 306.095,254.903 306.391,255.058 307.400 M213.293 307.600 C 213.293 308.370,213.375 308.685,213.476 308.300 C 213.576 307.915,213.576 307.285,213.476 306.900 C 213.375 306.515,213.293 306.830,213.293 307.600 M256.040 310.800 C 256.008 311.490,256.924 314.257,257.314 314.647 C 257.554 314.888,257.246 313.721,256.403 311.200 C 256.219 310.650,256.056 310.470,256.040 310.800 M214.068 311.400 C 214.062 311.840,214.211 312.560,214.400 313.000 C 214.838 314.019,214.838 312.968,214.400 311.600 C 214.143 310.796,214.077 310.757,214.068 311.400 M214.806 314.633 C 214.809 315.055,214.995 315.670,215.218 316.000 C 215.515 316.438,215.552 316.276,215.356 315.400 C 215.027 313.929,214.798 313.610,214.806 314.633 M258.400 317.347 C 258.400 317.780,260.388 321.600,260.613 321.600 C 260.723 321.600,260.339 320.655,259.759 319.500 C 258.643 317.279,258.400 316.894,258.400 317.347 M260.800 322.183 C 260.800 322.674,264.240 327.375,265.064 328.009 C 265.605 328.425,265.572 328.313,264.943 327.588 C 264.471 327.045,263.346 325.535,262.443 324.234 C 261.539 322.932,260.800 322.009,260.800 322.183 M266.993 330.393 C 267.848 331.269,268.612 331.921,268.690 331.843 C 268.878 331.655,266.097 328.800,265.726 328.800 C 265.567 328.800,266.137 329.517,266.993 330.393 M221.786 331.900 C 222.135 332.615,222.506 333.200,222.610 333.200 C 223.008 333.200,222.752 332.563,221.967 331.600 L 221.152 330.600 221.786 331.900 M269.565 332.505 C 270.288 333.446,273.987 336.146,274.227 335.906 C 274.331 335.802,273.648 335.218,272.708 334.607 C 271.769 333.997,270.555 333.116,270.012 332.649 C 269.351 332.081,269.203 332.033,269.565 332.505 M223.046 334.100 C 226.444 339.893,232.820 347.209,238.400 351.718 C 242.213 354.798,242.400 354.938,242.400 354.702 C 242.400 354.594,240.915 353.324,239.100 351.879 C 233.805 347.664,228.341 341.689,224.853 336.300 C 223.892 334.815,223.027 333.600,222.929 333.600 C 222.832 333.600,222.885 333.825,223.046 334.100 M288.542 342.108 C 289.193 342.584,289.160 342.850,288.011 346.367 C 287.337 348.430,286.855 350.189,286.942 350.275 C 287.028 350.361,287.663 348.690,288.352 346.560 C 289.593 342.725,289.576 341.600,288.275 341.600 C 288.039 341.600,288.160 341.829,288.542 342.108 M248.400 358.820 C 249.787 359.761,250.578 360.035,249.600 359.236 C 249.050 358.786,248.420 358.417,248.200 358.415 C 247.980 358.413,248.070 358.596,248.400 358.820 M251.200 360.420 C 252.587 361.361,253.378 361.635,252.400 360.836 C 251.850 360.386,251.220 360.017,251.000 360.015 C 250.780 360.013,250.870 360.196,251.200 360.420 M262.800 366.000 C 263.130 366.213,263.670 366.388,264.000 366.388 C 264.533 366.388,264.533 366.345,264.000 366.000 C 263.670 365.787,263.130 365.612,262.800 365.612 C 262.267 365.612,262.267 365.655,262.800 366.000 M274.400 369.982 C 274.730 370.205,275.345 370.391,275.767 370.394 C 276.790 370.402,276.471 370.173,275.000 369.844 C 274.124 369.648,273.962 369.685,274.400 369.982 M279.000 370.800 L 277.800 371.105 279.100 371.153 C 279.815 371.179,280.400 371.020,280.400 370.800 C 280.400 370.580,280.355 370.421,280.300 370.447 C 280.245 370.473,279.660 370.632,279.000 370.800 " stroke="none" fill="#94999c" fill-rule="evenodd"></path><path id="path4" d="M256.000 37.000 C 255.450 37.314,255.180 37.572,255.400 37.572 C 255.620 37.572,256.250 37.314,256.800 37.000 C 257.350 36.686,257.620 36.428,257.400 36.428 C 257.180 36.428,256.550 36.686,256.000 37.000 M232.783 53.100 L 231.000 55.000 232.993 53.200 C 234.088 52.210,235.063 51.355,235.159 51.300 C 235.255 51.245,235.161 51.200,234.950 51.200 C 234.739 51.200,233.764 52.055,232.783 53.100 M110.243 54.233 C 109.604 55.897,109.987 353.530,110.629 354.171 C 111.272 354.815,144.554 355.176,146.167 354.557 C 146.849 354.295,147.182 53.600,146.500 53.600 C 146.335 53.600,146.200 121.235,146.200 203.900 L 146.200 354.200 128.600 354.200 L 111.000 354.200 111.000 203.900 C 111.000 121.235,110.884 53.600,110.743 53.600 C 110.601 53.600,110.376 53.885,110.243 54.233 M229.201 56.998 C 228.686 57.548,228.339 58.064,228.432 58.146 C 228.524 58.228,229.019 57.778,229.530 57.147 C 230.676 55.735,230.474 55.644,229.201 56.998 M289.424 57.150 C 289.591 57.758,289.490 58.224,289.143 58.444 C 288.726 58.708,288.719 58.789,289.113 58.794 C 289.859 58.803,290.138 57.763,289.614 56.924 C 289.220 56.293,289.196 56.322,289.424 57.150 M225.692 61.429 C 225.197 62.183,224.872 62.800,224.969 62.800 C 225.247 62.800,226.904 60.371,226.739 60.206 C 226.657 60.124,226.186 60.674,225.692 61.429 M279.400 61.978 C 278.520 62.395,277.913 62.750,278.051 62.768 C 278.440 62.818,281.200 61.614,281.200 61.395 C 281.200 61.127,281.199 61.127,279.400 61.978 M268.606 68.988 C 267.509 69.954,266.699 70.807,266.806 70.884 C 266.913 70.960,267.900 70.167,269.000 69.120 C 271.509 66.733,271.260 66.650,268.606 68.988 M265.155 72.700 C 263.881 74.108,263.056 75.200,263.266 75.200 C 263.357 75.200,264.108 74.390,264.935 73.400 C 266.587 71.424,266.735 70.953,265.155 72.700 M218.065 75.017 C 217.395 76.488,217.523 76.802,218.247 75.465 C 218.586 74.840,218.788 74.254,218.696 74.163 C 218.605 74.071,218.321 74.456,218.065 75.017 M261.053 78.500 L 260.333 79.800 261.158 78.800 C 261.889 77.913,262.214 77.200,261.886 77.200 C 261.824 77.200,261.449 77.785,261.053 78.500 M215.029 83.429 C 214.881 84.015,214.838 84.572,214.932 84.666 C 215.027 84.760,215.224 84.358,215.371 83.771 C 215.519 83.185,215.562 82.628,215.468 82.534 C 215.373 82.440,215.176 82.842,215.029 83.429 M213.449 89.415 C 213.312 89.773,213.215 90.366,213.234 90.733 C 213.253 91.100,213.427 90.869,213.621 90.220 C 213.998 88.958,213.865 88.333,213.449 89.415 M212.600 94.000 C 212.448 94.691,212.407 95.341,212.509 95.442 C 212.611 95.544,212.809 95.053,212.950 94.350 C 213.283 92.683,212.960 92.360,212.600 94.000 M211.800 99.600 C 211.645 100.728,211.602 101.736,211.706 101.839 C 211.809 101.942,212.016 101.100,212.167 99.967 C 212.317 98.834,212.359 97.826,212.261 97.728 C 212.163 97.629,211.955 98.472,211.800 99.600 M254.222 99.022 C 254.072 99.825,254.038 100.572,254.148 100.682 C 254.258 100.792,254.472 100.225,254.622 99.422 C 254.773 98.619,254.806 97.873,254.696 97.763 C 254.586 97.653,254.373 98.219,254.222 99.022 M253.461 106.292 C 253.321 107.781,253.241 118.000,253.285 129.000 L 253.364 149.000 253.582 126.400 C 253.702 113.970,253.782 103.751,253.759 103.692 C 253.736 103.632,253.602 104.802,253.461 106.292 M211.062 109.293 C 210.921 111.112,210.840 121.690,210.883 132.800 L 210.961 153.000 211.187 129.600 C 211.311 116.730,211.392 106.152,211.366 106.093 C 211.341 106.034,211.204 107.474,211.062 109.293 M252.860 156.450 C 252.827 157.028,252.711 158.108,252.601 158.850 L 252.403 160.200 252.824 158.857 C 253.055 158.119,253.172 157.039,253.082 156.457 L 252.920 155.400 252.860 156.450 M210.256 156.884 C 210.121 157.388,210.027 158.160,210.046 158.600 C 210.065 159.040,210.245 158.698,210.446 157.840 C 210.836 156.178,210.670 155.340,210.256 156.884 M251.800 163.600 C 251.648 164.291,251.607 164.941,251.709 165.042 C 251.811 165.144,252.009 164.653,252.150 163.950 C 252.483 162.283,252.160 161.960,251.800 163.600 M251.029 167.429 C 250.881 168.015,250.838 168.572,250.932 168.666 C 251.027 168.760,251.224 168.358,251.371 167.771 C 251.519 167.185,251.562 166.628,251.468 166.534 C 251.373 166.440,251.176 166.842,251.029 167.429 M205.144 171.500 C 203.993 172.889,203.506 173.600,203.704 173.600 C 203.814 173.600,204.386 172.970,204.973 172.200 C 206.063 170.771,206.195 170.232,205.144 171.500 M189.000 181.600 C 187.911 181.877,187.893 181.907,188.800 181.925 C 189.350 181.935,190.160 181.789,190.600 181.600 C 191.586 181.176,190.666 181.176,189.000 181.600 M175.860 182.700 C 175.758 182.865,176.962 182.951,178.537 182.891 C 183.682 182.694,184.276 182.536,180.124 182.467 C 177.882 182.430,175.963 182.535,175.860 182.700 M237.381 193.700 L 235.800 195.400 237.500 193.819 C 239.081 192.348,239.384 192.000,239.081 192.000 C 239.016 192.000,238.251 192.765,237.381 193.700 M232.800 198.001 C 230.251 200.320,230.215 200.381,230.978 201.084 C 231.727 201.773,231.735 201.772,231.211 201.078 C 230.720 200.428,230.923 200.120,233.233 197.997 C 234.645 196.699,235.710 195.637,235.600 195.636 C 235.490 195.635,234.230 196.700,232.800 198.001 M233.200 203.000 C 233.946 203.770,234.647 204.400,234.757 204.400 C 234.867 204.400,234.346 203.770,233.600 203.000 C 232.854 202.230,232.153 201.600,232.043 201.600 C 231.933 201.600,232.454 202.230,233.200 203.000 M236.034 205.447 C 236.565 206.133,237.080 206.623,237.179 206.535 C 237.277 206.447,236.843 205.886,236.213 205.288 L 235.069 204.200 236.034 205.447 M185.800 218.400 C 187.492 218.831,188.944 218.831,187.600 218.400 C 187.050 218.224,186.150 218.083,185.600 218.087 C 184.702 218.094,184.722 218.126,185.800 218.400 M189.633 218.944 C 189.725 219.023,190.340 219.208,191.000 219.356 C 191.876 219.552,192.038 219.515,191.600 219.218 C 191.060 218.853,189.232 218.598,189.633 218.944 M202.200 225.600 C 203.283 226.700,204.260 227.600,204.370 227.600 C 204.480 227.600,203.683 226.700,202.600 225.600 C 201.517 224.500,200.540 223.600,200.430 223.600 C 200.320 223.600,201.117 224.500,202.200 225.600 M250.806 232.633 C 250.809 233.055,250.995 233.670,251.218 234.000 C 251.515 234.438,251.552 234.276,251.356 233.400 C 251.027 231.929,250.798 231.610,250.806 232.633 M251.680 236.200 C 251.680 236.640,251.824 237.450,252.000 238.000 C 252.254 238.792,252.320 238.833,252.320 238.200 C 252.320 237.760,252.176 236.950,252.000 236.400 C 251.746 235.608,251.680 235.567,251.680 236.200 M252.681 243.200 C 252.806 244.410,252.974 245.475,253.054 245.567 C 253.335 245.887,253.117 242.991,252.787 242.000 C 252.571 241.354,252.534 241.780,252.681 243.200 M210.046 242.400 C 210.027 242.950,210.187 243.670,210.400 244.000 C 210.894 244.764,210.894 243.942,210.400 242.400 L 210.080 241.400 210.046 242.400 M210.916 268.200 C 210.910 279.420,211.016 289.950,211.152 291.600 C 211.289 293.250,211.349 284.610,211.288 272.400 C 211.226 260.190,211.120 249.660,211.052 249.000 C 210.984 248.340,210.923 256.980,210.916 268.200 M253.311 272.400 C 253.288 283.510,253.389 293.500,253.535 294.600 C 253.784 296.480,253.723 259.143,253.469 254.400 C 253.404 253.190,253.333 261.290,253.311 272.400 M211.640 299.433 C 211.662 300.295,211.833 301.450,212.021 302.000 C 212.242 302.648,212.280 302.155,212.131 300.600 C 211.863 297.820,211.582 297.151,211.640 299.433 M254.068 300.200 C 254.074 300.640,254.224 301.450,254.400 302.000 L 254.720 303.000 254.732 302.000 C 254.738 301.450,254.589 300.640,254.400 300.200 L 254.056 299.400 254.068 300.200 M212.406 305.433 C 212.409 305.855,212.595 306.470,212.818 306.800 C 213.115 307.238,213.152 307.076,212.956 306.200 C 212.627 304.729,212.398 304.410,212.406 305.433 M213.256 309.600 C 213.256 309.930,213.411 310.560,213.600 311.000 C 213.817 311.504,213.944 311.578,213.944 311.200 C 213.944 310.870,213.789 310.240,213.600 309.800 C 213.383 309.296,213.256 309.222,213.256 309.600 M261.015 321.900 C 262.356 323.985,262.800 324.577,262.800 324.280 C 262.800 323.896,260.755 320.800,260.501 320.800 C 260.395 320.800,260.626 321.295,261.015 321.900 M218.428 325.800 C 218.428 326.020,218.686 326.650,219.000 327.200 C 219.314 327.750,219.572 328.020,219.572 327.800 C 219.572 327.580,219.314 326.950,219.000 326.400 C 218.686 325.850,218.428 325.580,218.428 325.800 M220.015 329.400 C 220.017 329.620,220.386 330.250,220.836 330.800 C 221.379 331.464,221.515 331.531,221.240 331.000 C 220.566 329.695,220.012 328.972,220.015 329.400 M269.400 331.968 C 269.840 332.477,271.010 333.426,272.000 334.076 C 273.776 335.244,273.332 334.810,270.200 332.317 C 269.130 331.465,268.865 331.349,269.400 331.968 M223.222 335.000 C 223.227 335.529,224.342 336.991,224.569 336.765 C 224.666 336.668,224.402 336.141,223.982 335.594 C 223.561 335.047,223.220 334.780,223.222 335.000 M227.200 340.925 C 227.200 340.994,227.773 341.579,228.474 342.225 L 229.749 343.400 228.774 342.122 C 227.947 341.037,227.200 340.469,227.200 340.925 M233.400 347.600 C 235.150 349.360,236.671 350.800,236.781 350.800 C 236.891 350.800,235.550 349.360,233.800 347.600 C 232.050 345.840,230.529 344.400,230.419 344.400 C 230.309 344.400,231.650 345.840,233.400 347.600 M237.324 351.077 C 237.660 351.621,240.800 354.155,240.800 353.882 C 240.800 353.780,239.953 353.003,238.919 352.155 C 237.884 351.307,237.166 350.822,237.324 351.077 M250.400 360.364 C 250.950 360.814,251.580 361.183,251.800 361.185 C 252.228 361.188,251.505 360.634,250.200 359.960 C 249.669 359.685,249.736 359.821,250.400 360.364 M252.400 361.396 C 252.400 361.670,254.849 362.884,255.032 362.701 C 255.119 362.614,254.562 362.244,253.795 361.878 C 253.028 361.512,252.400 361.295,252.400 361.396 M280.400 370.506 C 280.400 370.857,279.995 371.222,279.500 371.318 L 278.600 371.491 279.513 371.546 C 280.392 371.598,281.162 370.629,280.649 370.116 C 280.512 369.979,280.400 370.154,280.400 370.506 M276.000 370.800 C 276.330 371.013,276.870 371.188,277.200 371.188 C 277.733 371.188,277.733 371.145,277.200 370.800 C 276.870 370.587,276.330 370.412,276.000 370.412 C 275.467 370.412,275.467 370.455,276.000 370.800 " stroke="none" fill="#aaafb2" fill-rule="evenodd"></path></g></svg>